<?xml version="1.0" encoding="UTF-8"?>
<svg version="1.1" xmlns="http://www.w3.org/2000/svg" width="512" height="512">
<path d="M0 0 C4.0572514 2.40727917 7.05409438 5.34058979 10.3530407 8.68457317 C11.04828759 9.3772568 11.74353449 10.06994042 12.45984948 10.78361446 C14.78390044 13.10273042 17.09707763 15.43239385 19.41044426 17.76216412 C21.07568827 19.42825446 22.74159338 21.09368426 24.40810966 22.75850201 C28.92881526 27.27834646 33.44020796 31.80738452 37.95000029 36.3381145 C42.1874375 40.59239905 46.4317873 44.83977115 50.67611195 49.08718178 C59.08090559 57.49853635 67.47898209 65.91656432 75.8728466 74.33882427 C84.02524897 82.51877646 92.18080576 90.69556232 100.34062004 98.86812115 C100.84384595 99.37213523 101.34707186 99.87614931 101.86554705 100.39543655 C104.3901796 102.9239843 106.91487424 105.45247004 109.43959975 107.98092496 C130.37457376 128.94698374 151.2985426 149.92400213 172.21562004 170.90791607 C175.06181109 169.61403901 177.11698269 168.25507992 179.32035637 166.04368877 C179.91106422 165.45572962 180.50177208 164.86777046 181.11038017 164.26199436 C181.74967964 163.61550497 182.38897911 162.96901558 183.04765129 162.3029356 C183.73428352 161.61660109 184.42091576 160.93026657 185.12835503 160.22313404 C187.43305208 157.91704558 189.73051783 155.60388425 192.02812004 153.29072857 C193.67692721 151.63808402 195.32618963 149.98589354 196.97587395 148.33412457 C200.52984985 144.77382081 204.08069304 141.21043167 207.62919426 137.64467144 C212.76310881 132.48604052 217.90309949 127.33350463 223.04508209 122.18291688 C231.39190001 113.82196489 239.73497338 105.45728771 248.07499504 97.08955669 C248.57410707 96.58878904 249.07321911 96.08802138 249.58745575 95.57207894 C253.13027663 92.0174571 256.67296387 88.46270207 260.21562004 84.90791607 C264.26240286 80.84727732 268.30924612 76.78669882 272.35624504 72.72627544 C272.85474779 72.22611644 273.35325054 71.72595744 273.86685944 71.2106421 C282.17582636 62.87431307 290.48871288 54.5419033 298.80441093 46.21228886 C304.39086768 40.61584869 309.97240654 35.01456263 315.5502758 29.40956402 C319.01736775 25.92758344 322.48857112 22.4497243 325.96092033 18.97298717 C327.57357158 17.35658269 329.18448843 15.73844576 330.79356194 14.11847973 C332.98566682 11.91200117 335.18381047 9.71172105 337.38358879 7.51289654 C338.02288826 6.86640715 338.66218773 6.21991776 339.32085991 5.55383778 C339.91156776 4.96587862 340.50227562 4.37791946 341.11088371 3.77214336 C341.61754066 3.26364283 342.12419762 2.75514229 342.64620781 2.23123264 C346.299282 -0.849012 349.46171469 -1.48447723 354.25858879 -1.34208393 C358.27648603 -0.82881961 360.56067952 1.34148103 363.52812004 3.90791607 C366.06028236 8.40953797 366.58261547 12.91287589 365.21562004 17.90791607 C360.9201602 23.56732887 355.70238098 28.56655078 350.68115044 33.57609844 C349.95520296 34.30431148 349.22925548 35.03252451 348.48130959 35.78280461 C346.06868914 38.20171268 343.6525523 40.61707595 341.23637199 43.03242779 C339.49781019 44.77398415 337.75945288 46.51574467 336.0212841 48.25769329 C331.803116 52.4837573 327.58258402 56.70744641 323.3607463 60.92984347 C319.93012456 64.36094166 316.50029632 67.79283107 313.07101822 71.22527218 C303.34017934 80.96490331 293.60726146 90.70244994 283.87164972 100.4373102 C283.34796022 100.96095975 282.82427072 101.48460929 282.28471184 102.02412701 C281.76038078 102.54841719 281.23604971 103.07270737 280.69582983 103.61288513 C272.18170964 112.12659809 263.67260041 120.64529997 255.16572545 129.16625176 C246.42296311 137.92336688 237.67648885 146.67675932 228.92611474 155.4262687 C224.01646328 160.33558806 219.10836613 165.24643854 214.20426178 170.16129971 C209.59845815 174.77714177 204.987527 179.38781562 200.3730526 183.99499226 C198.67817735 185.68881822 196.98501852 187.38436362 195.2936821 189.08172321 C192.99008032 191.39299851 190.6804438 193.69806747 188.36913872 196.00163555 C187.69686707 196.67905076 187.02459543 197.35646597 186.33195192 198.05440891 C185.7117436 198.67001843 185.09153528 199.28562795 184.45253277 199.91989231 C183.65397687 200.71877426 183.65397687 200.71877426 182.83928853 201.53379524 C179.21669182 204.59962156 176.14127164 205.15819069 171.41093254 205.36885357 C164.97771146 204.01810608 160.0895007 198.07394018 155.63609123 193.60927105 C154.89325284 192.8723749 154.15041444 192.13547875 153.38506579 191.37625241 C150.902261 188.91076301 148.42662742 186.4381995 145.9509716 183.96553326 C144.170487 182.19430882 142.38960855 180.42348021 140.60836601 178.653018 C135.77512796 173.84598759 130.94851202 169.03236691 126.12395382 164.21662712 C123.11013169 161.20833952 120.09484192 158.20152592 117.07929039 155.19497204 C108.72531821 146.86536984 100.37323091 138.53388784 92.02804756 130.19547939 C91.49462377 129.66249474 90.96119999 129.12951008 90.41161184 128.58037437 C89.87694577 128.04614486 89.34227971 127.51191535 88.79141164 126.96149707 C87.7080454 125.87901775 86.62467606 124.79654154 85.54130363 123.71406841 C85.00391999 123.17712763 84.46653635 122.64018684 83.91286835 122.08697513 C75.19893034 113.38093854 66.47156083 104.6885005 57.73833373 96.00181755 C48.765863 87.07678035 39.80469183 78.14052746 30.8547399 69.19290757 C25.83185404 64.17185427 20.80425259 59.15573459 15.76415062 54.15195751 C11.02588121 49.44771915 6.30323375 44.72834345 1.59073639 39.99826527 C-0.14151302 38.26447201 -1.87891005 36.53580438 -3.62176895 34.81267643 C-5.9995584 32.46023726 -8.35812624 30.09005392 -10.71278572 27.71449566 C-11.40712896 27.03626523 -12.1014722 26.3580348 -12.81685615 25.65925193 C-17.13452816 21.2513648 -18.92504939 18.0587749 -19.78437996 11.90791607 C-18.93672114 6.35104161 -17.09418893 3.48190399 -12.78437996 -0.09208393 C-8.28341894 -1.59240427 -4.45621372 -1.74780722 0 0 Z " fill="#ffffff" transform="translate(82.78437995910645,154.09208393096924)"/>
</svg>
