<?xml version="1.0" encoding="UTF-8"?>
<svg version="1.1" xmlns="http://www.w3.org/2000/svg" width="4096" height="4096">
<path d="M0 0 C2.68671742 -0.00343614 5.37340935 -0.00806174 8.06011975 -0.01412097 C13.90303437 -0.02491207 19.74586622 -0.02465398 25.58878466 -0.01704793 C34.33589671 -0.00571599 43.08293927 -0.01177203 51.83005063 -0.02111193 C66.74065258 -0.03652382 81.65122533 -0.03772593 96.56183243 -0.0311327 C111.66802286 -0.02450113 126.77419243 -0.02438478 141.88038254 -0.03217983 C143.31263759 -0.03291183 143.31263759 -0.03291183 144.77382709 -0.03365862 C148.66286451 -0.03566684 152.55190189 -0.03771995 156.44093925 -0.03983036 C195.90475445 -0.06122298 235.36855422 -0.06328626 274.83237376 -0.05777332 C280.28409999 -0.05701759 285.73582622 -0.05628997 291.18755245 -0.05559134 C292.27041523 -0.05545225 293.35327801 -0.05531316 294.46895481 -0.05516986 C318.47201507 -0.05221696 342.47507348 -0.05523096 366.47813341 -0.05948763 C369.76370077 -0.06006979 373.04926813 -0.06063864 376.33483549 -0.06120327 C385.14244304 -0.06271823 393.95005058 -0.06424514 402.75765812 -0.06579627 C464.23922649 -0.0765524 525.72079313 -0.08125545 587.20236206 -0.07332611 C588.36118519 -0.0731778 589.52000831 -0.0730295 590.71394729 -0.0728767 C603.63593777 -0.07121771 616.55792823 -0.06946813 629.47991869 -0.06768369 C630.64657523 -0.06752266 631.81323177 -0.06736164 633.01524153 -0.06719574 C642.48303981 -0.06588803 642.48303981 -0.06588803 647.16939001 -0.06523455 C721.79537094 -0.05484289 796.42132829 -0.06261009 871.04730606 -0.086236 C889.85153448 -0.09217944 908.65576292 -0.09807102 927.45999146 -0.10364532 C928.61785235 -0.1039891 929.77571324 -0.10433287 930.96866082 -0.10468705 C966.65558288 -0.11521499 1002.34250296 -0.12080844 1038.02942657 -0.12120247 C1039.14986593 -0.12121525 1040.27030528 -0.12122803 1041.42469735 -0.1212412 C1066.02109898 -0.1214695 1090.61750045 -0.12046337 1115.21390199 -0.11833215 C1124.01489424 -0.11757739 1132.81588649 -0.11689918 1141.61687875 -0.116252 C1143.80632298 -0.11608931 1145.99576721 -0.11592164 1148.18521143 -0.11574898 C1183.06665202 -0.11302819 1217.94807829 -0.12158036 1252.8295158 -0.13560309 C1288.93817995 -0.15001274 1325.04681689 -0.14955814 1361.15548012 -0.13222837 C1365.03436704 -0.1304242 1368.91325399 -0.12868401 1372.79214096 -0.12699413 C1374.22004632 -0.12636338 1374.22004632 -0.12636338 1375.67679825 -0.12571989 C1390.73949888 -0.11942631 1405.80216205 -0.12651972 1420.8648574 -0.13920333 C1435.68214919 -0.15139689 1450.49938197 -0.14926617 1465.31666931 -0.13198302 C1473.9989331 -0.12227957 1482.68102908 -0.12341687 1491.36328181 -0.140813 C1497.13802827 -0.1512824 1502.91264748 -0.14710486 1508.68738141 -0.13129651 C1511.95545519 -0.12275121 1515.22313663 -0.12240141 1518.49120398 -0.13568023 C1539.38555119 -0.21470552 1558.36026971 1.9257306 1577.59906387 10.38031673 C1578.25326309 10.66358822 1578.90746231 10.9468597 1579.58148575 11.23871517 C1596.88870028 18.8792172 1610.56815765 30.74059204 1623.78112125 44.05621624 C1625.13265441 45.40326063 1626.48506013 46.74943001 1627.83824524 48.0948149 C1631.52758933 51.76787866 1635.20453959 55.45312712 1638.87944638 59.14062766 C1642.88979242 63.16026831 1646.91176735 67.16824655 1650.93222588 71.17776799 C1657.9682778 78.19787196 1664.99689991 85.22534583 1672.0206337 92.2577734 C1679.55124836 99.79768413 1687.08610869 107.33330661 1694.62629128 114.86364651 C1695.10383868 115.34057674 1695.58138609 115.81750698 1696.07340463 116.30888965 C1698.0186285 118.25157186 1699.96388243 120.19422395 1701.90917468 122.13683768 C1721.62196159 141.82250832 1741.32192105 161.52097809 1761.01687109 181.2244921 C1763.73506993 183.94386401 1766.45328875 186.66321596 1769.1715281 189.38254738 C1769.71147963 189.92271605 1770.25143117 190.46288472 1770.80774487 191.01942214 C1782.78876057 203.00507603 1794.7738107 214.98669233 1806.75970975 226.96746252 C1808.40145412 228.60850455 1810.04318981 230.24955525 1811.68492292 231.89060854 C1816.08613221 236.28999233 1820.48735154 240.68936607 1824.88858891 245.08872176 C1855.59981953 275.78691186 1886.30707921 306.48906979 1917.00595188 337.19961834 C1917.87338328 338.06737757 1917.87338328 338.06737757 1918.75833855 338.9526673 C1925.20646845 345.40324227 1931.65453592 351.85387965 1938.10257814 358.30454227 C1938.68471259 358.88691326 1939.26684704 359.46928426 1939.86662193 360.06930285 C1942.22081036 362.42444866 1944.5749987 364.77959455 1946.92918321 367.13474428 C1984.17069876 404.39150918 2021.42381918 441.63663077 2058.68719864 478.87152767 C2068.07884908 488.25601325 2077.47046846 497.64052991 2086.86189365 507.0252409 C2087.44019585 507.60312888 2088.01849805 508.18101686 2088.61432456 508.77641659 C2106.44214548 526.59155056 2124.26687374 544.40977398 2142.08833218 562.2312727 C2142.64796136 562.79090269 2143.20759055 563.35053268 2143.7841782 563.92712115 C2156.07005156 576.21307871 2168.3551469 588.49981401 2180.63953515 600.7872565 C2185.03514332 605.18394852 2189.43079776 609.58059426 2193.82647001 613.97722222 C2194.91994871 615.070941 2196.01342425 616.16466294 2197.10689663 617.25838805 C2214.51552858 634.67101027 2231.9311284 652.0766428 2249.35011693 669.4789041 C2267.38311858 687.49472582 2285.40675934 705.51986531 2303.4198762 723.55556938 C2305.35616111 725.49421073 2307.29248581 727.43281233 2309.22884178 729.37138271 C2309.70403751 729.84712914 2310.17923323 730.32287558 2310.66882882 730.81303857 C2318.6341353 738.78710023 2326.609261 746.75128363 2334.58704799 754.71286031 C2341.53411881 761.64720215 2348.47203833 768.59061146 2355.40262811 775.54142524 C2359.35004659 779.49985538 2363.30124747 783.4542891 2367.26362661 787.39774844 C2370.87463612 790.99168101 2374.47375751 794.59710425 2378.06409609 798.21168377 C2379.35062803 799.50292328 2380.6412749 800.79008076 2381.93671465 802.0723833 C2397.38565222 817.37557194 2408.8249924 834.7660543 2415.91156387 855.38031673 C2416.14206436 856.04273373 2416.37256485 856.70515072 2416.6100502 857.38764095 C2417.35845939 859.7013055 2417.9813613 862.02806146 2418.59906387 864.38031673 C2418.85411597 865.32284408 2419.10916807 866.26537143 2419.37194902 867.23646021 C2422.58471073 881.31693656 2422.01434595 895.68696018 2421.96586245 910.04336708 C2421.95547349 914.11693813 2421.96268853 918.19048628 2421.96759492 922.2640624 C2421.97379143 929.39150503 2421.96892727 936.51887222 2421.9566803 943.64630604 C2421.93852053 954.24440336 2421.93767795 964.84245348 2421.94030626 975.44056353 C2421.94424157 993.27117823 2421.93424806 1011.10175949 2421.91625404 1028.93236446 C2421.89848926 1046.58113934 2421.88695344 1064.22990029 2421.8836956 1081.87868404 C2421.88348938 1082.97695721 2421.88328316 1084.07523037 2421.8830707 1085.20678454 C2421.88205567 1090.7845968 2421.88115153 1096.36240908 2421.88029007 1101.94022137 C2421.87399262 1141.42465716 2421.8537911 1180.90907477 2421.82538223 1220.39350033 C2421.79781918 1258.74668945 2421.77657311 1297.09987359 2421.7638588 1335.45307064 C2421.76346422 1336.63575256 2421.76306964 1337.81843448 2421.7626631 1339.03695524 C2421.75870747 1350.91417743 2421.75488004 1362.79139966 2421.75114652 1374.66862191 C2421.74353835 1398.86284435 2421.73507459 1423.05706645 2421.72609329 1447.25128841 C2421.72568142 1448.36364449 2421.72526955 1449.47600057 2421.7248452 1450.6220644 C2421.69725372 1524.87482274 2421.64971935 1599.127571 2421.59906387 1673.38031673 C2422.73819229 1673.82468075 2422.73819229 1673.82468075 2423.9003334 1674.27802181 C2436.71160622 1679.51077889 2448.33727284 1688.01345621 2459.82172012 1695.59125423 C2465.11543755 1699.08035549 2470.4707601 1702.4611717 2475.84906387 1705.81781673 C2481.63263217 1709.44327532 2487.26651671 1713.16790587 2492.73578262 1717.25922298 C2496.45506038 1720.01443147 2500.24659927 1722.66111368 2504.03656387 1725.31781673 C2510.99292714 1730.21122691 2517.84069611 1735.21538527 2524.59906387 1740.38031673 C2525.632892 1741.16922298 2526.66672012 1741.95812923 2527.73187637 1742.77094173 C2542.58903277 1754.13983752 2557.25115024 1765.71975754 2571.41424942 1777.94745541 C2574.85939956 1780.91527395 2578.35178395 1783.79977852 2581.91156387 1786.63031673 C2588.45887218 1791.93789802 2594.49073617 1797.79034253 2600.59515762 1803.59516048 C2603.58800579 1806.43805384 2606.62458397 1809.21589535 2609.72406387 1811.94281673 C2614.75928982 1816.41761513 2619.45999131 1821.21111804 2624.19525528 1825.99799252 C2627.92305955 1829.75245796 2631.72087092 1833.31969078 2635.77338028 1836.72455502 C2637.6255981 1838.40438134 2639.2037881 1840.16342331 2640.81781387 1842.07172298 C2644.54777726 1846.38634333 2648.52919902 1850.38841865 2652.59906387 1854.38031673 C2657.24399517 1858.93626468 2661.70891591 1863.55614952 2665.95550919 1868.48725033 C2668.38945711 1871.29070134 2670.93437171 1873.9855502 2673.47406387 1876.69281673 C2678.01254911 1881.56617223 2682.29255185 1886.58335651 2686.46234512 1891.77875423 C2688.55788881 1894.33018402 2690.73869542 1896.76358447 2692.97406387 1899.19281673 C2696.95589974 1903.56732499 2700.6164847 1908.12560748 2704.23797989 1912.79682064 C2707.19951871 1916.61346242 2710.21866217 1920.37243391 2713.29144669 1924.1000433 C2720.48698398 1932.83965008 2727.24500716 1941.8580316 2733.88910294 1951.0219183 C2735.52465927 1953.27769703 2737.1666614 1955.52864258 2738.81000137 1957.77875423 C2750.84315242 1974.29811939 2762.72287648 1990.93214904 2773.36859512 2008.38617611 C2774.68424811 2010.51836929 2776.02838988 2012.63031991 2777.38031387 2014.73969173 C2785.49537342 2027.40664054 2793.14497533 2040.31436721 2800.59906387 2053.38031673 C2801.19638321 2054.42252377 2801.79370255 2055.4647308 2802.40912247 2056.53851986 C2834.8864555 2113.45415616 2860.89708321 2173.34585542 2881.91211319 2235.35523129 C2882.55128607 2237.23947092 2883.19487058 2239.12221245 2883.83880997 2241.00482845 C2908.0280937 2312.11040708 2922.40310098 2386.74297122 2929.84906387 2461.38031673 C2929.92628677 2462.13937313 2930.00350967 2462.89842953 2930.08307266 2463.68048763 C2933.19200686 2494.68681175 2933.9775883 2525.69109458 2933.91691971 2556.83126354 C2933.91147628 2559.73961422 2933.90911133 2562.64795674 2933.90704727 2565.55631161 C2933.87656298 2593.12691654 2933.47505847 2620.54211488 2930.82367325 2648.00562191 C2930.59508842 2650.42234742 2930.38358597 2652.84001874 2930.17718887 2655.2587347 C2922.24749459 2747.88222573 2900.60282717 2840.09447522 2858.59906387 2948.38031673 C2858.09955215 2949.58591244 2857.60004044 2950.79150814 2857.085392 2952.03363705 C2841.0763798 2990.45318452 2823.28127518 3028.7101719 2802.1972084 3064.63715267 C2800.43934356 3067.65447156 2798.71864776 3070.69126556 2797.00140762 3073.73187923 C2789.26526305 3087.38212262 2781.07582137 3100.62247299 2772.38373184 3113.68256283 C2770.10437568 3117.12810121 2767.87178822 3120.60258871 2765.6388588 3124.07831478 C2751.36500467 3146.25574744 2735.8170604 3167.58868747 2719.59906387 3188.38031673 C2719.18124649 3188.91898373 2718.76342911 3189.45765072 2718.33295059 3190.01264095 C2704.48864918 3207.85998858 2690.08547879 3225.30389289 2674.81390762 3241.95062923 C2672.9589957 3243.98547089 2671.14477589 3246.0435292 2669.34906387 3248.13031673 C2660.95843609 3257.761812 2652.10292651 3266.97348179 2643.0138588 3275.94403744 C2639.60287693 3279.32548243 2636.41930041 3282.82547257 2633.31610489 3286.49335384 C2631.61040507 3288.36785319 2629.83408036 3289.97160034 2627.89984512 3291.60687923 C2623.58753335 3295.33390989 2619.58839476 3299.31306923 2615.59906387 3303.38031673 C2611.04311593 3308.02524803 2606.42323108 3312.49016877 2601.49213028 3316.73676205 C2598.68867927 3319.17070997 2595.99383041 3321.71562457 2593.28656387 3324.25531673 C2588.41800637 3328.78933367 2583.40574223 3333.06524455 2578.21625137 3337.23187923 C2575.58064774 3339.39543446 2573.05483012 3341.64421234 2570.53656387 3343.94281673 C2566.60389255 3347.51797249 2562.56670922 3350.88922939 2558.39203262 3354.17719173 C2556.36169052 3355.7787483 2554.34501518 3357.39149457 2552.33734512 3359.02094173 C2541.9656815 3367.42168848 2531.31487829 3375.42550657 2520.59906387 3383.38031673 C2519.77793106 3383.99229916 2518.95679825 3384.60428158 2518.11078262 3385.23480892 C2507.43209538 3393.19273016 2496.64157168 3400.93538102 2485.59906387 3408.38031673 C2485.00770645 3408.7813763 2484.41634903 3409.18243587 2483.80707169 3409.59564877 C2468.10064152 3420.24208495 2452.09918048 3430.50658443 2435.73920059 3440.12103939 C2434.17389011 3441.04208337 2432.61070705 3441.96674557 2431.0487709 3442.89350033 C2375.9576733 3475.57400615 2317.95714965 3503.20594737 2257.59015274 3524.67194271 C2256.20763725 3525.16380326 2254.8255896 3525.65698 2253.44391251 3526.15119076 C2225.49991922 3536.14334007 2197.27713733 3544.75061855 2168.59906387 3552.38031673 C2167.84423721 3552.58143063 2167.08941055 3552.78254452 2166.31171036 3552.98975277 C2103.08963075 3569.75983588 2037.84665939 3579.42940365 1972.59906387 3583.38031673 C1971.33268858 3583.46366145 1970.06631328 3583.54700616 1968.76156297 3583.63287647 C1953.08947423 3584.59024052 1937.41122361 3584.52545356 1921.71729869 3584.51543902 C1917.51496314 3584.51388058 1913.31263252 3584.51816829 1909.11029869 3584.52166578 C1901.73232338 3584.52701256 1894.35435442 3584.52868618 1886.97637731 3584.52791504 C1875.93126258 3584.52677499 1864.8861552 3584.53137529 1853.84104213 3584.53704588 C1835.01342134 3584.54653693 1816.18580204 3584.55126119 1797.35817909 3584.55335522 C1778.28355867 3584.55548601 1759.20894054 3584.55975154 1740.13432121 3584.56659794 C1738.32586548 3584.56724386 1738.32586548 3584.56724386 1736.48087528 3584.56790283 C1731.57034799 3584.56966124 1726.6598207 3584.57143089 1721.74929342 3584.57321585 C1662.96495281 3584.59454218 1604.18061191 3584.60548576 1545.39626847 3584.61437809 C1525.42121791 3584.61740331 1505.44616745 3584.62086426 1485.47111702 3584.6246593 C1484.79077966 3584.62478842 1484.11044229 3584.62491753 1483.40948865 3584.62505056 C1477.21610323 3584.62622612 1471.0227178 3584.6274053 1464.82933238 3584.62858782 C1394.84726664 3584.64194185 1324.86520053 3584.65433395 1182.33449573 3584.66934685 C1175.68167724 3584.66987131 1169.02885876 3584.67040862 1162.37604027 3584.67094532 C1160.15432922 3584.67112452 1157.93261817 3584.67130349 1155.71090712 3584.67148241 C1141.59742157 3584.67261945 1127.48393602 3584.67376553 1113.37045048 3584.67493061 C1109.64690181 3584.67523792 1105.92335314 3584.67554385 1102.19980447 3584.67584651 C1031.8651356 3584.68156707 961.53047035 3584.69081505 891.1958046 3584.71326351 C890.45519886 3584.71349974 889.71459313 3584.71373597 888.95154479 3584.71397935 C865.06604956 3584.72160757 841.18055446 3584.72965625 817.29505939 3584.73776462 C794.29474785 3584.74557237 771.29443629 3584.75329585 748.2941246 3584.76065445 C747.19740538 3584.76100558 747.19740538 3584.76100558 746.07853022 3584.76136381 C700.2837216 3584.77600208 654.48891396 3584.78580264 608.69410324 3584.79052925 C607.98675192 3584.79060285 607.27940059 3584.79067644 606.55061438 3584.79075227 C575.48475812 3584.79397831 544.41890188 3584.79614668 513.35304547 3584.79713527 C500.85521177 3584.79753607 488.35737807 3584.79806946 475.85954438 3584.7986667 C473.78739876 3584.79876416 471.71525313 3584.79885655 469.64310751 3584.79894807 C437.9573976 3584.80037633 406.27169232 3584.80494075 374.58598518 3584.81882405 C373.90296014 3584.81912312 373.21993509 3584.81942219 372.51621231 3584.81973033 C361.52948233 3584.82455864 350.54275247 3584.8296406 339.55602263 3584.83475633 C294.52029051 3584.85571895 249.4845721 3584.86433402 204.44883432 3584.85463147 C198.32049175 3584.85331301 192.19214915 3584.85213497 186.06380653 3584.85104084 C184.86248764 3584.85082099 183.66116875 3584.85060114 182.42344626 3584.85037463 C163.40002383 3584.84726007 144.37663338 3584.85758773 125.35321836 3584.87351639 C106.64857352 3584.88889947 87.94397293 3584.89002147 69.23932655 3584.87596816 C58.27346595 3584.86815738 47.30774056 3584.87127297 36.34189347 3584.89060532 C29.05498442 3584.90235655 21.76817396 3584.89954052 14.48127022 3584.88499068 C10.35319906 3584.87715277 6.22539208 3584.87537806 2.0973394 3584.89160971 C-20.60226966 3584.97499781 -41.38962412 3583.61384487 -62.40093613 3574.38031673 C-63.05513535 3574.09704525 -63.70933456 3573.81377377 -64.383358 3573.5219183 C-94.47843096 3560.23604462 -118.18512202 3534.65875388 -130.27202988 3504.18402767 C-131.12257597 3501.92733683 -131.92942683 3499.66093627 -132.71343613 3497.38031673 C-132.94393661 3496.71789974 -133.1744371 3496.05548275 -133.41192245 3495.37299252 C-138.39918291 3479.95515978 -138.83208677 3464.91615974 -138.77813429 3448.87173581 C-138.78123811 3446.49674334 -138.785656 3444.12175229 -138.79125908 3441.7467644 C-138.80043624 3436.58016321 -138.80036477 3431.41364837 -138.79204984 3426.24704932 C-138.7796296 3418.49008116 -138.78473432 3410.73318921 -138.79307894 3402.97621908 C-138.80686164 3389.69331889 -138.80642345 3376.41045299 -138.7983008 3363.12754968 C-138.79008605 3349.59631663 -138.78848433 3336.06510619 -138.79478193 3322.53387186 C-138.7951773 3321.67545195 -138.79557268 3320.81703203 -138.79598003 3319.9325994 C-138.79802761 3315.54949525 -138.80017893 3311.16639115 -138.80236479 3306.78328707 C-138.81809687 3274.77579128 -138.81898742 3242.76830813 -138.81238556 3210.7608099 C-138.80573705 3178.31640712 -138.80560272 3145.87201398 -138.81343269 3113.42761135 C-138.81367646 3112.40456702 -138.81392022 3111.38152269 -138.81417138 3110.32747702 C-138.81640576 3100.95198237 -138.81870525 3091.57648773 -138.82108322 3082.20099312 C-138.82703714 3058.69020722 -138.83192844 3035.17942117 -138.83609593 3011.66863489 C-138.83628728 3010.59124368 -138.83647863 3009.51385247 -138.83667579 3008.40381304 C-138.84600706 2955.28308856 -138.84382789 2902.16236523 -138.84038734 2849.04164028 C-138.84031289 2847.89015062 -138.84023843 2846.73866096 -138.84016172 2845.55227768 C-138.83985989 2840.89046874 -138.8395572 2836.2286598 -138.83925379 2831.56685086 C-138.83841695 2818.6895321 -138.83761103 2805.81221333 -138.83684421 2792.93489456 C-138.83677433 2791.77227653 -138.83670445 2790.6096585 -138.83663246 2789.41180962 C-138.8334274 2735.55118764 -138.83656962 2681.69056666 -138.841032 2627.82994484 C-138.84151584 2621.95533181 -138.84198585 2616.08071878 -138.84245613 2610.20610574 C-138.84321207 2600.77713167 -138.84397031 2591.3481576 -138.84473305 2581.91918353 C-138.8448276 2580.74996162 -138.84492215 2579.58073972 -138.84501957 2578.37608685 C-138.84549828 2572.46352497 -138.84597972 2566.5509631 -138.84646568 2560.63840122 C-138.85100018 2505.45829632 -138.85449853 2450.27819139 -138.85696888 2395.09808636 C-138.85702299 2393.89577937 -138.85707709 2392.69347238 -138.85713284 2391.45473185 C-138.86061565 2313.58104064 -138.85925882 2235.7073503 -138.85457897 2157.83365917 C-138.85442908 2155.32149152 -138.85427928 2152.80932387 -138.85412956 2150.29715622 C-138.85247296 2122.56302183 -138.85072131 2094.82888744 -138.84893655 2067.09475306 C-138.84885605 2065.84286051 -138.84877555 2064.59096797 -138.84869261 2063.30113929 C-138.84844855 2059.50594398 -138.84820435 2055.71074868 -138.84796009 2051.91555338 C-138.84787946 2050.66264567 -138.84779883 2049.40973795 -138.84771576 2048.11886334 C-138.84730807 2041.78819178 -138.84689898 2035.45752022 -138.84648741 2029.12684865 C-138.83830818 1903.19037282 -138.83643695 1777.25390186 -138.86692872 1552.35546614 C-138.87306795 1510.72456029 -138.87915034 1469.09365444 -138.88489819 1427.46274853 C-138.8850702 1426.21990635 -138.88524222 1424.97706417 -138.88541944 1423.69656011 C-138.89617844 1345.86761322 -138.90206511 1268.0386673 -138.90245533 1190.20971966 C-138.90246185 1189.00778328 -138.90246836 1187.8058469 -138.90247507 1186.56748821 C-138.90275657 1132.59891302 -138.90176549 1078.63033792 -138.89958501 1024.66176278 C-138.89882552 1005.78611168 -138.89815155 986.91046058 -138.89750486 968.03480947 C-138.89734362 963.33888431 -138.89717552 958.64295915 -138.89700184 953.94703399 C-138.89502693 900.085702 -138.89584288 846.22437224 -138.90530658 792.36304092 C-138.90551019 791.20131538 -138.90571381 790.03958984 -138.90592359 788.84266049 C-138.90921119 770.15465674 -138.91270535 751.46665304 -138.91620483 732.77864934 C-138.92612311 679.73286242 -138.93378026 626.68707892 -138.92703831 573.64129114 C-138.92690222 572.56512976 -138.92676613 571.48896837 -138.92662592 570.38019604 C-138.92361237 546.90282586 -138.9194575 523.42545602 -138.9141816 499.94808624 C-138.91209347 490.58493297 -138.91014865 481.22177967 -138.90824699 471.85862637 C-138.90803551 470.83726229 -138.90782403 469.81589822 -138.90760613 468.76358371 C-138.90096416 436.36194668 -138.90659002 403.96032739 -138.91929835 371.55869259 C-138.93175784 339.65604128 -138.93206843 307.75341621 -138.91467469 275.85076638 C-138.91229378 271.48101308 -138.91005203 267.11125972 -138.90789355 262.74150631 C-138.90746555 261.88604354 -138.90703756 261.03058078 -138.9065966 260.1491949 C-138.90021292 246.6636585 -138.90715839 233.17816398 -138.91981686 219.6926334 C-138.93192997 206.4966556 -138.9298352 193.30074386 -138.91254937 180.10477112 C-138.90289236 172.40985126 -138.90399836 164.71512128 -138.92151169 157.0202142 C-138.93327516 151.31254285 -138.92404969 145.60505536 -138.90684999 139.89740488 C-138.90316115 137.61485857 -138.90608238 135.33228883 -138.91665412 133.04976402 C-139.00278897 113.08212177 -136.47296803 94.74859139 -128.40093613 76.38031673 C-128.11766464 75.72611752 -127.83439316 75.0719183 -127.54253769 74.39789486 C-114.25666402 44.3028219 -88.67937327 20.59613084 -58.20464706 8.50922298 C-55.94795622 7.65867689 -53.68155567 6.85182603 -51.40093613 6.06781673 C-50.40731064 5.722066 -50.40731064 5.722066 -49.39361191 5.36933041 C-33.03817159 0.07877873 -17.02221226 -0.04822042 0 0 Z M117.59906387 256.38031673 C117.59906387 1270.14031673 117.59906387 2283.90031673 117.59906387 3328.38031673 C484.88906387 3328.38031673 852.17906387 3328.38031673 1230.59906387 3328.38031673 C1226.6109354 3323.49078002 1226.6109354 3323.49078002 1222.22406387 3319.38031673 C1212.37759208 3310.96167606 1203.06198363 3301.94135945 1193.96503067 3292.72479916 C1190.85350634 3289.5860277 1187.66874593 3286.65915471 1184.25140762 3283.86273861 C1182.46204123 3282.25738508 1180.95708777 3280.54661676 1179.40375137 3278.71234798 C1175.66499728 3274.39079678 1171.67678023 3270.37991592 1167.59906387 3266.38031673 C1162.95413257 3261.82436879 1158.48921184 3257.20448395 1154.24261856 3252.27338314 C1151.80867064 3249.46993213 1149.26375604 3246.77508327 1146.72406387 3244.06781673 C1142.18557864 3239.19446124 1137.9055759 3234.17727696 1133.73578262 3228.98187923 C1131.64023894 3226.43044945 1129.45943233 3223.997049 1127.22406387 3221.56781673 C1123.24644702 3217.19794355 1119.59029793 3212.64422137 1115.97113419 3207.97919369 C1112.37440448 3203.34638181 1108.69008899 3198.79280174 1104.97406387 3194.25531673 C1099.67208148 3187.75660999 1094.53836863 3181.16040462 1089.59906387 3174.38031673 C1088.8804921 3173.39490902 1088.8804921 3173.39490902 1088.14740372 3172.38959408 C1076.65279457 3156.59927301 1065.30275097 3140.71972051 1054.59906387 3124.38031673 C1053.96001114 3123.40723568 1053.96001114 3123.40723568 1053.30804825 3122.41449642 C1009.47478079 3055.56064628 973.10148128 2983.72201984 946.3074379 2908.3714056 C945.81557735 2906.98889011 945.3224006 2905.60684247 944.82818985 2904.22516537 C915.86121302 2823.21626723 897.15553406 2738.54485462 889.8119545 2652.80255795 C889.60208886 2650.41473462 889.37639324 2648.02892878 889.14593887 2645.64301205 C883.62271771 2587.7309687 883.94101855 2527.26447958 889.59906387 2469.38031673 C889.77261772 2467.54212078 889.94595238 2465.70390412 890.1190834 2463.8656683 C898.5360574 2375.79442677 917.99962766 2289.37571176 985.09662247 2119.55707455 C986.55211214 2116.47959135 987.99292291 2113.39561051 989.43109512 2110.31000423 C995.21021633 2097.98045917 1001.47588193 2085.99791504 1008.09613419 2074.10101986 C1009.5838574 2071.4078445 1011.04497545 2068.70199132 1012.49750137 2065.98969173 C1031.44763252 2030.66266785 1053.42327379 1997.05994193 1076.59906387 1964.38031673 C1077.14707657 1963.60655697 1077.69508926 1962.8327972 1078.2597084 1962.03559017 C1089.94829751 1945.57249172 1102.37820578 1929.73227595 1115.17523575 1914.12006283 C1116.45132692 1912.56083346 1117.72093769 1910.99630574 1118.98968887 1909.43109798 C1127.48887489 1898.95997852 1136.26759068 1888.74756239 1145.38422012 1878.81000423 C1147.23913205 1876.77516258 1149.05335186 1874.71710426 1150.84906387 1872.63031673 C1159.03885804 1863.22650603 1167.66783514 1854.20670341 1176.54657364 1845.45429134 C1179.23270349 1842.79354082 1181.78501682 1840.08101231 1184.22406387 1837.19281673 C1187.42855357 1833.43503385 1191.01598109 1830.26272999 1194.72015762 1827.00531673 C1198.1680858 1823.86147991 1201.44465532 1820.57310135 1204.72406387 1817.25531673 C1208.85943812 1813.08043254 1213.00082024 1809.00671519 1217.48968887 1805.20844173 C1219.78577322 1803.21850197 1222.00271189 1801.15727446 1224.22259903 1799.08319759 C1229.65563662 1794.00749336 1235.19565983 1789.17355673 1240.99750137 1784.51703548 C1243.54893116 1782.4214918 1245.98233161 1780.24068519 1248.41156387 1778.00531673 C1252.78143706 1774.02769988 1257.33515923 1770.37155079 1262.00018692 1766.75238705 C1266.6329988 1763.15565734 1271.18657887 1759.47134185 1275.72406387 1755.75531673 C1282.22277062 1750.45333435 1288.81897598 1745.31962149 1295.59906387 1740.38031673 C1296.25600235 1739.90126888 1296.91294083 1739.42222103 1297.58978653 1738.92865658 C1313.3801076 1727.43404743 1329.2596601 1716.08400383 1345.59906387 1705.38031673 C1346.57214493 1704.741264 1346.57214493 1704.741264 1347.56488419 1704.08930111 C1414.41873432 1660.25603366 1486.25736076 1623.88273414 1561.60797501 1597.08869076 C1562.99049049 1596.59683021 1564.37253814 1596.10365347 1565.75421524 1595.60944271 C1646.86791615 1566.60499074 1731.09382534 1548.71008066 1816.80994034 1540.64459896 C1819.44172415 1540.39522539 1822.07239033 1540.13617613 1824.70306778 1539.87543392 C1882.44421911 1534.27284619 1942.88546763 1534.73894391 2000.59906387 1540.38031673 C2002.43725983 1540.55387058 2004.27547649 1540.72720524 2006.11371231 1540.90033627 C2043.50331951 1544.4739994 2080.61216792 1549.9251402 2117.41156387 1557.44281673 C2118.3993483 1557.6444241 2119.38713272 1557.84603146 2120.40485001 1558.05374813 C2135.55912956 1561.1677999 2150.54666632 1564.76774132 2165.59906387 1568.38031673 C2165.59906387 1388.86031673 2165.59906387 1209.34031673 2165.59906387 1024.38031673 C2118.47609512 1024.35453548 2071.35312637 1024.32875423 2022.80218887 1024.30219173 C1994.77684806 1024.27853549 1966.75151272 1024.25460782 1938.72617769 1024.22566533 C1922.28846048 1024.20871012 1905.85074309 1024.19194049 1889.41302511 1024.17574303 C1887.42485243 1024.17378342 1885.43667976 1024.17181797 1883.4485071 1024.16984661 C1851.77515406 1024.13848947 1820.10180962 1024.11998437 1788.42844373 1024.10822427 C1755.86510337 1024.09606537 1723.30179852 1024.07083219 1690.73848182 1024.02924059 C1686.13498978 1024.02336684 1681.53149756 1024.01764194 1676.92800522 1024.01200771 C1675.56900784 1024.01033753 1675.56900784 1024.01033753 1674.18255596 1024.0086336 C1659.62159357 1023.99112067 1645.06065859 1023.98731553 1630.49968709 1023.98868753 C1615.84699538 1023.98977378 1601.19437358 1023.97629724 1586.54170838 1023.94815245 C1577.84535419 1023.93188574 1569.14915842 1023.92658803 1560.45279479 1023.93734499 C1554.63049897 1023.94344253 1548.80833912 1023.9348798 1542.98607508 1023.91482444 C1539.67690006 1023.90383272 1536.36830686 1023.90105346 1533.05909267 1023.91180429 C1512.03634769 1023.97421658 1492.95829766 1021.88783067 1473.59906387 1013.38031673 C1472.94486465 1013.09704525 1472.29066544 1012.81377377 1471.616642 1012.5219183 C1441.83497704 999.37440279 1418.68689494 974.33607017 1406.72797012 944.18402767 C1405.87742403 941.92733683 1405.07057317 939.66093627 1404.28656387 937.38031673 C1403.94081314 936.38669125 1403.94081314 936.38669125 1403.58807755 935.37299252 C1398.25480708 918.88548949 1398.16535846 902.71229365 1398.20033646 885.55194759 C1398.19655696 882.83880363 1398.18827388 880.12567746 1398.18021011 877.4125433 C1398.16508494 871.5263495 1398.16093122 865.64022903 1398.16410315 859.75401783 C1398.16882049 850.88793653 1398.15602027 842.02193586 1398.14002631 833.15587074 C1398.11368407 818.29457044 1398.10078767 803.43328889 1398.09617996 788.57196712 C1398.08990651 768.47744991 1398.06498139 748.38302816 1398.03693008 728.28851986 C1397.97891485 679.98580225 1397.94682551 631.68305632 1397.91156387 583.38031673 C1397.80843887 475.47031673 1397.70531387 367.56031673 1397.59906387 256.38031673 C975.19906387 256.38031673 552.79906387 256.38031673 117.59906387 256.38031673 Z M1653.59906387 438.38031673 C1653.59906387 547.28031673 1653.59906387 656.18031673 1653.59906387 768.38031673 C1762.49906387 768.38031673 1871.39906387 768.38031673 1983.59906387 768.38031673 C1979.75933864 763.9006373 1975.98116055 759.61716805 1971.81915951 755.47457123 C1971.26719134 754.92114962 1970.71522317 754.36772801 1970.14652869 753.79753605 C1968.30735069 751.95472591 1966.46465493 750.11547567 1964.6219368 748.27620602 C1963.28494911 746.93806543 1961.94817938 745.59970703 1960.61160833 744.2611503 C1956.94663379 740.59200604 1953.27855269 736.92598137 1949.60994351 733.2604717 C1945.65114222 729.30393374 1941.69522042 725.34451853 1937.73892593 721.38547421 C1929.9931004 713.63520274 1922.24457469 705.8876363 1914.49507644 698.14103735 C1908.20048487 691.84870344 1901.90686915 685.55539504 1895.61395073 679.26138783 C1894.2709407 677.91814795 1894.2709407 677.91814795 1892.90079916 676.54777191 C1891.08206085 674.72871389 1889.2633248 672.90965362 1887.44459096 671.09059113 C1870.87976077 654.52299112 1854.31211113 637.95821368 1837.74327623 621.39461899 C1822.60819871 606.26429179 1807.47571526 591.13137472 1792.34540176 575.99628353 C1775.34780253 558.99333491 1758.34858666 541.99200555 1741.34677488 524.99326891 C1739.53621388 523.18302647 1737.72565497 521.37278194 1735.91509819 519.56253529 C1735.02420121 518.67179258 1734.13330423 517.78104988 1733.21541038 516.86331498 C1726.92257799 510.57134781 1720.63091044 504.27821731 1714.33968544 497.98464298 C1706.68261555 490.32477659 1699.02378309 482.66667789 1691.3626435 475.01088179 C1687.45042617 471.1013028 1683.53903158 467.19090964 1679.62977791 463.27836704 C1676.05770466 459.70333383 1672.48336737 456.13058126 1668.9071385 452.55970519 C1667.60764469 451.26133679 1666.30901046 449.96210743 1665.01128282 448.66197372 C1663.25971953 446.90740994 1661.50516649 445.15589422 1659.74976254 443.40517426 C1659.23590106 442.88897161 1658.72203958 442.37276897 1658.19260654 441.84092382 C1656.23354984 439.43330826 1656.23354984 439.43330826 1653.59906387 438.38031673 Z M1653.59906387 1836.38031673 C1652.92683792 1836.61406002 1652.25461197 1836.84780331 1651.56201553 1837.08862972 C1588.7781434 1858.94371396 1527.83288693 1889.94854218 1473.59906387 1928.38031673 C1472.42460906 1929.20587222 1471.25013008 1930.03139332 1470.07562637 1930.85687923 C1444.59479861 1948.84544456 1420.05869338 1968.25939912 1396.96625137 1989.23187923 C1395.33309913 1990.71411312 1393.69194889 1992.18756585 1392.04437637 1993.65375423 C1387.38640713 1997.80203687 1382.89574814 2002.04488552 1378.52093887 2006.48969173 C1376.64932745 2008.33087045 1374.71814587 2010.04838254 1372.72406387 2011.75531673 C1365.7402633 2017.77867322 1359.36572885 2024.38024028 1353.37640762 2031.38422298 C1351.36637611 2033.64164299 1349.25073434 2035.75767386 1347.09906387 2037.88031673 C1343.05028919 2041.88833194 1339.30302034 2046.05550661 1335.59906387 2050.38031673 C1334.65601613 2051.46058496 1333.71191146 2052.53993099 1332.76703262 2053.61859798 C1320.92054016 2067.16581545 1309.38383255 2080.96829673 1298.59906387 2095.38031673 C1297.82659317 2096.4116473 1297.82659317 2096.4116473 1297.038517 2097.46381283 C1282.75106132 2116.59016466 1269.15714073 2136.07109872 1256.59906387 2156.38031673 C1255.98917618 2157.36661068 1255.37928848 2158.35290462 1254.75091934 2159.36908627 C1245.09757663 2175.05733977 1236.08908619 2191.03406376 1227.59906387 2207.38031673 C1227.29442215 2207.96661861 1226.98978043 2208.55292049 1226.67590714 2209.1569891 C1202.07344234 2256.5873094 1182.45742831 2306.75561477 1168.59906387 2358.38031673 C1168.25810684 2359.64585384 1167.91714981 2360.91139095 1167.56586075 2362.21527767 C1152.27463096 2419.39564908 1142.55571275 2479.310173 1142.39593887 2538.59906673 C1142.38891872 2540.21629012 1142.38183189 2541.83351322 1142.37468338 2543.45073605 C1142.35526865 2548.59393362 1142.35024917 2553.73708622 1142.34906387 2558.88031673 C1142.34862202 2559.75600937 1142.34818016 2560.631702 1142.34772491 2561.53393078 C1142.34102687 2586.83250012 1142.44196914 2612.00967761 1145.34582901 2637.1738348 C1145.61250638 2639.49744377 1145.86650311 2641.82222527 1146.1190834 2644.14740658 C1152.58763255 2703.01372957 1166.09980299 2760.5088272 1185.59906387 2816.38031673 C1185.83280716 2817.05254269 1186.06655045 2817.72476864 1186.30737686 2818.41736507 C1208.1624611 2881.20123721 1239.16728932 2942.14649368 1277.59906387 2996.38031673 C1278.42461935 2997.55477155 1279.25014046 2998.72925052 1280.07562637 2999.90375423 C1298.31081972 3025.73393092 1317.97922126 3050.63742374 1339.36859512 3073.93109798 C1341.31809406 3076.07179122 1343.21609692 3078.24382735 1345.09906387 3080.44281673 C1348.59638127 3084.47627949 1352.38893964 3088.18481636 1356.18500137 3091.93500423 C1358.28839987 3094.06563119 1360.27436633 3096.23512096 1362.22406387 3098.50531673 C1367.52080322 3104.670374 1373.30689218 3110.17645163 1379.46625137 3115.46625423 C1381.93838424 3117.68483501 1384.26468565 3120.01738343 1386.59906387 3122.38031673 C1390.7773651 3126.59660252 1395.0772736 3130.53947288 1399.59906387 3134.38031673 C1400.65034994 3135.28337523 1401.70108422 3136.18707628 1402.75140762 3137.09125423 C1405.76600736 3139.6849556 1408.78848841 3142.26929626 1411.81293106 3144.85150814 C1413.47788551 3146.27659627 1415.13682469 3147.70835151 1416.79437637 3149.14203548 C1424.81598676 3156.04733338 1433.15552005 3162.48156395 1441.59906387 3168.86078548 C1443.40095327 3170.22979911 1445.1908179 3171.61215582 1446.97406387 3173.00531673 C1468.72233251 3189.96896627 1491.86586328 3205.34718914 1515.59906387 3219.38031673 C1516.3333461 3219.81618099 1517.06762833 3220.25204525 1517.82416153 3220.70111752 C1577.24231548 3255.86487076 1640.87152415 3283.44336836 1707.59906387 3301.38031673 C1708.74568497 3301.68888607 1709.89230606 3301.99745541 1711.07367325 3302.31537533 C1789.48492911 3323.16083994 1870.97148897 3331.59925015 2252.59906387 3247.38031673 C2253.47901016 3246.95395931 2254.35895645 3246.52760189 2255.26556778 3246.08832455 C2291.86155593 3228.34950423 2326.89539585 3206.55609101 2359.59906387 3182.38031673 C2360.22248672 3181.91996029 2360.84590958 3181.45960384 2361.48822403 3180.9852972 C2382.84065434 3165.1854346 2403.57858211 3148.58206203 2423.14984512 3130.61078548 C2425.29053836 3128.66128654 2427.46257449 3126.76328369 2429.66156387 3124.88031673 C2433.69502663 3121.38299934 2437.40356349 3117.59044097 2441.15375137 3113.79437923 C2443.28437833 3111.69098074 2445.4538681 3109.70501428 2447.72406387 3107.75531673 C2453.88912114 3102.45857739 2459.39519877 3096.67248843 2464.68500137 3090.51312923 C2466.90358215 3088.04099637 2469.23613057 3085.71469496 2471.59906387 3083.38031673 C2475.81534965 3079.20201551 2479.75822002 3074.90210701 2483.59906387 3070.38031673 C2484.50212237 3069.32903067 2485.40582341 3068.27829639 2486.31000137 3067.22797298 C2488.90370274 3064.21337325 2491.4880434 3061.1908922 2494.07025528 3058.16644955 C2495.49534341 3056.50149509 2496.92709865 3054.84255591 2498.36078262 3053.18500423 C2505.26608052 3045.16339384 2511.70031109 3036.82386056 2518.07953262 3028.38031673 C2519.44854625 3026.57842734 2520.83090296 3024.78856271 2522.22406387 3023.00531673 C2539.1868447 3001.25816183 2554.57297006 2978.11637482 2568.59906387 2954.38031673 C2569.04024551 2953.63539974 2569.48142715 2952.89048275 2569.93597794 2952.12299252 C2612.18876694 2880.54233307 2643.44974309 2802.81587598 2660.59906387 2721.38031673 C2660.74259293 2720.70003414 2660.88612198 2720.01975155 2661.0340004 2719.31885433 C2666.58307264 2692.8648107 2670.51047816 2666.22686919 2673.59906387 2639.38031673 C2673.69207779 2638.59443172 2673.78509171 2637.80854671 2673.88092422 2636.99884701 C2679.76070791 2587.12457359 2679.60804584 2533.46473053 2673.85229874 2483.58679867 C2673.58562137 2481.2631897 2673.33162463 2478.9384082 2673.07904434 2476.61322689 C2663.62274714 2390.55722998 2639.6670315 2305.90654507 2541.59906387 2124.38031673 C2540.77350839 2123.20586192 2539.94798729 2122.03138294 2539.12250137 2120.85687923 C2520.88730803 2095.02670255 2501.21890649 2070.12320972 2479.82953262 2046.82953548 C2477.88003368 2044.68884225 2475.98203083 2042.51680612 2474.09906387 2040.31781673 C2470.60174648 2036.28435398 2466.80918811 2032.57581711 2463.01312637 2028.82562923 C2460.90972788 2026.69500228 2458.92376142 2024.52551251 2456.97406387 2022.25531673 C2451.67732453 2016.09025947 2445.89123557 2010.58418184 2439.73187637 2005.29437923 C2437.25974351 2003.07579846 2434.9334421 2000.74325004 2432.59906387 1998.38031673 C2428.42076265 1994.16403095 2424.12085415 1990.22116059 2419.59906387 1986.38031673 C2418.54777781 1985.47725824 2417.49704352 1984.57355719 2416.44672012 1983.66937923 C2413.43212039 1981.07567787 2410.40963934 1978.49133721 2407.38519669 1975.90912533 C2405.72024223 1974.4840372 2404.06130305 1973.05228195 2402.40375137 1971.61859798 C2394.38214098 1964.71330009 2386.0426077 1958.27906952 2377.59906387 1951.89984798 C2375.79717448 1950.53083436 2374.00730985 1949.14847765 2372.22406387 1947.75531673 C2335.8104416 1919.35269136 2292.79570195 1887.67314178 2248.39593887 1873.71625423 C2238.45884061 1870.3952532 2229.0373045 1865.0050811 2220.41937637 1859.11859798 C2211.69314882 1853.74024444 2202.17597563 1850.0432848 2192.66156387 1846.31781673 C2191.95230759 1846.03918789 2191.2430513 1845.76055904 2190.5123024 1845.4734869 C2164.67199131 1835.3508666 2138.42922851 1826.4989567 2111.59906387 1819.38031673 C2110.25610803 1819.0202012 2108.91317246 1818.66001003 2107.57025528 1818.29975033 C2028.03438896 1797.06380784 1945.4263113 1788.98754142 1653.59906387 1836.38031673 Z " fill="#ffffff" transform="translate(906.400936126709,255.61968326568604)"/>
<path d="M0 0 C0.65419922 0.28327148 1.30839844 0.56654297 1.98242188 0.85839844 C32.07749484 14.14427211 55.78418589 39.72156286 67.87109375 70.19628906 C68.72163984 72.45297991 69.5284907 74.71938046 70.3125 77 C70.65825073 77.99362549 70.65825073 77.99362549 71.01098633 79.00732422 C76.34395422 95.49389187 76.41688264 111.62650173 76.34057617 128.78515625 C76.33972865 131.46729435 76.34007587 134.14940786 76.34190369 136.83154297 C76.34346663 142.57606237 76.33416085 148.32047849 76.31719017 154.06497192 C76.29267049 162.37023407 76.28498174 170.67544697 76.2812262 178.98074138 C76.2746819 192.45984538 76.254776 205.9388945 76.22631836 219.41796875 C76.19872518 232.50129932 76.17751744 245.58461491 76.16479492 258.66796875 C76.16400675 259.47622797 76.16321858 260.28448719 76.16240653 261.11723912 C76.15849104 265.17257625 76.1547 269.2279135 76.15097082 273.28325081 C76.11993795 306.85554031 76.06715771 340.4277634 76 374 C76.56794934 373.99848112 77.13589868 373.99696224 77.72105861 373.99539733 C111.45810733 373.90568794 145.19512872 373.83715457 178.93227093 373.79573868 C182.99228238 373.79073646 187.05229359 373.78555911 191.11230469 373.78027344 C191.9205057 373.7792242 192.72870671 373.77817495 193.56139866 373.77709392 C206.61030856 373.75973661 219.65914725 373.728225 232.70801505 373.69138882 C246.11909436 373.65384873 259.53013662 373.63173668 272.9412663 373.62364602 C281.2021422 373.61818519 289.46281673 373.60100217 297.72363058 373.56833413 C303.4051608 373.54702444 309.08658847 373.54083669 314.76815566 373.54599449 C318.03551843 373.54853104 321.30246321 373.54266715 324.56977844 373.5231781 C345.59552598 373.40401229 364.64001507 375.49215597 384 384 C384.65419922 384.28327148 385.30839844 384.56654297 385.98242188 384.85839844 C416.07749484 398.14427211 439.78418589 423.72156286 451.87109375 454.19628906 C453.83046327 459.39493883 455.486645 464.65600351 457 470 C457.34160156 471.17820312 457.68320313 472.35640625 458.03515625 473.5703125 C465.56900248 505.45775468 459.18713706 541.47550464 442.359375 569.3046875 C426.0062146 595.3161807 402.00205647 614.34245394 373 624.3125 C372.00637451 624.65825073 372.00637451 624.65825073 370.99267578 625.01098633 C354.50610813 630.34395422 338.37349827 630.41688264 321.21484375 630.34057617 C318.53270565 630.33972865 315.85059214 630.34007587 313.16845703 630.34190369 C307.42393763 630.34346663 301.67952151 630.33416085 295.93502808 630.31719017 C287.62976593 630.29267049 279.32455303 630.28498174 271.01925862 630.2812262 C257.54015462 630.2746819 244.0611055 630.254776 230.58203125 630.22631836 C217.49870068 630.19872518 204.41538509 630.17751744 191.33203125 630.16479492 C190.52377203 630.16400675 189.71551281 630.16321858 188.88276088 630.16240653 C184.82742375 630.15849104 180.7720865 630.1547 176.71674919 630.15097082 C143.14445969 630.11993795 109.5722366 630.06715771 76 630 C76.00151888 630.56794934 76.00303776 631.13589868 76.00460267 631.72105861 C76.09431206 665.45810733 76.16284543 699.19512872 76.20426132 732.93227093 C76.20926354 736.99228238 76.21444089 741.05229359 76.21972656 745.11230469 C76.22130043 746.3246062 76.22130043 746.3246062 76.22290608 747.56139866 C76.24026339 760.61030856 76.271775 773.65914725 76.30861118 786.70801505 C76.34615127 800.11909436 76.36826332 813.53013662 76.37635398 826.9412663 C76.38181481 835.2021422 76.39899783 843.46281673 76.43166587 851.72363058 C76.45297556 857.4051608 76.45916331 863.08658847 76.45400551 868.76815566 C76.45146896 872.03551843 76.45733285 875.30246321 76.4768219 878.56977844 C76.58019542 896.8091173 75.55947527 914.58294623 68.8125 931.75 C68.51770752 932.52037598 68.22291504 933.29075195 67.91918945 934.08447266 C55.54256541 965.287285 30.71842729 990.56273272 0.09472656 1004.12109375 C-6.4640588 1006.87303166 -13.16061666 1009.06316958 -20 1011 C-21.17820312 1011.34160156 -22.35640625 1011.68320313 -23.5703125 1012.03515625 C-49.82998697 1018.23936505 -79.49739764 1014.76779347 -104 1004 C-104.65419922 1003.71672852 -105.30839844 1003.43345703 -105.98242188 1003.14160156 C-136.07749484 989.85572789 -159.78418589 964.27843714 -171.87109375 933.80371094 C-172.72163984 931.54702009 -173.5284907 929.28061954 -174.3125 927 C-174.54300049 926.33758301 -174.77350098 925.67516602 -175.01098633 924.99267578 C-180.34395422 908.50610813 -180.41688264 892.37349827 -180.34057617 875.21484375 C-180.33972865 872.53270565 -180.34007587 869.85059214 -180.34190369 867.16845703 C-180.34346663 861.42393763 -180.33416085 855.67952151 -180.31719017 849.93502808 C-180.29267049 841.62976593 -180.28498174 833.32455303 -180.2812262 825.01925862 C-180.2746819 811.54015462 -180.254776 798.0611055 -180.22631836 784.58203125 C-180.19872518 771.49870068 -180.17751744 758.41538509 -180.16479492 745.33203125 C-180.16400675 744.52377203 -180.16321858 743.71551281 -180.16240653 742.88276088 C-180.15849104 738.82742375 -180.1547 734.7720865 -180.15097082 730.71674919 C-180.11993795 697.14445969 -180.06715771 663.5722366 -180 630 C-180.85192401 630.00227832 -180.85192401 630.00227832 -181.72105861 630.00460267 C-215.45810733 630.09431206 -249.19512872 630.16284543 -282.93227093 630.20426132 C-286.99228238 630.20926354 -291.05229359 630.21444089 -295.11230469 630.21972656 C-295.9205057 630.2207758 -296.72870671 630.22182505 -297.56139866 630.22290608 C-310.61030856 630.24026339 -323.65914725 630.271775 -336.70801505 630.30861118 C-350.11909436 630.34615127 -363.53013662 630.36826332 -376.9412663 630.37635398 C-385.2021422 630.38181481 -393.46281673 630.39899783 -401.72363058 630.43166587 C-407.4051608 630.45297556 -413.08658847 630.45916331 -418.76815566 630.45400551 C-422.03551843 630.45146896 -425.30246321 630.45733285 -428.56977844 630.4768219 C-449.59552598 630.59598771 -468.64001507 628.50784403 -488 620 C-488.65419922 619.71672852 -489.30839844 619.43345703 -489.98242188 619.14160156 C-520.07749484 605.85572789 -543.78418589 580.27843714 -555.87109375 549.80371094 C-557.83046327 544.60506117 -559.486645 539.34399649 -561 534 C-561.34160156 532.82179688 -561.68320313 531.64359375 -562.03515625 530.4296875 C-568.23936505 504.17001303 -564.76779347 474.50260236 -554 450 C-553.71672852 449.34580078 -553.43345703 448.69160156 -553.14160156 448.01757812 C-539.85572789 417.92250516 -514.27843714 394.21581411 -483.80371094 382.12890625 C-481.54702009 381.27836016 -479.28061954 380.4715093 -477 379.6875 C-476.33758301 379.45699951 -475.67516602 379.22649902 -474.99267578 378.98901367 C-458.50610813 373.65604578 -442.37349827 373.58311736 -425.21484375 373.65942383 C-422.53270565 373.66027135 -419.85059214 373.65992413 -417.16845703 373.65809631 C-411.42393763 373.65653337 -405.67952151 373.66583915 -399.93502808 373.68280983 C-391.62976593 373.70732951 -383.32455303 373.71501826 -375.01925862 373.7187738 C-361.54015462 373.7253181 -348.0611055 373.745224 -334.58203125 373.77368164 C-321.49870068 373.80127482 -308.41538509 373.82248256 -295.33203125 373.83520508 C-294.52377203 373.83599325 -293.71551281 373.83678142 -292.88276088 373.83759347 C-288.82742375 373.84150896 -284.7720865 373.8453 -280.71674919 373.84902918 C-247.14445969 373.88006205 -213.5722366 373.93284229 -180 374 C-180.00151888 373.43205066 -180.00303776 372.86410132 -180.00460267 372.27894139 C-180.09431206 338.54189267 -180.16284543 304.80487128 -180.20426132 271.06772907 C-180.20926354 267.00771762 -180.21444089 262.94770641 -180.21972656 258.88769531 C-180.2207758 258.0794943 -180.22182505 257.27129329 -180.22290608 256.43860134 C-180.24026339 243.38969144 -180.271775 230.34085275 -180.30861118 217.29198495 C-180.34615127 203.88090564 -180.36826332 190.46986338 -180.37635398 177.0587337 C-180.38181481 168.7978578 -180.39899783 160.53718327 -180.43166587 152.27636942 C-180.45297556 146.5948392 -180.45916331 140.91341153 -180.45400551 135.23184434 C-180.45146896 131.96448157 -180.45733285 128.69753679 -180.4768219 125.43022156 C-180.59598771 104.40447402 -178.50784403 85.35998493 -170 66 C-169.71672852 65.34580078 -169.43345703 64.69160156 -169.14160156 64.01757812 C-155.85572789 33.92250516 -130.27843714 10.21581411 -99.80371094 -1.87109375 C-94.60506117 -3.83046327 -89.34399649 -5.486645 -84 -7 C-82.82179688 -7.34160156 -81.64359375 -7.68320313 -80.4296875 -8.03515625 C-54.17001303 -14.23936505 -24.50260236 -10.76779347 0 0 Z " fill="#ffffff" transform="translate(2868,2314)"/>
</svg>
