<?xml version="1.0" encoding="UTF-8"?>
<svg version="1.1" xmlns="http://www.w3.org/2000/svg" width="758" height="980" fill="#ffffff">
<path d="M0 0 C1.24947922 -0.00029205 2.49895844 -0.00058411 3.78630066 -0.00088501 C7.19496456 0.00026566 10.60338314 0.01026316 14.01200366 0.02426291 C17.58075401 0.03680585 21.14950799 0.03794357 24.71827698 0.04031372 C31.46835848 0.04651805 38.21837484 0.06291462 44.96842772 0.0830127 C52.65646361 0.10540438 60.34450268 0.11637334 68.03256309 0.12640357 C83.84018715 0.14728183 99.64774629 0.18243734 115.45532227 0.22705078 C115.1727356 1.41284729 114.89014893 2.5986438 114.59899902 3.82037354 C111.65883159 16.8200993 110.86141718 29.16753261 110.92407227 42.46142578 C110.92136813 44.52118105 110.91747812 46.58093506 110.91247559 48.64068604 C110.90663971 52.91309009 110.91496049 57.1851554 110.93383789 61.45751953 C110.95679897 66.91795156 110.94335915 72.37760429 110.91954803 77.83800888 C110.90507712 82.07263039 110.90969904 86.30706751 110.9200592 90.54169464 C110.9227139 92.55583033 110.91950132 94.56998313 110.91014099 96.58409882 C110.89993448 99.39229232 110.91552579 102.19922432 110.93774414 105.00732422 C110.92964722 105.82611053 110.92155029 106.64489685 110.91320801 107.48849487 C111.00426596 113.72913529 112.55333305 119.08228949 116.86711884 123.75695419 C121.44827326 127.79580936 125.70290896 129.47575557 131.74904346 129.48152637 C132.80256718 129.48735857 133.8560909 129.49319076 134.94153959 129.49919969 C136.09269386 129.49542036 137.24384813 129.49164104 138.42988586 129.48774719 C140.27155115 129.49348551 140.27155115 129.49348551 142.1504218 129.49933976 C145.55562782 129.50787575 148.96061802 129.50743507 152.3658179 129.50315917 C156.03941224 129.50069397 159.71298112 129.5097036 163.38656616 129.51719666 C170.58288317 129.52995202 177.77916288 129.53173626 184.9754893 129.52939639 C190.82532521 129.52761379 196.6751498 129.52936163 202.52498436 129.53362083 C203.35738086 129.53421602 204.18977736 129.53481121 205.047398 129.53542444 C206.73840148 129.53663619 208.42940496 129.53785032 210.12040844 129.53906681 C225.98261783 129.54994585 241.84480596 129.5477783 257.70701655 129.54168197 C272.2154396 129.53651404 286.72379548 129.54776432 301.23220525 129.56678019 C316.13049202 129.58615728 331.02874702 129.59441471 345.92704648 129.59065694 C354.29083191 129.58874449 362.65456019 129.59123651 371.01833534 129.60537148 C378.13958204 129.6172847 385.26073642 129.61869094 392.38198439 129.60658131 C396.0143732 129.60069182 399.64659315 129.59959495 403.27897072 129.61158371 C407.21933342 129.62443763 411.15944018 129.61397941 415.09980774 129.60127258 C416.24426985 129.60864687 417.38873195 129.61602115 418.56787473 129.6236189 C425.55804091 129.57615569 431.83624022 129.17541492 437.47875977 124.57861328 C437.92477539 124.00884766 438.37079102 123.43908203 438.83032227 122.85205078 C439.29180664 122.28744141 439.75329102 121.72283203 440.22875977 121.14111328 C443.56634263 115.93278333 443.75241508 111.35705824 443.74584961 105.34790039 C443.75256683 104.46246048 443.75928406 103.57702057 443.76620483 102.66474915 C443.78519995 99.73624032 443.78911188 96.80796116 443.79125977 93.87939453 C443.79769398 91.82694914 443.8044228 89.77450466 443.81143188 87.72206116 C443.82341368 83.4104704 443.82711251 79.09895975 443.82592773 74.78735352 C443.82572618 69.31763509 443.85285354 63.84844586 443.88747215 58.37885189 C443.90996177 54.13088226 443.91375837 49.88303467 443.91270828 45.63501167 C443.91503797 43.62240362 443.92370905 41.6097908 443.93937302 39.59724236 C444.03527238 25.98466221 442.62451773 13.47373825 439.45532227 0.22705078 C455.95443354 0.13339181 472.45345789 0.06296641 488.95277119 0.01980209 C496.61460091 -0.00077725 504.27626494 -0.0288086 511.93798828 -0.07470703 C518.6200369 -0.11471735 525.30196547 -0.14041563 531.98413056 -0.1493032 C535.51864285 -0.15449411 539.05281183 -0.16659629 542.58721352 -0.19586945 C546.54371954 -0.22836939 550.49989714 -0.22889957 554.45654297 -0.22705078 C556.19256271 -0.24862244 556.19256271 -0.24862244 557.96365356 -0.27062988 C568.70993971 -0.21652462 578.65100837 2.50523491 586.45532227 10.22705078 C596.59326529 22.3844231 597.61024097 33.88337347 597.57557678 49.16636658 C597.57601314 50.59546428 597.57688924 52.02456191 597.57816595 53.45365912 C597.58039817 57.37139691 597.57640704 61.28910728 597.57138789 65.20684159 C597.5670653 69.43511523 597.5685311 73.66338736 597.56929016 77.8916626 C597.56981425 85.21436364 597.56667946 92.53705576 597.56105232 99.85975456 C597.55292175 110.44711909 597.5503205 121.03447931 597.54906433 131.62184662 C597.54687626 148.79957663 597.54022281 165.97730188 597.53076172 183.1550293 C597.52158127 199.84057593 597.51450353 216.52612127 597.51025391 233.21166992 C597.50999118 234.24034433 597.50972846 235.26901874 597.50945777 236.3288651 C597.50815273 241.48947524 597.50688902 246.65008538 597.50564587 251.81069553 C597.49528089 294.61615057 597.47766923 337.42160043 597.45532227 380.22705078 C593.58032227 378.35205078 593.58032227 378.35205078 592.45532227 377.22705078 C590.38447507 377.06862428 588.30854197 376.97580656 586.23266602 376.91064453 C584.97260742 376.86875 583.71254883 376.82685547 582.41430664 376.78369141 C581.07381491 376.74387482 579.73332007 376.70416264 578.39282227 376.66455078 C577.04840704 376.62137036 575.70400567 376.57775623 574.35961914 376.53369141 C571.05829886 376.4271972 567.75689991 376.32518618 564.45532227 376.22705078 C564.45396574 375.50838054 564.45260921 374.7897103 564.45121157 374.04926217 C564.37063594 331.49521646 564.27971211 288.94120371 564.17527065 246.38720954 C564.16275114 241.28255394 564.15031847 236.17789813 564.13793945 231.07324219 C564.13547346 230.05695779 564.13300747 229.04067338 564.13046674 227.99359249 C564.09069692 211.51824321 564.05796831 195.04288703 564.02782245 178.56751765 C563.99675511 161.67380182 563.95816611 144.78011536 563.91253221 127.88643253 C563.88459183 117.45443491 563.86258297 107.02245889 563.84805976 96.59043382 C563.83755214 89.44570636 563.81976668 82.30102061 563.79615523 75.15632452 C563.78273217 71.02857172 563.7726164 66.90087762 563.77110863 62.77310181 C563.76965967 58.99930639 563.75913926 55.22565258 563.74118786 51.45190059 C563.73398751 49.42930395 563.73668691 47.40667969 563.739658 45.38407242 C563.73219251 44.19573583 563.72472701 43.00739924 563.71703529 41.78305244 C563.71361781 40.23493266 563.71361781 40.23493266 563.71013129 38.65553772 C563.69390123 36.04599098 563.69390123 36.04599098 561.45532227 34.22705078 C558.77681135 34.00955599 556.19857291 33.91564523 553.51733398 33.90820312 C552.697742 33.8981575 551.87815002 33.88811188 551.03372192 33.87776184 C548.31749185 33.84680544 545.60136088 33.8298603 542.88500977 33.81298828 C541.00455871 33.79428663 539.12411614 33.77471399 537.24368286 33.75430298 C532.28876737 33.7028697 527.33382464 33.66330405 522.37878418 33.62615967 C517.32480062 33.58619003 512.27093146 33.53506567 507.21704102 33.48486328 C497.29654834 33.38797152 487.37599123 33.3036093 477.45532227 33.22705078 C477.4619841 34.24023376 477.46864594 35.25341675 477.47550964 36.29730225 C477.53656727 45.88845558 477.58141258 55.47956901 477.61075878 65.07087326 C477.6263536 70.00078236 477.64747773 74.9305334 477.68164062 79.86035156 C477.71445611 84.62605574 477.73222167 89.39160877 477.73995399 94.1574173 C477.74545795 95.96731187 477.75620479 97.77719903 477.77251244 99.5870285 C477.93253358 118.0978484 475.22578692 134.07826754 461.86157227 147.97705078 C451.65742702 157.51858919 439.07325215 163.33938845 424.97163963 163.35847855 C423.36594221 163.36424026 423.36594221 163.36424026 421.72780645 163.37011838 C420.56283876 163.3692519 419.39787106 163.36838542 418.19760132 163.36749268 C416.95137454 163.3704638 415.70514776 163.37343492 414.42115653 163.37649608 C410.96898312 163.38366259 407.5168595 163.38635432 404.06468225 163.38709354 C400.33854636 163.38894825 396.61242118 163.39649771 392.8862915 163.40322876 C384.74147422 163.41679599 376.59666186 163.42283436 368.45183516 163.42723942 C363.36309804 163.4300047 358.27436282 163.43424259 353.18562698 163.43874359 C339.08773353 163.45093441 324.98984159 163.46123393 310.89194298 163.46461868 C309.99008341 163.46483825 309.08822383 163.46505782 308.15903518 163.46528403 C306.80306522 163.46561145 306.80306522 163.46561145 305.41970193 163.46594548 C303.58798814 163.46638894 301.75627434 163.46683551 299.92456055 163.46728516 C299.01597316 163.46750659 298.10738578 163.46772802 297.17126544 163.46795616 C282.45545003 163.4719025 267.73968419 163.48935238 253.02388792 163.51264468 C237.90407213 163.53638265 222.78428119 163.54882166 207.66444647 163.5499866 C199.1798181 163.55090201 190.69525431 163.55662053 182.21064377 163.57480621 C174.98450662 163.59024027 167.75845401 163.59530823 160.5323035 163.58706811 C156.84877676 163.58317321 153.16542011 163.58403407 149.48191452 163.59812546 C145.47946982 163.61329622 141.47740494 163.60496361 137.47494507 163.59454346 C135.74757002 163.60662806 135.74757002 163.60662806 133.98529851 163.6189568 C117.31751833 163.51782715 103.03133725 158.02277984 91.15844727 146.22705078 C81.12261281 135.56135224 77.27365536 122.24372381 77.34179688 107.92675781 C77.34167634 107.10332319 77.34155581 106.27988857 77.34143162 105.43150139 C77.34217428 102.78259394 77.3497729 100.13375804 77.35766602 97.48486328 C77.35913744 95.84285516 77.36015692 94.20084657 77.36071777 92.55883789 C77.36594742 86.48990167 77.37990869 80.42097551 77.39282227 74.35205078 C77.41344727 60.78080078 77.43407227 47.20955078 77.45532227 33.22705078 C49.40532227 33.55705078 21.35532227 33.88705078 -7.54467773 34.22705078 C-8.80171917 36.74113366 -8.67029635 38.44683963 -8.67117757 41.26178163 C-8.67393731 42.33627019 -8.67669705 43.41075875 -8.67954043 44.51780757 C-8.67645745 46.30630929 -8.67645745 46.30630929 -8.67331219 48.13094234 C-8.67506522 49.39356639 -8.67681826 50.65619043 -8.67862442 51.9570758 C-8.68338031 55.48891424 -8.68184445 59.02072707 -8.67934665 62.55256681 C-8.67772094 66.38465466 -8.68184822 70.21673686 -8.68525583 74.04882294 C-8.69042317 80.77405701 -8.69182473 87.49928387 -8.69079971 94.22451973 C-8.68927921 104.22495542 -8.69342666 114.2253831 -8.69867434 124.22581723 C-8.70836276 143.12249848 -8.71115913 162.01917703 -8.7117314 180.91586047 C-8.7121903 195.50389038 -8.7142453 210.09191924 -8.71743202 224.67994881 C-8.71832951 228.8735773 -8.71921933 233.06720579 -8.7201069 237.26083428 C-8.72032795 238.30327242 -8.720549 239.34571056 -8.72077674 240.41973774 C-8.72693388 269.75515637 -8.73087701 299.09057462 -8.73043346 328.42599392 C-8.73041789 329.53278285 -8.73040231 330.63957177 -8.73038626 331.77989976 C-8.73030314 337.39003653 -8.7302041 343.0001733 -8.73010155 348.61031007 C-8.7300816 349.72457773 -8.73006166 350.83884539 -8.73004111 351.98687873 C-8.73000067 354.24020045 -8.72995887 356.49352217 -8.72991572 358.74684389 C-8.72930275 393.81715463 -8.73681231 428.8874557 -8.75048828 463.95776367 C-8.76583329 503.32467966 -8.77445547 542.69158929 -8.77352506 582.05850846 C-8.77345042 586.2524513 -8.77340172 590.44639414 -8.77337074 594.64033699 C-8.77335326 596.1894142 -8.77335326 596.1894142 -8.77333543 597.7697859 C-8.77330459 614.42239849 -8.77970305 631.07500273 -8.78830301 647.72761283 C-8.79676062 664.44988136 -8.79778434 681.17213761 -8.79119369 697.89440709 C-8.78748541 707.84073153 -8.78936827 717.78701876 -8.79913603 727.73333929 C-8.80510262 734.36703829 -8.80387788 741.00071012 -8.79666553 747.63440783 C-8.79275571 751.42079918 -8.7920888 755.20711812 -8.80012288 758.99350458 C-8.80867945 763.06150027 -8.80195735 767.12932216 -8.7935667 771.19731808 C-8.80101897 772.98230804 -8.80101897 772.98230804 -8.80862179 774.80335841 C-8.80149558 776.41884652 -8.80149558 776.41884652 -8.79422539 778.06697077 C-8.79431362 778.99819555 -8.79440184 779.92942034 -8.79449273 780.88886407 C-8.69823313 783.49848171 -8.69823313 783.49848171 -6.54467773 786.22705078 C-4.100586 786.685282 -4.100586 786.685282 -1.19170189 786.61181164 C0.52287679 786.62599645 0.52287679 786.62599645 2.27209342 786.64046782 C3.53860783 786.63562025 4.80512223 786.63077267 6.11001587 786.6257782 C7.46055745 786.6312128 8.81109429 786.63796232 10.16162336 786.6459201 C13.88547423 786.66402869 17.60912656 786.66337825 21.33301115 786.65979064 C25.34395323 786.65916906 29.35482734 786.67576545 33.36573792 786.69030762 C40.31911337 786.71314425 47.27243857 786.72498742 54.22584915 786.72943687 C64.2793921 786.73588586 74.33284398 786.75880109 84.38635032 786.78578017 C100.69611204 786.82909902 117.00586993 786.85903661 133.31567383 786.88061523 C149.16237264 786.90160968 165.00904015 786.92887133 180.85571289 786.96459961 C181.831935 786.96679843 182.8081571 786.96899726 183.8139617 786.97126272 C188.71121197 786.98233198 193.60846195 786.99352486 198.50571179 787.00477922 C239.1555562 787.09803646 279.80541376 787.16877898 320.45532227 787.22705078 C320.45532227 798.11705078 320.45532227 809.00705078 320.45532227 820.22705078 C278.63657311 820.31752992 236.81784975 820.3891182 194.99902235 820.4313121 C190.05875562 820.43631476 185.11848909 820.44149206 180.17822266 820.44677734 C178.7029834 820.44835121 178.7029834 820.44835121 177.19794133 820.44995686 C161.28610476 820.46734866 145.37432618 820.4988796 129.46252397 820.53566197 C113.12813557 820.57310549 96.79377746 820.59529385 80.4593479 820.60340476 C70.3850741 820.60888546 60.31096419 820.62617809 50.23674085 820.65871665 C43.32274549 820.67990666 36.40883452 820.68624069 29.49480907 820.68105629 C25.50938684 820.67850148 21.52425043 820.68233932 17.53887939 820.70387268 C13.88222945 820.72348454 10.22605475 820.72422732 6.56938192 820.71064636 C4.63639444 820.70818314 2.70341171 820.72530351 0.77050716 820.74337602 C-12.11490982 820.65606821 -22.97158956 817.72952741 -32.22045898 808.56689453 C-41.63871707 798.30730322 -42.84874972 786.83946719 -42.80194664 773.39605331 C-42.80545271 772.11821809 -42.80895879 770.84038286 -42.81257111 769.52382535 C-42.82199914 765.98186739 -42.81903823 762.44001269 -42.81401557 758.89804977 C-42.81074265 755.04269535 -42.81903669 751.1873627 -42.82583392 747.33201528 C-42.83613379 740.57649417 -42.83897773 733.82100173 -42.83692169 727.06547356 C-42.8338717 717.01957732 -42.84219563 706.9737128 -42.85267094 696.92782273 C-42.87201532 677.94184287 -42.87763932 658.95587381 -42.87878506 639.96988526 C-42.87970403 625.30869005 -42.88382012 610.64749907 -42.89018631 595.98630524 C-42.89198139 591.76658798 -42.89376101 587.54687071 -42.89553607 583.32715344 C-42.89597816 582.27813035 -42.89642026 581.22910726 -42.89687575 580.14829558 C-42.90918452 550.64033116 -42.91707684 521.1323682 -42.91618919 491.62440109 C-42.91615804 490.5118293 -42.91612688 489.39925751 -42.91609478 488.25297142 C-42.91592856 482.61395076 -42.91573048 476.97493011 -42.91552536 471.33590946 C-42.91548547 470.21597251 -42.91544558 469.09603557 -42.91540448 467.94216114 C-42.91532361 465.67737589 -42.91524001 463.41259064 -42.9151537 461.1478054 C-42.91392808 425.90841627 -42.92894315 390.66906562 -42.95629883 355.4296875 C-42.9870175 315.84178194 -43.00423147 276.25390167 -43.00237238 236.66598344 C-43.00222312 232.44500875 -43.00212571 228.22403407 -43.00206375 224.00305939 C-43.00204044 222.96374208 -43.00201713 221.92442477 -43.00199312 220.85361299 C-43.00193157 204.12617308 -43.01470485 187.39876656 -43.03192828 170.67133657 C-43.0488789 153.86124173 -43.05086305 137.05119578 -43.03770964 120.24109712 C-43.03031683 110.25458459 -43.03398836 100.26822055 -43.05359432 90.28172374 C-43.06558817 83.60872011 -43.06300985 76.93582408 -43.04865332 70.2628254 C-43.04088534 66.46224981 -43.03935267 62.66196169 -43.05556802 58.8614063 C-43.07290839 54.76118371 -43.05911203 50.66163811 -43.04245567 46.56141281 C-43.05239203 45.3900645 -43.06232839 44.21871619 -43.07256585 43.01187247 C-42.98455492 32.76477853 -41.0774693 22.39304024 -34.54467773 14.22705078 C-33.95299805 13.42654297 -33.36131836 12.62603516 -32.75170898 11.80126953 C-30.43229354 9.09596904 -28.23982653 7.43262534 -25.23217773 5.53955078 C-24.32854492 4.95818359 -23.42491211 4.37681641 -22.49389648 3.77783203 C-15.07350078 -0.12401842 -8.23779486 -0.05055295 0 0 Z " fill="#ffffff" transform="translate(42.544677734375,57.77294921875)"/>
<path d="M0 0 C11.03808418 8.4099689 19.6661853 19.3499604 23 33 C23.21498891 35.24168136 23.39805572 37.48655113 23.55688477 39.73291016 C23.64148453 40.90584625 23.72608429 42.07878235 23.81324768 43.28726196 C23.87487595 44.18246552 23.93650421 45.07766907 24 46 C24.92184082 45.99111755 25.84368164 45.98223511 26.79345703 45.9730835 C35.50287105 45.89276358 44.21215975 45.83194729 52.92185974 45.79275131 C57.39907702 45.7719224 61.87598693 45.74369126 66.35302734 45.69824219 C70.67782592 45.65461595 75.00232981 45.63082761 79.32733154 45.62049103 C80.97308996 45.61312964 82.61883319 45.59875466 84.26446533 45.57707977 C102.19743827 45.35038609 102.19743827 45.35038609 108.83984375 51.78125 C109.20207031 52.3484375 109.56429688 52.915625 109.9375 53.5 C110.31777344 54.0671875 110.69804687 54.634375 111.08984375 55.21875 C113.33139306 59.6056448 113.15967249 64.11808625 113.17700195 68.94628906 C113.18357315 69.74356918 113.19014435 70.5408493 113.19691467 71.36228943 C113.21659964 73.99673565 113.22829976 76.63112499 113.23828125 79.265625 C113.24235678 80.16767418 113.2464323 81.06972336 113.25063133 81.99910736 C113.27147194 86.77397938 113.28578216 91.54882284 113.29516602 96.32373047 C113.30622424 101.24423431 113.34062311 106.16428518 113.38033772 111.08462906 C113.40653721 114.8783042 113.41486082 118.67187193 113.41844749 122.46562958 C113.42330508 124.27883716 113.43489539 126.09204021 113.45348549 127.905159 C113.4779477 130.44917781 113.4768993 132.99203133 113.4699707 135.53613281 C113.48918579 136.64773018 113.48918579 136.64773018 113.50878906 137.78178406 C113.44943638 143.79577278 111.72332652 149.04354179 107.58801746 153.53285599 C101.18883181 159.1628333 95.47954661 159.2909566 87.34744263 159.26069641 C86.26188454 159.26452196 85.17632644 159.26834751 84.05787265 159.27228898 C80.41369553 159.2826228 76.76967585 159.27862604 73.12548828 159.2746582 C70.51545058 159.27900447 67.90541416 159.28418733 65.29537964 159.29014587 C58.93760777 159.30289647 52.57987813 159.3046861 46.22209562 159.30234561 C41.05398217 159.3005626 35.88588154 159.30231173 30.71776962 159.30657005 C29.61444825 159.30746284 29.61444825 159.30746284 28.48883756 159.30837366 C26.99456335 159.30958541 25.50028914 159.31079954 24.00601493 159.31201603 C9.99179535 159.32289308 -4.02240017 159.32072837 -18.03662111 159.31463119 C-30.85472659 159.30946257 -43.67275606 159.32071569 -56.4908465 159.33972941 C-69.65456025 159.35910599 -82.81823803 159.36736408 -95.98196614 159.36360615 C-103.37153634 159.36169375 -110.76104186 159.36418546 -118.15060043 159.37832069 C-125.09942838 159.39147837 -132.0481017 159.38897687 -138.99692917 159.37590981 C-141.54828441 159.37353937 -144.0996503 159.37629532 -146.65099335 159.38453293 C-150.13199849 159.39496228 -153.61248889 159.38692974 -157.09347534 159.3742218 C-158.61026298 159.38528323 -158.61026298 159.38528323 -160.15769279 159.39656812 C-166.84374288 159.34516914 -171.96716866 158.64693345 -177.1796875 154.09765625 C-178.01886719 153.09025391 -178.01886719 153.09025391 -178.875 152.0625 C-179.44992188 151.39347656 -180.02484375 150.72445312 -180.6171875 150.03515625 C-183.54670932 145.72362838 -183.15909152 141.014267 -183.17700195 135.96191406 C-183.18357315 135.15488037 -183.19014435 134.34784668 -183.19691467 133.51635742 C-183.21660112 130.84944559 -183.22830007 128.18258997 -183.23828125 125.515625 C-183.24235678 124.60254326 -183.2464323 123.68946152 -183.25063133 122.74871063 C-183.27147253 117.91548389 -183.28578252 113.08228536 -183.29516602 108.24902344 C-183.30622461 103.26798793 -183.34062378 98.28739986 -183.38033772 93.30652237 C-183.40653519 89.46652418 -183.41486064 85.62663211 -183.41844749 81.78655243 C-183.42330557 79.95101653 -183.43489728 78.11548513 -183.45348549 76.28003693 C-183.47794339 73.70488935 -183.47690004 71.13089324 -183.4699707 68.55566406 C-183.48278076 67.80524841 -183.49559082 67.05483276 -183.50878906 66.28167725 C-183.44593457 59.83669858 -181.4121386 54.85479511 -177.24830627 49.92684937 C-169.76336846 44.50147975 -161.52917181 45.23934481 -152.71484375 45.4140625 C-151.04620396 45.42527064 -149.37754426 45.43380317 -147.70887756 45.43978882 C-143.34364093 45.46256043 -138.97962618 45.52137975 -134.61486816 45.5880127 C-130.15031457 45.64968961 -125.6855611 45.67685772 -121.22070312 45.70703125 C-112.47991166 45.77113717 -103.74010836 45.8733713 -95 46 C-94.93664963 45.24477554 -94.87329926 44.48955109 -94.80802917 43.71144104 C-94.72209 42.72071091 -94.63615082 41.72998077 -94.54760742 40.70922852 C-94.42164436 39.23607933 -94.42164436 39.23607933 -94.2931366 37.73316956 C-92.83425347 24.13072278 -84.76417424 12.16259005 -75 3 C-53.37398823 -13.91898029 -22.79036427 -15.19357618 0 0 Z " fill="#ffffff" transform="translate(355,10)"/>
<path d="M0 0 C0.87762184 -0.00754134 1.75524368 -0.01508268 2.65946013 -0.02285254 C3.62441938 -0.02607878 4.58937863 -0.02930501 5.58357906 -0.03262901 C6.60814187 -0.03983353 7.63270469 -0.04703805 8.68831486 -0.05446088 C12.13816862 -0.07726946 15.58801517 -0.09278034 19.03790951 -0.10816002 C21.50485569 -0.12260485 23.97180006 -0.13736244 26.43874264 -0.15241051 C48.96610593 -0.28271934 71.49397718 -0.34878884 94.02164459 -0.4002533 C97.03650663 -0.40726203 100.05136835 -0.41438903 103.06622982 -0.42163658 C103.81554513 -0.42343187 104.56486045 -0.42522717 105.33688229 -0.42707686 C117.46782628 -0.45712582 129.59833642 -0.52187844 141.72905362 -0.60032304 C154.18870462 -0.68022687 166.64813119 -0.72594672 179.1080336 -0.73927915 C186.10177574 -0.74767757 193.09474907 -0.77134398 200.0882349 -0.83394814 C206.67034527 -0.89283825 213.25142522 -0.90586256 219.83385181 -0.88807487 C222.24693485 -0.88895302 224.66006979 -0.90519993 227.07292843 -0.93811989 C247.58163855 -1.2033606 247.58163855 -1.2033606 254.04973507 4.55703163 C255.31623645 6.05283748 256.54882015 7.57902732 257.72321224 9.14818764 C259.52063009 10.64564527 261.32961845 12.12960185 263.16071224 13.58568764 C267.93605626 17.44760439 272.45988909 21.52492987 276.97711849 25.68334389 C279.64196391 28.07526061 282.37153049 30.34073647 285.16071224 32.58568764 C289.69637667 36.24389778 293.98022394 40.09561729 298.24249935 44.062006 C301.47515199 47.05245763 304.7901799 49.88597771 308.22321224 52.64818764 C312.74099037 56.28318153 317.0013974 60.11529054 321.24274349 64.06225014 C325.31852754 67.83261368 329.5783666 71.32656493 333.90680599 74.80443764 C337.67554266 77.94069561 341.26583928 81.25265359 344.84039974 84.60717201 C347.56249925 87.17929103 347.56249925 87.17929103 350.72321224 89.14818764 C350.79187302 141.59171856 350.84473832 194.03524494 350.87640823 246.47881197 C350.88016037 252.6697107 350.88404333 258.86060935 350.88800716 265.05150795 C350.8887941 266.28400875 350.88958103 267.51650954 350.8903918 268.78635885 C350.9034471 288.74501739 350.92710164 308.70365002 350.95467063 328.66229318 C350.98272137 349.14042457 350.99938781 369.61854239 351.00547773 390.0966922 C351.00959485 402.73364008 351.02260036 415.37051471 351.04696164 428.00744005 C351.06281471 436.67206739 351.06761356 445.33665684 351.06371637 454.00129764 C351.06179418 459.00094459 351.06474901 464.00046352 351.08082867 469.00008774 C351.09545033 473.57985889 351.09614985 478.15941617 351.08590893 482.73919727 C351.0846436 484.39347353 351.08842989 486.04776326 351.09786179 487.70201312 C351.21385387 509.30702946 351.21385387 509.30702946 343.59821224 517.52318764 C342.89438412 518.31467201 342.19055599 519.10615639 341.46539974 519.92162514 C333.59814997 526.30956299 325.85330953 526.72682854 315.99031734 526.66285133 C314.60786113 526.66818338 313.22541073 526.67525284 311.84297127 526.68389839 C308.06295855 526.70246575 304.28333921 526.69624137 300.50331056 526.68574536 C296.41936039 526.67873648 292.33548966 526.69476406 288.25156307 526.70774269 C280.25832338 526.7293597 272.26522619 526.72926171 264.27196688 526.72111715 C257.77387394 526.71481156 251.27582249 526.71595931 244.77772999 526.72238922 C243.85209061 526.72329088 242.92645123 526.72419253 241.97276218 526.72512151 C240.09219829 526.72697275 238.2116344 526.72883531 236.33107053 526.73070907 C218.70521092 526.74727953 201.07943141 526.73857475 183.45357662 526.72172349 C167.33655058 526.70702724 151.21971097 526.72165521 135.10270894 526.75049365 C118.54315367 526.77990273 101.9836844 526.79085552 85.42410415 526.78131145 C83.55023954 526.78028893 81.67637491 526.77929432 79.80251026 526.77832794 C78.88059533 526.77785155 77.9586804 526.77737516 77.00882866 526.77688434 C70.52120574 526.7747222 64.03366443 526.7845136 57.54605961 526.79909897 C49.63586649 526.81663491 41.72591102 526.81648686 33.81572718 526.79374731 C29.78197445 526.78261652 25.74864023 526.7794159 21.71490574 526.79804802 C18.01793605 526.81490451 14.3217482 526.8084331 10.62482869 526.78383123 C8.66322931 526.77666931 6.70158694 526.79393623 4.74005991 526.81224257 C-4.43277501 526.71578483 -10.9706433 524.6887953 -18.08928776 518.83568764 C-24.22116087 511.30224352 -26.43090734 505.89764155 -26.40821552 496.16918087 C-26.41026816 495.35515412 -26.41232079 494.54112737 -26.41443563 493.70243314 C-26.42011878 490.95731092 -26.41864675 488.21223867 -26.41722965 485.46711159 C-26.41981253 483.48604404 -26.42282548 481.50497701 -26.42623305 479.5239107 C-26.43431536 474.06616402 -26.43609331 468.60843048 -26.43683052 463.15067852 C-26.43867894 457.26980922 -26.44622521 451.38894678 -26.45296574 445.50808144 C-26.46726733 431.97135001 -26.47307676 418.4346204 -26.47765768 404.89788282 C-26.47999338 398.20885936 -26.483596 391.51983676 -26.48735306 384.83081397 C-26.50018882 361.93458855 -26.51090797 339.03836361 -26.51435566 316.14213467 C-26.51457729 314.70474429 -26.51479908 313.26735392 -26.51502101 311.82996355 C-26.51524165 310.38909643 -26.51546213 308.94822931 -26.51568246 307.50736219 C-26.51612501 304.61672262 -26.51657213 301.72608306 -26.51702213 298.8354435 C-26.51713152 298.11873254 -26.51724091 297.40202158 -26.51735362 296.66359211 C-26.52098431 273.4238476 -26.53690467 250.18413429 -26.5602125 226.94440173 C-26.58480852 202.3753175 -26.59852839 177.80625109 -26.59972358 153.23715419 C-26.59989503 150.54006079 -26.60011046 147.84296741 -26.60035801 145.14587402 C-26.60041378 144.48177145 -26.60046955 143.81766888 -26.60052701 143.13344199 C-26.6016064 133.10786006 -26.61096931 123.08230824 -26.62454319 113.05673599 C-26.63992909 101.6524682 -26.64507356 90.24825386 -26.63680509 78.84397767 C-26.63289324 73.02420384 -26.63385434 67.20453771 -26.64786243 61.38477707 C-26.6605691 56.05703505 -26.65943222 50.72948203 -26.64727172 45.40174039 C-26.64530912 43.47438912 -26.64841907 41.5470246 -26.65711609 39.61969195 C-26.66819576 36.99836569 -26.66072888 34.37770796 -26.64872456 31.75640011 C-26.65631975 31.00949646 -26.66391494 30.26259282 -26.67174029 29.49305573 C-26.58210104 20.41559217 -23.67820077 13.65846837 -17.47210026 7.09740639 C-12.55277932 2.72953958 -6.6150464 0.03921261 0 0 Z M-5.27678776 26.14818764 C-5.76869707 29.01649996 -5.95091769 31.28952273 -5.90599346 34.15209389 C-5.91326067 34.95665425 -5.92052787 35.76121462 -5.92801529 36.5901556 C-5.94632396 39.29747149 -5.92888325 42.0033811 -5.91170597 44.71068764 C-5.91746485 46.66660221 -5.92540439 48.62251139 -5.93534219 50.57840919 C-5.95627075 55.96195189 -5.94587296 61.34505307 -5.9304111 66.72859764 C-5.91912612 72.53100813 -5.93654612 78.33334121 -5.95031071 84.13573647 C-5.97257813 95.50610189 -5.96772628 106.87630257 -5.9532475 118.24667454 C-5.94196905 127.48518097 -5.94041832 136.72364114 -5.94586658 145.96215248 C-5.94663275 147.27555264 -5.94739892 148.58895281 -5.9481883 149.94215298 C-5.94938613 151.94123231 -5.95058402 153.94031165 -5.95182275 155.93939096 C-5.96712277 180.92837708 -5.95324253 205.91727323 -5.92633827 230.90624547 C-5.90260965 253.11454522 -5.90473276 275.32270164 -5.92864323 297.53100014 C-5.95540797 322.47384784 -5.96603777 347.41661603 -5.95058191 372.35947609 C-5.94898911 375.01772498 -5.94741726 377.67597388 -5.94586658 380.33422279 C-5.94509521 381.64223256 -5.94432383 382.95024233 -5.94352908 384.29788876 C-5.93920663 393.52844412 -5.94651038 402.75894873 -5.95826435 411.98949623 C-5.97226767 423.23397163 -5.96853501 434.47827245 -5.94186063 445.72272778 C-5.92869335 451.46308505 -5.92361975 457.20315093 -5.94010639 462.94350624 C-5.95495849 468.19403961 -5.94689603 473.44401033 -5.92021863 478.69449234 C-5.91461352 480.59818208 -5.91751926 482.50191894 -5.92959757 484.40557861 C-5.94471832 486.98582998 -5.92929869 489.56413319 -5.90599346 492.14428139 C-5.91769929 492.89017682 -5.92940512 493.63607225 -5.94146568 494.40457058 C-5.87261402 498.19651315 -5.36499744 500.0286107 -3.09244436 503.109281 C0.0927213 505.41576092 1.51942692 505.7735348 5.40292358 505.77460003 C7.1123116 505.79323309 7.1123116 505.79323309 8.8562327 505.81224257 C10.10349821 505.80040684 11.35076372 505.78857111 12.63582516 505.77637672 C13.97785943 505.7814223 15.31988697 505.78865122 16.66189903 505.79787487 C20.3486176 505.81682298 24.03467385 505.80454964 27.72137582 505.78715193 C31.69757919 505.77379448 35.67368459 505.78920909 39.6498785 505.80097389 C47.43849561 505.81936654 55.22686208 505.81082763 63.01547141 505.79288567 C69.34399782 505.77886901 75.67245614 505.77496485 82.00099659 505.77832794 C83.35123668 505.77904411 83.35123668 505.77904411 84.72875435 505.77977474 C86.55730877 505.78080105 88.38586318 505.78185641 90.21441757 505.7829405 C106.38821639 505.79151072 122.56189407 505.77482159 138.73566341 505.74511147 C154.43753809 505.71626849 170.13923826 505.70919236 185.84113216 505.72460365 C202.93228152 505.74135547 220.023348 505.74541082 237.11449951 505.72789329 C238.93608088 505.72604887 240.75766227 505.72421414 242.57924366 505.72238922 C243.92369073 505.72102109 243.92369073 505.72102109 245.29529836 505.71962531 C251.61836089 505.71401393 257.94138304 505.71733265 264.2644434 505.72393417 C271.9670161 505.73165659 279.66941687 505.72495418 287.37195487 505.69975913 C291.30361338 505.68723912 295.2350039 505.68114764 299.16667271 505.6923008 C302.76348811 505.70231161 306.35976804 505.69395207 309.95651805 505.67071962 C311.87898372 505.66308407 313.80149616 505.67514435 315.72393519 505.68782336 C317.42941158 505.67125182 317.42941158 505.67125182 319.16934204 505.65434551 C320.15238566 505.65315403 321.13542927 505.65196255 322.14826208 505.65073496 C325.47074834 505.00229267 326.6404451 503.76577495 328.72321224 501.14818764 C329.85295218 497.75896781 329.84739514 495.20013258 329.84626007 491.62580013 C329.84799084 490.62277899 329.84799084 490.62277899 329.84975657 489.59949479 C329.85241844 487.34285869 329.84790458 485.08629292 329.84346676 482.82966042 C329.84390255 481.20189974 329.8447776 479.57413912 329.84605592 477.94637889 C329.84829937 473.46092795 329.84428164 468.97550074 329.83927786 464.49005282 C329.83497141 459.65774956 329.83641993 454.82544772 329.83718014 449.99314308 C329.83770525 441.61669343 329.83455979 433.24025156 329.8289423 424.86380386 C329.82082556 412.75277 329.8182119 400.64173991 329.81695431 388.53070363 C329.81476406 368.88276973 329.80810472 349.23483998 329.7986517 329.58690834 C329.78947687 310.49739032 329.78239638 291.40787343 329.77814388 272.31835365 C329.77788116 271.14226557 329.77761844 269.96617748 329.77734775 268.75445036 C329.77604274 262.85453819 329.77477903 256.95462602 329.77353585 251.05471385 C329.76316409 202.0858681 329.74472624 153.11703001 329.72321224 104.14818764 C297.71321224 104.14818764 265.70321224 104.14818764 232.72321224 104.14818764 C232.72321224 76.75818764 232.72321224 49.36818764 232.72321224 21.14818764 C203.12550883 21.03798 173.52792458 20.94565179 143.93006991 20.89286099 C140.43655645 20.88660738 136.94304342 20.88013578 133.4495306 20.87352943 C132.75402891 20.87221788 132.05852722 20.87090633 131.34194972 20.86955503 C120.0773375 20.84779264 108.81285274 20.8083666 97.54831616 20.76242366 C85.99165617 20.71568205 74.43508591 20.68827145 62.87833327 20.67774516 C56.38626579 20.67121765 49.89448749 20.65583978 43.40251255 20.61953735 C37.29499605 20.5856607 31.18788851 20.57511802 25.08028698 20.58264923 C22.83607227 20.58127097 20.59184422 20.57128936 18.34771061 20.55216026 C15.2879897 20.52735316 12.22982126 20.53323805 9.17006588 20.54691505 C8.27803913 20.53235085 7.38601239 20.51778664 6.46695453 20.50278109 C5.64536812 20.51273634 4.82378171 20.52269158 3.97729874 20.53294849 C3.27139864 20.53104989 2.56549855 20.52915129 1.83820754 20.52719516 C-1.62640912 21.54445553 -3.10195499 23.31486562 -5.27678776 26.14818764 Z M253.72321224 35.14818764 C253.72321224 50.65818764 253.72321224 66.16818764 253.72321224 82.14818764 C271.54321224 82.14818764 289.36321224 82.14818764 307.72321224 82.14818764 C302.45799227 75.99079469 302.45799227 75.99079469 296.59821224 70.89818764 C292.48506895 67.62104908 288.56512464 64.23231207 284.72321224 60.64818764 C280.14821136 56.38956668 275.41740453 52.40801289 270.53961849 48.49584389 C266.75771582 45.3433841 263.16650592 42.00076703 259.60602474 38.60131264 C257.09507353 35.94068147 257.09507353 35.94068147 253.72321224 35.14818764 Z " fill="#ffffff" transform="translate(407.27678775787354,453.8518123626709)"/>
<path d="M0 0 C0.8676474 -0.00445784 1.7352948 -0.00891569 2.62923455 -0.01350862 C3.58816228 -0.01332426 4.54709 -0.01313989 5.53507614 -0.01294994 C7.05649613 -0.01846498 7.05649613 -0.01846498 8.60865188 -0.02409142 C12.02950519 -0.03516183 15.45032817 -0.03897777 18.87119675 -0.04278088 C21.31492841 -0.04904296 23.75865911 -0.05568953 26.20238876 -0.0626936 C33.55203577 -0.08194597 40.90167473 -0.0925255 48.25133955 -0.10142139 C51.71135462 -0.10580308 55.17136814 -0.11117021 58.63138199 -0.11641026 C70.13159619 -0.13342374 81.63180944 -0.14791811 93.1320343 -0.155159 C96.11719133 -0.15706893 99.10234834 -0.15898926 102.08750534 -0.16094494 C102.82946355 -0.16142868 103.57142177 -0.16191242 104.33586356 -0.16241082 C116.35623661 -0.17071186 128.37651017 -0.19604944 140.39683977 -0.22852562 C152.73440946 -0.26158746 165.07192857 -0.27960698 177.4095428 -0.28280324 C184.33805938 -0.28496921 191.26643089 -0.29373032 198.19490433 -0.31926441 C204.71196394 -0.34322659 211.22880921 -0.34680258 217.74592018 -0.33650303 C220.13967061 -0.3360061 222.53343365 -0.34237259 224.927145 -0.35605907 C228.19203501 -0.37368409 231.45597741 -0.36671744 234.72086716 -0.35352612 C235.67087199 -0.36449536 236.62087683 -0.37546461 237.59966969 -0.38676625 C243.34275576 -0.33064279 246.45788412 0.40214348 250.88193893 4.13422108 C253.7714839 7.37916462 255.12898652 10.86599889 255.31943893 15.19672108 C254.69689886 20.79958179 253.11107096 24.26464096 248.88193893 27.94672108 C245.33521483 30.53287407 242.9813623 31.25809853 238.70888615 31.26844215 C237.42717894 31.27512892 237.42717894 31.27512892 236.11957866 31.28195077 C235.18049181 31.28176641 234.24140496 31.28158205 233.27386093 31.2813921 C232.27647186 31.28506879 231.27908278 31.28874547 230.25146979 31.29253358 C226.89366855 31.30358794 223.53589824 31.30741723 220.17808151 31.31122303 C217.77685573 31.31748635 215.37563093 31.32413303 212.9744072 31.33113575 C205.75716872 31.35037547 198.53993279 31.36096587 191.32267645 31.36986354 C187.92319127 31.37424752 184.52370765 31.37961406 181.12422371 31.38485241 C169.82213318 31.40186447 158.52004361 31.41635824 147.21794224 31.42360115 C144.28522172 31.42551102 141.35250122 31.42743135 138.41978073 31.42938709 C137.6908751 31.42987083 136.96196947 31.43035457 136.21097579 31.43085297 C124.40541192 31.43915178 112.59994943 31.46448622 100.79442982 31.49696777 C88.67152114 31.53005038 76.54866396 31.54805101 64.4257099 31.55124539 C57.62010422 31.55340943 50.81464636 31.56214233 44.0090847 31.58770657 C37.60609604 31.61170314 31.20330113 31.61523167 24.8002739 31.60494518 C22.45090158 31.60444903 20.10151629 31.61079272 17.75218391 31.62450123 C14.54278155 31.64217956 11.33433806 31.63513318 8.12493515 31.62196827 C7.19700191 31.63293752 6.26906867 31.64390676 5.31301624 31.65520841 C-0.57533839 31.59696432 -5.25790981 30.61159888 -10.11806107 27.13422108 C-13.80193964 22.92775424 -14.72066779 18.80781287 -14.43837357 13.27484608 C-13.74687019 8.65357958 -11.97954947 5.91166183 -8.55556107 2.82172108 C-5.38587063 0.62732 -3.79165325 0.00901345 0 0 Z " fill="#ffffff" transform="translate(449.1180610656738,637.8657789230347)"/>
<path d="M0 0 C0.8676474 -0.00445784 1.7352948 -0.00891569 2.62923455 -0.01350862 C3.58816228 -0.01332426 4.54709 -0.01313989 5.53507614 -0.01294994 C7.05649613 -0.01846498 7.05649613 -0.01846498 8.60865188 -0.02409142 C12.02950519 -0.03516183 15.45032817 -0.03897777 18.87119675 -0.04278088 C21.31492841 -0.04904296 23.75865911 -0.05568953 26.20238876 -0.0626936 C33.55203577 -0.08194597 40.90167473 -0.0925255 48.25133955 -0.10142139 C51.71135462 -0.10580308 55.17136814 -0.11117021 58.63138199 -0.11641026 C70.13159619 -0.13342374 81.63180944 -0.14791811 93.1320343 -0.155159 C96.11719133 -0.15706893 99.10234834 -0.15898926 102.08750534 -0.16094494 C102.82946355 -0.16142868 103.57142177 -0.16191242 104.33586356 -0.16241082 C116.35623661 -0.17071186 128.37651017 -0.19604944 140.39683977 -0.22852562 C152.73440946 -0.26158746 165.07192857 -0.27960698 177.4095428 -0.28280324 C184.33805938 -0.28496921 191.26643089 -0.29373032 198.19490433 -0.31926441 C204.71196394 -0.34322659 211.22880921 -0.34680258 217.74592018 -0.33650303 C220.13967061 -0.3360061 222.53343365 -0.34237259 224.927145 -0.35605907 C228.19203501 -0.37368409 231.45597741 -0.36671744 234.72086716 -0.35352612 C235.67087199 -0.36449536 236.62087683 -0.37546461 237.59966969 -0.38676625 C243.33723849 -0.3306967 246.47271007 0.38616357 250.88193893 4.13422108 C253.63125044 7.69950472 254.78344961 11.3181667 255.31943893 15.75922108 C254.63436522 21.04407543 252.88093588 24.47495507 248.88193893 27.94672108 C245.33521483 30.53287407 242.9813623 31.25809853 238.70888615 31.26844215 C237.42717894 31.27512892 237.42717894 31.27512892 236.11957866 31.28195077 C235.18049181 31.28176641 234.24140496 31.28158205 233.27386093 31.2813921 C232.27647186 31.28506879 231.27908278 31.28874547 230.25146979 31.29253358 C226.89366855 31.30358794 223.53589824 31.30741723 220.17808151 31.31122303 C217.77685573 31.31748635 215.37563093 31.32413303 212.9744072 31.33113575 C205.75716872 31.35037547 198.53993279 31.36096587 191.32267645 31.36986354 C187.92319127 31.37424752 184.52370765 31.37961406 181.12422371 31.38485241 C169.82213318 31.40186447 158.52004361 31.41635824 147.21794224 31.42360115 C144.28522172 31.42551102 141.35250122 31.42743135 138.41978073 31.42938709 C137.6908751 31.42987083 136.96196947 31.43035457 136.21097579 31.43085297 C124.40541192 31.43915178 112.59994943 31.46448622 100.79442982 31.49696777 C88.67152114 31.53005038 76.54866396 31.54805101 64.4257099 31.55124539 C57.62010422 31.55340943 50.81464636 31.56214233 44.0090847 31.58770657 C37.60609604 31.61170314 31.20330113 31.61523167 24.8002739 31.60494518 C22.45090158 31.60444903 20.10151629 31.61079272 17.75218391 31.62450123 C14.54278155 31.64217956 11.33433806 31.63513318 8.12493515 31.62196827 C7.19700191 31.63293752 6.26906867 31.64390676 5.31301624 31.65520841 C-0.57533839 31.59696432 -5.25790981 30.61159888 -10.11806107 27.13422108 C-13.80193964 22.92775424 -14.72066779 18.80781287 -14.43837357 13.27484608 C-13.74687019 8.65357958 -11.97954947 5.91166183 -8.55556107 2.82172108 C-5.38587063 0.62732 -3.79165325 0.00901345 0 0 Z " fill="#ffffff" transform="translate(449.1180610656738,811.8657789230347)"/>
<path d="M0 0 C1.51451917 -0.00935994 1.51451917 -0.00935994 3.05963469 -0.01890898 C6.43521858 -0.03483476 9.81007998 -0.02223585 13.18566895 -0.00964355 C15.6088147 -0.01506483 18.03195717 -0.02218751 20.45509338 -0.03088379 C26.34875444 -0.0472261 32.24222858 -0.04483922 38.1358844 -0.03323323 C42.92686454 -0.02419021 47.71778758 -0.02297864 52.5087738 -0.02732849 C53.19131854 -0.02794142 53.87386328 -0.02855436 54.57709119 -0.02918586 C55.96377935 -0.0304648 57.35046749 -0.03176165 58.73715562 -0.03307623 C71.73229995 -0.04447539 84.72733131 -0.03137879 97.72245711 -0.00987476 C108.86666371 0.00799566 120.01070363 0.00489136 131.15490723 -0.0135498 C144.1043594 -0.0349683 157.05371262 -0.04337681 170.00318003 -0.03110075 C171.38469345 -0.02982659 172.76620689 -0.0285691 174.14772034 -0.02732849 C174.82740567 -0.02671139 175.50709101 -0.02609429 176.20737287 -0.02545848 C180.99117298 -0.02200851 185.77491019 -0.0278263 190.55870056 -0.0372467 C197.00035335 -0.0496533 203.44176558 -0.04078771 209.88339043 -0.01766968 C212.24768488 -0.01238007 214.61200583 -0.01390061 216.97628975 -0.02272034 C220.20338236 -0.03364889 223.42946585 -0.01994349 226.65649414 0 C227.59239364 -0.00892289 228.52829314 -0.01784577 229.49255323 -0.02703905 C235.44509398 0.04432822 238.93754094 1.06216713 243.82824707 4.50793457 C246.64871006 7.9363169 247.70684448 11.65811644 248.32824707 16.00793457 C247.70684448 20.3577527 246.64871006 24.07955224 243.82824707 27.50793457 C238.02948707 31.59347515 233.64669547 32.08251388 226.65649414 32.01586914 C225.64681469 32.0221091 224.63713525 32.02834907 223.59685946 32.03477812 C220.22127556 32.0507039 216.84641416 32.03810499 213.4708252 32.0255127 C211.04767944 32.03093397 208.62453698 32.03805666 206.20140076 32.04675293 C200.3077397 32.06309524 194.41426556 32.06070836 188.52060974 32.04910237 C183.72962961 32.04005935 178.93870656 32.03884778 174.14772034 32.04319763 C173.4651756 32.04381056 172.78263086 32.0444235 172.07940295 32.045055 C170.69271479 32.04633394 169.30602665 32.04763079 167.91933852 32.04894537 C154.92419419 32.06034453 141.92916283 32.04724793 128.93403703 32.0257439 C117.78983043 32.00787348 106.64579051 32.01097778 95.50158691 32.02941895 C82.55213474 32.05083744 69.60278152 32.05924595 56.65331411 32.04696989 C55.27180069 32.04569573 53.89028726 32.04443825 52.5087738 32.04319763 C51.82908847 32.04258053 51.14940313 32.04196343 50.44912127 32.04132763 C45.66532116 32.03787765 40.88158395 32.04369544 36.09779358 32.05311584 C29.65614079 32.06552244 23.21472856 32.05665685 16.77310371 32.03353882 C14.40880926 32.02824921 12.04448831 32.02976975 9.68020439 32.03858948 C6.45311178 32.04951803 3.22702829 32.03581263 0 32.01586914 C-0.9358995 32.02479203 -1.871799 32.03371491 -2.83605909 32.04290819 C-8.79121461 31.97150958 -12.30450561 31.00511491 -17.17175293 27.50793457 C-20.71938649 23.26618063 -21.841897 19.22969488 -21.55065918 13.71496582 C-20.64982342 8.46782969 -18.45021943 5.42652934 -14.15514374 2.34046173 C-9.54544586 -0.15254958 -5.14192162 -0.0490232 0 0 Z " fill="#ffffff" transform="translate(456.1717529296875,726.4920654296875)"/>
<path d="M0 0 C0.66 0.33 1.32 0.66 2 1 C-1.96 4.96 -5.92 8.92 -10 13 C-10.66 12.67 -11.32 12.34 -12 12 C-8.27653164 7.57905197 -4.70478962 3.42166518 0 0 Z " fill="#ffffff" transform="translate(284,10)"/>
<path d="M0 0 C0.66 0.33 1.32 0.66 2 1 C-0.97 3.97 -3.94 6.94 -7 10 C-7.66 9.67 -8.32 9.34 -9 9 C-6.21000549 5.51250686 -3.74764169 2.49842779 0 0 Z " fill="#ffffff" transform="translate(16,64)"/>
<path d="M0 0 C0.66 0.33 1.32 0.66 2 1 C-0.64 3.64 -3.28 6.28 -6 9 C-6 6 -6 6 -3.5625 3.375 C-2.716875 2.59125 -1.87125 1.8075 -1 1 C-0.67 0.67 -0.34 0.34 0 0 Z " fill="#ffffff" transform="translate(443,728)"/>
<path d="M0 0 C0.66 0.33 1.32 0.66 2 1 C-0.64 3.64 -3.28 6.28 -6 9 C-6 6 -6 6 -3.5625 3.375 C-2.716875 2.59125 -1.87125 1.8075 -1 1 C-0.67 0.67 -0.34 0.34 0 0 Z " fill="#ffffff" transform="translate(181,58)"/>
<path d="M0 0 C0.66 0.33 1.32 0.66 2 1 C1.0479279 2.00596297 0.08812654 3.00461563 -0.875 4 C-1.40867187 4.556875 -1.94234375 5.11375 -2.4921875 5.6875 C-4 7 -4 7 -6 7 C-4.60667426 3.63279613 -3.0210714 2.0140476 0 0 Z " fill="#ffffff" transform="translate(443,813)"/>
<path d="M0 0 C0.66 0.33 1.32 0.66 2 1 C1.0479279 2.00596297 0.08812654 3.00461563 -0.875 4 C-1.40867187 4.556875 -1.94234375 5.11375 -2.4921875 5.6875 C-4 7 -4 7 -6 7 C-4.60667426 3.63279613 -3.0210714 2.0140476 0 0 Z " fill="#ffffff" transform="translate(443,639)"/>
</svg>
