<?xml version="1.0" encoding="UTF-8"?>
<svg version="1.1" xmlns="http://www.w3.org/2000/svg" width="512" height="512">
<path d="M0 0 C3.09773401 1.58941454 6.19812793 3.17351108 9.29946899 4.75587463 C11.21377312 5.73476725 13.12572075 6.7182951 15.03427124 7.70835876 C21.79949023 11.19836801 28.64460469 14.49716843 35.51806641 17.76782227 C45.99475788 22.75564421 56.39329053 27.8858653 66.76220703 33.09352112 C69.73498278 34.58648467 72.70913683 36.0766731 75.68359375 37.56628418 C83.06104034 41.26157587 90.43625718 44.96130889 97.81152344 48.66094971 C104.08448992 51.80742405 110.35834458 54.95211524 116.63330078 58.09461975 C119.51550329 59.53888157 122.39645879 60.98560746 125.27734375 62.43249512 C135.54065673 67.57830386 145.85090167 72.61041609 156.21720695 77.54548073 C165.44138454 81.93988728 174.60790473 86.44549961 183.7578125 90.9921875 C184.59101894 91.40612888 185.42422539 91.82007027 186.28268051 92.24655533 C190.65988203 94.42203052 195.03573977 96.60018353 199.41064453 98.78027344 C202.99971376 100.56805518 206.59163849 102.34990728 210.18603516 104.12695312 C214.58714503 106.30287304 218.98328067 108.48853902 223.37600327 110.68133926 C225.03364561 111.50681687 226.69297987 112.32890652 228.35406876 113.14742661 C230.661585 114.28537405 232.96247257 115.43578038 235.26220703 116.58935547 C235.93745422 116.9187764 236.61270142 117.24819733 237.30841064 117.58760071 C243.95431461 120.95443302 249.39000474 126.2101408 252.8125 132.875 C254.92024779 139.84678116 255.00246445 145.685748 252.625 152.5625 C248.33797253 160.24958373 242.71724917 164.39315472 235.05371094 168.25024414 C234.21843746 168.67991265 233.38316399 169.10958117 232.52257919 169.55226994 C229.89532036 170.89965376 227.26107405 172.23245741 224.625 173.5625 C223.00521444 174.38509425 221.38546264 175.20775499 219.76574707 176.03048706 C214.77461155 178.55773188 209.77080979 181.05931967 204.765625 183.55859375 C202.91968088 184.48190433 201.07379603 185.40533342 199.22796631 186.32887268 C195.38992876 188.2486212 191.55118727 190.16695241 187.71191406 192.08422852 C182.86276965 194.50595998 178.01542334 196.93126541 173.16861343 199.35766506 C169.36481577 201.26139686 165.56004165 203.16317074 161.75499725 205.06440926 C159.97066905 205.95624661 158.18662241 206.84864758 156.4029007 207.74169731 C146.73736886 212.579493 137.04060186 217.33879921 127.28027344 221.98266602 C116.70462716 227.01655868 106.21388425 232.20810849 95.74700928 237.46391296 C92.63980964 239.024078 89.53123875 240.58148287 86.42236328 242.13830566 C79.82208814 245.44407043 73.2234131 248.75302044 66.625 252.0625 C58.95952059 255.90717402 51.29333195 259.75042073 43.62542725 263.59025574 C40.61027181 265.10099835 37.59636124 266.61420225 34.58251953 268.12756348 C23.98521772 273.44011799 13.34758934 278.65450452 2.63815308 283.73769379 C-4.75614629 287.24857946 -12.10040663 290.8550816 -19.41690063 294.52532196 C-26.86460131 298.22229772 -33.97873869 299.52827789 -42.10546875 297.421875 C-49.26976904 294.70905906 -55.18708809 290.05347709 -58.5625 283.125 C-60.5821476 276.75534219 -60.51890892 270.4846015 -60.50871277 263.87234497 C-60.51097833 262.79480512 -60.51324388 261.71726528 -60.51557809 260.60707271 C-60.52190879 256.99601284 -60.52108932 253.38499059 -60.52026367 249.77392578 C-60.52325572 247.18506827 -60.52665836 244.59621121 -60.53044128 242.00735474 C-60.53873879 235.70487311 -60.54149571 229.40240084 -60.54205366 223.09991421 C-60.54252921 217.97617309 -60.54458589 212.85243506 -60.54775429 207.72869492 C-60.55655808 193.19556005 -60.56117405 178.66243256 -60.56042381 164.12929501 C-60.56036388 162.95468607 -60.56036388 162.95468607 -60.56030273 161.75634766 C-60.56026185 160.97231685 -60.56022097 160.18828604 -60.56017885 159.38049673 C-60.55977237 146.67307895 -60.56934328 133.96569081 -60.5834411 121.2582816 C-60.5978091 108.20414766 -60.60471106 95.15002816 -60.60384732 82.09588611 C-60.60351552 74.76946885 -60.60625533 67.44308265 -60.61702538 60.11667252 C-60.62708876 53.22695462 -60.62679069 46.33730337 -60.61950874 39.44758224 C-60.618462 36.91922154 -60.6208311 34.39085676 -60.6268692 31.86250305 C-60.63457916 28.41046539 -60.62995071 24.95865503 -60.62223816 21.50662231 C-60.62738172 20.50680741 -60.63252529 19.50699251 -60.63782471 18.47688019 C-60.59736114 10.2778287 -59.69619228 2.20621084 -54.375 -4.4375 C-36.24692151 -20.66324927 -18.55147138 -9.6409561 0 0 Z " fill="#ffffff" transform="translate(158.375,113.4375)"/>
</svg>
