<?xml version="1.0" encoding="UTF-8"?>
<svg version="1.1" xmlns="http://www.w3.org/2000/svg" width="1600" height="1600">
<path d="M0 0 C1.13359013 -0.00266251 1.13359013 -0.00266251 2.29008107 -0.00537882 C4.82384358 -0.0101119 7.357549 -0.00774748 9.89131415 -0.00541991 C11.73349545 -0.00737342 13.57567634 -0.00976249 15.41785657 -0.01254788 C20.50017129 -0.01895104 25.58247021 -0.01910925 30.6647882 -0.01827047 C36.18640393 -0.01843991 41.70801399 -0.02434528 47.22962689 -0.02951133 C58.1899046 -0.03884229 69.15017826 -0.04276021 80.11045944 -0.0450303 C92.56128946 -0.04783908 105.01211458 -0.05578207 117.4629419 -0.06409795 C149.85609991 -0.08569115 182.24925876 -0.09657493 214.64242233 -0.10557419 C225.14511835 -0.10850825 235.64781416 -0.11187815 246.15050995 -0.1155414 C246.89146668 -0.11579969 247.63242341 -0.11605798 248.39583338 -0.1163241 C251.39349546 -0.11737033 254.39115754 -0.11841875 257.38881961 -0.11946992 C308.65949858 -0.13743274 359.93017788 -0.15281261 411.20085955 -0.16022895 C415.22754021 -0.16081292 419.25422087 -0.16141019 423.28090153 -0.16200657 C424.47905081 -0.16218375 424.47905081 -0.16218375 425.70140513 -0.16236451 C433.79404519 -0.1635619 441.88668526 -0.16477066 449.97932532 -0.16599704 C451.6019245 -0.16624227 453.22452369 -0.16648613 454.84712288 -0.16672861 C506.97472435 -0.17452068 559.10230332 -0.19691045 611.22989495 -0.22940504 C648.68721023 -0.2527468 686.14452105 -0.27430035 723.60184348 -0.28141135 C724.75700681 -0.28163188 724.75700681 -0.28163188 725.93550678 -0.28185687 C742.8401837 -0.28504148 759.74486058 -0.28709252 776.64953776 -0.28808442 C783.45097989 -0.28849916 790.25242201 -0.28905406 797.05386412 -0.28964633 C797.79824114 -0.289707 798.54261816 -0.28976766 799.30955206 -0.28983017 C823.29739664 -0.29184699 847.28521467 -0.30609132 871.27304998 -0.32659133 C895.42890579 -0.3471618 919.58473089 -0.35507176 943.74059459 -0.34551357 C958.73192241 -0.33958995 973.72315069 -0.34442357 988.71446411 -0.36725221 C998.2708834 -0.38070871 1007.82722971 -0.37972909 1017.38364965 -0.36685025 C1022.83439555 -0.35991933 1028.28493914 -0.35940059 1033.73566739 -0.37641034 C1038.69207302 -0.39175204 1043.6481127 -0.38875937 1048.60450716 -0.37100006 C1050.38855777 -0.36784423 1052.17263594 -0.37142605 1053.95665503 -0.38249181 C1071.07869043 -0.48179609 1071.07869043 -0.48179609 1078.23521101 4.12880117 C1079.43772024 4.87758541 1079.43772024 4.87758541 1080.66452259 5.6414966 C1087.25798378 10.91034225 1093.1868088 16.7979621 1099.13479292 22.76768667 C1100.31755813 23.94742699 1101.50075598 25.12673368 1102.68434566 26.30564684 C1105.91777237 29.52882856 1109.14497979 32.75817383 1112.37114239 35.98862416 C1115.85835581 39.4783111 1119.35131345 42.96224062 1122.84350264 46.44694692 C1129.67662596 53.26733959 1136.50428019 60.09318166 1143.32986911 66.92111365 C1148.8781604 72.47118972 1154.42821844 78.01949306 1159.97952902 83.56654912 C1160.77033059 84.3567555 1161.56113216 85.14696188 1162.37589741 85.96111391 C1163.98251004 87.56651476 1165.58912385 89.17191444 1167.19573883 90.77731295 C1182.2517039 105.82240923 1197.30115253 120.87401075 1212.34863315 135.92759211 C1226.11094737 149.69507751 1239.88146148 163.45432765 1253.65586051 177.20972125 C1267.8073798 191.34186464 1281.95333233 205.47955807 1296.09328789 219.62327188 C1304.02875075 227.56064682 1311.96639886 235.49580641 1319.9098841 243.42515355 C1326.67047874 250.17383678 1333.4257982 256.92774652 1340.17438181 263.68844144 C1343.61640334 267.13635263 1347.06077731 270.58182233 1350.5117346 274.02079183 C1353.67315993 277.17136258 1356.82752911 280.32882607 1359.97651235 283.49183126 C1361.11437522 284.63234213 1362.2547539 285.77034998 1363.39794102 286.90552406 C1381.40119278 304.79135426 1381.40119278 304.79135426 1381.50119137 317.6619104 C1381.49652802 318.35510089 1381.49186467 319.04829138 1381.48706001 319.76248765 C1381.48998888 320.51619093 1381.49291774 321.26989421 1381.49593536 322.04643699 C1381.50332907 324.57940403 1381.49645608 327.11213068 1381.48968661 329.6450966 C1381.49207585 331.48429747 1381.49534064 333.32349738 1381.49940321 335.16269532 C1381.50805576 340.24145565 1381.50418329 345.32014245 1381.49834748 350.39890399 C1381.49419017 355.91499839 1381.50157176 361.43107904 1381.50749999 366.94717014 C1381.51628122 376.62327913 1381.51756729 386.29936696 1381.51399672 395.97547895 C1381.50894863 409.69165797 1381.51399295 423.40781855 1381.52191534 437.12399537 C1381.53755951 464.24117644 1381.54022822 491.35834811 1381.53775927 518.47553288 C1381.53742083 522.22396319 1381.53709873 525.97239351 1381.53679359 529.72082382 C1381.53670202 530.83760572 1381.53670202 530.83760572 1381.53660861 531.97694887 C1381.53533711 548.47122881 1381.5379374 564.96550744 1381.54131966 581.45978699 C1381.5420904 585.22525492 1381.54283513 588.99072286 1381.54358467 592.7561908 C1381.54388636 594.26742105 1381.54418824 595.77865131 1381.54449031 597.28988157 C1381.54463999 598.03896993 1381.54478967 598.7880583 1381.54494389 599.55984631 C1381.54524742 601.07503696 1381.5455521 602.59022761 1381.54585793 604.10541826 C1381.55453311 647.108444 1381.55917344 690.11146859 1381.5549103 733.1144951 C1381.55483225 733.9110302 1381.55475419 734.70756531 1381.55467377 735.52823784 C1381.55380096 744.41057886 1381.55287169 753.29291988 1381.55192313 762.17526089 C1381.55183762 762.97721423 1381.55175211 763.77916757 1381.55166401 764.60542252 C1381.5509532 771.26912623 1381.5509532 771.26912623 1381.55062179 774.33492374 C1381.54508741 825.61754166 1381.55262322 876.90014158 1381.57139266 928.18275625 C1381.57611488 941.10104253 1381.5807954 954.01932883 1381.58522952 966.93761522 C1381.58550284 967.73304818 1381.58577616 968.52848115 1381.58605777 969.34801814 C1381.59442993 993.86632596 1381.59910882 1018.38463229 1381.59993708 1042.90294152 C1381.59996345 1043.67279633 1381.59998981 1044.44265113 1381.60001698 1045.23583486 C1381.60055778 1062.13663675 1381.60018526 1079.03743852 1381.59897727 1095.93824037 C1381.59855164 1101.98585001 1381.59818652 1108.03345967 1381.59784782 1114.08106932 C1381.59776252 1115.58556415 1381.59767359 1117.09005898 1381.59758101 1118.5945538 C1381.59613253 1142.562602 1381.60325669 1166.53063796 1381.61458497 1190.49868322 C1381.62623828 1215.31520433 1381.6267952 1240.13170362 1381.61474154 1264.94822484 C1381.60802469 1279.25563842 1381.60976461 1293.56299664 1381.62333006 1307.8704058 C1381.63156055 1317.42626102 1381.62889521 1326.98207306 1381.61735479 1336.53792475 C1381.61108443 1341.983416 1381.60953358 1347.42879482 1381.62121812 1352.87427967 C1381.63176015 1357.83293139 1381.62837709 1362.7913755 1381.6141136 1367.75001613 C1381.61139582 1369.52817101 1381.613647 1371.30634264 1381.62162074 1373.08448171 C1381.74110907 1401.69396778 1372.48106228 1425.0822612 1352.73521101 1446.06630117 C1335.89138055 1462.5255693 1312.51213416 1472.31661547 1289.00897133 1472.25645167 C1287.6379635 1472.25892783 1287.6379635 1472.25892783 1286.23925853 1472.26145403 C1283.16598676 1472.26577972 1280.09276289 1472.26297746 1277.01948988 1472.26022893 C1274.78858145 1472.26187853 1272.55767331 1472.26396478 1270.32676566 1472.26644903 C1264.16509424 1472.27202596 1258.0034367 1472.27134139 1251.84176356 1472.26967144 C1245.83976752 1472.26901691 1239.83777574 1472.27304874 1233.83578136 1472.27693546 C1221.40730686 1472.28480969 1208.97883522 1472.28789755 1196.55035841 1472.2883814 C1183.95276178 1472.28888364 1171.35516835 1472.29152911 1158.75757277 1472.29678899 C1157.96229639 1472.29711912 1157.16702002 1472.29744926 1156.34764436 1472.2977894 C1153.108664 1472.29913938 1149.86968364 1472.30050205 1146.63070329 1472.3018815 C1108.27484604 1472.31818792 1069.9189894 1472.32457057 1031.56312927 1472.32932937 C1012.46584622 1472.33171216 993.36856352 1472.33541555 974.27128074 1472.33936647 C913.02074406 1472.35203118 851.77020739 1472.36281514 790.51966943 1472.36620693 C787.59195006 1472.36636917 784.6642307 1472.36653473 781.73651133 1472.36670131 C775.86487558 1472.36703511 769.99323983 1472.36736559 764.12160408 1472.36769587 C757.24727291 1472.36808277 750.37294173 1472.36847237 743.49861056 1472.36886693 C741.53111755 1472.36897935 739.56362454 1472.36909077 737.59613153 1472.36920119 C674.4029553 1472.37275085 611.20979043 1472.38783009 548.01661853 1472.41113893 C502.61113778 1472.42787998 457.20565918 1472.44335535 411.80017531 1472.44787389 C410.39957058 1472.44801412 410.39957058 1472.44801412 408.9706708 1472.44815718 C388.47300158 1472.45017621 367.9753324 1472.45133227 347.47766308 1472.45168577 C340.14318521 1472.45182194 332.80870734 1472.45203093 325.47422946 1472.45227902 C323.64957825 1472.45234058 321.82492703 1472.4523989 320.00027581 1472.45245397 C290.92316383 1472.45337385 261.84606372 1472.46334286 232.76895564 1472.47791146 C203.48172021 1472.49252661 174.19449934 1472.49756979 144.9072609 1472.48949191 C140.85952654 1472.48837655 136.81179216 1472.48736588 132.76405776 1472.48641759 C131.97059656 1472.48622762 131.17713537 1472.48603766 130.3596299 1472.48584193 C117.79973556 1472.48310908 105.23986815 1472.49044768 92.67997967 1472.50199096 C80.32733603 1472.513134 67.97473045 1472.51356075 55.62208622 1472.50262077 C49.01526854 1472.49706181 42.40852428 1472.49656887 35.80170864 1472.50912949 C29.78930627 1472.52046484 23.77707371 1472.51794775 17.76467723 1472.50446242 C15.60506415 1472.5020302 13.445438 1472.50460612 11.28583932 1472.5128589 C-18.69686887 1472.61988814 -42.53509709 1464.48799106 -64.70228899 1443.62880117 C-81.16155711 1426.7849707 -90.95260329 1403.40572431 -90.89243948 1379.90256149 C-90.89409026 1378.98855626 -90.89574104 1378.07455104 -90.89744184 1377.13284869 C-90.90176754 1374.05957691 -90.89896528 1370.98635304 -90.89621675 1367.91308004 C-90.89786635 1365.68217161 -90.8999526 1363.45126346 -90.90243685 1361.22035581 C-90.90801378 1355.05868439 -90.90732921 1348.89702685 -90.90565926 1342.73535372 C-90.90500473 1336.73335767 -90.90903656 1330.73136589 -90.91292328 1324.72937151 C-90.92079751 1312.30089701 -90.92388537 1299.87242537 -90.92436922 1287.44394857 C-90.92487146 1274.84635193 -90.92751693 1262.2487585 -90.93277681 1249.65116292 C-90.93310694 1248.85588655 -90.93343708 1248.06061017 -90.93377721 1247.24123451 C-90.9351272 1244.00225415 -90.93648986 1240.76327379 -90.93786932 1237.52429344 C-90.95417573 1199.16843619 -90.96055839 1160.81257955 -90.96531719 1122.45671943 C-90.96769998 1103.35943637 -90.97140336 1084.26215367 -90.97535429 1065.16487089 C-90.988019 1003.91433421 -90.99880295 942.66379755 -91.00219474 881.41325958 C-91.00235698 878.48554021 -91.00252254 875.55782085 -91.00268913 872.63010148 C-91.00302293 866.75846573 -91.00335341 860.88682999 -91.00368369 855.01519424 C-91.00407059 848.14086306 -91.00446019 841.26653189 -91.00485475 834.39220071 C-91.00496717 832.4247077 -91.00507859 830.45721469 -91.005189 828.48972168 C-91.00873867 765.29654545 -91.02381791 702.10338058 -91.04712675 638.91020868 C-91.0638678 593.50472793 -91.07934317 548.09924933 -91.08386171 502.69376546 C-91.08395519 501.76002897 -91.08404868 500.82629249 -91.084145 499.86426095 C-91.08616403 479.36659173 -91.08732009 458.86892255 -91.08767358 438.37125324 C-91.08780976 431.03677536 -91.08801875 423.70229749 -91.08826684 416.36781962 C-91.0883284 414.5431684 -91.08838672 412.71851718 -91.08844179 410.89386596 C-91.08936167 381.81675398 -91.09933068 352.73965387 -91.11389927 323.6625458 C-91.12851443 294.37531036 -91.1335576 265.08808949 -91.12547973 235.80085105 C-91.12436436 231.75311669 -91.1233537 227.70538231 -91.12240541 223.65764791 C-91.12221544 222.86418672 -91.12202547 222.07072552 -91.12182975 221.25322005 C-91.1190969 208.69332571 -91.1264355 196.1334583 -91.13797878 183.57356982 C-91.14912182 171.22092618 -91.14954857 158.8683206 -91.13860859 146.51567637 C-91.13304963 139.90885869 -91.13255669 133.30211443 -91.14511731 126.69529879 C-91.15645266 120.68289642 -91.15393557 114.67066386 -91.14045024 108.65826738 C-91.13801802 106.4986543 -91.14059394 104.33902815 -91.14884672 102.17942947 C-91.25587596 72.19672128 -83.12397887 48.35849306 -62.26478899 26.19130117 C-45.998871 10.29675118 -22.81790387 -0.06720506 0 0 Z M183.42271101 83.44130117 C167.64853685 100.50715709 164.90574015 120.9287943 164.98124373 143.19496328 C164.97893247 144.64915002 164.97575152 146.1033356 164.97178924 147.55751878 C164.96352391 151.50805586 164.9675284 155.45849497 164.97376168 159.40903217 C164.9783194 163.68722042 164.97128607 167.96539277 164.96580184 172.24357778 C164.95694138 180.60661667 164.95881486 188.96961952 164.96462712 197.33265978 C164.96915683 204.13375897 164.96975086 210.93484811 164.96757948 217.73594838 C164.96727302 218.70651235 164.96696655 219.67707631 164.9666508 220.67705131 C164.9660113 222.64916633 164.96536288 224.62128135 164.96470562 226.59339637 C164.95901213 245.05540685 164.96554478 263.51739741 164.97630635 281.97940463 C164.98524096 297.79646604 164.98368864 313.61349809 164.97446883 329.43055898 C164.96374883 347.82968708 164.95956136 366.22879777 164.96569335 384.62792856 C164.96633041 386.59250368 164.96695915 388.55707882 164.96757948 390.52165395 C164.96788804 391.48808527 164.96819659 392.45451658 164.96851449 393.4502337 C164.97023624 400.23761488 164.96733756 407.02498494 164.96262038 413.8123644 C164.9569923 422.09183865 164.95856835 430.37127502 164.96918187 438.65074497 C164.97441273 442.86933378 164.97653978 447.08785957 164.96988356 451.3064478 C164.96386798 455.17776278 164.96729034 459.04895709 164.97783867 462.92026132 C164.98108595 464.96336661 164.97465225 467.00648046 164.9677242 469.04957658 C165.05874443 490.80807572 169.47210294 509.64932373 184.54771101 525.94130117 C205.26300685 545.08869617 230.30021111 544.43716803 256.69143994 544.38573628 C260.45890741 544.38062618 264.22635854 544.38719713 267.99382365 544.39222294 C274.5858004 544.39942239 281.17774435 544.39924196 287.76972258 544.39412862 C297.57243385 544.38654551 307.3751176 544.39044055 317.1778287 544.39654524 C334.68819681 544.40706441 352.1985503 544.40616884 369.70891979 544.40038741 C385.03269771 544.39535288 400.35647028 544.39404449 415.68024886 544.3964327 C416.69739212 544.39658547 417.71453539 544.39673824 418.76250117 544.39689564 C422.89159607 544.39751833 427.02069096 544.39815513 431.14978584 544.39881517 C469.87022858 544.4049308 508.59066202 544.39938999 547.31110333 544.38862137 C581.69889681 544.37913043 616.08667548 544.37997969 650.47446883 544.38954335 C689.12487607 544.40025661 727.7752751 544.40449705 766.42568362 544.39831883 C770.54718013 544.39767741 774.66867665 544.39705173 778.79017317 544.3964327 C779.80496308 544.39627454 780.81975298 544.39611639 781.86529409 544.39595344 C797.17804494 544.39368015 812.49078985 544.39633597 827.80353987 544.4013918 C845.21781779 544.4071129 862.63207883 544.40567514 880.04635465 544.39483032 C889.78803879 544.38896347 899.52968637 544.38856613 909.27136956 544.39612267 C915.78351936 544.40061626 922.29563993 544.39780036 928.80778541 544.38911313 C932.51467984 544.38436888 936.22150177 544.38270103 939.92839384 544.38992509 C966.63947915 544.43797 990.40809584 543.9149496 1011.04771101 524.81630117 C1026.82188518 507.75044525 1029.56468188 487.32880804 1029.4891783 465.06263906 C1029.49148956 463.60845231 1029.49467051 462.15426674 1029.49863279 460.70008355 C1029.50689812 456.74954647 1029.50289363 452.79910737 1029.49666035 448.84857017 C1029.49210263 444.57038191 1029.49913596 440.29220956 1029.50462019 436.01402456 C1029.51348065 427.65098566 1029.51160717 419.28798282 1029.50579491 410.92494255 C1029.5012652 404.12384336 1029.50067117 397.32275422 1029.50284255 390.52165395 C1029.50314901 389.55108999 1029.50345548 388.58052602 1029.50377123 387.58055103 C1029.50441073 385.60843601 1029.50505915 383.63632099 1029.50571641 381.66420597 C1029.5114099 363.20219549 1029.50487725 344.74020492 1029.49411568 326.27819771 C1029.48518107 310.46113629 1029.48673339 294.64410424 1029.4959532 278.82704335 C1029.5066732 260.42791525 1029.51086067 242.02880457 1029.50472867 223.62967378 C1029.50409162 221.66509865 1029.50346288 219.70052352 1029.50284255 217.73594838 C1029.50253399 216.76951707 1029.50222544 215.80308575 1029.50190754 214.80736864 C1029.50018579 208.01998746 1029.50308447 201.23261739 1029.50780165 194.44523793 C1029.51342973 186.16576368 1029.51185367 177.88632731 1029.50124016 169.60685736 C1029.4960093 165.38826856 1029.49388225 161.16974277 1029.50053847 156.95115453 C1029.50655405 153.07983955 1029.50313169 149.20864524 1029.49258336 145.33734101 C1029.48933608 143.29423572 1029.49576978 141.25112187 1029.50269783 139.20802575 C1029.4116776 117.44952661 1024.99831909 98.6082786 1009.92271101 82.31630117 C989.20741518 63.16890616 964.17021092 63.8204343 937.77898209 63.87186606 C934.01151462 63.87697615 930.24406349 63.87040521 926.47659838 63.86537939 C919.88462163 63.85817995 913.29267768 63.85836038 906.70069945 63.86347371 C896.89798818 63.87105682 887.09530443 63.86716179 877.29259333 63.8610571 C859.78222522 63.85053792 842.27187173 63.8514335 824.76150224 63.85721492 C809.43772432 63.86224945 794.11395175 63.86355784 778.79017317 63.86116964 C777.26445828 63.86094048 777.26445828 63.86094048 775.70792086 63.8607067 C771.57882596 63.860084 767.44973107 63.8594472 763.32063619 63.85878717 C724.60019345 63.85267154 685.87976 63.85821234 647.1593187 63.86898096 C612.77152522 63.87847191 578.38374655 63.87762264 543.9959532 63.86805898 C505.34554596 63.85734572 466.69514693 63.85310529 428.04473841 63.85928351 C423.9232419 63.85992493 419.80174538 63.86055061 415.68024886 63.86116964 C414.158064 63.86140687 414.158064 63.86140687 412.60512794 63.86164889 C397.29237709 63.86392219 381.97963218 63.86126636 366.66688216 63.85621053 C349.25260424 63.85048944 331.8383432 63.85192719 314.42406738 63.86277202 C304.68238324 63.86863886 294.94073566 63.8690362 285.19905247 63.86147967 C278.68690267 63.85698607 272.1747821 63.85980198 265.66263662 63.86848921 C261.95574219 63.87323345 258.24892026 63.87490131 254.54202819 63.86767724 C227.83094288 63.81963233 204.06232619 64.34265273 183.42271101 83.44130117 Z M187.92271101 799.50380117 C172.26559523 818.06160367 166.03954101 840.16603976 166.11216319 864.01130277 C166.11100944 864.95854249 166.1098557 865.90578221 166.10866699 866.88172617 C166.10602933 870.04227836 166.11049786 873.20277921 166.1149565 876.36332875 C166.11451881 878.6515674 166.11364142 880.939806 166.1123625 883.22804433 C166.11012101 889.51931702 166.11413101 895.81057268 166.11913829 902.10184321 C166.12355495 908.27974303 166.12221814 914.45764318 166.12153059 920.63554411 C166.12028987 933.1955851 166.12357627 945.75562086 166.12963545 958.3156603 C166.13781381 975.29854184 166.13973878 992.28141443 166.14060652 1009.26429921 C166.14585731 1050.09413426 166.15981842 1090.92396782 166.17271101 1131.75380117 C166.19333601 1222.95755117 166.21396101 1314.16130117 166.23521101 1408.12880117 C482.37521101 1408.12880117 798.51521101 1408.12880117 1124.23521101 1408.12880117 C1124.27646101 1317.21380117 1124.31771101 1226.29880117 1124.36021101 1132.62880117 C1124.38752303 1089.54156484 1124.38752303 1089.54156484 1124.4153868 1045.58387929 C1124.42207495 1019.87361342 1124.42207495 1019.87361342 1124.42609847 994.16334707 C1124.4280874 981.94152609 1124.43671005 969.71972726 1124.44855787 957.4979125 C1124.4604831 945.02733377 1124.46487985 932.55676898 1124.46210092 920.08618477 C1124.4607936 913.3213129 1124.46280137 906.55648779 1124.47364128 899.79162103 C1124.48339167 893.66942414 1124.48384608 887.54729844 1124.47701323 881.42509824 C1124.47616787 879.21673645 1124.47868064 877.00837015 1124.48497617 874.80001718 C1124.56847384 843.67037289 1119.77726682 816.95467259 1097.23521101 794.12880117 C1077.50219098 774.6581011 1052.09957723 768.77363577 1025.12490523 768.87711889 C1023.76808328 768.87502604 1022.41126246 768.87205871 1021.05444407 768.86831015 C1017.35697459 768.86059035 1013.65961089 768.86514558 1009.96214332 768.87186606 C1005.92775916 768.87697122 1001.89339037 768.87040713 997.85900843 768.86537939 C990.79838855 768.85817641 983.73779929 768.85836258 976.67717803 768.86347371 C966.1776021 768.87105355 955.67805189 768.86716348 945.17847613 768.8610571 C926.42384061 768.8505354 907.66921873 768.85143451 888.91458192 768.85721492 C872.50195609 768.86224859 856.08933526 768.86355825 839.67670882 768.86116964 C838.04285887 768.86094048 838.04285887 768.86094048 836.37600186 768.8607067 C831.9543057 768.86008401 827.53260955 768.8594472 823.11091341 768.85878717 C781.64292922 768.85267094 740.17495371 768.85821329 698.70697086 768.86898096 C661.87555928 768.87847197 625.04416153 768.87762271 588.21275008 768.86805898 C546.81998192 768.85734673 505.42722143 768.85310472 464.03445208 768.85928351 C459.62087246 768.85992493 455.20729284 768.86055061 450.79371321 768.86116964 C449.16364262 768.86140687 449.16364262 768.86140687 447.50064131 768.86164889 C431.09944882 768.8639226 414.69826187 768.86126558 398.29707015 768.85621053 C379.64578694 768.85049059 360.99451948 768.85192475 342.34323823 768.86277202 C331.90835801 768.86864079 321.47351193 768.86903341 311.0386326 768.86147967 C304.06441795 768.8569884 297.09023061 768.85979779 290.11602 768.86848921 C286.14521639 768.87323667 282.17448051 768.87489453 278.20367908 768.86767724 C274.58325321 768.86116411 270.96295443 768.86403624 267.34253763 768.87403856 C265.44400278 768.87696697 263.54546027 768.87021332 261.64693713 768.86293 C232.49412203 768.98883079 208.02388901 778.19029531 187.92271101 799.50380117 Z M37.23521101 1248.12880117 C37.23521101 1269.24880117 37.23521101 1290.36880117 37.23521101 1312.12880117 C58.35521101 1312.12880117 79.47521101 1312.12880117 101.23521101 1312.12880117 C101.23521101 1291.00880117 101.23521101 1269.88880117 101.23521101 1248.12880117 C80.11521101 1248.12880117 58.99521101 1248.12880117 37.23521101 1248.12880117 Z M1189.23521101 1248.12880117 C1189.23521101 1269.24880117 1189.23521101 1290.36880117 1189.23521101 1312.12880117 C1210.35521101 1312.12880117 1231.47521101 1312.12880117 1253.23521101 1312.12880117 C1253.23521101 1291.00880117 1253.23521101 1269.88880117 1253.23521101 1248.12880117 C1232.11521101 1248.12880117 1210.99521101 1248.12880117 1189.23521101 1248.12880117 Z " fill="#ffffff" transform="translate(154.76478898525238,63.87119883298874)"/>
<path d="M0 0 C1.07881943 -0.00671722 2.15763885 -0.01343445 3.26914978 -0.02035522 C6.82946399 -0.0393262 10.38958959 -0.04325903 13.94995117 -0.04541016 C16.43088355 -0.05183877 18.91181518 -0.05856718 21.39274597 -0.06558228 C26.59192665 -0.07755285 31.79104089 -0.08126332 36.99023438 -0.08007812 C43.64142533 -0.07987497 50.29203913 -0.10717475 56.94315052 -0.14162254 C62.06737716 -0.16389677 67.19150102 -0.16791549 72.3157711 -0.16685867 C74.76729492 -0.16921391 77.21882161 -0.17803299 79.67029762 -0.19352341 C83.10471873 -0.21319268 86.53821925 -0.20734071 89.97265625 -0.1953125 C90.97815521 -0.20655151 91.98365417 -0.21779053 93.0196228 -0.22937012 C102.12216865 -0.14865755 110.48914145 2.95142142 117.18041992 9.29052734 C124.21108557 18.03836017 125.4772462 25.4882982 125.44784546 36.49250793 C125.45237657 37.73268431 125.45690768 38.97286068 125.4615761 40.25061816 C125.47203861 43.68583446 125.47354728 47.12084121 125.47118735 50.55605853 C125.47077884 54.26374153 125.48182161 57.97139342 125.49130249 61.67906189 C125.50790589 68.9404108 125.51341173 76.20172725 125.51452725 83.46309356 C125.51547802 89.36629179 125.51958978 95.26947933 125.5259285 101.17267418 C125.543539 117.91424839 125.55276765 134.65579697 125.55126755 151.39738051 C125.55118764 152.29967023 125.55110772 153.20195996 125.55102539 154.1315918 C125.55094363 155.03498488 125.55086187 155.93837797 125.55077763 156.86914661 C125.54996475 171.50941171 125.56910333 186.14957392 125.59730212 200.78980926 C125.6260369 215.82712503 125.6398421 230.86439062 125.63811457 245.90173453 C125.63745088 254.34212984 125.64293398 262.78241729 125.66447067 271.22278786 C125.68269027 278.40914335 125.68702344 285.59534207 125.67345183 292.78171066 C125.66692608 296.44668435 125.66679037 300.11135734 125.68415833 303.77630234 C125.70281199 307.75353902 125.69032413 311.73033771 125.67489624 315.70759583 C125.68518337 316.86013582 125.69547049 318.01267581 125.70606935 319.20014125 C125.62427567 328.74379639 122.85733461 337.24267295 116.18041992 344.29052734 C107.91594685 350.93271496 100.78211944 352.59039219 90.36083984 352.58105469 C89.28202042 352.58777191 88.20320099 352.59448914 87.09169006 352.60140991 C83.53137585 352.62038089 79.97125026 352.62431372 76.41088867 352.62646484 C73.92995629 352.63289346 71.44902467 352.63962187 68.96809387 352.64663696 C63.7689132 352.65860754 58.56979895 352.66231801 53.37060547 352.66113281 C46.71941452 352.66092966 40.06880071 352.68822944 33.41768932 352.72267723 C28.29346269 352.74495146 23.16933883 352.74897018 18.04506874 352.74791336 C15.59354492 352.75026859 13.14201823 352.75908767 10.69054222 352.77457809 C7.25612111 352.79424737 3.82262059 352.7883954 0.38818359 352.77636719 C-0.61731537 352.7876062 -1.62281433 352.79884521 -2.65878296 352.8104248 C-11.76132881 352.72971224 -20.1283016 349.62963327 -26.81958008 343.29052734 C-33.85024572 334.54269452 -35.11640635 327.09275649 -35.08700562 316.08854675 C-35.09153673 314.84837038 -35.09606784 313.608194 -35.10073626 312.33043653 C-35.11119876 308.89522023 -35.11270744 305.46021348 -35.11034751 302.02499616 C-35.109939 298.31731316 -35.12098176 294.60966127 -35.13046265 290.9019928 C-35.14706605 283.64064388 -35.15257189 276.37932744 -35.1536874 269.11796113 C-35.15463818 263.21476289 -35.15874994 257.31157536 -35.16508865 251.40838051 C-35.18269916 234.6668063 -35.19192781 217.92525772 -35.19042771 201.18367418 C-35.19034779 200.28138445 -35.19026788 199.37909473 -35.19018555 198.44946289 C-35.19010379 197.5460698 -35.19002202 196.64267672 -35.18993779 195.71190808 C-35.18912491 181.07164298 -35.20826349 166.43148077 -35.23646228 151.79124542 C-35.26519705 136.75392966 -35.27900225 121.71666407 -35.27727473 106.67932016 C-35.27661104 98.23892484 -35.28209413 89.7986374 -35.30363083 81.35826683 C-35.32185043 74.17191134 -35.3261836 66.98571262 -35.31261198 59.79934403 C-35.30608624 56.13437034 -35.30595053 52.46969735 -35.32331848 48.80475235 C-35.34197215 44.82751567 -35.32948429 40.85071698 -35.3140564 36.87345886 C-35.32434352 35.72091887 -35.33463065 34.56837888 -35.34522951 33.38091344 C-35.26343583 23.83725829 -32.49649477 15.33838174 -25.81958008 8.29052734 C-17.555107 1.64833973 -10.4212796 -0.00933751 0 0 Z " fill="#ffffff" transform="translate(962.819580078125,191.70947265625)"/>
</svg>
