<?xml version="1.0" encoding="UTF-8"?>
<svg version="1.1" xmlns="http://www.w3.org/2000/svg" width="1600" height="1600" fill="#ffffff">
<path d="M0 0 C0.61214355 0.32613281 1.22428711 0.65226562 1.85498047 0.98828125 C10.46519148 5.60491776 18.37529251 10.89259976 26 17 C26.774646 17.60328125 27.54929199 18.2065625 28.34741211 18.828125 C36.20138927 25.06286496 43.17602233 31.97465108 50.1875 39.125 C51.88374313 40.84917782 53.58158409 42.57170704 55.282547 44.29122925 C56.32852552 45.34914324 57.37183451 46.40970762 58.41166687 47.47366333 C60.96239979 50.05878428 63.56746813 52.50139154 66.3429718 54.84396362 C72.74143231 60.42467151 78.64498041 66.52253372 84.6328125 72.53515625 C86.00008164 73.9043472 87.36758059 75.2733087 88.73529053 76.64205933 C91.66788301 79.57780039 94.59891759 82.51508477 97.52874756 85.45358276 C102.16630051 90.1047148 106.80771594 94.7519796 111.44970703 99.39868164 C122.13987115 110.10086363 132.82500721 120.80806108 143.51010132 131.51530457 C153.30734717 141.33275547 163.10566249 151.14913268 172.908041 160.96145916 C177.51770545 165.57609116 182.12492389 170.19314698 186.73025513 174.81210327 C189.60034959 177.68968271 192.47253738 180.56516582 195.34528351 183.44009781 C196.67156816 184.76824666 197.99699204 186.09725576 199.32146454 187.42721176 C205.02493117 193.1535367 210.69072251 198.82782781 216.84354591 204.0742836 C222.42314194 209.05687036 227.62756475 214.46105278 232.9206543 219.74365234 C234.3192619 221.13598491 235.71805542 222.52813074 237.11701965 223.92010498 C241.68965034 228.47181238 246.25705423 233.02874652 250.82421875 237.5859375 C252.40512238 239.16278885 253.98605836 240.73960777 255.56702614 242.31639481 C262.99932243 249.72966331 270.42921976 257.14532591 277.8561818 264.5639385 C286.39055546 273.08855586 294.9331298 281.60484225 303.4828307 290.11408651 C310.11614603 296.71710284 316.74163437 303.3279091 323.36146671 309.94444239 C327.30337087 313.88401141 331.24841695 317.82029894 335.20181847 321.74833298 C338.92818297 325.45116992 342.64461345 329.16371185 346.35413933 332.88341522 C347.70457118 334.23433663 349.05832655 335.58194679 350.41593552 336.92565536 C379.71237562 365.93924028 398.4120289 401.47074936 406 442 C406.226875 443.19753906 406.45375 444.39507813 406.6875 445.62890625 C414.3466026 494.93437925 400.59519795 545.79923254 371.51391602 585.8762207 C360.37778526 600.39880008 347.0562532 613.08925974 334.13308053 625.98918566 C331.57269234 628.54609869 329.01525244 631.10595804 326.4574182 633.66542548 C321.9854412 638.13946428 317.51163102 642.61166321 313.03657913 647.08262634 C306.38246399 653.73067878 299.73124702 660.38162521 293.08060028 667.03314718 C281.89028101 678.22477708 270.69764508 689.41408735 259.50366974 700.60206032 C248.42623747 711.67356797 237.3498467 722.74611588 226.27483368 733.82004356 C225.24046995 734.85430419 225.24046995 734.85430419 224.18520998 735.90945896 C220.68296042 739.41137017 217.18072935 742.91329986 213.67850539 746.41523667 C188.89639508 771.19524867 164.11196897 795.97294327 139.32617188 820.74926758 C115.25272932 844.81352025 91.18034991 868.87883563 67.109375 892.94555664 C65.59472802 894.45993297 64.08008102 895.97430928 62.56543398 897.48868555 C50.25755628 909.79437435 37.94975176 922.10013634 25.64196497 934.40591607 C-31.23540089 991.27390137 -88.11811048 1048.13653874 -145 1105 C127.25 1105.495 127.25 1105.495 405 1106 C405 1150.22 405 1194.44 405 1240 C361.04201857 1240.03241965 361.04201857 1240.03241965 343.9899292 1240.04443359 C342.92845042 1240.04518158 341.86697165 1240.04592956 340.77332685 1240.04670021 C270.48915189 1240.09615329 200.2049782 1240.14084537 129.92079163 1240.16937256 C128.55016927 1240.16993036 127.17954691 1240.17048817 125.80892455 1240.17104598 C97.038211 1240.18273711 68.26749719 1240.19360393 39.49678298 1240.20351871 C25.0439642 1240.20850023 10.59114548 1240.21364012 -3.86167319 1240.21892977 C-6.04180504 1240.21972676 -8.22193691 1240.22051924 -10.40206877 1240.22131152 C-43.96680099 1240.23354919 -77.53152741 1240.24918014 -111.09625244 1240.2746582 C-111.81773882 1240.2752058 -112.5392252 1240.27575339 -113.2825748 1240.27631758 C-124.91482122 1240.28516689 -136.54706742 1240.2943014 -148.17931358 1240.30347376 C-181.69017846 1240.3298937 -215.20103886 1240.35419934 -248.71191311 1240.36455917 C-249.74594863 1240.36488038 -249.74594863 1240.36488038 -250.80087376 1240.36520808 C-265.93518717 1240.36987151 -281.06950063 1240.37345076 -296.20381453 1240.37600393 C-302.29367197 1240.37705039 -308.38352937 1240.37825288 -314.47338676 1240.37950897 C-315.4731393 1240.37970954 -315.4731393 1240.37970954 -316.49308886 1240.37991415 C-338.61954194 1240.38443297 -360.74595967 1240.40286715 -382.87239882 1240.42732814 C-404.43665873 1240.45087289 -426.00088576 1240.45987297 -447.56515808 1240.45400551 C-460.37952882 1240.45096141 -473.19377931 1240.45909015 -486.00812836 1240.48319017 C-494.56896647 1240.49819164 -503.12972585 1240.49865326 -511.69056939 1240.48732725 C-516.5678972 1240.48128975 -521.44499763 1240.48154084 -526.32230104 1240.49953273 C-530.76551013 1240.51579848 -535.20831579 1240.51340393 -539.65151916 1240.4965599 C-541.24307946 1240.49371923 -542.83467 1240.49748553 -544.42619161 1240.50894098 C-568.28944093 1240.66971731 -584.41720735 1232.4307712 -601.32151449 1215.79268634 C-603.99492264 1213.14200787 -606.65568196 1210.47882646 -609.31518555 1207.81420898 C-610.51690447 1206.61384837 -611.71883529 1205.41369988 -612.92095947 1204.21374512 C-616.15653221 1200.98269466 -619.38897792 1197.7485333 -622.62069678 1194.51362872 C-626.01782715 1191.11394884 -629.41741688 1187.71672963 -632.81660461 1184.31910706 C-638.51991545 1178.61760989 -644.22112734 1172.91402029 -649.92114258 1167.20922852 C-656.4960582 1160.6288666 -663.07457534 1154.0521217 -669.65496415 1147.47723335 C-675.32416724 1141.81257804 -680.99140707 1136.14596411 -686.6570304 1130.47772843 C-690.03247025 1127.10073565 -693.40856765 1123.72440769 -696.78644371 1120.34985161 C-699.96116758 1117.17803088 -703.13340756 1114.00374612 -706.30380249 1110.82759857 C-707.46265673 1109.66743002 -708.622348 1108.5080968 -709.78296852 1107.34969521 C-719.62941351 1097.52033141 -719.62941351 1097.52033141 -723.49128723 1093.00672913 C-728.36402321 1087.3163623 -733.76030597 1082.11724515 -739.06640625 1076.8359375 C-740.27796402 1075.62630214 -741.48929192 1074.41643651 -742.70040894 1073.20635986 C-745.29565417 1070.61426023 -747.89244093 1068.02371867 -750.490448 1065.43438721 C-754.60390876 1061.33452122 -758.71348794 1057.23077901 -762.82250977 1053.12646484 C-771.54537443 1044.41467053 -780.27246402 1035.70711418 -789 1027 C-798.42411751 1017.59793424 -807.8474943 1008.19513319 -817.26598644 998.78743172 C-821.34539187 994.71298914 -825.42721838 990.64099281 -829.51095581 986.57089233 C-832.05639607 984.03294505 -834.5997326 981.49289742 -837.1425209 978.9522934 C-838.31586317 977.78081291 -839.49006438 976.61019196 -840.66521835 975.44052887 C-846.16734885 969.96328546 -851.62428005 964.49235894 -856.6531105 958.56864357 C-858.54298603 956.36761587 -860.58707218 954.3513694 -862.671875 952.3359375 C-872.1690646 943.06075772 -881.44819064 933.95515811 -889 923 C-889.47840332 922.30648437 -889.95680664 921.61296875 -890.44970703 920.8984375 C-919.85807639 877.60147306 -929.86061888 826.57885816 -920.49609375 775.23730469 C-913.54314806 739.86741243 -896.14603195 709.3947434 -872 683 C-870.77887379 681.65163378 -870.77887379 681.65163378 -869.53307835 680.27602785 C-863.09859219 673.19706753 -856.47751351 666.33511273 -849.70493793 659.57909679 C-848.60626428 658.47937698 -847.50780937 657.3794386 -846.40955028 656.27930477 C-843.41308178 653.27897263 -840.41354789 650.28172215 -837.41346862 647.28500106 C-834.14177672 644.01585984 -830.87300104 640.74380477 -827.60384196 637.47213107 C-821.88116747 631.74585377 -816.15664632 626.02142785 -810.43089294 620.29822922 C-801.91658544 611.78771034 -793.40514576 603.27432761 -784.89425952 594.76038749 C-769.69324796 579.55411439 -754.48938146 564.35069834 -739.28429404 549.14850091 C-725.98051342 535.8472365 -712.67766341 522.54504224 -699.37573814 509.24192238 C-698.49316603 508.35927388 -697.61059392 507.47662539 -696.7012772 506.56722996 C-693.11861492 502.98425634 -689.53595617 499.40127919 -685.95330323 495.81829623 C-660.95566396 470.81838168 -635.95708889 445.81940315 -610.95644093 420.82249737 C-610.25005524 420.11621706 -610.25005524 420.11621706 -609.52939914 419.39566845 C-601.88232691 411.74974112 -594.23521739 404.10385109 -586.58810472 396.45796421 C-556.25036058 366.12507787 -525.91516069 335.78964947 -495.58227539 305.4519043 C-487.93544159 297.80384929 -480.28860271 290.15579935 -472.6417284 282.50778484 C-472.17086901 282.036855 -471.70000961 281.56592516 -471.21488175 281.08072472 C-445.79449603 255.65656177 -420.37180532 230.23470391 -394.94835967 204.81360084 C-391.37317478 201.23873667 -387.79799384 197.66386857 -384.22281456 194.08899879 C-383.34251544 193.20877875 -382.46221632 192.32855871 -381.55524147 191.42166534 C-368.25734582 178.12490753 -354.96068517 164.82691557 -341.66462135 151.52832603 C-326.55073528 136.41158324 -311.43506859 121.2966235 -296.31703905 106.18402448 C-287.85430757 97.72423254 -279.39295664 89.2630653 -270.9335797 80.79991895 C-265.28549464 75.14959453 -259.63559848 69.50108543 -253.98421552 63.85405954 C-250.76280874 60.63503516 -247.54219733 57.41522589 -244.32377718 54.19321521 C-241.39479592 51.26099962 -238.46351618 48.33110224 -235.53040215 45.40302085 C-234.47747042 44.35109458 -233.42537057 43.29833479 -232.37421795 42.24463071 C-226.75199367 36.60973128 -221.05249979 31.16945184 -215 26 C-213.62356209 24.73072421 -212.24826293 23.46021021 -210.875 22.1875 C-152.93403051 -29.1288194 -67.18620252 -36.26199834 0 0 Z M-479.85117531 478.7085743 C-480.36349758 479.21764554 -480.87581985 479.72671679 -481.40366703 480.25121444 C-483.14290289 481.9806824 -484.8785057 483.71375233 -486.61416626 485.44680786 C-487.86377524 486.69097494 -489.1135943 487.93493105 -490.36360681 489.1786927 C-493.81623796 492.61541312 -497.26564948 496.05534959 -500.71452117 499.49584222 C-503.66887102 502.44220703 -506.62507084 505.38671212 -509.58129247 508.33119871 C-520.17676128 518.88467855 -530.76481089 529.44558905 -541.3515625 540.0078125 C-542.18704367 540.84131877 -543.02252483 541.67482503 -543.88332361 542.53358907 C-560.46910953 559.08020708 -577.05217177 575.62955249 -593.62948036 592.18466377 C-597.27752444 595.82773837 -600.92560589 599.47077554 -604.57373047 603.11376953 C-605.48047568 604.01924408 -606.3872209 604.92471862 -607.32144324 605.85763179 C-621.9975656 620.51241231 -636.68744714 635.1533213 -651.38290997 649.78870489 C-666.46701642 664.81165073 -681.53783615 679.84782542 -696.5960325 694.8967427 C-705.05208471 703.34688698 -713.51394991 711.79102833 -721.99089432 720.22021866 C-729.21393207 727.4026044 -736.42493688 734.59680216 -743.62062009 741.80659725 C-747.29059502 745.48302858 -750.96594059 749.15361902 -754.65689468 752.80899811 C-758.04150365 756.16124688 -761.40929247 759.5295165 -764.7648838 762.91080426 C-765.97622748 764.12577653 -767.19342028 765.33495378 -768.41722973 766.53736867 C-781.61047834 779.51391554 -789.08390086 793.83983976 -789.4375 812.8125 C-789.34554417 826.89706848 -785.51472749 840.10926779 -775.90724182 850.589468 C-771.08568308 855.89289131 -766.37388138 861.28435866 -761.67163086 866.69351196 C-699.34144353 938.21169235 -635.05958878 1008.63118213 -444.31163692 1136.57989693 C-438.9559438 1136.93962133 -433.61638482 1137.02164835 -428.25 1137 C-427.36964537 1137.00119119 -426.48929074 1137.00238237 -425.5822587 1137.00360966 C-341.60878525 1136.62712821 -273.03533109 1055.47147825 -218.43566895 1000.39794922 C-173.84038439 955.2741502 -131.49641052 907.97026879 -90 860 C-91.95501263 855.73035882 -94.91096173 852.81316858 -98.20913792 849.54197311 C-98.85610476 848.89239899 -99.5030716 848.24282486 -100.16964349 847.57356668 C-102.35368842 845.38319104 -104.54483427 843.2000582 -106.73597717 841.01678467 C-108.31309038 839.43808422 -109.88976567 837.85894618 -111.46603864 836.27940679 C-115.81048807 831.9285241 -120.16118255 827.58393279 -124.51289427 823.24031544 C-128.71921817 819.03988008 -132.92085524 814.83476331 -137.12261598 810.62976452 C-145.71958664 802.02651388 -154.32128138 793.428001 -162.92573738 784.83223724 C-171.44735446 776.31922702 -179.96712177 767.80437319 -188.48434258 759.28696442 C-189.01364444 758.75765491 -189.54294631 758.22834539 -190.08828762 757.6829962 C-192.23672147 755.53452144 -194.38514297 753.38603434 -196.53354762 751.23753039 C-216.69525502 731.07491651 -236.8623869 710.91773651 -257.03223804 690.76326964 C-274.96724773 672.84188917 -292.89855541 654.91681337 -310.82641602 636.98828125 C-311.97787201 635.83678484 -313.12932803 634.68528846 -314.28078408 633.53379211 C-314.85003199 632.96452385 -315.41927989 632.39525559 -316.00577774 631.80873678 C-318.87106226 628.94335146 -321.73635189 626.07797125 -324.60164738 623.21259689 C-325.16687862 622.64734894 -325.73210986 622.08210098 -326.31446932 621.4997243 C-341.27995563 606.53387318 -356.24789108 591.57047204 -371.2166633 576.60790753 C-371.74881529 576.07597582 -372.28096727 575.54404411 -372.82924508 574.99599325 C-374.96931985 572.85680674 -377.10939468 570.7176203 -379.24948246 568.57844682 C-386.70728994 561.12380387 -394.16426749 553.66833164 -401.62071368 546.21232709 C-411.22583161 536.60780515 -420.83263505 527.00497425 -430.44238526 517.40508696 C-435.07962948 512.77251954 -439.71602318 508.13910694 -444.35030365 503.50357437 C-448.58497839 499.26781093 -452.82192635 495.03433582 -457.06077605 490.8027505 C-458.60130128 489.26405037 -460.14096835 487.72449053 -461.67973126 486.184028 C-463.75644277 484.10527525 -465.83614821 482.02956712 -467.91670322 479.95466232 C-468.52636447 479.34294575 -469.13602572 478.73122919 -469.76416156 478.10097575 C-474.9364016 472.9547216 -474.74614568 473.62250745 -479.85117531 478.7085743 Z " fill="#ffffff" transform="translate(1062,160)"/>
</svg>
