<?xml version="1.0" encoding="UTF-8"?>
<svg version="1.1" xmlns="http://www.w3.org/2000/svg" width="768" height="768" fill="#ffffff">
<path d="M0 0 C2.11136638 1.08197363 4.23888557 2.12850057 6.36669922 3.17773438 C23.38985558 11.71123831 38.70280799 22.31639259 52.90185547 34.97460938 C53.75779297 35.69777344 54.61373047 36.4209375 55.49560547 37.16601562 C80.56285563 58.70322581 98.50637031 90.13215315 102.90185547 122.97460938 C103.1865009 127.16678338 103.23448244 131.33623387 103.21435547 135.53710938 C103.21242188 137.22489502 103.21242188 137.22489502 103.21044922 138.94677734 C103.10147176 148.51636085 101.92870661 157.63661659 99.90185547 166.97460938 C100.46130859 167.23765869 101.02076172 167.50070801 101.59716797 167.77172852 C109.32763505 171.51190125 116.59699862 175.91958347 123.90185547 180.41210938 C125.12037313 181.15793182 126.33912216 181.90337637 127.55810547 182.6484375 C128.15461914 183.01353424 128.75113281 183.37863098 129.36572266 183.75479126 C130.54735086 184.47649136 131.73027713 185.19607083 132.91455078 185.91342163 C135.57892604 187.53072046 138.20495423 189.17822825 140.79248047 190.91650391 C145.4546535 194.17145914 145.4546535 194.17145914 150.88232422 194.70898438 C151.87876953 194.13664063 152.87521484 193.56429687 153.90185547 192.97460938 C154.63098145 192.58466797 155.36010742 192.19472656 156.11132812 191.79296875 C158.84217836 190.31865763 161.52751401 188.77761923 164.21435547 187.22460938 C166.28565532 186.04046492 168.35728112 184.85689048 170.42919922 183.67382812 C171.4976709 183.06200684 172.56614258 182.45018555 173.66699219 181.81982422 C178.85312933 178.86157331 184.06474946 175.94928583 189.27685547 173.03710938 C191.37844705 171.86138011 193.48000939 170.68559858 195.58154297 169.50976562 C196.62536133 168.92598145 197.66917969 168.34219727 198.74462891 167.74072266 C203.96479258 164.82062801 209.18324226 161.89747371 214.40185547 158.97460938 C216.48518047 157.80792784 218.56851381 156.64126118 220.65185547 155.47460938 C221.68310547 154.89710938 222.71435547 154.31960938 223.77685547 153.72460938 C233.15185547 148.47460938 233.15185547 148.47460938 236.27734375 146.72436523 C238.35908279 145.55857185 240.44078856 144.39271906 242.52246094 143.22680664 C247.7549147 140.29628878 252.98795633 137.36683021 258.22216797 134.43945312 C268.29389669 128.80526825 278.3584689 123.15918689 288.40185547 117.47460938 C301.59829721 110.00539613 314.83317268 102.60524537 328.06787109 95.20410156 C331.22109638 93.44051571 334.37407551 91.67649121 337.52685547 89.91210938 C338.56455078 89.33138672 339.60224609 88.75066406 340.67138672 88.15234375 C347.5506312 84.29945025 354.41664473 80.4237695 361.27685547 76.53710938 C370.71706522 71.19048522 380.19387749 65.91169409 389.6809082 60.64868164 C397.57388016 56.26948307 405.46101426 51.88008071 413.33935547 47.47460938 C414.32661621 46.92361572 415.31387695 46.37262207 416.33105469 45.80493164 C417.28125488 45.27311279 418.23145508 44.74129395 419.21044922 44.19335938 C420.60565796 43.41303345 420.60565796 43.41303345 422.02905273 42.61694336 C424.05245929 41.46019518 426.0595101 40.27460088 428.05395508 39.06860352 C429.61448608 38.12682251 429.61448608 38.12682251 431.20654297 37.16601562 C432.13837402 36.59310791 433.07020508 36.0202002 434.03027344 35.42993164 C442.10507163 31.33761128 450.39121786 31.36168213 458.90185547 33.97460938 C463.43815021 35.87763031 467.82801445 38.06067883 472.22216797 40.26757812 C473.49268005 40.89860011 474.76342634 41.52915072 476.03439331 42.15925598 C478.68519174 43.47649961 481.33208281 44.80122288 483.9765625 46.13110352 C487.34511112 47.82402139 490.72405745 49.49489881 494.10646248 51.1599226 C496.72987077 52.45499191 499.34658361 53.76315811 501.96160507 55.07506752 C503.20403249 55.69610276 504.44861777 56.31284242 505.6954689 56.92494774 C515.33726389 61.66985999 523.13490037 66.35929252 527.18310547 76.65429688 C529.71408094 84.82494593 529.23902543 92.30026946 525.40185547 99.97460938 C518.6317373 108.09875118 510.00378085 114.31555813 501.61816406 120.66552734 C498.70965453 122.88393817 495.83728864 125.14793005 492.96435547 127.41210938 C492.38331055 127.86956543 491.80226563 128.32702148 491.20361328 128.79833984 C490.0249019 129.72651804 488.84635396 130.65490383 487.66796875 131.58349609 C484.74814499 133.88335175 481.82483653 136.17876882 478.90185547 138.47460938 C477.73517186 139.39125447 476.56850519 140.30792115 475.40185547 141.22460938 C443.90185547 165.97460938 443.90185547 165.97460938 412.40185547 190.72460938 C411.82467773 191.17811768 411.2475 191.63162598 410.65283203 192.09887695 C409.48295531 193.0180425 408.31303324 193.93715033 407.14306641 194.85620117 C404.2751439 197.10917031 401.40794557 199.36304661 398.54248047 201.61914062 C392.79979361 206.13867092 387.04577722 210.64264303 381.27172852 215.12207031 C374.92269225 220.04759501 368.59781528 224.99687383 362.33935547 230.03710938 C357.11073376 234.24796728 351.81222243 238.35391509 346.46435547 242.41210938 C340.06927979 247.26517716 333.812009 252.26106705 327.60522461 257.35205078 C321.83223174 262.07177914 315.91591998 266.56657345 309.90185547 270.97460938 C310.98993603 274.23885107 311.5058532 274.70047004 314.15576172 276.65429688 C314.83735352 277.16436279 315.51894531 277.67442871 316.22119141 278.19995117 C317.33155762 279.01653198 317.33155762 279.01653198 318.46435547 279.84960938 C320.02452209 281.01808511 321.58307784 282.18871434 323.14013672 283.36132812 C323.93500488 283.95993652 324.72987305 284.55854492 325.54882812 285.17529297 C329.14707549 287.92680605 332.65176651 290.78741876 336.15185547 293.66210938 C342.37912156 298.76222746 348.6980892 303.7084812 355.09716797 308.59228516 C364.91932292 316.11569443 374.65428674 323.74749258 384.2902832 331.50756836 C388.91621502 335.2192504 393.61496863 338.82690979 398.33935547 342.41210938 C404.71750486 347.25390563 410.96409057 352.23232941 417.15893555 357.3059082 C422.26787493 361.48261023 427.4650964 365.52620086 432.71044922 369.52929688 C436.02816456 372.0631956 439.31081884 374.64031816 442.58935547 377.22460938 C447.98692377 381.4786444 453.40882296 385.70025326 458.83935547 389.91210938 C465.12723103 394.79129862 471.36459943 399.72761183 477.56738281 404.71435547 C482.01931554 408.28665799 486.52254611 411.7852593 491.05493164 415.25463867 C496.82242332 419.6715208 502.54540124 424.14362106 508.23828125 428.65625 C509.32646171 429.51861784 510.41593041 430.37936324 511.50683594 431.23828125 C526.89278716 443.37614116 526.89278716 443.37614116 528.71435547 454.03710938 C529.30084882 460.96003093 528.12814072 467.68619039 524.19264221 473.49926758 C518.19792288 480.37559542 511.76709976 484.30571251 503.61669922 488.22460938 C502.34750482 488.85400526 501.07917408 489.4851454 499.81166077 490.11791992 C497.17492269 491.42867123 494.53170951 492.72479032 491.88208008 494.00927734 C488.50402655 495.64718029 485.13973099 497.31120355 481.77937984 498.9850769 C479.16867475 500.28403067 476.55364109 501.5740476 473.93698311 502.86096191 C472.69521312 503.47179257 471.45419069 504.08414565 470.21397209 504.69812012 C460.08003853 509.69784533 451.30842934 513.65589492 439.90185547 510.97460938 C435.00022911 509.05851907 430.47763052 506.55047198 425.90185547 503.97460938 C425.08700684 503.52005371 424.2721582 503.06549805 423.43261719 502.59716797 C418.64003009 499.91975975 413.86241257 497.21696245 409.09326172 494.49804688 C402.92167904 490.98007871 396.72730788 487.50388274 390.52685547 484.03710938 C389.49020752 483.45703125 388.45355957 482.87695312 387.38549805 482.27929688 C384.22453218 480.51062336 381.06324301 478.74252906 377.90185547 476.97460938 C365.76304728 470.18631226 353.62767633 463.39294691 341.52685547 456.53710938 C331.86758347 451.06567943 322.16936549 445.66608518 312.46142578 440.28173828 C305.94948468 436.66951411 299.44501662 433.04523815 292.95898438 429.38671875 C287.99945789 426.5896337 283.03177243 423.80732076 278.0625 421.02758789 C268.83075304 415.86348766 259.60724846 410.6855549 250.40185547 405.47460938 C239.30716711 399.19490316 228.18572111 392.96360216 217.05908203 386.74072266 C210.80514745 383.24234941 204.55348851 379.73991104 198.30151367 376.23803711 C192.95708451 373.24473678 187.61182651 370.25293262 182.26513672 367.26367188 C180.6307666 366.34908203 180.6307666 366.34908203 178.96337891 365.41601562 C176.82595909 364.22106496 174.68731872 363.02829445 172.54736328 361.83789062 C168.12293365 359.37121086 163.71874336 356.8928667 159.39794922 354.24804688 C158.75043701 353.85665527 158.1029248 353.46526367 157.43579102 353.06201172 C155.80596684 352.06854834 154.18910762 351.05389499 152.57373047 350.03710938 C149.99142943 348.68577385 149.99142943 348.68577385 147.63330078 349.68115234 C144.4900155 351.16963334 141.52476666 352.8433538 138.52685547 354.60742188 C137.92107666 354.96295135 137.31529785 355.31848083 136.69116211 355.68478394 C135.40935919 356.43796445 134.12853396 357.19281102 132.84863281 357.94921875 C130.93751581 359.07853695 129.02352009 360.20282792 127.10888672 361.32617188 C119.84512878 365.59740993 112.64750826 369.9577108 105.51123047 374.43896484 C102.90185547 375.97460938 102.90185547 375.97460938 99.90185547 376.97460938 C100.11841797 377.97234375 100.33498047 378.97007812 100.55810547 379.99804688 C107.49057229 414.57819407 100.66923624 447.32626166 81.52294922 476.70117188 C76.18641118 484.57326681 70.0275799 491.59841741 63.41210938 498.41308594 C61.94820333 499.92668811 60.50814582 501.4601684 59.06982422 502.99804688 C22.56081112 541.43852078 -32.62155529 563.53352258 -85.13330078 565.16210938 C-120.65599538 565.82753498 -157.27785444 557.60192392 -183.64501953 532.4387207 C-185.14534397 530.96555894 -186.62617697 529.47606713 -188.09814453 527.97460938 C-188.94248047 527.11738281 -189.78681641 526.26015625 -190.65673828 525.37695312 C-209.10624532 505.74518426 -217.22144098 480.5315931 -217.09814453 453.97460938 C-216.39349882 435.75711969 -212.06162249 419.30742924 -204.09814453 402.97460938 C-203.55158203 401.85183594 -203.00501953 400.7290625 -202.44189453 399.57226562 C-196.50783828 388.02604768 -189.02395345 377.68694917 -180.17626953 368.20507812 C-178.26787562 366.15678316 -176.46189727 364.05425341 -174.66064453 361.91210938 C-141.23539593 323.86341369 -86.3952179 301.48169556 -36.70166016 298.11523438 C-18.47442466 297.13071753 -0.88076911 298.21737101 16.90185547 302.34960938 C18.17428101 302.64484497 18.17428101 302.64484497 19.47241211 302.94604492 C24.77062008 304.25255903 29.61839669 306.00563631 34.57763672 308.28955078 C37.43001895 309.13028445 39.08608948 308.87122704 41.90185547 307.97460938 C43.5918287 306.33157985 45.25401941 304.65989626 46.90185547 302.97460938 C53.07624746 298.45322325 59.73562418 294.63653539 66.33935547 290.78710938 C74.44224101 286.04068093 82.48617041 281.21440877 90.44262695 276.22583008 C95.68615766 272.97460938 95.68615766 272.97460938 97.90185547 272.97460938 C97.90185547 272.31460937 97.90185547 271.65460938 97.90185547 270.97460938 C97.20616455 270.71808594 96.51047363 270.4615625 95.79370117 270.19726562 C92.56545302 268.8323803 89.65519345 267.18670906 86.63232422 265.41210938 C85.74146622 264.89055267 85.74146622 264.89055267 84.83261108 264.35845947 C82.91584792 263.23444423 81.00238107 262.10497244 79.08935547 260.97460938 C78.43901337 260.5915564 77.78867126 260.20850342 77.11862183 259.81384277 C69.531149 255.34440838 61.95036436 250.86262993 54.46435547 246.22460938 C53.86453857 245.8559375 53.26472168 245.48726563 52.64672852 245.10742188 C47.60133574 241.93708052 43.00729082 238.30812446 38.90185547 233.97460938 C38.27923828 234.27753906 37.65662109 234.58046875 37.01513672 234.89257812 C-3.83551499 253.40926126 -54.82093459 248.41499347 -95.79345703 233.11132812 C-117.84069379 224.46215618 -138.84009917 213.11435248 -157.09814453 197.97460938 C-157.69143555 197.48283203 -158.28472656 196.99105469 -158.89599609 196.484375 C-169.39517892 187.72681486 -178.66350471 178.79144632 -187.09814453 167.97460938 C-187.89349609 166.95753906 -188.68884766 165.94046875 -189.50830078 164.89257812 C-200.10610335 150.92389807 -208.58858166 134.94731014 -213.09814453 117.97460938 C-213.41396484 116.90726563 -213.72978516 115.83992187 -214.05517578 114.74023438 C-220.7272974 88.29547837 -216.28626389 59.61966103 -203.40673828 35.85351562 C-194.24848102 20.87307161 -181.89526589 8.38265567 -167.09814453 -1.02539062 C-166.22158203 -1.59773438 -165.34501953 -2.17007813 -164.44189453 -2.75976562 C-116.80117628 -32.33889289 -47.90828638 -24.63029467 0 0 Z M-142.09814453 65.97460938 C-149.08929931 75.00553637 -150.34573543 84.81531784 -149.09814453 95.97460938 C-144.40822772 120.35388656 -125.71397319 138.56064414 -106.03564453 151.97460938 C-76.12362373 171.73471867 -39.80040517 183.94977612 -3.73486328 177.22070312 C9.7376158 174.35738947 22.44488872 168.15987193 30.56591797 156.60742188 C36.0968461 147.00107302 37.38022548 137.55236222 35.24951172 126.63085938 C27.32235222 98.59661292 5.04759639 80.09215535 -18.97314453 65.72460938 C-30.23534211 59.52653497 -42.09925505 54.59026174 -54.47314453 51.09960938 C-55.14893555 50.90858643 -55.82472656 50.71756348 -56.52099609 50.52075195 C-85.08039077 42.97721275 -120.69068932 42.83884586 -142.09814453 65.97460938 Z M442.33935547 62.98242188 C441.76516876 63.29941544 441.19098206 63.616409 440.59939575 63.94300842 C438.69900255 64.99303181 436.80038755 66.04622514 434.90185547 67.09960938 C433.57883028 67.83188511 432.25575028 68.56406183 430.93261719 69.29614258 C413.80657841 78.77853441 396.73811738 88.36217584 379.70507812 98.01049805 C371.14785681 102.85052558 362.55185622 107.61957497 353.95361328 112.38623047 C345.76776191 116.92808031 337.60898196 121.51557103 329.46435547 126.13085938 C322.45588565 130.10103134 315.43223691 134.04338129 308.40185547 137.97460938 C300.39060391 142.45490274 292.38967456 146.95267048 284.40185547 151.47460938 C273.30718272 157.75434292 262.18572093 163.9856167 251.05908203 170.20849609 C245.83891836 173.12859074 240.62046868 176.05174504 235.40185547 178.97460938 C233.31853046 180.14129091 231.23519713 181.30795757 229.15185547 182.47460938 C228.12060547 183.05210937 227.08935547 183.62960937 226.02685547 184.22460938 C216.65185547 189.47460938 216.65185547 189.47460938 213.52636719 191.22485352 C211.44462815 192.3906469 209.36292238 193.55649969 207.28125 194.72241211 C202.04879624 197.65292997 196.81575461 200.58238854 191.58154297 203.50976562 C174.01794526 213.3344625 156.45635414 223.16326128 139.02685547 233.22460938 C138.21748535 233.69084717 137.40811523 234.15708496 136.57421875 234.63745117 C135.83929199 235.06324463 135.10436523 235.48903809 134.34716797 235.92773438 C133.70279785 236.3005957 133.05842773 236.67345703 132.39453125 237.05761719 C130.90747974 237.8915296 130.90747974 237.8915296 129.90185547 238.97460938 C129.93049393 240.3629832 130.029462 241.74998829 130.15673828 243.1328125 C133.26238456 281.18686766 133.26238456 281.18686766 126.46386719 289.59082031 C120.86207796 294.99887992 113.27595986 297.81465685 106.09312439 300.50292969 C98.98047523 303.17370531 92.78282408 307.00703061 86.39712524 311.07843018 C83.55242888 312.88205133 80.66898503 314.61923412 77.78857422 316.36523438 C73.1418753 319.20722493 68.51353035 322.07616329 63.90185547 324.97460938 C64.58248047 325.65523438 65.26310547 326.33585937 65.96435547 327.03710938 C66.42197266 327.49601562 66.87958984 327.95492188 67.35107422 328.42773438 C68.41102209 329.48501236 69.4763978 330.53686932 70.54638672 331.58398438 C74.21740227 335.19699291 77.64576087 338.91814829 80.93310547 342.88476562 C83.71006107 345.83252603 86.79420992 348.38364761 89.90185547 350.97460938 C104.7414801 342.33776488 119.54411434 333.64683376 134.21435547 324.72460938 C134.7985022 324.36948273 135.38264893 324.01435608 135.98449707 323.64846802 C137.66198727 322.62797604 139.33857592 321.60600255 141.01513672 320.58398438 C142.55548584 319.66069336 142.55548584 319.66069336 144.12695312 318.71875 C146.86058723 317.06560386 146.86058723 317.06560386 149.07910156 315.27734375 C151.92551743 313.10054559 153.69003086 311.87579366 157.3449707 312.17382812 C160.28610308 312.9298676 163.05945301 313.90562484 165.90185547 314.97460938 C168.16927858 315.74261826 170.43754441 316.50814254 172.70654297 317.27148438 C176.2762877 318.5050295 179.84207496 319.74773137 183.40185547 321.00976562 C184.55427734 321.40550781 185.70669922 321.80125 186.89404297 322.20898438 C187.92899902 322.57217773 188.96395508 322.93537109 190.03027344 323.30957031 C193.14097993 324.02998899 194.88070185 323.93860325 197.90185547 322.97460938 C200.0785214 321.47396285 202.06431272 319.96956088 204.08935547 318.28710938 C205.33219707 317.28240104 206.57572086 316.27853615 207.81982422 315.27539062 C208.47901855 314.73994629 209.13821289 314.20450195 209.81738281 313.65283203 C213.4729101 310.70974295 217.1908598 307.84719345 220.90185547 304.97460938 C226.24751718 300.82348385 231.58424419 296.66160704 236.90185547 292.47460938 C242.2194741 288.28760592 247.55700758 284.12679135 252.90185547 279.97460938 C260.58982261 274.00146354 268.25306825 267.9978054 275.90185547 261.97460938 C284.31954587 255.34592461 292.75946185 248.74699565 301.22021484 242.17333984 C307.56968575 237.23802006 313.89777383 232.27610189 320.21630859 227.30126953 C323.69608625 224.56240629 327.17919859 221.82778408 330.66162109 219.09228516 C333.52919612 216.83953225 336.39608501 214.58592048 339.26123047 212.33007812 C346.56075685 206.58508051 353.88490447 200.8725732 361.22021484 195.17333984 C367.56968575 190.23802006 373.89777383 185.27610189 380.21630859 180.30126953 C383.69608625 177.56240629 387.17919859 174.82778408 390.66162109 172.09228516 C393.52919612 169.83953225 396.39608501 167.58592048 399.26123047 165.33007812 C406.56363323 159.58281669 413.89043994 153.86776212 421.22900391 148.16674805 C425.79736562 144.61622043 430.3560196 141.05392406 434.90185547 137.47460938 C440.2194741 133.28760592 445.55700758 129.12679135 450.90185547 124.97460938 C456.32866641 120.7582629 461.74961662 116.53490559 467.15185547 112.28710938 C467.71243652 111.84641113 468.27301758 111.40571289 468.85058594 110.95166016 C471.72186835 108.69309559 474.59032348 106.4310014 477.45654297 104.16601562 C484.85813374 98.32382242 492.32816339 92.5924579 499.90185547 86.97460938 C497.5845432 84.39425577 495.2661757 82.97185422 492.17089844 81.4309082 C490.73458572 80.71050102 490.73458572 80.71050102 489.26925659 79.97554016 C488.2379361 79.46605331 487.2066156 78.95656647 486.14404297 78.43164062 C485.08524933 77.90318039 484.02645569 77.37472015 482.93557739 76.83024597 C480.69933462 75.71548419 478.46165522 74.60360034 476.22265625 73.49438477 C472.7805555 71.78894261 469.34281924 70.07495476 465.90576172 68.359375 C463.73543779 67.27879664 461.56487309 66.19870171 459.39404297 65.11914062 C458.35867401 64.60358109 457.32330505 64.08802155 456.25656128 63.55683899 C455.30532379 63.08602402 454.3540863 62.61520905 453.37402344 62.13012695 C452.53257782 61.71281815 451.6911322 61.29550934 450.82418823 60.86555481 C447.28827447 59.22676142 445.67737725 61.1357586 442.33935547 62.98242188 Z M84.90234375 196.83569336 C84.36593262 197.37653564 83.82952148 197.91737793 83.27685547 198.47460938 C82.7314209 199.02125244 82.18598633 199.56789551 81.62402344 200.13110352 C78.06696311 203.7224984 74.71036244 207.43078299 71.43701172 211.28320312 C69.13874862 213.81538613 66.59455933 215.87298685 63.90185547 217.97460938 C66.10097442 220.34866811 68.32962324 221.96987054 71.11279297 223.61132812 C72.35343506 224.34851074 72.35343506 224.34851074 73.61914062 225.10058594 C74.93470947 225.87354004 74.93470947 225.87354004 76.27685547 226.66210938 C78.08458094 227.732992 79.89187192 228.80460842 81.69873047 229.87695312 C82.58367187 230.40144043 83.46861328 230.92592773 84.38037109 231.46630859 C88.8199616 234.12198153 93.19378635 236.8815888 97.56591797 239.64648438 C99.74377658 241.13936242 99.74377658 241.13936242 101.90185547 240.97460938 C102.04880859 240.05679688 102.19576172 239.13898438 102.34716797 238.19335938 C104.370532 227.12299984 107.12114072 221.48850544 116.27685547 214.97460938 C117.80998436 213.96156845 119.34877747 212.95679309 120.90185547 211.97460938 C117.36281567 209.01370529 113.75960701 206.60128264 109.76123047 204.30273438 C109.19357971 203.97545349 108.62592896 203.64817261 108.04107666 203.31097412 C106.8522609 202.62670794 105.66228157 201.94445962 104.47119141 201.26416016 C102.6405213 200.21813314 100.81393012 199.16524499 98.98779297 198.11132812 C91.58167483 192.76646404 91.58167483 192.76646404 84.90234375 196.83569336 Z M284.90185547 288.97460938 C284.22123047 289.55726563 283.54060547 290.13992188 282.83935547 290.74023438 C276.39887827 296.18723371 269.81076847 301.34771225 263.03637695 306.37231445 C258.4358214 309.79538897 253.92519898 313.30916599 249.46435547 316.91210938 C243.4529708 321.76592857 237.3514991 326.48723901 231.20068359 331.1628418 C225.81561683 335.26057981 220.48428805 339.42174496 215.19067383 343.63696289 C211.11171607 346.86967907 211.11171607 346.86967907 208.90185547 347.97460938 C208.90185547 348.63460937 208.90185547 349.29460937 208.90185547 349.97460938 C210.05463989 350.60737793 210.05463989 350.60737793 211.23071289 351.25292969 C224.54385807 358.56568628 237.84425655 365.89091342 251.01049805 373.46606445 C258.06237979 377.51523578 265.16380617 381.47152807 272.27685547 385.41210938 C281.65741899 390.60887825 291.01291064 395.84647628 300.34326172 401.1328125 C307.31022729 405.07883242 314.28972047 409.00191767 321.27685547 412.91210938 C322.31455078 413.49283203 323.35224609 414.07355469 324.42138672 414.671875 C327.58134512 416.43980712 330.74155125 418.20729551 333.90185547 419.97460938 C347.02955421 427.31591653 360.14911807 434.67049043 373.23828125 442.08032227 C381.32824225 446.65733651 389.43786439 451.19874649 397.55053711 455.73535156 C403.68357243 459.16683423 409.81047911 462.60859333 415.92236328 466.07763672 C417.8498017 467.16589413 419.78269655 468.24454983 421.72119141 469.31298828 C426.20568588 471.79617023 430.50387049 474.33702064 434.67138672 477.32617188 C441.70316344 482.42942867 441.70316344 482.42942867 450.00244141 483.765625 C455.04180185 482.28716386 459.37058797 479.49775625 463.81591797 476.76806641 C467.52502832 474.61243946 471.3271608 472.72217896 475.18310547 470.84570312 C475.909039 470.49157349 476.63497253 470.13744385 477.38290405 469.77258301 C478.8593886 469.05313369 480.3361453 468.33424263 481.81317139 467.61590576 C485.37537618 465.87993373 488.92806684 464.12613614 492.47216797 462.35351562 C493.42391907 461.88672646 493.42391907 461.88672646 494.39489746 461.4105072 C497.75797939 459.85343834 497.75797939 459.85343834 499.90185547 456.97460938 C499.12583984 456.38035156 498.34982422 455.78609375 497.55029297 455.17382812 C489.87995982 449.29159708 482.26008173 443.34846694 474.66796875 437.36572266 C471.74814499 435.065867 468.82483653 432.77044993 465.90185547 430.47460938 C464.73517186 429.55796428 463.56850519 428.6412976 462.40185547 427.72460938 C461.82435547 427.27085937 461.24685547 426.81710937 460.65185547 426.34960938 C427.40185547 400.22460938 427.40185547 400.22460938 425.65283203 398.8503418 C424.48295531 397.93117625 423.31303324 397.01206842 422.14306641 396.09301758 C419.2751439 393.84004844 416.40794557 391.58617214 413.54248047 389.33007812 C407.79947389 384.81029622 402.04515317 380.30605288 396.27075195 375.82641602 C389.21338473 370.35129752 382.19770703 364.83148173 375.23632812 359.23486328 C370.78234756 355.66091753 366.2775602 352.16000217 361.7421875 348.69018555 C356.00915278 344.30151507 350.33872425 339.83439694 344.66796875 335.36572266 C341.74814499 333.065867 338.82483653 330.77044993 335.90185547 328.47460938 C334.73517186 327.55796428 333.56850519 326.6412976 332.40185547 325.72460938 C331.82435547 325.27085937 331.24685547 324.81710937 330.65185547 324.34960938 C311.40185547 309.22460938 311.40185547 309.22460938 309.64892578 307.84716797 C308.49220575 306.93840888 307.33530718 306.02987699 306.17822266 305.12158203 C303.10780522 302.71084491 300.0413601 300.29525396 296.97998047 297.87304688 C296.33931641 297.36708984 295.69865234 296.86113281 295.03857422 296.33984375 C293.80566437 295.36602365 292.57384479 294.3908212 291.34326172 293.4140625 C288.27210074 290.966834 288.27210074 290.966834 284.90185547 288.97460938 Z M-59.09814453 369.97460938 C-60.31969238 370.32869873 -60.31969238 370.32869873 -61.56591797 370.68994141 C-83.34356023 377.22323408 -102.67977602 388.46424787 -120.09814453 402.97460938 C-120.76201172 403.49152344 -121.42587891 404.0084375 -122.10986328 404.54101562 C-132.98831891 413.34528296 -140.67527574 425.21310048 -146.09814453 437.97460938 C-146.63761719 439.23144531 -146.63761719 439.23144531 -147.18798828 440.51367188 C-150.33790502 449.19408758 -150.67976725 460.50131581 -147.72314453 469.28710938 C-142.07634245 481.01508293 -131.6189804 488.81193817 -119.65673828 493.25195312 C-99.1291587 499.81423966 -75.72467897 498.78452711 -55.09814453 492.97460938 C-53.94548096 492.65314941 -53.94548096 492.65314941 -52.76953125 492.32519531 C-41.58592893 489.10712838 -31.27041937 484.59755249 -21.09814453 478.97460938 C-20.46279785 478.62527344 -19.82745117 478.2759375 -19.17285156 477.91601562 C5.00253012 464.45030953 26.80285472 445.41306728 35.21435547 418.16210938 C37.34839124 408.18959606 37.00843035 397.3734787 31.42529297 388.67382812 C21.42543447 375.08954546 8.31924108 368.72552824 -8.09814453 365.97460938 C-13.12767516 365.55720129 -18.11565957 365.49713726 -23.16064453 365.53710938 C-23.83656647 365.54048309 -24.5124884 365.54385681 -25.20889282 365.54733276 C-36.86176415 365.63117624 -47.87981191 366.69573037 -59.09814453 369.97460938 Z " fill="#ffffff" transform="translate(229.09814453125,115.025390625)"/>
<path d="M0 0 C6.00751645 4.54591762 9.96096682 10.22761311 11.56640625 17.6015625 C12.62721712 25.52972796 11.73953159 32.07748886 7.109375 38.70703125 C1.67281574 45.19858715 -3.38400605 49.2846837 -11.8828125 50.3671875 C-19.79366626 50.71113766 -26.65036955 49.29770447 -33.03515625 44.45703125 C-38.99521565 38.92720969 -42.47977847 32.51278737 -43.02734375 24.35546875 C-42.91893399 15.01674235 -39.94949528 9.13677348 -33.5546875 2.5 C-24.11180734 -6.16887359 -10.79212935 -6.24322841 0 0 Z " fill="#ffffff" transform="translate(427,364)"/>
</svg>
