<?xml version="1.0" encoding="UTF-8"?>
<svg version="1.1" xmlns="http://www.w3.org/2000/svg" width="512" height="512">
<path d="M0 0 C0.81180725 -0.00979385 1.6236145 -0.01958771 2.46002197 -0.02967834 C20.39231253 -0.2014096 37.79879854 -0.11859185 55.3125 4.23828125 C56.18165039 4.45258789 57.05080078 4.66689453 57.94628906 4.88769531 C70.30166547 8.04666204 81.86612511 12.65481481 93.3125 18.23828125 C94.28413086 18.70572754 94.28413086 18.70572754 95.27539062 19.18261719 C121.08655953 31.74263501 143.28246748 51.29583939 160.3125 74.23828125 C160.71355957 74.77855957 161.11461914 75.31883789 161.52783203 75.87548828 C180.27595059 101.42107827 191.12359653 130.91528661 195.3125 162.23828125 C195.50972656 163.61886719 195.50972656 163.61886719 195.7109375 165.02734375 C200.01531722 201.67273864 191.92859098 240.00673487 174.3125 272.23828125 C173.97573242 272.85960937 173.63896484 273.4809375 173.29199219 274.12109375 C169.09044945 281.82325072 164.52222899 289.1725863 159.3125 296.23828125 C160.62626917 299.14371997 162.03306492 301.20489184 164.29345703 303.44628906 C164.89392853 304.0466095 165.49440002 304.64692993 166.11306763 305.26544189 C166.75895844 305.90101013 167.40484924 306.53657837 168.0703125 307.19140625 C168.73336395 307.85162781 169.39641541 308.51184937 170.07955933 309.19207764 C172.19421832 311.29555949 174.31573212 313.39197267 176.4375 315.48828125 C177.87415557 316.91490386 179.31035898 318.34198197 180.74609375 319.76953125 C184.26300804 323.26441786 187.78608547 326.75298187 191.3125 330.23828125 C193.50508419 329.18965403 195.27477648 328.27080153 197.125 326.67578125 C200.23767575 324.63030861 202.60243802 324.36404606 206.3125 324.23828125 C211.48617433 326.05366806 214.69963128 328.12271963 218.63160706 332.03599548 C219.11929737 332.5160347 219.60698768 332.99607391 220.10945648 333.49065977 C221.72780913 335.08851032 223.33165053 336.70014741 224.93579102 338.31225586 C226.09867913 339.46644188 227.26239777 340.61979161 228.42687988 341.77236938 C231.57891372 344.89767642 234.71807148 348.03561828 237.85423017 351.17684627 C240.47956231 353.80432271 243.1108348 356.42581049 245.74201912 359.04742438 C251.95504712 365.2382777 258.15737773 371.43970729 264.35327148 377.64770508 C270.72801391 384.03451006 277.1208492 390.40278021 283.52290398 396.76219743 C289.03207702 402.23603514 294.52945374 407.72152919 300.01773971 413.21630865 C303.28976418 416.49194471 306.5659946 419.76305995 309.85376167 423.02290154 C312.94946262 426.09328813 316.03006844 429.17808669 319.1001358 432.27409744 C320.22280218 433.40146148 321.35049829 434.52384502 322.48380089 435.64051628 C333.00788672 446.02134781 339.4985253 456.22870925 339.6875 471.23828125 C339.73518787 483.50918391 336.05548102 493.38975116 327.3125 502.23828125 C324.47411356 504.60096047 321.54846701 506.46684506 318.3125 508.23828125 C317.60996094 508.65207031 316.90742188 509.06585938 316.18359375 509.4921875 C306.65213403 514.24962914 293.10306338 513.93001182 283.125 510.61328125 C273.34551779 506.71481645 265.99154313 498.2257514 258.69580078 490.94384766 C257.54554781 489.80286819 256.39490732 488.66227928 255.24391174 487.52204895 C252.13808025 484.44228595 249.03878885 481.35602605 245.94150782 478.26766634 C244.00391619 476.33595927 242.06516593 474.40542238 240.1260643 472.47523117 C234.05172643 466.42818242 227.98136216 460.37718677 221.91678154 454.3203522 C214.92862577 447.34117349 207.92755627 440.37529842 200.91503346 433.4206053 C195.48346929 428.03227945 190.06349471 422.6324738 184.65217006 417.22382295 C181.42438348 413.9981301 178.19194408 410.77745813 174.94736099 407.56865311 C171.89872147 404.55298841 168.86474587 401.52330461 165.8413372 398.4823513 C164.73152788 397.3710025 163.61659748 396.26473992 162.49616814 395.16409874 C151.91973506 384.7635629 151.91973506 384.7635629 151.3125 377.23828125 C152.14242882 372.25870832 153.42642277 369.47667894 157.3125 366.23828125 C155.99873083 363.33284253 154.59193508 361.27167066 152.33154297 359.03027344 C151.73107147 358.429953 151.13059998 357.82963257 150.51193237 357.21112061 C149.86604156 356.57555237 149.22015076 355.93998413 148.5546875 355.28515625 C147.89163605 354.62493469 147.22858459 353.96471313 146.54544067 353.28448486 C144.43078168 351.18100301 142.30926788 349.08458983 140.1875 346.98828125 C138.75084443 345.56165864 137.31464102 344.13458053 135.87890625 342.70703125 C132.36199196 339.21214464 128.83891453 335.72358063 125.3125 332.23828125 C120.90790907 333.90369406 117.28323606 336.18409352 113.4375 338.86328125 C89.18117024 355.30351749 62.21682296 364.24143122 33.3125 368.23828125 C32.37792969 368.37105469 31.44335938 368.50382812 30.48046875 368.640625 C-5.25335734 372.74860816 -43.30214772 365.31768054 -74.85107422 348.23242188 C-76.62168645 347.27390911 -78.40634865 346.34149065 -80.19140625 345.41015625 C-120.48522917 323.59006557 -151.89475487 283.67798366 -165.33984375 240.07421875 C-169.54868303 225.52234826 -172.80726846 210.55724892 -172.890625 195.375 C-172.89632507 194.54353958 -172.90202515 193.71207916 -172.90789795 192.85542297 C-172.91729484 191.09983569 -172.92386064 189.3442312 -172.92773438 187.58862305 C-172.9373347 184.97085478 -172.96836461 182.35390927 -173 179.73632812 C-173.09786057 164.32696844 -171.38639615 149.33338717 -166.875 134.55078125 C-166.61493164 133.67760254 -166.35486328 132.80442383 -166.08691406 131.90478516 C-165.30979965 129.3414325 -164.50710558 126.78833614 -163.6875 124.23828125 C-163.34162842 123.16151123 -163.34162842 123.16151123 -162.98876953 122.06298828 C-152.55083196 90.40048631 -131.12705313 60.51355654 -104.6875 40.23828125 C-103.7284375 39.45195313 -102.769375 38.665625 -101.78125 37.85546875 C-73.79951338 15.31462536 -36.09664412 0.36112001 0 0 Z M-22.6875 29.23828125 C-23.77466309 29.47973877 -23.77466309 29.47973877 -24.88378906 29.72607422 C-49.12370067 35.28172107 -72.10685211 46.66955065 -90.6875 63.23828125 C-91.55890625 64.00140625 -92.4303125 64.76453125 -93.328125 65.55078125 C-123.12453857 91.95718369 -143.79293453 129.02193863 -146.6875 169.23828125 C-147.30997494 185.63424632 -147.67370642 202.22898863 -143.6875 218.23828125 C-143.48882324 219.0590918 -143.29014648 219.87990234 -143.08544922 220.72558594 C-132.93540823 261.67548912 -107.92474132 297.49426996 -71.75390625 319.69921875 C-34.55419915 341.70962273 8.65592173 348.78283697 50.77539062 338.33056641 C92.6304594 327.34793472 127.25362885 299.94814956 149.5 263.05078125 C170.73648379 226.68413753 174.96694204 183.17468343 164.8515625 142.6953125 C157.80900796 116.58961131 143.91363321 93.68197451 125.3125 74.23828125 C124.53132813 73.38234375 123.75015625 72.52640625 122.9453125 71.64453125 C97.53403663 44.76573489 59.46145263 28.11413144 22.68847656 26.03320312 C18.997982 25.93611092 15.31670917 25.90921897 11.625 25.92578125 C10.31499023 25.9306958 9.00498047 25.93561035 7.65527344 25.94067383 C-2.71651516 26.06524261 -12.58161723 26.91802955 -22.6875 29.23828125 Z " fill="#ffffff" transform="translate(172.6875,-0.23828125)"/>
<path d="M0 0 C33.95764296 14.44343038 63.14945962 39.63199363 77.27954102 74.24414062 C83.14038132 89.96675181 86.43846515 106.33724846 86.65454102 123.11914062 C86.66855957 123.86244629 86.68257812 124.60575195 86.69702148 125.37158203 C86.64434068 131.22185332 85.02553641 134.28650942 81.21704102 138.55664062 C76.93073224 141.01898822 73.11193905 140.89695222 68.27954102 140.24414062 C63.97249976 138.50299629 62.22862622 136.40857951 60.27954102 132.24414062 C59.71352845 128.69750969 59.54282562 125.13998633 59.34204102 121.55664062 C57.14150554 91.610018 46.36280657 65.39231546 23.27954102 45.24414062 C4.42545766 30.51617885 -16.16667826 21.50825356 -39.47216797 16.51123047 C-45.52955007 15.1322253 -49.37473361 13.75589869 -53.72045898 9.24414062 C-55.57552737 5.53400385 -55.17380598 1.2932124 -54.72045898 -2.75585938 C-45.56085508 -21.07506718 -13.87523735 -5.64937028 0 0 Z " fill="#ffffff" transform="translate(229.720458984375,56.755859375)"/>
</svg>
