<?xml version="1.0" encoding="UTF-8"?>
<svg version="1.1" xmlns="http://www.w3.org/2000/svg" width="4096" height="4096">
<path d="M0 0 C0.98129883 0.42490723 0.98129883 0.42490723 1.98242188 0.85839844 C30.94868657 13.64594456 51.23456364 36.59438311 65.46152974 64.30227521 C66.07759243 65.49695104 66.69376189 66.69157181 67.31003078 67.88614128 C73.64613352 80.18844382 79.85028374 92.55710509 86.03389527 104.93660045 C87.709654 108.29028701 89.38778685 111.64278553 91.06558069 114.99545428 C94.00674189 120.87344154 96.946455 126.75215113 99.88517678 132.63135834 C104.29722549 141.45808304 108.7116151 150.28363562 113.1264205 159.10898177 C120.68795843 174.22492179 128.24761506 189.34180195 135.80623835 204.45919961 C143.50179935 219.85045734 151.19823467 235.24127741 158.89570726 250.63157922 C159.62925572 252.09823589 159.62925572 252.09823589 160.37762334 253.59452199 C162.37175384 257.58157905 164.36589049 261.56863304 166.36003492 265.55568315 C185.08054482 302.98507619 203.79908032 340.41545631 222.5164566 377.84641647 C240.97506517 414.75988405 259.43452471 451.67292588 277.89501381 488.58545303 C279.07269591 490.94028061 280.25037795 493.29510821 281.42805991 495.64993586 C286.17658712 505.14482495 290.92511912 514.63971165 295.67365672 524.13459554 C353.21854428 639.19785153 410.75904344 754.26330187 468.29856183 869.32924288 C486.28808833 905.30419833 504.27772785 941.27909726 522.26745398 977.25395287 C528.25325411 989.22402425 534.23905155 1001.19409697 540.22484837 1013.16417 C541.21374787 1015.14171778 541.21374787 1015.14171778 542.22262514 1017.15921602 C609.8554057 1152.40760877 677.4876148 1287.6562873 815.24233197 1563.1442774 C823.10648431 1578.87159807 830.9706448 1594.59891466 838.83480645 1610.32623067 C839.54390265 1611.7443323 840.25299885 1613.16243392 840.98358281 1614.62350832 C855.35050465 1643.35551215 869.71743466 1672.08751189 884.08437624 1700.81950585 C887.68580718 1708.02189423 891.28723744 1715.22428295 894.88866602 1722.42667251 C962.92412621 1858.48875531 1030.96131718 1994.54997216 1099.00482178 2130.60803223 C1099.72139693 2132.04087786 1100.43797207 2133.4737235 1101.17626162 2134.94998869 C1125.00721558 2182.60175341 1148.83838061 2230.25341257 1172.66956768 2277.90506071 C1194.20277525 2320.96178565 1215.73593326 2364.01853538 1237.26891994 2407.07537079 C1237.97629477 2408.48982007 1238.68366959 2409.90426935 1239.41248002 2411.36158073 C1283.70627041 2499.93038412 1327.99764722 2588.50039416 1372.28650761 2677.0716629 C1372.97041979 2678.4393869 1373.65433198 2679.80711089 1374.35896878 2681.21628107 C1404.39296156 2741.27986558 1434.42643107 2801.34371172 1464.45931385 2861.40785127 C1476.54097243 2885.57051006 1488.62269891 2909.7331349 1500.70445907 2933.8957429 C1502.70767105 2937.90201746 1504.71088051 2941.90829328 1506.71408959 2945.9145693 C1537.36105895 3007.20629631 1568.00961775 3068.49722784 1598.66285968 3129.7858181 C1599.65469469 3131.76890948 1599.65469469 3131.76890948 1600.66656678 3133.7920633 C1611.30331941 3155.05934019 1621.940201 3176.32655257 1632.57710084 3197.59375583 C1662.76579044 3257.95241876 1692.95349852 3318.31157158 1723.13407338 3378.67429256 C1723.74622986 3379.89863632 1724.35838634 3381.12298007 1724.98909302 3382.38442515 C1738.34303172 3409.09302545 1751.69641782 3435.80190198 1765.04926237 3462.51104931 C1770.37438222 3473.16264664 1775.69957605 3483.81420699 1781.02479362 3494.46575546 C1781.60568603 3495.62766663 1782.18657843 3496.7895778 1782.78507364 3497.98669839 C1801.219532 3534.85953678 1819.66014648 3571.72929187 1838.10431369 3608.59727463 C1856.26112801 3644.89093184 1874.41189125 3681.18760777 1892.55381135 3717.4887126 C1895.03751218 3722.45847547 1897.52128304 3727.42820333 1900.00509597 3732.39791018 C1900.49135551 3733.37084336 1900.97761505 3734.34377655 1901.47860973 3735.34619256 C1909.15080625 3750.69666276 1916.82968089 3766.04378198 1924.51141152 3781.38948293 C1932.02403171 3796.39769373 1939.52956551 3811.40943 1947.02748328 3826.42499155 C1951.402508 3835.18601953 1955.78293072 3843.94429599 1960.17153843 3852.69852812 C1963.08042051 3858.50242097 1965.98200105 3864.30992548 1968.87773933 3870.12038724 C1970.51499339 3873.40512658 1972.15519804 3876.68828723 1973.80449248 3879.96699988 C1993.11173024 3918.36464187 2003.90294283 3956.42057074 1990.4921875 3998.87109375 C1979.65950385 4031.25616976 1956.44792985 4057.72031164 1926.125 4073.3125 C1917.71880132 4077.42769003 1908.9940575 4080.45299199 1900 4083 C1898.82179688 4083.34160156 1897.64359375 4083.68320313 1896.4296875 4084.03515625 C1866.00905116 4091.22244945 1836.23672902 4084.34295952 1808 4073 C1805.79583367 4072.12564446 1803.59140044 4071.25196149 1801.38671875 4070.37890625 C1795.80926448 4068.16265774 1790.23977556 4065.92699971 1784.67285156 4063.68447876 C1775.9356203 4060.16617035 1767.18847267 4056.67265099 1758.44241333 4053.17636108 C1753.56810401 4051.22763833 1748.69422859 4049.277831 1743.8203125 4047.328125 C1741.94694218 4046.57877085 1740.07356984 4045.82942175 1738.20019531 4045.08007812 C1659.56097412 4013.62438965 1580.92175293 3982.16870117 1322.84863281 3878.93945312 C1321.79681855 3878.51872748 1320.74500429 3878.09800184 1319.66131687 3877.66452694 C1317.53667973 3876.81467195 1315.41204276 3875.96481653 1313.28740597 3875.11496067 C1307.94946638 3872.9797826 1302.6115237 3870.84461226 1297.27357483 3868.7094574 C1287.66677986 3864.86677527 1278.06000501 3861.0240429 1268.45334721 3857.18101788 C1263.20198589 3855.08027691 1257.95060708 3852.97957969 1252.69921875 3850.87890625 C1251.66337332 3850.46454378 1250.62752789 3850.05018131 1249.5602932 3849.62326241 C1235.66015118 3844.06297703 1221.75907788 3838.50502685 1207.85723495 3832.94899559 C1199.09207412 3829.44578703 1190.32722873 3825.94178949 1181.5625 3822.4375 C1180.51995056 3822.02068089 1179.47740112 3821.60386177 1178.40325928 3821.17441177 C1152.76890918 3810.92520414 1127.14008438 3800.66248007 1101.52734375 3790.359375 C1099.89196246 3789.70153865 1099.89196246 3789.70153865 1098.22354317 3789.03041267 C1092.70193267 3786.80926383 1087.18040548 3784.58790798 1081.65890503 3782.3664856 C1079.43927115 3781.47348758 1077.21963614 3780.58049239 1075 3779.6875 C1073.89522938 3779.24302898 1072.79045876 3778.79855797 1071.65221024 3778.34061813 C1035.67340869 3763.8664976 999.65915788 3749.48357802 963.62142944 3735.15685654 C927.76893732 3720.90350872 891.95291365 3706.56209157 856.16143799 3692.15625 C821.47123419 3678.19417386 786.7493633 3664.31415977 752 3650.5 C715.02106595 3635.79950322 678.07721401 3621.01461533 641.16143799 3606.15625 C606.47123419 3592.19417386 571.7493633 3578.31415977 537 3564.5 C500.02106595 3549.79950322 463.07721401 3535.01461533 426.16143799 3520.15625 C391.47123419 3506.19417386 356.7493633 3492.31415977 322 3478.5 C285.02181067 3463.79979927 248.07868097 3449.01526177 211.16366959 3434.15714264 C185.40996983 3423.79176744 159.6492908 3413.44488666 133.85546875 3403.1796875 C132.17015108 3402.5089344 132.17015108 3402.5089344 130.45078659 3401.82463074 C119.19405001 3397.34504454 107.93564328 3392.86968579 96.67456245 3388.40103149 C73.56842556 3379.23079397 50.48731724 3370.00497111 27.46257973 3360.63196182 C23.85237431 3359.16307188 20.24122603 3357.69652788 16.62968445 3356.23092651 C15.4569098 3355.75497858 14.28413515 3355.27903065 13.07582188 3354.78866005 C10.73523915 3353.83885743 8.39461438 3352.8891584 6.0539465 3351.93956566 C-0.73271135 3349.18442305 -7.51239977 3346.41293936 -14.28735447 3343.6291523 C-18.44654507 3341.92438306 -22.6116459 3340.2344522 -26.77847481 3338.54845047 C-28.70508835 3337.76514691 -30.62912008 3336.97545821 -32.55030632 3336.178936 C-35.17451705 3335.09172743 -37.80688156 3334.02725804 -40.44238281 3332.96777344 C-41.19799657 3332.64824392 -41.95361032 3332.32871441 -42.73212147 3331.99950218 C-51.2526361 3328.63672882 -57.92595076 3331.04038031 -66.01660156 3334.37841797 C-67.32725334 3334.90559795 -67.32725334 3334.90559795 -68.66438293 3335.44342804 C-71.57682398 3336.61742808 -74.4835921 3337.80486604 -77.390625 3338.9921875 C-79.47951499 3339.83696976 -81.56877855 3340.68082879 -83.65838623 3341.52383423 C-88.15739323 3343.34076551 -92.65403554 3345.16338683 -97.14892578 3346.99047852 C-104.34921622 3349.91692254 -111.55481421 3352.83012261 -118.76171875 3355.74023438 C-119.98226707 3356.23309811 -121.2028154 3356.72596184 -122.46035004 3357.23376083 C-124.32503361 3357.98670511 -126.1897291 3358.73961981 -128.05445623 3359.4924562 C-131.84480763 3361.0227725 -135.63475898 3362.55407459 -139.42441511 3364.08611178 C-164.46715044 3374.20959263 -189.56048636 3384.20438858 -214.66444397 3394.17499542 C-224.78810921 3398.19648469 -234.91005822 3402.2222901 -245.03125 3406.25 C-246.14616066 3406.69367542 -247.26107132 3407.13735085 -248.40976715 3407.59447098 C-274.13197259 3417.83300272 -299.81729558 3428.16287463 -325.5 3438.5 C-362.42773373 3453.36317823 -399.38929088 3468.13849746 -436.38018799 3482.84375 C-471.11741597 3496.65358426 -505.82192981 3510.54229705 -540.5 3524.5 C-577.42773373 3539.36317823 -614.38929088 3554.13849746 -651.38018799 3568.84375 C-686.11741597 3582.65358426 -720.82192981 3596.54229705 -755.5 3610.5 C-792.42773373 3625.36317823 -829.38929088 3640.13849746 -866.38018799 3654.84375 C-901.11741597 3668.65358426 -935.82192981 3682.54229705 -970.5 3696.5 C-1007.42773373 3711.36317823 -1044.38929088 3726.13849746 -1081.38018799 3740.84375 C-1116.11741597 3754.65358426 -1150.82192981 3768.54229705 -1185.5 3782.5 C-1222.42773373 3797.36317823 -1259.38929088 3812.13849746 -1296.38018799 3826.84375 C-1331.11741597 3840.65358426 -1365.82192981 3854.54229705 -1400.5 3868.5 C-1437.42773373 3883.36317823 -1474.38929088 3898.13849746 -1511.38018799 3912.84375 C-1546.11741597 3926.65358426 -1580.82192981 3940.54229705 -1615.5 3954.5 C-1652.41806894 3969.35928821 -1689.36968905 3984.13142205 -1726.35117722 3998.83214569 C-1765.75893809 4014.49770503 -1805.12427724 4030.26671444 -1844.46033669 4046.11146164 C-1856.65219031 4051.02239468 -1868.84790917 4055.92357919 -1881.0475235 4060.81520081 C-1884.04398094 4062.01764911 -1887.03949973 4063.2224116 -1890.03485107 4064.4276123 C-1894.93834382 4066.399813 -1899.84513297 4068.36359981 -1904.75431633 4070.32159042 C-1906.5620391 4071.04395339 -1908.36874024 4071.76887988 -1910.17425728 4072.49673843 C-1930.41867944 4080.65311549 -1949.45375374 4086.43963452 -1971.5 4086.375 C-1972.2007666 4086.37445618 -1972.9015332 4086.37391235 -1973.62353516 4086.37335205 C-1991.51061942 4086.30976031 -2007.61501298 4083.20046604 -2024 4076 C-2024.65419922 4075.71672852 -2025.30839844 4075.43345703 -2025.98242188 4075.14160156 C-2056.07749484 4061.85572789 -2079.78418589 4036.27843714 -2091.87109375 4005.80371094 C-2093.83046327 4000.60506117 -2095.486645 3995.34399649 -2097 3990 C-2097.34160156 3988.82179688 -2097.68320313 3987.64359375 -2098.03515625 3986.4296875 C-2102.77886451 3966.35166648 -2101.87163258 3941.71453473 -2096 3922 C-2095.80696289 3921.34854004 -2095.61392578 3920.69708008 -2095.41503906 3920.02587891 C-2092.68051195 3911.23183728 -2088.63052709 3902.98100992 -2084.63958837 3894.70512364 C-2084.11440851 3893.61404169 -2083.58922864 3892.52295975 -2083.04813424 3891.39881471 C-2077.21557474 3879.31958487 -2071.22979108 3867.31748389 -2065.22591365 3855.32275476 C-2063.54984875 3851.97310945 -2061.87615863 3848.62227763 -2060.20213288 3845.2716129 C-2057.26510101 3839.39375139 -2054.32661395 3833.51661927 -2051.38713596 3827.63998068 C-2046.9739526 3818.81707224 -2042.56311408 3809.99299296 -2038.15269568 3801.1687021 C-2030.59901203 3786.05558764 -2023.04344203 3770.94341694 -2015.4868404 3755.83176129 C-2007.79220296 3740.44404317 -2000.09844552 3725.05588553 -1992.40573289 3709.66720505 C-1991.91719016 3708.68991429 -1991.42864743 3707.71262353 -1990.92530037 3706.7057179 C-1988.43067719 3701.71541396 -1985.93606757 3696.72510324 -1983.44146232 3691.73479034 C-1965.23805055 3655.32000087 -1947.03265404 3618.90620393 -1928.82624626 3582.49291229 C-1910.37463761 3545.58920024 -1891.92389028 3508.68505774 -1873.47418976 3471.78039169 C-1872.29738481 3469.42644826 -1871.12057983 3467.07250483 -1869.94377483 3464.71856143 C-1865.19882036 3455.22730437 -1860.45387197 3445.73604427 -1855.70893052 3436.24478071 C-1803.5402888 3331.89233885 -1751.36829687 3227.54157215 -1699.19538399 3123.19126569 C-1698.53568641 3121.87181383 -1697.87598882 3120.55236197 -1697.1963004 3119.19292672 C-1693.85939748 3112.51883435 -1690.52249396 3105.84474227 -1687.18558945 3099.17065069 C-1659.22179035 3043.24067682 -1631.25852489 2987.31043616 -1603.2953562 2931.38014711 C-1589.90192119 2904.5913845 -1576.50846055 2877.80263471 -1563.11499375 2851.013888 C-1562.44887744 2849.68156518 -1561.78276112 2848.34924237 -1561.09645947 2846.97654613 C-1529.03881024 2782.85691167 -1496.98099795 2718.73735874 -1464.92299938 2654.61789894 C-1464.23918495 2653.25019621 -1463.55537052 2651.88249348 -1462.85083445 2650.47334521 C-1419.27863131 2563.3242447 -1375.70567989 2476.17551834 -1332.13225712 2389.02702763 C-1328.5602815 2381.88294081 -1324.98830726 2374.73885331 -1321.41633298 2367.59476582 C-1315.68960665 2356.14109068 -1309.96287988 2344.68741577 -1304.23615257 2333.23374113 C-1303.52651552 2331.81443975 -1302.81687846 2330.39513836 -1302.08573726 2328.93282785 C-1300.65150484 2326.0643079 -1299.21727241 2323.19578795 -1297.78303999 2320.32726799 C-1287.72232718 2300.20545574 -1277.66161489 2280.08364323 -1267.60090525 2259.96182938 C-1264.00097932 2252.76183641 -1260.40105297 2245.56184363 -1256.80112568 2238.36185133 C-1188.7937822 2102.34455953 -1120.78753109 1966.32672176 -1052.78552246 1830.3067627 C-1052.06938446 1828.87431891 -1051.35324647 1827.44187512 -1050.61540732 1825.96602394 C-1028.23919751 1781.20835343 -1005.86311706 1736.45061824 -983.48706055 1691.69287109 C-960.5273638 1645.76769669 -937.5676469 1599.84253236 -914.60781574 1553.91742516 C-913.90088184 1552.50338955 -913.19394794 1551.08935394 -912.4655918 1549.63246877 C-868.20075025 1461.09229477 -823.93445765 1372.55284636 -779.66662121 1284.01416969 C-778.98305355 1282.64698756 -778.29948589 1281.27980543 -777.59520405 1279.87119353 C-747.57659356 1219.83192203 -717.55766055 1159.7928118 -687.53837038 1099.75388013 C-675.46223496 1075.60146601 -663.38613769 1051.44903281 -651.3100578 1027.29659092 C-649.30777852 1023.29198682 -647.30549769 1019.2873835 -645.30321656 1015.28278032 C-614.66856216 954.01282526 -584.03483384 892.74240742 -553.40386224 831.4706111 C-552.74306333 830.14880091 -552.08226443 828.82699073 -551.40144131 827.4651257 C-540.77143709 806.2016884 -530.1415065 784.93821429 -519.51158459 763.67473585 C-489.34418023 703.32961721 -459.17616638 642.98480363 -429.00386178 582.6421349 C-428.39193248 581.41831503 -427.78000317 580.19449516 -427.14953055 578.93358983 C-413.80082843 552.23706205 -400.45179215 525.54070137 -387.10242811 498.84450457 C-381.77878708 488.19821929 -376.4551901 477.55191197 -371.13160706 466.90559769 C-370.55088795 465.74425535 -369.97016884 464.58291302 -369.37185218 463.3863785 C-350.93974149 426.52514825 -332.5113246 389.66207295 -314.08503413 352.79793297 C-295.94731973 316.51116453 -277.80597824 280.22621212 -259.65932211 243.94391444 C-257.17558123 238.97793888 -254.69188232 234.01194234 -252.20820858 229.0459332 C-251.72196744 228.07371695 -251.23572629 227.10150071 -250.73475056 226.09982336 C-243.05978541 210.7538187 -235.38883306 195.40581189 -227.71958629 180.05694877 C-220.22095449 165.04975035 -212.71808508 150.04467715 -205.21063139 135.04188992 C-200.82906225 126.28550655 -196.4507616 117.52750781 -192.07733958 108.76705236 C-189.17917443 102.96252018 -186.27665906 97.16017725 -183.37060817 91.3595891 C-181.72687485 88.07833332 -180.08497259 84.79619927 -178.44845747 81.51133663 C-158.99385596 42.47119637 -135.77679677 10.25224162 -93 -4.3125 C-90.01435593 -5.26256337 -87.01447868 -6.14633619 -84 -7 C-82.82179688 -7.34160156 -81.64359375 -7.68320313 -80.4296875 -8.03515625 C-54.17001303 -14.23936505 -24.50260236 -10.76779347 0 0 Z M-53 407 C-94.63634088 490.25456161 -136.27245676 573.50923573 -204.66430664 710.26513672 C-205.15897948 711.25428276 -205.65365231 712.2434288 -206.16331524 713.26254896 C-259.3961414 819.70672036 -312.62861345 926.15106887 -523.77112181 1348.37328761 C-525.53356764 1351.89776236 -527.2960138 1355.42223694 -529.05846007 1358.94671146 C-578.99653688 1458.81102208 -628.93430346 1558.67548783 -678.87165453 1658.54016136 C-680.71982829 1662.2361377 -682.56800206 1665.93211404 -684.41617585 1669.62809037 C-685.33180488 1671.45916453 -685.33180488 1671.45916453 -686.26593146 1673.32723008 C-709.2188985 1719.22855194 -732.17193643 1765.12983834 -755.12501668 1811.03110359 C-757.61893731 1816.01841315 -760.11285714 1821.00572312 -762.60677624 1825.99303345 C-821.49035864 1943.74773357 -880.37521735 2061.50179521 -939.26422119 2179.25378418 C-939.88429019 2180.49364843 -940.50435918 2181.73351268 -941.14321815 2183.01094858 C-961.7639187 2224.24324134 -982.38474293 2265.47547226 -1003.0055842 2306.70769465 C-1021.63712519 2343.96223002 -1040.26862177 2381.21678759 -1058.89997196 2418.47141838 C-1059.51199824 2419.6952058 -1060.12402451 2420.91899322 -1060.75459703 2422.17986511 C-1099.07013436 2498.79437074 -1137.38374935 2575.40983746 -1175.69541836 2652.02627754 C-1176.28692441 2653.20918252 -1176.87843047 2654.3920875 -1177.48786095 2655.61083808 C-1203.46251921 2707.55545381 -1229.43677615 2759.5002702 -1255.4105739 2811.44531621 C-1265.85917966 2832.34149749 -1276.3078449 2853.23764903 -1286.75654269 2874.13378429 C-1288.48904858 2877.59858832 -1290.22155254 2881.06339332 -1291.95405629 2884.52819842 C-1318.47204686 2937.56104712 -1344.9913682 2990.59322981 -1371.51453328 3043.62349081 C-1372.08702971 3044.76813687 -1372.65952614 3045.91278293 -1373.24937094 3047.09211523 C-1382.45948722 3065.50674833 -1391.66971397 3083.92132618 -1400.87995976 3102.33589449 C-1427.01148176 3154.58213296 -1453.14226609 3206.82873963 -1479.26736152 3259.078192 C-1479.7969158 3260.13728466 -1480.32647009 3261.19637733 -1480.87207147 3262.28756371 C-1492.42227969 3285.38767306 -1503.97205127 3308.48800069 -1515.52139494 3331.5885423 C-1520.12685785 3340.80018989 -1524.73238064 3350.01180754 -1529.33792305 3359.22341537 C-1529.84032342 3360.22827705 -1530.34272378 3361.23313873 -1530.8603484 3362.26845076 C-1546.82322696 3394.19607221 -1562.79104525 3426.12121983 -1578.76169482 3458.04495473 C-1594.47440806 3489.45315008 -1610.18231604 3520.86374312 -1625.88312574 3552.27789085 C-1628.02899948 3556.57134856 -1630.17492945 3560.86477816 -1632.32089322 3565.15819086 C-1632.74103958 3565.9987797 -1633.16118594 3566.83936853 -1633.59406401 3567.70542976 C-1640.24326827 3581.00815728 -1646.89784123 3594.30819157 -1653.55466906 3607.60710553 C-1660.05299243 3620.5896309 -1666.54571778 3633.57494228 -1673.03227696 3646.56334963 C-1676.82512063 3654.15754696 -1680.62237695 3661.74949915 -1684.42605892 3669.33827396 C-1687.2305013 3674.9346479 -1690.02672944 3680.53508586 -1692.81957917 3686.1372533 C-1693.94984048 3688.40115033 -1695.08285247 3690.6636764 -1696.2187757 3692.92473784 C-1697.7461177 3695.96585904 -1699.2637339 3699.01163087 -1700.77878648 3702.05888831 C-1701.22820992 3702.94789401 -1701.67763335 3703.83689972 -1702.14067567 3704.75284499 C-1702.53722722 3705.55553321 -1702.93377876 3706.35822142 -1703.34234701 3707.18523353 C-1703.68935819 3707.87915087 -1704.03636937 3708.5730682 -1704.39389604 3709.28801334 C-1704.59391035 3709.85296894 -1704.79392465 3710.41792454 -1705 3711 C-1704.67 3711.66 -1704.34 3712.32 -1704 3713 C-1702.8993219 3712.55677902 -1701.7986438 3712.11355804 -1700.66461182 3711.65690613 C-1648.14689266 3690.51058592 -1595.61063618 3669.41421261 -1543 3648.5 C-1507.13580192 3634.24279458 -1471.30290209 3619.91044064 -1435.5 3605.5 C-1398.57226627 3590.63682177 -1361.61070912 3575.86150254 -1324.61981201 3561.15625 C-1289.88258403 3547.34641574 -1255.17807019 3533.45770295 -1220.5 3519.5 C-1183.57226627 3504.63682177 -1146.61070912 3489.86150254 -1109.61981201 3475.15625 C-1074.88258403 3461.34641574 -1040.17807019 3447.45770295 -1005.5 3433.5 C-969.69709705 3419.08955901 -933.86412548 3404.7573891 -898 3390.5 C-854.19994783 3373.08766619 -810.45034164 3355.55220224 -766.72406006 3337.95549011 C-765.69524467 3337.54146627 -764.66642929 3337.12744244 -763.60643768 3336.70087242 C-761.5501805 3335.87336924 -759.49393149 3335.04584577 -757.43769073 3334.21830177 C-739.86083023 3327.14487083 -722.27270446 3320.099957 -704.67866516 3313.06938171 C-695.42905361 3309.37292138 -686.18195144 3305.67019598 -676.93468094 3301.96788406 C-667.54016045 3298.20682378 -658.14509313 3294.44712956 -648.75 3290.6875 C-647.07775486 3290.01830095 -647.07775486 3290.01830095 -645.37172699 3289.33558273 C-618.55622014 3278.60492809 -591.73609476 3267.88608913 -564.8984375 3257.2109375 C-563.79339874 3256.77137789 -562.68835999 3256.33181828 -561.54983521 3255.87893867 C-555.9754781 3253.66166706 -550.40102645 3251.44463322 -544.82653809 3249.22769165 C-542.59269104 3248.339297 -540.35884501 3247.45089978 -538.125 3246.5625 C-537.01236282 3246.1200079 -535.89972565 3245.67751579 -534.75337219 3245.22161484 C-498.85772191 3230.94518061 -462.99857781 3216.58008726 -427.16184235 3202.15645218 C-391.3525598 3187.74412205 -355.5081179 3173.42275654 -319.63766479 3159.16339111 C-286.35337676 3145.93171965 -253.09690503 3132.63296523 -219.86791992 3119.26300049 C-213.08767666 3116.53500612 -206.30665252 3113.80895723 -199.52539062 3111.08349609 C-198.43437798 3110.64499266 -197.34336533 3110.20648922 -196.21929169 3109.7546978 C-191.90416072 3108.02037815 -187.58900432 3106.2861218 -183.27378845 3104.5520134 C-172.5271248 3100.23335703 -161.78113577 3095.91307129 -151.0390625 3091.58300781 C-143.7123669 3088.62976423 -136.38270945 3085.68404091 -129.04864502 3082.74914169 C-125.48417151 3081.32249885 -121.92117039 3079.89248601 -118.36230469 3078.4519043 C-81.12868341 3063.38690959 -44.45944353 3056.33947543 -5.77392578 3070.61401367 C-4.81985399 3070.96384151 -3.8657822 3071.31366934 -2.88279915 3071.67409801 C7.41064627 3075.4767559 17.58729342 3079.5581036 27.7578125 3083.67578125 C29.82690453 3084.51003677 31.89615386 3085.34390227 33.96554565 3086.17741394 C38.37949366 3087.95589094 42.79261824 3089.73638885 47.20507812 3091.51855469 C58.57723948 3096.11122434 69.95476645 3100.69057831 81.33238125 3105.26971769 C83.20212706 3106.02227405 85.07182019 3106.77496118 86.94150543 3107.527668 C112.48648787 3117.81094795 138.06790988 3128.00190795 163.6581955 3138.17187119 C201.75245609 3153.31162131 239.81078053 3168.53780954 277.83856201 3183.84375 C312.52876581 3197.80582614 347.2506367 3211.68584023 382 3225.5 C418.97893405 3240.20049678 455.92278599 3254.98538467 492.83856201 3269.84375 C527.52876581 3283.80582614 562.2506367 3297.68584023 597 3311.5 C633.97893405 3326.20049678 670.92278599 3340.98538467 707.83856201 3355.84375 C742.52876581 3369.80582614 777.2506367 3383.68584023 812 3397.5 C848.97893405 3412.20049678 885.92278599 3426.98538467 922.83856201 3441.84375 C957.52876581 3455.80582614 992.2506367 3469.68584023 1027 3483.5 C1063.97893405 3498.20049678 1100.92278599 3512.98538467 1137.83856201 3527.84375 C1172.52876581 3541.80582614 1207.2506367 3555.68584023 1242 3569.5 C1278.97595517 3584.19931256 1315.91691833 3598.98279847 1352.82963562 3613.84017944 C1391.30125197 3629.3245159 1429.81319302 3644.70511603 1468.35496235 3660.01398849 C1490.20706279 3668.69456991 1512.04782426 3677.4004241 1533.84095383 3686.22819519 C1536.97572019 3687.49788006 1540.11091894 3688.76649128 1543.24624634 3690.03479004 C1552.02468409 3693.58658288 1560.8017252 3697.1414852 1569.56953144 3700.71945572 C1573.05625759 3702.14028281 1576.54597946 3703.55363027 1580.03653526 3704.96501923 C1581.64463932 3705.6172762 1583.25137599 3706.27291588 1584.85663795 3706.93213654 C1587.03003341 3707.82437954 1589.2077578 3708.70507063 1591.38696289 3709.58300781 C1593.20666344 3710.32445038 1593.20666344 3710.32445038 1595.06312561 3711.08087158 C1598.01641865 3712.31960627 1598.01641865 3712.31960627 1601 3711 C1055.84 2620.68 510.68 1530.36 -51 407 C-51.66 407 -52.32 407 -53 407 Z " fill="#000000" transform="translate(2100,10)"/>
</svg>
