<?xml version="1.0" standalone="no"?>
<!DOCTYPE svg PUBLIC "-//W3C//DTD SVG 20010904//EN"
 "http://www.w3.org/TR/2001/REC-SVG-20010904/DTD/svg10.dtd">
<svg version="1.0" xmlns="http://www.w3.org/2000/svg"
 width="300.000000pt" height="300.000000pt" viewBox="0 0 300.000000 300.000000"
 preserveAspectRatio="xMidYMid meet">
<metadata>
Created by potrace 1.10, written by Peter Selinger 2001-2011
</metadata>
<g transform="translate(0.000000,300.000000) scale(0.100000,-0.100000)"
fill="#000000" stroke="none">
<path d="M403 2615 c-233 -51 -382 -258 -345 -478 40 -230 259 -438 547 -518
113 -32 293 -32 382 -1 l63 22 43 -32 c24 -18 75 -51 115 -73 39 -22 72 -43
72 -46 0 -3 -46 -33 -103 -66 -57 -34 -109 -68 -116 -77 -11 -13 -16 -14 -40
-2 -84 44 -316 47 -446 6 -391 -124 -618 -479 -484 -757 30 -62 121 -154 185
-186 151 -76 370 -77 560 -1 266 106 454 327 457 538 1 33 -2 77 -6 97 l-7 36
99 60 c86 52 103 59 118 48 51 -35 1112 -624 1133 -630 19 -4 58 10 150 55 69
34 135 71 147 82 29 27 39 78 21 111 -10 20 -470 389 -790 634 l-66 50 425
334 c269 210 429 342 435 358 7 19 6 37 -3 66 -13 38 -21 44 -144 107 -73 38
-143 67 -160 68 -21 0 -189 -89 -575 -306 -300 -168 -556 -312 -570 -319 -23
-12 -32 -9 -115 41 -50 30 -94 55 -98 57 -5 1 -4 29 2 61 25 136 -38 304 -159
425 -192 193 -487 288 -727 236z m335 -55 c210 -58 391 -196 473 -357 32 -65
34 -73 36 -192 1 -110 4 -126 22 -145 30 -32 183 -116 211 -116 23 0 55 16
265 135 443 251 867 485 887 490 16 4 59 -11 145 -54 125 -62 141 -77 131
-127 -2 -10 -185 -161 -408 -336 -222 -174 -410 -325 -417 -334 -21 -29 -15
-58 20 -91 17 -17 203 -164 412 -328 209 -164 383 -303 387 -309 14 -20 8 -63
-9 -79 -28 -24 -224 -117 -248 -117 -23 0 -67 24 -535 287 -157 88 -305 171
-330 185 -238 132 -289 158 -306 158 -27 0 -194 -100 -211 -127 -10 -15 -15
-57 -16 -140 -2 -111 -4 -122 -35 -185 -106 -217 -400 -388 -665 -388 -151 0
-252 36 -342 121 -68 64 -103 134 -112 221 -18 201 128 411 371 528 163 79
340 100 505 59 l86 -21 100 62 c107 67 155 106 155 126 0 25 -47 64 -153 128
l-108 64 -62 -17 c-185 -53 -388 -24 -576 82 -91 51 -216 171 -259 248 -144
255 -16 530 273 585 88 17 218 10 313 -16z"/>
<path d="M422 2392 c-63 -23 -127 -81 -143 -130 -47 -143 108 -335 339 -419
93 -34 222 -42 294 -19 283 92 175 423 -180 553 -94 35 -236 41 -310 15z m230
-33 c159 -33 337 -167 373 -280 23 -74 15 -116 -32 -163 -146 -146 -547 -26
-658 197 -86 174 72 297 317 246z"/>
<path d="M2621 2349 c-54 -20 -1208 -675 -1233 -700 -26 -25 -28 -34 -28 -103
0 -87 -1 -88 -103 -148 -89 -51 -133 -84 -141 -105 -11 -27 54 -112 106 -139
32 -17 35 -16 186 74 l94 56 78 -21 c97 -25 83 -31 282 125 82 64 173 135 201
157 28 22 168 132 312 244 143 112 275 215 294 230 211 164 229 185 192 225
-50 53 -201 119 -240 105z m132 -84 c93 -46 97 -49 80 -65 -10 -10 -278 -221
-597 -469 l-578 -452 -77 27 -76 27 -126 -76 c-70 -43 -129 -77 -131 -77 -6 0
-109 102 -106 105 2 1 60 35 130 76 l127 74 3 94 3 93 620 349 c341 191 622
347 625 346 3 -2 49 -25 103 -52z"/>
<path d="M1547 1570 c-53 -42 -56 -111 -6 -156 34 -31 63 -37 102 -20 61 25
83 81 55 141 -24 53 -104 71 -151 35z m97 -41 c14 -11 26 -29 26 -40 0 -26
-35 -59 -62 -59 -53 0 -79 74 -36 104 29 21 40 20 72 -5z"/>
<path d="M1194 1806 c-16 -14 -43 -42 -58 -64 -23 -34 -26 -44 -16 -61 14 -27
73 -70 128 -95 40 -18 43 -18 62 -1 11 10 22 27 26 39 4 11 20 38 36 59 29 36
29 38 13 63 -22 34 -103 84 -134 84 -15 0 -40 -11 -57 -24z m119 -45 l58 -34
-32 -26 c-20 -17 -34 -39 -38 -63 l-6 -36 -77 46 -78 47 52 52 c29 29 55 52
58 51 3 -2 31 -18 63 -37z"/>
<path d="M1970 1439 c-51 -31 -198 -146 -247 -193 -49 -46 -53 -65 -19 -97 27
-26 877 -507 922 -521 26 -9 42 -4 130 40 110 55 136 83 112 122 -21 36 -833
670 -858 670 -3 0 -21 -10 -40 -21z m460 -345 c228 -179 416 -328 417 -332 1
-4 -44 -29 -101 -55 l-102 -49 -434 245 c-239 134 -452 253 -472 263 l-37 19
152 117 c84 65 154 118 157 118 3 0 192 -147 420 -326z"/>
<path d="M703 1155 c-172 -32 -337 -146 -403 -279 -53 -105 -30 -200 63 -263
186 -126 570 10 686 242 96 193 -84 350 -346 300z m215 -47 c47 -14 99 -62
112 -104 41 -122 -102 -292 -306 -366 -81 -29 -238 -37 -298 -14 -145 56 -153
202 -18 335 137 134 353 197 510 149z"/>
</g>
</svg>
