<?xml version="1.0" encoding="UTF-8"?>
<svg version="1.1" xmlns="http://www.w3.org/2000/svg" width="512" height="512">
<path d="M0 0 C1.46533353 -0.00967334 1.46533353 -0.00967334 2.96026975 -0.0195421 C4.55859986 -0.01489629 4.55859986 -0.01489629 6.18921947 -0.01015663 C7.32715818 -0.01468774 8.46509689 -0.01921886 9.63751858 -0.02388728 C13.45900771 -0.03656991 17.28035503 -0.03490839 21.10186291 -0.03325844 C23.83835927 -0.03815364 26.57484563 -0.04598946 29.31133556 -0.05361366 C35.97825245 -0.07022209 42.64513397 -0.07572314 49.31206981 -0.07683842 C54.73189129 -0.07778899 60.15170111 -0.08189974 65.5715189 -0.08823967 C80.9406292 -0.10585183 96.30971157 -0.11507861 111.67883203 -0.11357872 C112.50727499 -0.11349881 113.33571796 -0.1134189 114.18926525 -0.11333656 C115.43344855 -0.11321392 115.43344855 -0.11321392 116.70276686 -0.1130888 C130.14423439 -0.11227596 143.58558985 -0.13141321 157.02702496 -0.1596133 C170.83146136 -0.18834622 184.63584312 -0.20215336 198.44031018 -0.20042574 C206.18931637 -0.19976197 213.93820509 -0.2052486 221.68718433 -0.22678185 C228.28510427 -0.24499907 234.88285347 -0.24933663 241.48078767 -0.235763 C244.84597537 -0.22923576 248.21056843 -0.2312827 251.57576847 -0.2464695 C255.22732258 -0.26188144 258.87801622 -0.2526392 262.52955151 -0.23720741 C264.11784337 -0.2526381 264.11784337 -0.2526381 265.73822194 -0.26838052 C273.575869 -0.19517388 278.79382332 1.51923726 284.79986095 6.56976891 C291.48532699 14.55518668 292.20612099 21.95096939 292.1475172 32.03070641 C292.14539478 33.41632271 292.14539478 33.41632271 292.14322948 34.82993126 C292.13765704 37.76407753 292.12510964 40.69814592 292.11236095 43.63226891 C292.10734239 45.62836155 292.10278011 47.6244554 292.09868908 49.62055016 C292.08769664 54.49948616 292.07045106 59.37836435 292.04986095 64.25726891 C293.18245846 64.25060707 294.31505596 64.24394524 295.4819746 64.23708153 C306.17777766 64.17615432 316.87354531 64.13124056 327.5694828 64.10183239 C333.06781744 64.08620489 338.5660115 64.06501985 344.06426525 64.03095055 C349.37459786 63.99825318 354.6847956 63.98039397 359.99522114 63.97263718 C362.01692419 63.96711228 364.03862021 63.95632362 366.06026554 63.94007874 C368.9012768 63.91816655 371.7417372 63.91530773 374.58281994 63.91669273 C375.4107304 63.90590691 376.23864086 63.89512108 377.09163952 63.88400841 C384.22906222 63.92143453 390.2964607 65.45696874 396.29986095 69.38226891 C404.20989325 77.65184812 404.77179636 85.64226316 404.67805004 96.63606834 C404.68310004 98.19731712 404.69033237 99.75856009 404.69954818 101.31978983 C404.71843289 105.59400192 404.7062583 109.86763988 404.68882525 114.14183724 C404.67543411 118.75744748 404.69089455 123.37297469 404.70264721 127.98857689 C404.72101468 137.02392916 404.71251762 146.05906499 404.69455899 155.09441049 C404.68052736 162.43777402 404.6766414 169.78107884 404.68000126 177.1244545 C404.6804787 178.17001185 404.68095614 179.21556921 404.68144805 180.29281012 C404.68247439 182.41689648 404.68352975 184.54098283 404.68461382 186.66506916 C404.69317897 205.44202082 404.6765114 224.21886805 404.64678478 242.9957943 C404.61794373 261.21361235 404.61086605 279.43127999 404.62627697 297.64911461 C404.64303915 317.49147855 404.64707346 337.3337711 404.62956661 357.17613691 C404.62772223 359.29205762 404.62588751 361.40797835 404.62406254 363.52389908 C404.62315045 364.56495217 404.62223836 365.60600527 404.62129863 366.67860543 C404.61569367 374.01323486 404.61900001 381.34782943 404.62560749 388.68245697 C404.63334003 397.62071652 404.62659077 406.55882802 404.60143245 415.49705774 C404.58893609 420.0570603 404.5827926 424.61683235 404.59397411 429.17684364 C404.60401922 433.35224587 404.59555126 437.52718852 404.57239293 441.70253485 C404.56723625 443.21181171 404.56879083 444.72112979 404.57778759 446.23038865 C404.62763378 455.3521927 404.36582541 462.33209277 398.0850172 469.49945641 C397.43404064 470.03828453 396.78306408 470.57711266 396.11236095 471.13226891 C395.46396252 471.68656578 394.81556408 472.24086266 394.1475172 472.81195641 C390.27526999 475.47998521 386.77780035 476.50670386 382.09972191 476.51453781 C380.63438838 476.52421115 380.63438838 476.52421115 379.13945216 476.53407991 C377.54112205 476.5294341 377.54112205 476.5294341 375.91050243 476.52469444 C374.77256373 476.52922556 373.63462502 476.53375667 372.46220332 476.53842509 C368.6407142 476.55110772 364.81936688 476.5494462 360.997859 476.54779625 C358.26136263 476.55269146 355.52487628 476.56052727 352.78838634 476.56815147 C346.12146946 476.5847599 339.45458794 476.59026095 332.7876521 476.59137623 C327.36783062 476.5923268 321.9480208 476.59643755 316.52820301 476.60277748 C301.15909271 476.62038964 285.79001034 476.62961642 270.42088988 476.62811653 C269.17822543 476.62799666 269.17822543 476.62799666 267.91045666 476.62787437 C266.66627336 476.62775173 266.66627336 476.62775173 265.39695505 476.62762661 C251.95548752 476.62681377 238.51413206 476.64595102 225.07269695 476.67415111 C211.26826054 476.70288403 197.46387879 476.71669117 183.65941173 476.71496356 C175.91040553 476.71429978 168.16151682 476.71978641 160.41253757 476.74131966 C153.81461764 476.75953688 147.21686844 476.76387444 140.61893424 476.75030081 C137.25374654 476.74377357 133.88915348 476.74582052 130.52395344 476.76100731 C126.87239933 476.77641925 123.22170569 476.76717701 119.5701704 476.75174522 C118.51130916 476.76203235 117.45244791 476.77231948 116.36149997 476.78291833 C108.89867234 476.71321265 103.44276096 475.28368842 97.80767345 470.25726891 C97.26884533 469.59726891 96.7300172 468.93726891 96.17486095 468.25726891 C95.62056408 467.59726891 95.0662672 466.93726891 94.49517345 466.25726891 C89.59819399 459.48090813 89.90260495 451.88472356 89.9522047 443.82367516 C89.95361965 442.94573799 89.9550346 442.06780083 89.95649242 441.16325951 C89.96205275 438.38206009 89.97459775 435.60094365 89.98736095 432.81976891 C89.99238109 430.92458778 89.99694309 429.02940539 90.00103283 427.13422203 C90.01200916 422.50853942 90.02924613 417.88291819 90.04986095 413.25726891 C88.3509647 413.24846954 88.3509647 413.24846954 86.61774731 413.23949242 C75.92177553 413.18217323 65.22600527 413.10936357 54.53023911 413.02155399 C49.03199332 412.97690812 43.53382065 412.93763917 38.03545666 412.91083336 C32.72498553 412.88474282 27.41479662 412.84429957 22.10450077 412.79408264 C20.08285513 412.77745282 18.06116072 412.76591443 16.03945637 412.759655 C13.19830697 412.74997163 10.3578733 412.72186186 7.51690197 412.68964195 C6.68899151 412.69107704 5.86108105 412.69251213 5.00808239 412.69399071 C-2.11080743 412.58049977 -8.20910294 411.04948482 -14.20013905 407.13226891 C-22.11017134 398.86268969 -22.67207445 390.87227465 -22.57832813 379.87846947 C-22.58337813 378.31722069 -22.59061046 376.75597772 -22.59982628 375.19474798 C-22.61871098 370.92053589 -22.60653639 366.64689793 -22.58910334 362.37270057 C-22.5757122 357.75709033 -22.59117264 353.14156312 -22.6029253 348.52596092 C-22.62129277 339.49060866 -22.61279571 330.45547282 -22.59483708 321.42012732 C-22.58080545 314.07676379 -22.57691949 306.73345897 -22.58027935 299.39008331 C-22.58075679 298.34452596 -22.58123423 297.2989686 -22.58172614 296.22172769 C-22.58275248 294.09764133 -22.58380784 291.97355499 -22.58489191 289.84946866 C-22.59345706 271.072517 -22.57678949 252.29566976 -22.54706287 233.51874352 C-22.51822182 215.30092546 -22.51114414 197.08325783 -22.52655506 178.8654232 C-22.54331725 159.02305926 -22.54735156 139.18076671 -22.5298447 119.3384009 C-22.52800033 117.22248019 -22.5261656 115.10655946 -22.52434063 112.99063873 C-22.52342854 111.94958564 -22.52251645 110.90853254 -22.52157672 109.83593239 C-22.51597176 102.50130295 -22.5192781 95.16670838 -22.52588558 87.83208084 C-22.53361812 78.89382129 -22.52686887 69.95570979 -22.50171054 61.01748007 C-22.48921419 56.45747751 -22.48307069 51.89770546 -22.4942522 47.33769417 C-22.50429731 43.16229194 -22.49582935 38.98734929 -22.47267102 34.81200296 C-22.46751434 33.3027261 -22.46906892 31.79340802 -22.47806568 30.28414916 C-22.52791187 21.16234511 -22.2661035 14.18244504 -15.9852953 7.01508141 C-15.33431873 6.47625328 -14.68334217 5.93742516 -14.01263905 5.38226891 C-13.36424061 4.82797203 -12.71584217 4.27367516 -12.0477953 3.70258141 C-8.17554808 1.0345526 -4.67807844 0.00783395 0 0 Z M-0.95013905 22.25726891 C-1.04967883 24.20487707 -1.07753967 26.15615533 -1.0787735 28.10630512 C-1.08199794 29.38546895 -1.08522239 30.66463278 -1.08854455 31.98255914 C-1.08707309 33.420641 -1.08550534 34.85872277 -1.08385181 36.29680443 C-1.08571791 37.81004441 -1.0880178 39.32328391 -1.09071714 40.83652264 C-1.09686645 45.01478512 -1.09669789 49.19302769 -1.09552276 53.37129366 C-1.09531954 57.86965537 -1.10082994 62.36801055 -1.10558033 66.86636925 C-1.11390452 75.68683379 -1.11663596 84.50729165 -1.11719271 93.32775979 C-1.11766702 100.49352937 -1.11971752 107.65929674 -1.12289333 114.82506561 C-1.13170464 135.11790018 -1.13631195 155.41072945 -1.13556286 175.70356595 C-1.1355229 176.79870247 -1.13548295 177.893839 -1.13544178 179.02216148 C-1.1354009 180.11862698 -1.13536002 181.21509248 -1.1353179 182.34478421 C-1.13491127 200.12309309 -1.14448391 217.9013808 -1.15858015 235.67968356 C-1.1729224 253.91134646 -1.17985152 272.14299902 -1.17898637 290.3746677 C-1.17865366 300.61961101 -1.18143301 310.86453213 -1.19216442 321.10947037 C-1.20124118 329.83102101 -1.20346805 338.55253942 -1.196655 347.27409273 C-1.19337546 351.72793107 -1.19338436 356.18170745 -1.20200825 360.63554001 C-1.20981136 364.70719015 -1.20850598 368.77872857 -1.19972412 372.85037578 C-1.19817535 374.32883786 -1.20005636 375.80730802 -1.20558419 377.28576057 C-1.21256689 379.28462656 -1.20619963 381.28352623 -1.19902802 383.28239155 C-1.19924538 384.39594892 -1.19946275 385.5095063 -1.19968671 386.65680784 C-1.21298374 389.4186426 -1.21298374 389.4186426 1.04986095 391.25726891 C3.08435082 391.55973864 3.08435082 391.55973864 5.46020794 391.50895119 C6.39302326 391.51416668 7.32583858 391.51938218 8.28692102 391.52475572 C9.3186143 391.52029427 10.35030757 391.51583283 11.41326427 391.51123619 C12.50387047 391.51435617 13.59447667 391.51747615 14.71813154 391.52069068 C18.39712128 391.52871073 22.07594791 391.52233144 25.75493908 391.51605797 C28.38249846 391.51876605 31.01005708 391.52232595 33.63761425 391.52667809 C40.0482667 391.53558945 46.45887243 391.53364235 52.86952674 391.5278528 C58.07779982 391.52334315 63.28605976 391.52272038 68.49433422 391.52490044 C69.23450725 391.5252069 69.97468027 391.52551337 70.73728278 391.52582912 C72.24074726 391.52646855 73.74421173 391.52711697 75.24767619 391.5277743 C89.3585428 391.5334827 103.46938345 391.52691173 117.58024579 391.51617357 C129.69822296 391.5072376 141.81616182 391.50878949 153.9341383 391.51801109 C167.99317382 391.52870474 182.05218658 391.53293333 196.11122561 391.52678657 C197.60927963 391.52614944 199.10733366 391.5255207 200.60538769 391.52490044 C201.34253373 391.52459189 202.07967977 391.52428333 202.83916357 391.52396543 C208.04352124 391.52223577 213.24786452 391.52515942 218.45221996 391.52985954 C225.45185596 391.53604181 232.45141814 391.53166482 239.45104694 391.52007103 C242.0270739 391.51741606 244.60310693 391.51820368 247.17913151 391.52259636 C250.68165743 391.52802033 254.18394698 391.52125609 257.68645763 391.51123619 C258.71815091 391.51569763 259.74984418 391.52015908 260.81280088 391.52475572 C261.7456162 391.51954022 262.67843152 391.51432473 263.63951397 391.50895119 C264.44875301 391.50862648 265.25799205 391.50830178 266.09175348 391.50796723 C268.28479989 391.43005204 268.28479989 391.43005204 270.04986095 389.25726891 C270.35321658 386.53237812 270.35321658 386.53237812 270.29874992 383.28239155 C270.30334872 382.00061997 270.30794752 380.7188484 270.31268567 379.39823526 C270.30766984 377.96240612 270.30246757 376.52657761 270.29709911 375.09074974 C270.29868596 373.57593346 270.30114832 372.06111788 270.30441552 370.54630429 C270.31085496 366.36834183 270.30474095 362.19047564 270.29665124 358.01251948 C270.29009394 353.51283106 270.2950184 349.01315375 270.29853344 344.51346397 C270.30358442 335.69279066 270.29792265 326.87215474 270.28868314 318.05148607 C270.27831933 307.79019734 270.27836879 297.52891677 270.27885572 287.26762379 C270.27935677 268.96574302 270.27018288 250.6638797 270.2556715 232.36200523 C270.24158115 214.58205408 270.23450078 196.80211829 270.23516369 179.02216148 C270.23522362 177.37945669 270.23522362 177.37945669 270.23528477 175.70356595 C270.2353453 174.06376707 270.2353453 174.06376707 270.23540705 172.39084095 C270.23609606 152.17830912 270.23021188 131.96578386 270.22125384 111.75325416 C270.21823144 104.59175994 270.21717356 97.43026691 270.21672153 90.26877213 C270.21604094 81.54831967 270.21159775 72.82787827 270.20238873 64.10743051 C270.1977568 59.65372783 270.19473034 55.20003933 270.19598293 50.74633408 C270.19707223 46.67603534 270.19359505 42.60576803 270.18633441 38.53547586 C270.18451043 37.05639012 270.18440102 35.57730116 270.1861017 34.09821527 C270.18814536 32.10091133 270.18353009 30.10360377 270.17849541 28.10630512 C270.17743877 26.43621259 270.17743877 26.43621259 270.17636079 24.73238081 C270.32990567 22.31394934 270.32990567 22.31394934 269.04986095 21.25726891 C267.61211197 21.15974078 266.16958676 21.1317144 264.72853374 21.13142776 C263.79012599 21.12882002 262.85171823 21.12621227 261.88487387 21.1235255 C260.32026867 21.12687158 260.32026867 21.12687158 258.72405529 21.13028526 C257.62543085 21.12872527 256.5268064 21.12716528 255.39489031 21.12555802 C251.682862 21.12154283 247.970874 21.12473966 244.25884533 21.12787437 C241.61010651 21.12652056 238.96137054 21.12477717 236.31263256 21.12256432 C229.8467102 21.11810592 223.38079941 21.11908339 216.91487658 21.12197696 C211.66223755 21.12423072 206.40960177 21.12454363 201.15696239 21.12345314 C200.41081443 21.12329991 199.66466647 21.12314667 198.89590797 21.1229888 C197.38036223 21.12266909 195.8648165 21.12234488 194.34927076 21.12201621 C180.12113077 21.11916121 165.89299722 21.12244874 151.66485828 21.12781657 C139.44309163 21.13228463 127.22133447 21.1315087 114.99956799 21.12689781 C100.82409175 21.12155239 86.64862116 21.1194359 72.47314405 21.12251008 C70.96301588 21.12282864 69.45288769 21.12314301 67.94275951 21.12345314 C66.82809457 21.12368455 66.82809457 21.12368455 65.69091114 21.12392064 C60.44151572 21.12478589 55.19212387 21.12332274 49.942729 21.12097359 C43.5498732 21.11817574 37.15702968 21.11891351 30.7641753 21.12425433 C27.49930675 21.12689157 24.23446309 21.12736227 20.969594 21.12460518 C17.43826401 21.1218968 13.90699281 21.12527096 10.37566662 21.13028526 C9.33259649 21.12805454 8.28952636 21.12582382 7.21484804 21.1235255 C6.27644028 21.12613325 5.33803252 21.12874099 4.37118816 21.13142776 C3.14683363 21.13167129 3.14683363 21.13167129 1.89774466 21.13191974 C0.03297476 21.0549452 0.03297476 21.0549452 -0.95013905 22.25726891 Z M292.04986095 85.25726891 C292.04986095 110.66726891 292.04986095 136.07726891 292.04986095 162.25726891 C296.99986095 162.58726891 301.94986095 162.91726891 307.04986095 163.25726891 C312.04986095 166.25726891 312.04986095 166.25726891 313.42486095 168.50726891 C314.24766626 172.12761226 313.96450741 174.66401499 313.04986095 178.25726891 C309.04986095 182.25726891 309.04986095 182.25726891 292.04986095 183.25726891 C292.04986095 198.10726891 292.04986095 212.95726891 292.04986095 228.25726891 C295.60122814 228.28305016 299.15259533 228.30883141 302.8115797 228.33539391 C306.25363604 228.37381361 309.69554253 228.41897429 313.13750744 228.46478844 C315.52838512 228.49300225 317.91935614 228.51421469 320.310359 228.528265 C323.7487522 228.54968801 327.18602255 228.59633757 330.6240797 228.64789391 C331.69196224 228.64912254 332.75984478 228.65035118 333.86008739 228.65161705 C341.29342025 228.79809551 341.29342025 228.79809551 345.20147228 231.17035484 C348.45244546 234.84084999 348.30065077 237.40866578 348.04986095 242.25726891 C346.8621824 245.63758479 346.1516087 246.18943707 343.04986095 248.25726891 C340.75294018 248.53574181 340.75294018 248.53574181 338.02764416 248.57611656 C336.49639652 248.6059211 336.49639652 248.6059211 334.93421459 248.63632774 C333.8341357 248.64787895 332.73405682 248.65943016 331.6006422 248.67133141 C329.90901203 248.70038063 329.90901203 248.70038063 328.18320751 248.73001671 C324.57633592 248.78986198 320.96943251 248.83621812 317.36236095 248.88226891 C314.91898755 248.92044409 312.47562768 248.95949554 310.03228283 248.99945641 C304.03821201 249.09721903 298.04428766 249.17674992 292.04986095 249.25726891 C292.04986095 264.76726891 292.04986095 280.27726891 292.04986095 296.25726891 C295.60122814 296.28305016 299.15259533 296.30883141 302.8115797 296.33539391 C306.25363604 296.37381361 309.69554253 296.41897429 313.13750744 296.46478844 C315.52838512 296.49300225 317.91935614 296.51421469 320.310359 296.528265 C323.7487522 296.54968801 327.18602255 296.59633757 330.6240797 296.64789391 C331.69196224 296.64912254 332.75984478 296.65035118 333.86008739 296.65161705 C341.29342025 296.79809551 341.29342025 296.79809551 345.20147228 299.17035484 C347.62267308 301.90399959 348.01340838 302.87087158 348.36236095 306.56976891 C348.00110154 310.83263001 347.02994041 312.27718945 344.04986095 315.25726891 C341.60819925 316.47809976 339.96295289 316.41457633 337.23296642 316.46259117 C336.23207989 316.48253639 335.23119335 316.50248161 334.19997692 316.52303123 C332.57492733 316.54809998 332.57492733 316.54809998 330.91704845 316.57367516 C329.8100761 316.59445625 328.70310375 316.61523735 327.56258678 316.63664818 C324.01674297 316.70217882 320.47082341 316.76104504 316.92486095 316.81976891 C314.52511345 316.86295078 312.12537368 316.90656495 309.7256422 316.95062828 C303.83379171 317.05867952 297.94188603 317.15772714 292.04986095 317.25726891 C292.04986095 332.43726891 292.04986095 347.61726891 292.04986095 363.25726891 C295.6850172 363.28305016 299.32017345 363.30883141 303.06548595 363.33539391 C306.58363138 363.37379907 310.10162949 363.41896443 313.61968517 363.46478844 C316.06590278 363.49302526 318.51221208 363.51422621 320.95855236 363.528265 C324.47384209 363.54965621 327.98802607 363.59628928 331.50298595 363.64789391 C332.59790356 363.64912254 333.69282116 363.65035118 334.82091808 363.65161705 C335.84167431 363.67133568 336.86243053 363.69105431 337.91411877 363.71137047 C338.81124584 363.72025291 339.70837292 363.72913536 340.63268566 363.73828697 C343.80391731 364.4191693 345.00301289 365.79980302 347.04986095 368.25726891 C348.78849459 371.73453618 347.93751702 375.56434864 347.04986095 379.25726891 C344.4472983 382.03333573 341.69277976 383.13819585 337.86683178 383.41548729 C337.02077877 383.43103157 336.17472576 383.44657585 335.30303478 383.46259117 C334.34226528 383.48253639 333.38149578 383.50248161 332.39161205 383.52303123 C330.83992573 383.54809998 330.83992573 383.54809998 329.2568922 383.57367516 C328.19572689 383.59445625 327.13456158 383.61523735 326.04123974 383.63664818 C322.64834658 383.70208129 319.25537545 383.76099983 315.86236095 383.81976891 C313.56352474 383.86296004 311.26469643 383.90657453 308.96587658 383.95062828 C303.32728735 384.05775631 297.6886204 384.15953442 292.04986095 384.25726891 C291.8797047 385.27047203 291.70954845 386.28367516 291.53423595 387.32758141 C291.29017982 388.67927692 291.04534663 390.03083229 290.79986095 391.38226891 C290.69029064 392.04742516 290.58072033 392.71258141 290.4678297 393.39789391 C289.26286234 399.86666609 286.452101 404.65525513 281.04986095 408.56976891 C280.38986095 409.06090172 279.72986095 409.55203453 279.04986095 410.05805016 C275.0101501 412.48029866 271.09560559 412.39019709 266.45666027 412.41548729 C265.79579064 412.42042527 265.13492101 412.42536324 264.45402503 412.43045086 C262.24150668 412.44579828 260.02901729 412.45417897 257.81646252 412.46259117 C256.2296832 412.47217186 254.64290642 412.48218206 253.05613232 412.49258995 C248.74867158 412.51962436 244.44119991 412.54064186 240.13370132 412.56059194 C235.63199972 412.5824605 231.13033178 412.60984494 226.62865734 412.63664818 C218.10418564 412.68656328 209.57969525 412.73150651 201.05518699 412.77467054 C191.35029898 412.82405301 181.64544476 412.8789674 171.94058943 412.93435013 C151.97704474 413.04815203 132.01346781 413.15499499 112.04986095 413.25726891 C112.02521458 419.07798513 112.00702665 424.89867125 111.99492931 430.71942711 C111.98988828 432.70120332 111.98305557 434.68297579 111.9744215 436.66473961 C111.96234581 439.50678999 111.9566305 442.34879138 111.9522047 445.19086266 C111.94704342 446.08252632 111.94188213 446.97418999 111.93656445 447.89287376 C111.93636919 450.01467492 111.98776065 452.1363767 112.04986095 454.25726891 C113.62399336 455.83140131 115.18428097 455.38267506 117.37118816 455.38311005 C118.30959592 455.38571779 119.24800368 455.38832554 120.21484804 455.39101231 C121.25791817 455.38878159 122.3009883 455.38655087 123.37566662 455.38425255 C124.47429106 455.38581254 125.57291551 455.38737253 126.7048316 455.38897979 C130.4168599 455.39299498 134.12884791 455.38979815 137.84087658 455.38666344 C140.4896154 455.38801725 143.13835137 455.38976064 145.78708935 455.3919735 C152.25301171 455.39643189 158.7189225 455.39545442 165.18484533 455.39256085 C170.43748436 455.39030709 175.69012014 455.38999418 180.94275951 455.39108467 C181.68890747 455.3912379 182.43505544 455.39139114 183.20381394 455.39154901 C184.71935968 455.39186872 186.23490541 455.39219294 187.75045115 455.3925216 C201.97859114 455.3953766 216.20672469 455.39208907 230.43486363 455.38672124 C242.65663028 455.38225318 254.87838744 455.38302911 267.10015392 455.38764 C281.27563016 455.39298542 295.45110075 455.39510191 309.62657785 455.39202774 C311.13670603 455.39170917 312.64683421 455.3913948 314.15696239 455.39108467 C315.27162734 455.39085326 315.27162734 455.39085326 316.40881076 455.39061717 C321.65820619 455.38975192 326.90759804 455.39121507 332.15699291 455.39356422 C338.54984871 455.39636207 344.94269223 455.3956243 351.33554661 455.39028348 C354.60041516 455.38764625 357.86525882 455.38717554 361.13012791 455.38993263 C364.6614579 455.39264101 368.1927291 455.38926685 371.72405529 455.38425255 C372.76712542 455.38648327 373.81019555 455.38871399 374.88487387 455.39101231 C376.29248551 455.38710069 376.29248551 455.38710069 377.72853374 455.38311005 C378.95288828 455.38286652 378.95288828 455.38286652 380.20197725 455.38261807 C382.06674715 455.45959261 382.06674715 455.45959261 383.04986095 454.25726891 C383.14940074 452.30966074 383.17726158 450.35838248 383.17849541 448.40823269 C383.18171985 447.12906886 383.1849443 445.84990503 383.18826646 444.53197867 C383.186795 443.09389681 383.18522725 441.65581504 383.18357372 440.21773338 C383.18543982 438.7044934 383.18773971 437.1912539 383.19043905 435.67801517 C383.19658836 431.49975269 383.1964198 427.32151013 383.19524467 423.14324415 C383.19504145 418.64488244 383.20055185 414.14652726 383.20530224 409.64816856 C383.21362642 400.82770402 383.21635787 392.00724616 383.21691462 383.18677802 C383.21738893 376.02100844 383.21943943 368.85524108 383.22261524 361.6894722 C383.23142655 341.39663763 383.23603386 321.10380836 383.23528477 300.81097186 C383.23524481 299.71583534 383.23520486 298.62069881 383.23516369 297.49237633 C383.23512281 296.39591083 383.23508193 295.29944533 383.23503981 294.1697536 C383.23463317 276.39144472 383.24420582 258.61315701 383.25830206 240.83485425 C383.27264431 222.60319136 383.27957343 204.37153879 383.27870828 186.13987011 C383.27837557 175.8949268 383.28115492 165.65000568 383.29188633 155.40506744 C383.30096309 146.6835168 383.30318996 137.96199839 383.29637691 129.24044508 C383.29309736 124.78660675 383.29310627 120.33283036 383.30173016 115.8789978 C383.30953327 111.80734766 383.30822789 107.73580924 383.29944602 103.66416203 C383.29789726 102.18569995 383.29977827 100.70722979 383.3053061 99.22877724 C383.3122888 97.22991125 383.30592154 95.23101158 383.29874992 93.23214626 C383.29896729 92.11858889 383.29918466 91.00503151 383.29940861 89.85772997 C383.31270565 87.09589521 383.31270565 87.09589521 381.04986095 85.25726891 C378.21813 85.06909491 375.48495344 85.00553511 372.6528883 85.03021812 C371.35034855 85.02978004 371.35034855 85.02978004 370.02149487 85.02933311 C367.14282877 85.03072973 364.26441949 85.04630648 361.38579845 85.06195641 C359.39325635 85.06568536 357.40071243 85.06853288 355.40816784 85.07053185 C350.15723156 85.07817759 344.90640547 85.09783414 339.65551281 85.1199398 C333.35882374 85.14396979 327.06209787 85.15317473 320.76537609 85.16484642 C311.19346102 85.184258 301.62178783 85.22257404 292.04986095 85.25726891 Z " fill="#000000" transform="translate(54.95013904571533,15.742731094360352)"/>
<path d="M0 0 C0.82643658 -0.00438225 1.65287317 -0.00876451 2.50435328 -0.01327956 C5.28950518 -0.02669529 8.07462542 -0.03285263 10.85980225 -0.03897095 C12.85033818 -0.04686972 14.84087267 -0.05513853 16.83140564 -0.06375122 C23.38219836 -0.08999701 29.93299755 -0.10528125 36.48382568 -0.11953735 C38.73664098 -0.12489595 40.98945622 -0.13027346 43.24227142 -0.13566971 C52.61161876 -0.15730204 61.98096435 -0.1760397 71.35033035 -0.1872921 C84.78951625 -0.20353694 98.22841327 -0.23672385 111.66749024 -0.29369295 C121.11043374 -0.33236093 130.55329988 -0.35192107 139.99632049 -0.35721266 C145.63940432 -0.36087037 151.28218022 -0.37293638 156.92517853 -0.4053154 C162.2341446 -0.43534059 167.54261552 -0.44172756 172.85164833 -0.42993164 C174.80034287 -0.42971044 176.74906002 -0.43805358 178.6976757 -0.45558548 C181.35853777 -0.47822256 184.01759612 -0.47000809 186.6784668 -0.45410156 C187.44948801 -0.46798365 188.22050923 -0.48186574 189.01489472 -0.49616849 C194.82189604 -0.41064653 197.17854365 1.16142965 201.09320068 5.15390015 C202.62534956 8.21819791 202.32258616 10.77046435 202.09320068 14.15390015 C200.88364537 16.87539961 199.94005028 18.56012878 197.49582577 20.2739048 C194.00036729 21.5541658 190.57537326 21.43593951 186.90119934 21.42132568 C186.06826479 21.4258568 185.23533024 21.43038791 184.37715524 21.43505633 C181.58200811 21.44773161 178.78705504 21.44607795 175.99188232 21.44442749 C173.98957569 21.45041073 171.98727137 21.4572158 169.98497009 21.46478271 C164.54288373 21.48246926 159.10086023 21.48713917 153.65874791 21.48841429 C149.118317 21.49031206 144.57790079 21.49766807 140.03747553 21.50475848 C129.32760878 21.5210496 118.61777566 21.52592671 107.90789795 21.52450562 C96.85269191 21.5233035 85.79768088 21.54441759 74.74252421 21.57599294 C65.256235 21.60212383 55.77000961 21.61287427 46.28368467 21.6115948 C40.61557281 21.61108429 34.94763426 21.61681662 29.27955818 21.6379509 C23.95008286 21.65727994 18.62094717 21.6574943 13.29146004 21.64291763 C11.33429469 21.6408219 9.37710839 21.64557568 7.4199791 21.65763855 C4.75031248 21.67302892 2.08182608 21.66382443 -0.58781433 21.64837646 C-1.75250548 21.66380715 -1.75250548 21.66380715 -2.94072574 21.67954957 C-7.88095116 21.61627412 -10.44892766 20.69901038 -13.90679932 17.15390015 C-15.64311568 13.68126742 -15.50870334 9.94197002 -14.90679932 6.15390015 C-10.32972408 0.37233142 -6.99089923 0.00446156 0 0 Z " fill="#000000" transform="translate(93.90679931640625,302.8460998535156)"/>
<path d="M0 0 C0.81982947 -0.00297112 1.63965894 -0.00594224 2.48433173 -0.0090034 C5.24108044 -0.01769933 7.99778577 -0.0191994 10.75454712 -0.02069092 C12.72714837 -0.02531841 14.69974872 -0.03034298 16.67234802 -0.03573608 C22.03803711 -0.0488676 27.40371368 -0.05530636 32.76941633 -0.05974674 C36.11983503 -0.0626759 39.47025029 -0.06678037 42.82066727 -0.07125092 C53.2980928 -0.08492703 63.77551051 -0.09459347 74.25294435 -0.09845281 C86.357662 -0.10293578 98.46226686 -0.12049434 110.5669502 -0.1494534 C119.91733228 -0.17104866 129.26768256 -0.18115591 138.61808932 -0.18249393 C144.20570688 -0.18354338 149.79321842 -0.18948122 155.38080978 -0.20731354 C160.63552852 -0.22375722 165.89006112 -0.22596775 171.14479637 -0.21717453 C173.07454742 -0.2164022 175.00430833 -0.22077254 176.93403435 -0.23063278 C179.56635365 -0.24329542 182.19800803 -0.23750661 184.83032227 -0.22705078 C185.59579231 -0.23510719 186.36126235 -0.24316359 187.14992845 -0.25146413 C192.68591125 -0.19995639 195.84785583 1.09748323 199.85464478 4.82794189 C201.59861267 8.22408991 201.72295984 11.4508635 201.04214478 15.14044189 C199.24850567 17.9504765 198.02333542 19.64984657 195.04214478 21.14044189 C192.37061211 21.24487065 189.72476668 21.28823776 187.0526886 21.28761292 C186.21737934 21.2912896 185.38207009 21.29496629 184.52144843 21.29875439 C181.70631961 21.3098182 178.89122766 21.31363962 176.07608032 21.31744385 C174.06421795 21.32370641 172.05235675 21.33035302 170.04049683 21.33735657 C164.56318552 21.35478439 159.08588296 21.36532296 153.60855079 21.3735621 C150.18895614 21.37870796 146.76936422 21.38478384 143.3497715 21.39107323 C132.65770239 21.41012937 121.9656402 21.4243602 111.27355736 21.4326852 C98.91806583 21.44246336 86.56275317 21.46879631 74.20732468 21.50918609 C64.66588234 21.53931021 55.12449138 21.55415051 45.58300239 21.55746621 C39.88019721 21.55982073 34.17758303 21.56883347 28.47482872 21.59392738 C23.11092312 21.6171486 17.7473351 21.6214653 12.38339233 21.611166 C10.41332253 21.6106691 8.44323742 21.61703486 6.4732151 21.63072205 C3.78594359 21.64834968 1.09982311 21.64138013 -1.58744812 21.62818909 C-2.36916407 21.63915833 -3.15088003 21.65012758 -3.95628434 21.66142923 C-7.67116531 21.61732822 -9.76319563 21.26572544 -12.91850567 19.2349577 C-16.02368603 16.0457794 -16.35395342 13.70702407 -16.31332397 9.24591064 C-15.67832295 5.48475074 -13.68163204 3.73753141 -10.95785522 1.14044189 C-7.26247225 -0.09135243 -3.84825667 -0.00433083 0 0 Z " fill="#000000" transform="translate(94.95785522460938,235.85955810546875)"/>
<path d="M0 0 C0.83530925 -0.00367669 1.67061851 -0.00735338 2.53124017 -0.01114148 C5.34636899 -0.02220529 8.16146094 -0.0260267 10.97660828 -0.02983093 C12.98847064 -0.0360935 15.00033185 -0.04274011 17.01219177 -0.04974365 C22.48950308 -0.06717147 27.96680564 -0.07771004 33.44413781 -0.08594918 C36.86373246 -0.09109504 40.28332438 -0.09717093 43.7029171 -0.10346031 C54.39498621 -0.12251645 65.0870484 -0.13674728 75.77913123 -0.14507228 C88.13462277 -0.15485044 100.48993543 -0.18118339 112.84536391 -0.22157317 C122.38680626 -0.25169729 131.92819722 -0.26653759 141.46968621 -0.26985329 C147.17249139 -0.27220781 152.87510557 -0.28122056 158.57785988 -0.30631447 C163.94176548 -0.32953569 169.3053535 -0.33385239 174.66929626 -0.32355309 C176.63936606 -0.32305618 178.60945118 -0.32942195 180.5794735 -0.34310913 C183.26674501 -0.36073677 185.95286549 -0.35376721 188.64013672 -0.34057617 C189.81271065 -0.35703004 189.81271065 -0.35703004 191.00897294 -0.37381631 C194.68200588 -0.33021211 196.82477879 0.03153359 199.97119427 1.99015522 C202.60621037 4.77720629 202.95697906 6.67401559 203.38554382 10.45967102 C202.88591947 15.37264382 201.50293129 16.73600187 198.01054382 20.14717102 C194.31516085 21.37896534 190.90094526 21.29194375 187.0526886 21.28761292 C185.82294439 21.2920696 185.82294439 21.2920696 184.56835687 21.29661632 C181.81160816 21.30531225 179.05490283 21.30681231 176.29814148 21.30830383 C174.32554023 21.31293133 172.35293988 21.31795589 170.38034058 21.323349 C165.01465149 21.33648051 159.64897492 21.34291928 154.28327227 21.34735966 C150.93285357 21.35028881 147.5824383 21.35439329 144.23202133 21.35886383 C133.7545958 21.37253995 123.27717809 21.38220638 112.79974425 21.38606572 C100.6950266 21.3905487 88.59042174 21.40810725 76.4857384 21.43706632 C67.13535632 21.45866157 57.78500604 21.46876883 48.43459928 21.47010684 C42.84698172 21.4711563 37.25947018 21.47709413 31.67187881 21.49492645 C26.41716008 21.51137014 21.16262748 21.51358066 15.90789223 21.50478745 C13.97814118 21.50401512 12.04838027 21.50838546 10.11865425 21.5182457 C7.48633495 21.53090834 4.85468057 21.52511952 2.22236633 21.5146637 C1.45689629 21.5227201 0.69142625 21.53077651 -0.09723985 21.53907704 C-5.63322265 21.48756931 -8.79516724 20.19012969 -12.80195618 16.45967102 C-14.54592408 13.06352301 -14.67027124 9.83674942 -13.98945618 6.14717102 C-10.06376964 -0.00307123 -6.85178942 -0.00160223 0 0 Z " fill="#000000" transform="translate(92.98945617675781,168.8528289794922)"/>
<path d="M0 0 C1.03751903 -0.00657338 1.03751903 -0.00657338 2.09599805 -0.01327956 C4.42510573 -0.02668648 6.75417556 -0.03285065 9.08331299 -0.03897095 C10.74873018 -0.04687045 12.41414566 -0.0551393 14.07955933 -0.06375122 C19.55898398 -0.08998972 25.03841634 -0.10528103 30.5178833 -0.11953735 C32.40294652 -0.12489635 34.2880097 -0.13027386 36.17307281 -0.13566971 C44.01375542 -0.15730143 51.85443594 -0.17603855 59.69514084 -0.1872921 C70.93776946 -0.20353349 82.18005256 -0.23671247 93.42255092 -0.29369295 C101.3241059 -0.33237705 109.22556842 -0.35192299 117.12721562 -0.35721266 C121.84811786 -0.36086833 126.56865175 -0.37291225 131.2894516 -0.4053154 C135.73170619 -0.43536905 140.17336904 -0.44171766 144.61570358 -0.42993164 C146.24511545 -0.42971068 147.87455456 -0.43803486 149.50387192 -0.45558548 C151.73132044 -0.47827066 153.956622 -0.46998822 156.18408203 -0.45410156 C157.42959209 -0.45741171 158.67510216 -0.46072186 159.95835495 -0.46413231 C164.4700001 0.35895755 166.11286082 1.94892196 169.3460083 5.15390015 C170.59950841 7.84219171 170.69644549 10.21827055 170.3460083 13.15390015 C168.31518339 17.21554997 166.59585646 19.56679546 162.3460083 21.15390015 C159.24406528 21.40837574 159.24406528 21.40837574 155.52070618 21.41459656 C154.49181618 21.42033488 154.49181618 21.42033488 153.44214052 21.42618912 C151.1444748 21.43650521 148.84705962 21.43252969 146.54937744 21.42855835 C144.9017463 21.43290559 143.25411719 21.43808878 141.60649109 21.44404602 C137.13130559 21.45744579 132.6562045 21.45801362 128.18100286 21.45548272 C124.44581815 21.4544137 120.71065057 21.45929461 116.97546953 21.46408814 C108.16415499 21.47518666 99.35288309 21.47561876 90.54156494 21.46957397 C81.44951667 21.46353254 72.35762309 21.4758487 63.26560122 21.49714404 C55.46082607 21.51475269 47.65610019 21.52076258 39.8513059 21.5175063 C35.18926535 21.51569216 30.52733515 21.51834266 25.86531258 21.53222084 C21.48139856 21.54478263 17.09772593 21.54287078 12.71381569 21.52980995 C11.10496693 21.52744104 9.49610127 21.53019014 7.88727188 21.53843307 C5.69066495 21.54887593 3.49487165 21.54082051 1.29829407 21.52812195 C0.06920854 21.52828969 -1.159877 21.52845743 -2.42620754 21.52863026 C-5.97790634 21.11629522 -7.82397615 20.30386536 -10.6539917 18.15390015 C-13.333049 14.1353142 -13.35009864 10.87748293 -12.6539917 6.15390015 C-9.04788803 0.38413427 -6.54620394 0.02932263 0 0 Z " fill="#000000" transform="translate(91.65399169921875,102.84609985351563)"/>
</svg>
