<?xml version="1.0" encoding="UTF-8"?>
<svg version="1.1" xmlns="http://www.w3.org/2000/svg" width="981" height="920">
<path d="M0 0 C2.3795535 0.01005605 4.75911114 0.01917723 7.13867188 0.02734375 C12.90513693 0.04741498 18.67101309 0.08659942 24.4375 0.125 C24.4375 15.635 24.4375 31.145 24.4375 47.125 C5.875 47.4375 5.875 47.4375 0.05639648 47.51293945 C-1.48456184 47.54525841 -3.02549847 47.5786362 -4.56640625 47.61328125 C-5.35108276 47.61952515 -6.13575928 47.62576904 -6.94421387 47.63220215 C-14.86391336 47.83711832 -20.06113422 50.19834589 -25.875 55.75 C-30.42527873 60.05638937 -30.42527873 60.05638937 -32.5625 61.125 C-32.73367819 111.24044697 -32.89288506 161.35591445 -32.9859314 211.47157288 C-32.98731197 212.21326205 -32.98869254 212.95495122 -32.99011494 213.71911582 C-33.0200438 229.83789642 -33.04774565 245.95668013 -33.07315329 262.07546848 C-33.0856267 269.98008189 -33.09859223 277.88469445 -33.11181641 285.78930664 C-33.113124 286.57591191 -33.11443159 287.36251718 -33.1157788 288.17295897 C-33.15839479 313.67062312 -33.23350951 339.16806571 -33.32547221 364.66559562 C-33.41980179 390.86694564 -33.4813552 417.06817304 -33.5016499 443.26969 C-33.50453146 446.97018938 -33.50778783 450.67068835 -33.51127243 454.37118721 C-33.51194666 455.09950071 -33.51262089 455.8278142 -33.51331555 456.5781978 C-33.5251343 468.30365371 -33.57151845 480.02873053 -33.63082034 491.75403182 C-33.68969727 503.5410996 -33.71136925 515.32775816 -33.69751377 527.11496758 C-33.69109647 533.50218452 -33.70106311 539.8882886 -33.75455475 546.27530861 C-33.80316312 552.12185803 -33.8057163 557.96654476 -33.77148895 563.81317932 C-33.76725798 565.92910987 -33.77999568 568.04515589 -33.81133182 570.16085862 C-34.29069577 581.28411249 -34.29069577 581.28411249 -30.39864039 591.33088982 C-27.88905148 593.65022867 -25.51334062 595.41683268 -22.5625 597.125 C-21.82643449 597.58837845 -21.09036899 598.05175691 -20.33199847 598.52917713 C-11.42107345 603.8593101 0.91377189 602.41471869 11 602.6875 C12.50066078 602.73078362 14.00131197 602.7744007 15.50195312 602.81835938 C19.14703299 602.92441797 22.79222182 603.02596257 26.4375 603.125 C26.80659737 601.90461533 26.80659737 601.90461533 27.18315125 600.65957642 C28.67233206 596.46327665 30.5414151 592.56194276 32.50708008 588.57177734 C32.91944349 587.72763905 33.33180691 586.88350075 33.75666618 586.0137825 C35.13182161 583.20245503 36.51292578 580.39410018 37.89453125 577.5859375 C38.8782984 575.58021869 39.86200575 573.57447055 40.84565735 571.56869507 C52.79927067 547.22644249 64.96770733 522.9909389 77.125 498.75 C81.13113955 490.76168864 85.13576311 482.77262334 89.13703346 474.7818718 C90.69875862 471.6647285 92.26294527 468.54882995 93.82731628 465.43301392 C98.57550584 455.96089431 103.25737104 446.46391126 107.80615234 436.89428711 C113.80412274 424.27938764 120.02786519 411.77968126 126.27340007 399.28594279 C127.23097962 397.37005982 128.18798482 395.45389099 129.14480782 393.53763008 C132.50885183 386.80037496 135.87488987 380.06412073 139.24291992 373.32885742 C142.34182132 367.13165556 145.43624441 360.93223193 148.52859682 354.73175997 C151.22076255 349.33421037 153.91612676 343.93826561 156.61383444 338.54348379 C158.2088167 335.35376977 159.80265401 332.16349887 161.39320183 328.97157097 C168.69232309 314.32703188 176.18339054 299.82597419 184.11807442 285.51497078 C185.91242379 282.26473627 187.67956285 279.00003063 189.44435024 275.73367214 C205.04162028 247.05085745 205.04162028 247.05085745 216.4375 241.125 C222.2763599 240.20228221 228.10492089 239.85518862 234.00585938 239.59570312 C234.91600548 239.55427437 235.82615158 239.51284561 236.76387787 239.47016144 C247.28678827 239.0131196 257.81330251 238.79075579 268.34375 238.59375 C269.39629471 238.5732106 270.44883942 238.5526712 271.53327942 238.5315094 C293.61376106 238.10132659 315.69477138 237.84317299 337.77846527 237.65247726 C341.02209638 237.62426418 344.26571778 237.59509918 347.50933838 237.56570435 C523.2646176 235.97814679 523.2646176 235.97814679 637.4375 236.125 C637.44780746 234.84001114 637.45811493 233.55502228 637.46873474 232.23109436 C637.56729071 220.00972657 637.6700874 207.7884005 637.77683926 195.56710148 C637.83156562 189.28685545 637.88489396 183.00660457 637.93481445 176.72631836 C637.98321384 170.64431422 638.03556328 164.56235482 638.09044075 158.48040581 C638.11052845 156.18168721 638.12928803 153.88295654 638.14657402 151.58421516 C638.26686613 135.7469702 638.70907504 119.94615382 639.4375 104.125 C640.88192779 104.27482778 642.32604322 104.42766891 643.77001953 104.58178711 C644.57424347 104.66657822 645.37846741 104.75136932 646.20706177 104.83872986 C657.83621376 106.33129708 668.42726069 114.89371784 675.65234375 123.69140625 C693.52388955 148.05458576 686.47163952 192.32421201 686.44677734 221.37963867 C686.44603075 222.91445665 686.44535383 224.44927467 686.44474792 225.98409271 C686.44313315 229.69772923 686.4405827 233.41136438 686.4375 237.125 C687.21990397 237.12407821 688.00230795 237.12315641 688.80842113 237.12220669 C707.98751864 237.09996758 727.16661352 237.08349985 746.34572124 237.07318783 C755.62119197 237.06806643 764.896654 237.06110464 774.17211914 237.04956055 C782.27166606 237.03948493 790.37120668 237.0331165 798.47075969 237.03091151 C802.74570391 237.02962587 807.02063012 237.02668057 811.29556847 237.01926994 C827.39277948 236.99261928 843.48230868 237.02038628 859.57348633 237.50610352 C861.29604031 237.55181818 861.29604031 237.55181818 863.05339336 237.59845638 C885.0342794 238.37689298 885.0342794 238.37689298 892.08984375 245.8828125 C898.76139438 254.20186096 900.60634758 262.41126203 899.76702881 273.02828979 C898.73189032 279.61461969 895.13547513 285.55107468 892.0625 291.375 C891.31808289 292.83911708 890.57624338 294.30454742 889.83691406 295.77124023 C888.05025909 299.29770711 886.23110005 302.80574155 884.39294434 306.30560303 C883.11051934 308.74765021 881.84148331 311.19661142 880.5703125 313.64453125 C879.0169999 316.61743165 877.44371362 319.57869683 875.859375 322.53515625 C872.45989747 328.91695412 869.27160847 335.40656498 866.07324219 341.89086914 C862.6219007 348.85618218 859.02296486 355.73633436 855.39160156 362.60876465 C850.6605885 371.57350678 846.04753199 380.59762094 841.4375 389.625 C835.60105158 401.05395154 829.70992001 412.45014097 823.71875 423.79882812 C820.76531078 429.39388685 817.84973558 435.00841098 814.9375 440.625 C806.80391975 456.28160641 798.57578523 471.88115039 790.22183228 487.4213562 C785.48399803 496.2401075 780.83711721 505.1016297 776.25 514 C771.6970148 522.82771839 767.04639425 531.5884853 762.25488281 540.28881836 C757.9709384 548.08971583 753.81994951 555.95746704 749.67437744 563.83236694 C742.58986736 577.28579305 735.3512929 590.61850508 727.76269531 603.79638672 C726.53981463 605.94521428 725.35197848 608.10842264 724.1796875 610.28515625 C720.0891646 617.82959426 715.46447339 624.00939465 709.4375 630.125 C708.921875 630.7128125 708.40625 631.300625 707.875 631.90625 C700.40794091 640.15112775 690.57802028 648.3203623 679.22305503 649.35725135 C674.67452859 649.54747084 670.14762458 649.50043999 665.59718323 649.41329956 C663.53189034 649.4148974 661.46659646 649.4214308 659.40133226 649.43243337 C653.76990539 649.44895104 648.14084424 649.39809187 642.50981037 649.33611956 C636.41384198 649.28155587 630.31795058 649.29166406 624.22178745 649.29508781 C614.39978149 649.29383115 604.5782576 649.26426421 594.75643424 649.2091282 C578.65874931 649.11906832 562.56225141 649.12725404 546.46436077 649.17266966 C540.33887967 649.18970562 534.21339186 649.20431128 528.08790493 649.21907234 C527.40585844 649.22074154 526.72381194 649.22241073 526.02109737 649.22413051 C509.5628103 649.26389515 493.10455212 649.26621684 476.64622498 649.26394653 C475.91321144 649.26385911 475.18019791 649.26377169 474.42497184 649.26368162 C467.67061963 649.26287505 460.91626749 649.26180308 454.16191539 649.26030994 C443.25072537 649.25793051 432.33953683 649.25772082 421.42834663 649.25881577 C420.63858282 649.25889215 419.84881901 649.25896854 419.03512297 649.25904724 C415.82590116 649.25935879 412.61667936 649.25967722 409.40745755 649.260007 C379.69908032 649.26302321 349.99070617 649.26035813 320.28232942 649.2549101 C294.04214051 649.25013482 267.80195645 649.25062265 241.56176758 649.25537109 C211.77955046 649.2607431 181.997336 649.26284239 152.21511847 649.25975883 C149.03611314 649.25943827 145.85710782 649.25912542 142.67810249 649.25881577 C141.89586806 649.25873669 141.11363362 649.25865761 140.30769511 649.25857614 C128.61038687 649.25744919 116.9130806 649.25874826 105.21577263 649.26129532 C91.9432764 649.26417174 78.6707857 649.26340184 65.39829015 649.25801457 C58.65487607 649.25536625 51.91147301 649.25431246 45.1680584 649.25766373 C-1.09381917 649.27846797 -1.09381917 649.27846797 -24.03782654 648.74191284 C-24.79649677 648.72676377 -25.55516699 648.71161469 -26.33682723 648.69600655 C-42.00273243 648.36816972 -52.6798993 645.25516861 -64.39453125 634.390625 C-75.23100427 623.06602256 -79.42490591 612.11982091 -80.10549927 596.77062988 C-80.14732932 595.85106522 -80.18915938 594.93150056 -80.23225701 593.9840703 C-80.70085273 582.92420303 -80.79308159 571.86316265 -80.87451172 560.79492188 C-80.89507614 558.36548717 -80.91582596 555.93605403 -80.93674088 553.50662231 C-80.99851054 546.08634967 -81.05143442 538.66603485 -81.10230809 531.24568152 C-81.11727853 529.08058494 -81.13264676 526.91549153 -81.14814138 524.75039864 C-81.73477738 442.64346993 -81.81032626 360.53440828 -81.71965408 278.42572021 C-81.714675 273.80822766 -81.70982321 269.19073499 -81.70507812 264.57324219 C-81.70388594 263.4278779 -81.70269376 262.28251361 -81.70146546 261.10244131 C-81.68275343 242.22049218 -81.699777 223.33872695 -81.72920527 204.45679826 C-81.75921242 184.77204108 -81.75535587 165.08750994 -81.71899974 145.40276194 C-81.69968712 134.46506159 -81.69504977 123.52780798 -81.7298317 112.59013367 C-81.7591217 103.37906889 -81.75811423 94.16864545 -81.7173558 84.95761281 C-81.69759651 80.27995929 -81.69204226 75.60348131 -81.72618294 70.92588425 C-81.75714465 66.63919732 -81.74583818 62.3546703 -81.70244513 58.06811029 C-81.69402706 56.52951132 -81.70039174 54.99073461 -81.72408225 53.45229501 C-81.94954261 37.69822922 -75.01190911 25.6717256 -64.17578125 14.46484375 C-45.7093112 -2.0694097 -23.25318758 -0.17240245 0 0 Z " fill="#010101" transform="translate(81.5625,270.875)"/>
<path d="M0 0 C3.78287394 0.00230524 7.56574368 -0.00125064 11.34861672 -0.00397992 C18.72604516 -0.00838453 26.10346333 -0.00748456 33.48089214 -0.00456728 C39.49446224 -0.00228991 45.50802949 -0.00201073 51.52159989 -0.0030911 C52.38425532 -0.00324433 53.24691076 -0.00339756 54.13570726 -0.00355544 C55.88946312 -0.00387524 57.64321898 -0.00419946 59.39697484 -0.00452803 C75.77760603 -0.00736787 92.15823159 -0.00412055 108.53886185 0.00127234 C122.50479229 0.00572861 136.47071439 0.00497125 150.43664467 0.00035357 C166.74669792 -0.00503682 183.05674624 -0.00708251 199.36680025 -0.00403416 C201.11734422 -0.0037157 202.86788819 -0.00340133 204.61843216 -0.0030911 C205.9095378 -0.00285968 205.9095378 -0.00285968 207.22672638 -0.0026236 C213.20591759 -0.00177095 219.18510555 -0.00322497 225.16429627 -0.00557065 C244.54934239 -0.01220034 263.93366043 0.01607292 283.31847513 0.11467838 C286.72724582 0.12978275 290.13594569 0.13762603 293.54474366 0.1429832 C298.18367355 0.15241959 302.82138567 0.18861751 307.45986629 0.25358009 C309.01374987 0.27162924 310.56777418 0.28063869 312.1217618 0.27907515 C320.92504174 0.27789438 327.46001721 0.98678875 334.31091225 6.85338092 C336.52697613 9.18010459 338.44990075 11.62609647 340.3773185 14.19322467 C341.43595916 15.43012497 342.50440707 16.6586974 343.58239663 17.87877154 C346.06210361 20.7246458 348.42178314 23.64154079 350.74420083 26.61638141 C354.80804585 31.76355885 359.24385947 36.55834351 363.9398185 41.13072467 C367.54700977 44.6943245 370.93459739 48.34997323 374.228881 52.20103717 C376.61292474 54.88989015 379.16797878 57.38550011 381.7523185 59.88072467 C383.64514014 61.82762693 385.42671608 63.81519415 387.2054435 65.86509967 C390.92315035 70.14501565 394.78758349 74.26938195 398.6898185 78.38072467 C405.17244841 85.2396353 411.58048673 92.15752076 417.9398185 99.13072467 C418.89632071 100.17157567 419.85336478 101.21192894 420.81091225 102.25181842 C429.54861538 111.74348411 438.11464461 121.39657898 446.35318995 131.32715338 C447.87048488 133.12905121 447.87048488 133.12905121 449.51648784 134.51829225 C453.35946539 138.13631646 454.3757472 141.03100787 454.67810547 146.2863481 C454.70328686 148.8048648 454.69523829 151.32384273 454.6613456 153.84225726 C454.66396387 155.24661308 454.6692207 156.65096603 454.6768806 158.05530339 C454.69027332 161.90499905 454.66633166 165.75368987 454.63621223 169.60325754 C454.61027399 173.75791 454.61907162 177.91250692 454.62362587 182.06721759 C454.62677028 189.26236567 454.60796357 196.45718701 454.57419884 203.65225291 C454.52541294 214.055021 454.50980776 224.45763127 454.50227089 234.86050136 C454.4891428 251.73883265 454.44922316 268.61698984 454.39245522 285.49522662 C454.33737157 301.88974902 454.29490567 318.28422411 454.26940835 334.67882037 C454.267832 335.68957281 454.26625566 336.70032524 454.26463155 337.74170654 C454.25680127 342.81241196 454.24921903 347.88311771 454.24176013 352.95382369 C454.17957124 395.01291741 454.07224973 437.07179839 453.9398185 479.13072467 C441.7298185 479.13072467 429.5198185 479.13072467 416.9398185 479.13072467 C416.91476235 474.43877887 416.8897062 469.74683307 416.86389077 464.91270709 C416.32588498 358.24098296 416.32588498 358.24098296 415.46900475 251.57152438 C415.44015661 248.60301598 415.41271513 245.63449761 415.3856498 242.66597247 C415.2321859 226.03850237 415.06547161 209.41133371 414.5335685 192.79088092 C414.50460488 191.74911197 414.47564126 190.70734302 414.44579995 189.63400531 C414.19862668 182.987366 413.29834316 176.64028883 411.9398185 170.13072467 C400.93262573 167.65892265 389.13946175 167.97910016 377.91156685 167.87036395 C375.69775561 167.8487907 373.48406079 167.8218364 371.27032387 167.79368854 C365.78247136 167.72492262 360.29453284 167.66467639 354.80657876 167.60466266 C350.13764706 167.55331626 345.46878314 167.49840868 340.79994881 167.4388454 C338.64047817 167.41270149 336.48099892 167.39164531 334.32147133 167.37083697 C311.85074206 167.11417315 311.85074206 167.11417315 305.9398185 163.13072467 C305.20939843 162.75676059 304.47897835 162.38279651 303.72642434 161.99750018 C300.07713425 159.63510394 297.46726544 157.34211896 296.4239074 152.96769595 C295.57951938 146.07882449 295.81236894 139.13052653 295.91247475 132.20494342 C295.91189916 129.93343886 295.90706597 127.66193176 295.89817727 125.39044452 C295.88489939 119.41828103 295.92351531 113.44761038 295.97485268 107.47569537 C296.03792532 99.07666206 296.03195219 90.67736555 296.03147805 82.27813983 C296.03125761 77.810352 296.05139114 73.34339538 296.08802712 68.87576556 C296.09743523 66.81972065 296.10671415 64.76367514 296.11584389 62.70762897 C296.13381272 61.34111445 296.13381272 61.34111445 296.15214455 59.94699359 C296.16581759 53.49077803 295.27783344 47.4418584 293.9398185 41.13072467 C288.62747285 38.98698453 283.77207264 38.7169245 278.1273185 38.54088092 C277.1272477 38.50406711 276.1271769 38.46725329 275.09680092 38.42932391 C260.71596763 37.93644122 246.32726034 37.74892185 231.9398185 37.56822467 C231.13929181 37.55788447 230.33876511 37.54754428 229.51398003 37.53689075 C162.3091706 36.67107318 95.08244939 36.8127419 27.8773185 37.56822467 C26.97594029 37.57808146 26.07456208 37.58793826 25.14586937 37.59809375 C7.47038919 37.79171765 -10.20068931 38.04137734 -27.86877525 38.60338092 C-29.06680274 38.64047671 -30.26483024 38.67757251 -31.4991616 38.71579242 C-38.05477099 38.944507 -44.54373897 39.37384662 -51.0601815 40.13072467 C-52.12427035 47.32283766 -52.38605964 54.48024197 -52.60510337 61.74229693 C-52.63630098 62.74620178 -52.63630098 62.74620178 -52.66812885 63.77038753 C-53.18692761 80.7156353 -53.26785282 97.66248953 -53.33091414 114.61444712 C-53.34936169 119.40486176 -53.37177923 124.19525869 -53.39350975 128.98565936 C-53.42172481 135.28388566 -53.44903622 141.58211361 -53.47400463 147.88035369 C-53.5238848 160.3809154 -53.5855976 172.88132942 -53.66079682 185.38176477 C-53.74403697 199.23944804 -53.81816579 213.09716837 -53.88440025 226.95494342 C-53.88759331 227.61938049 -53.89078638 228.28381756 -53.8940762 228.96838909 C-54.09781709 271.64210095 -54.03260635 314.31140753 -53.81877792 356.985008 C-53.79832555 361.07346132 -53.77793332 365.16191493 -53.75759971 369.25036883 C-53.75250762 370.27068707 -53.74741553 371.29100531 -53.74216913 372.34224228 C-53.66498138 387.93392645 -53.60888083 403.5255793 -53.5695504 419.11740375 C-53.56691691 420.15027786 -53.56428342 421.18315197 -53.56157012 422.24732529 C-53.53513919 432.70546262 -53.51123164 443.16360289 -53.49056844 453.62175318 C-53.44439817 476.56866604 -53.34757073 499.51387702 -53.15532223 522.46005427 C-53.0142543 539.45790247 -52.94761531 556.45483848 -52.9508515 573.45327884 C-52.95042939 582.78654167 -52.91678094 592.11686704 -52.79081237 601.44935298 C-51.84532226 673.88417601 -51.84532226 673.88417601 -73.78216612 705.22884536 C-76.42359613 709.15969093 -78.73209501 713.31095652 -81.03913504 717.44496298 C-82.9546433 720.7547515 -84.35346071 722.8840594 -88.0601815 724.13072467 C-91.20285108 719.21176358 -92.15320665 715.61058682 -92.35708702 709.81787372 C-92.39616613 708.7080208 -92.43524524 707.59816789 -92.47550857 706.45468307 C-92.51263521 705.21090424 -92.54976184 703.96712541 -92.58801353 702.68565631 C-92.60844663 702.02324565 -92.62887974 701.36083499 -92.64993203 700.67835128 C-93.31127378 678.83640866 -93.4180019 656.98098373 -93.58514726 635.13098335 C-93.61026672 631.85248944 -93.63609908 628.57400214 -93.6622482 625.29551632 C-94.24981084 551.36817742 -94.21282343 477.43907569 -94.18964335 403.50990371 C-94.18518414 389.01493696 -94.18599491 374.51997839 -94.19055259 360.02501178 C-94.21376248 283.99174788 -94.1949822 207.96006676 -93.63042408 131.92853293 C-93.61502419 129.8354121 -93.6000111 127.74228889 -93.58514726 125.6491642 C-93.45838707 107.80902361 -93.29646957 89.96977486 -93.0601815 72.13072467 C-93.04788411 71.14948957 -93.03558671 70.16825447 -93.02291667 69.15728498 C-92.95451561 63.77892692 -92.87116685 58.40128902 -92.75979531 53.02364051 C-92.72933153 51.47827758 -92.70324535 49.93282015 -92.68220961 48.38730013 C-92.46247264 33.00898343 -89.2827792 22.7044808 -78.6851815 11.31822467 C-68.5043431 1.74688214 -56.17725025 0.93269984 -42.76286399 0.51381183 C-41.16110943 0.45738834 -41.16110943 0.45738834 -39.5269962 0.39982498 C-26.35438829 -0.01930404 -13.17779908 -0.01193581 0 0 Z " fill="#050505" transform="translate(232.06018149852753,-0.13072466850280762)"/>
<path d="M0 0 C3.0700454 -0.00906901 6.14009016 -0.0183304 9.21013451 -0.02774811 C10.35279839 -0.03123236 10.35279839 -0.03123236 11.51854639 -0.034787 C24.03853669 -0.07411961 36.55794388 -0.15530357 49.07761688 -0.25087687 C62.09893084 -0.34943005 75.11993472 -0.40627542 88.14161295 -0.42370439 C96.09642992 -0.43559494 104.04972071 -0.47890473 112.00409209 -0.56449524 C118.05050058 -0.62603796 124.09550971 -0.62918537 130.14226151 -0.61053848 C132.60984264 -0.61196509 135.0774974 -0.63215296 137.54474449 -0.67277908 C158.09161101 -0.99381413 158.09161101 -0.99381413 164.1863789 4.43138671 C169.53316685 10.10106591 173.3762981 16.12481027 173.9745388 23.90193939 C173.34266946 33.37997953 168.3867677 40.30620455 161.40895472 46.47276253 C156.44945005 49.94466819 150.15205422 49.27441298 144.3709774 49.1488266 C142.83683965 49.15980654 141.3027321 49.17603006 139.76869839 49.19700122 C135.57781541 49.23914141 131.39037069 49.20698603 127.19964015 49.16199923 C122.67120315 49.12649961 118.14320046 49.16044178 113.61476707 49.18544769 C104.75442406 49.22333105 95.89538738 49.19706548 87.03514162 49.14839593 C76.71395302 49.09381967 66.393073 49.10047548 56.07177677 49.10892925 C37.65620244 49.1216782 19.24124776 49.07507653 0.82585716 48.99666595 C-17.03891803 48.92061998 -34.90296736 48.89232541 -52.76789284 48.9146347 C-72.23167719 48.93886879 -91.69514267 48.93815519 -111.15890056 48.89269137 C-113.23434785 48.88786229 -115.30979515 48.88303835 -117.38524246 48.8782196 C-118.40635681 48.87580545 -119.42747116 48.87339129 -120.47952836 48.87090398 C-127.67243937 48.85539244 -134.86523158 48.85695968 -142.05815125 48.86456299 C-150.82273491 48.87305348 -159.58668321 48.85213546 -168.35108789 48.79410878 C-172.82220098 48.76514482 -177.29238905 48.74881204 -181.76358032 48.76708221 C-185.85804495 48.78340609 -189.9506011 48.76268695 -194.0447763 48.71257791 C-195.524347 48.70088007 -197.00409812 48.70257918 -198.48362228 48.71915022 C-210.89448689 48.84551824 -210.89448689 48.84551824 -216.0589056 43.83285904 C-221.33879194 37.56565472 -224.59306716 30.97873921 -224.2754612 22.65193939 C-223.19408745 15.33274659 -220.13693208 9.29559011 -214.2754612 4.65193939 C-209.26328144 2.57615777 -204.65650166 2.24410457 -199.31427956 2.05916595 C-198.40101623 2.0221973 -197.4877529 1.98522865 -196.54681492 1.94713974 C-183.25496616 1.44928 -169.95363843 1.29876032 -156.65436745 1.13631439 C-155.07214339 1.11640702 -153.4899195 1.09648636 -151.90769577 1.07655334 C-101.27437192 0.44747025 -50.63681913 0.14676877 0 0 Z " fill="#060606" transform="translate(438.2754611968994,341.34806060791016)"/>
<path d="M0 0 C3.99052208 0.00228517 7.98103997 -0.00124087 11.97156119 -0.00397992 C19.76682342 -0.00840354 27.56207596 -0.00747639 35.35733855 -0.00456728 C41.69832087 -0.00229979 48.0393005 -0.00200654 54.38028312 -0.0030911 C55.28616535 -0.00324433 56.19204758 -0.00339756 57.12538078 -0.00355544 C58.96623027 -0.0038752 60.80707976 -0.00419941 62.64792925 -0.00452803 C79.86960481 -0.00737284 97.09127503 -0.0041115 114.31294972 0.00127234 C129.05825147 0.00573946 143.80354535 0.00496325 158.54884696 0.00035357 C175.71306384 -0.00500986 192.87727605 -0.00709824 210.04149365 -0.00403416 C211.87519781 -0.00371565 213.70890196 -0.00340127 215.54260612 -0.0030911 C216.4445915 -0.00293682 217.34657688 -0.00278255 218.27589515 -0.0026236 C224.60199274 -0.00176375 230.92808735 -0.00320982 237.25418448 -0.00557065 C244.97396238 -0.00838854 252.69373012 -0.00758868 260.41350687 -0.00228991 C264.34475402 0.00032041 268.2759843 0.00139797 272.20723128 -0.00193906 C319.21459049 -0.03837145 319.21459049 -0.03837145 325.46144462 4.13072467 C329.85527366 8.82065958 333.07511344 14.64504377 333.46144462 21.13072467 C333.21994501 28.29171285 331.46089016 33.11259051 326.60597587 38.37681842 C312.1284674 50.21725795 288.85366183 46.41716033 271.20924759 46.37751496 C267.25947117 46.3708643 263.30970599 46.37590244 259.35992789 46.37939715 C251.64217956 46.38441082 243.92447446 46.37883235 236.2067315 46.36954685 C227.19183677 46.35909634 218.17695108 46.35923485 209.16205144 46.35971943 C193.05562268 46.36021895 176.94921384 46.35109089 160.84279227 46.33653522 C145.26954639 46.32246895 129.69631803 46.31536377 114.12306571 46.3160274 C112.68584645 46.31608734 112.68584645 46.31608734 111.21959245 46.31614848 C110.26298892 46.31618884 109.30638539 46.31622919 108.32079387 46.31627077 C90.5211298 46.31696395 72.72147307 46.31104914 54.9218114 46.30211755 C48.66259181 46.29912279 42.40337359 46.29804056 36.14415336 46.29758525 C28.49267402 46.29689694 20.84120707 46.29234828 13.18973297 46.28325244 C9.29800136 46.27869283 5.40628537 46.2755668 1.51455092 46.27684665 C-7.83714786 46.27901075 -17.18737617 46.24251506 -26.53855538 46.13072467 C-27.76750276 46.1167043 -28.99645013 46.10268394 -30.26263833 46.08823872 C-33.74673412 46.03706843 -37.22868576 45.95661267 -40.71189523 45.86383319 C-41.73083179 45.84924664 -42.74976834 45.83466009 -43.79958177 45.81963152 C-49.41243977 45.62878027 -52.95180402 45.09950648 -57.35105538 41.25572467 C-59.14402413 38.78697467 -59.14402413 38.78697467 -60.53855538 36.13072467 C-61.0090632 35.25416217 -61.47957101 34.37759967 -61.96433663 33.47447467 C-65.08344678 26.40313701 -65.49682719 19.30478595 -62.74168038 12.02525592 C-60.71292642 8.12572473 -58.26077536 5.4148142 -54.53855538 3.13072467 C-37.15831237 -1.83553467 -17.92666054 -0.015217 0 0 Z " fill="#040404" transform="translate(278.53855538368225,206.8692753314972)"/>
<path d="M0 0 C0.66 0.33 1.32 0.66 2 1 C-2.29 5.29 -6.58 9.58 -11 14 C-11.66 13.67 -12.32 13.34 -13 13 C-11.58791833 11.39179588 -10.17013964 9.78859292 -8.75 8.1875 C-7.96109375 7.29417969 -7.1721875 6.40085937 -6.359375 5.48046875 C-4.34120555 3.35871775 -2.40083295 1.65745577 0 0 Z " fill="#6D6D6D" transform="translate(24,280)"/>
<path d="M0 0 C0.66 0.33 1.32 0.66 2 1 C-0.97 3.97 -3.94 6.94 -7 10 C-7.66 9.67 -8.32 9.34 -9 9 C-6.21000549 5.51250686 -3.74764169 2.49842779 0 0 Z " fill="#6F6F6F" transform="translate(296,513)"/>
<path d="M0 0 C0.66 0.33 1.32 0.66 2 1 C-0.97 3.97 -3.94 6.94 -7 10 C-7 5.69032084 -4.83274712 4.10253255 -2 1 C-1.34 0.67 -0.68 0.34 0 0 Z " fill="#646464" transform="translate(224,210)"/>
</svg>
