<?xml version="1.0" encoding="UTF-8"?>
<svg version="1.1" xmlns="http://www.w3.org/2000/svg" width="4096" height="4096">
<path d="M0 0 C4.50427324 0.00008056 9.00844325 -0.00676505 13.51269531 -0.02050781 C55.57386007 -0.14658906 97.53894891 1.01627819 139.50024414 3.99780273 C140.70676636 4.08178314 141.91328857 4.16576355 143.15637207 4.25228882 C253.47174631 11.96686907 362.71704244 29.37999083 555.12524414 79.18530273 C556.65036621 79.6448938 556.65036621 79.6448938 558.20629883 80.11376953 C633.49270639 102.86315338 707.34594283 130.01789079 779.12524414 162.18530273 C779.79410645 162.48438538 780.46296875 162.78346802 781.15209961 163.09161377 C800.21401484 171.61555017 819.09752508 180.45690275 837.86645508 189.60668945 C840.86380314 191.05865623 843.86975038 192.48946946 846.88305664 193.90795898 C870.43434789 204.99913154 893.5706892 217.0084178 916.33325195 229.63696289 C919.40396473 231.33987129 922.47941572 233.03405427 925.55493164 234.72827148 C956.9854544 252.07723027 987.91170451 270.23238956 1018.27563477 289.38842773 C1020.96741272 291.08577915 1023.66326539 292.77648392 1026.35961914 294.46655273 C1037.68883768 301.59545736 1048.86283617 308.94927812 1060.00024414 316.37280273 C1060.68440399 316.82857697 1061.36856384 317.2843512 1062.07345581 317.75393677 C1074.9890998 326.36507801 1087.83144513 335.08895103 1100.50024414 344.06030273 C1101.1939209 344.55095215 1101.88759766 345.04160156 1102.60229492 345.54711914 C1123.63068868 360.45028057 1144.36338432 375.74221858 1164.82055664 391.41967773 C1166.81595921 392.94835903 1168.8137106 394.47387582 1170.81274414 395.99780273 C1177.09959421 400.79954054 1183.3035864 405.69801427 1189.46826172 410.6550293 C1193.1053221 413.578143 1196.76393321 416.46954991 1200.44848633 419.33251953 C1206.46908199 424.01529895 1212.3193358 428.85392948 1218.08642578 433.84545898 C1221.55644427 436.84803152 1225.06095584 439.79421091 1228.62524414 442.68530273 C1234.61816166 447.55509662 1240.46479044 452.58746513 1246.3137207 457.62817383 C1248.1188681 459.17982209 1249.92962973 460.72463858 1251.74243164 462.26733398 C1258.15559549 467.72965571 1264.47454826 473.26463184 1270.68383789 478.95874023 C1272.78679247 480.87663481 1274.9119357 482.75906318 1277.06274414 484.62280273 C1281.98724328 488.90541196 1286.77343385 493.33885098 1291.57397461 497.7590332 C1294.02332409 500.01101615 1296.48160555 502.25322924 1298.93774414 504.49780273 C1319.10620105 522.9852764 1319.10620105 522.9852764 1328.46508789 532.58764648 C1330.52474529 534.59891252 1332.59789922 536.47328212 1334.77954102 538.34399414 C1339.13484177 542.14220897 1343.23749139 546.15298072 1347.31665039 550.24389648 C1348.06559067 550.99188004 1348.81453094 551.73986359 1349.58616638 552.51051331 C1351.15795639 554.08162738 1352.72850263 555.65398666 1354.29785156 557.22753906 C1356.68125718 559.61630119 1359.06995482 561.99967719 1361.45922852 564.38256836 C1362.99535651 565.91935724 1364.53117423 567.45645633 1366.06665039 568.99389648 C1366.77100723 569.6962291 1367.47536407 570.39856171 1368.20106506 571.12217712 C1372.14030736 575.07983218 1375.90616511 579.13103525 1379.5355072 583.37538147 C1382.24702989 586.46245987 1385.1886731 589.31428015 1388.12524414 592.18530273 C1392.38673584 596.35167185 1396.42668775 600.6159209 1400.3215332 605.12768555 C1403.45002851 608.69657543 1406.73262918 612.1192383 1410.00024414 615.56030273 C1418.43962707 624.49413558 1426.64032058 633.58109758 1434.60791016 642.93725586 C1437.77619704 646.64696205 1441.00917915 650.28197123 1444.31274414 653.87280273 C1448.2618816 658.1792431 1451.97573544 662.62396453 1455.64477539 667.16967773 C1458.57493527 670.73201384 1461.59308457 674.20981691 1464.62524414 677.68530273 C1469.91434801 683.75719094 1475.0640638 689.92146568 1480.12524414 696.18530273 C1481.14289975 697.43316653 1482.16117159 698.68052794 1483.17993164 699.92749023 C1489.76011566 707.988436 1496.26508297 716.10198977 1502.66235352 724.30883789 C1504.22616572 726.31475589 1505.79293352 728.31834711 1507.35961914 730.32202148 C1529.77768066 759.03061995 1551.31321041 788.29679044 1572.12524414 818.18530273 C1572.5901123 818.85223145 1573.05498047 819.51916016 1573.53393555 820.20629883 C1586.79038991 839.2559085 1599.64662606 858.61795888 1612.12524414 878.18530273 C1612.79934326 879.24080322 1612.79934326 879.24080322 1613.48706055 880.31762695 C1627.51677392 902.31843658 1641.11341467 924.56726702 1654.12524414 947.18530273 C1654.63506836 948.06992188 1655.14489258 948.95454102 1655.67016602 949.8659668 C1659.1787068 955.95914784 1662.65804234 962.06852136 1666.12524414 968.18530273 C1666.65553223 969.11826172 1667.18582031 970.0512207 1667.73217773 971.01245117 C1710.82983477 1046.93249026 1748.03410115 1126.01762263 1795.12524414 1247.18530273 C1795.624776 1248.55628113 1795.624776 1248.55628113 1796.13439941 1249.95495605 C1833.84850827 1353.540605 1862.39676732 1460.17183904 1909.01809692 1818.60629272 C1909.09245359 1820.3960413 1909.17128007 1822.18560757 1909.25363159 1823.9750061 C1910.32059879 1847.32967965 1910.31275192 1870.68569395 1910.31054688 1894.06005859 C1910.31046631 1898.56433183 1910.31731193 1903.06850184 1910.33105469 1907.57275391 C1910.45719813 1949.65468001 1909.29076452 1991.64050721 1906.31274414 2033.62280273 C1906.22876373 2034.83126862 1906.14478333 2036.0397345 1906.05825806 2037.28482056 C1898.43314945 2146.4398599 1881.27609704 2254.63513021 1724.12524414 2725.18530273 C1723.72589661 2726.01451233 1723.32654907 2726.84372192 1722.9151001 2727.69805908 C1719.8717842 2734.01197483 1716.81430112 2740.31892998 1713.75024414 2746.62280273 C1713.13670578 2747.88752411 1713.13670578 2747.88752411 1712.51077271 2749.17779541 C1706.97889635 2760.56815955 1701.23604345 2771.82684991 1695.28564453 2783.00418091 C1694.20235348 2785.04036581 1693.12361208 2787.07886704 1692.04711914 2789.11865234 C1683.87819363 2804.59356548 1675.56106191 2819.9662738 1666.86157227 2835.15112305 C1664.92729883 2838.53120605 1663.00252808 2841.91664526 1661.07836914 2845.30249023 C1648.08153224 2868.15631276 1648.08153224 2868.15631276 1641.35229492 2879.17163086 C1639.88270135 2881.58333158 1638.42412415 2884.00157577 1636.96508789 2886.41967773 C1628.87650369 2899.79971012 1620.57791935 2913.03268202 1612.12524414 2926.18530273 C1611.42069092 2927.28551758 1611.42069092 2927.28551758 1610.7019043 2928.40795898 C1575.08279633 2984.02626694 1536.6463304 3038.29348571 1494.81030273 3089.42431641 C1491.33530019 3093.67549127 1487.93135675 3097.97454292 1484.56274414 3102.31030273 C1480.34646039 3107.72487445 1475.95389934 3112.96095111 1471.46264648 3118.14892578 C1468.47957259 3121.59595814 1465.5556895 3125.07850463 1462.68774414 3128.62280273 C1454.79505347 3138.33467981 1446.50368305 3147.72128015 1438.10180664 3156.99389648 C1436.25567853 3159.0406907 1434.4353113 3161.1066183 1432.62524414 3163.18530273 C1428.51440603 3167.90234738 1424.31707225 3172.54030402 1420.12524414 3177.18530273 C1419.40336914 3177.98967773 1418.68149414 3178.79405273 1417.93774414 3179.62280273 C1404.52968334 3194.56321334 1391.07072996 3209.54611142 1376.68774414 3223.56030273 C1374.68126748 3225.61571785 1372.80951818 3227.68859017 1370.94140625 3229.86474609 C1367.28622141 3234.05590342 1363.44134777 3238.01407592 1359.50415039 3241.93920898 C1358.80055893 3242.64375717 1358.09696747 3243.34830536 1357.37205505 3244.07420349 C1355.89509766 3245.5518364 1354.41689672 3247.0282273 1352.9375 3248.50341797 C1350.69359329 3250.74196755 1348.4550771 3252.98580746 1346.21704102 3255.23022461 C1344.77139796 3256.67520677 1343.32544469 3258.11987865 1341.87915039 3259.56420898 C1340.89127281 3260.55512291 1340.89127281 3260.55512291 1339.88343811 3261.5660553 C1336.0327367 3265.39771626 1332.07765658 3269.04735111 1327.95054626 3272.58018494 C1324.85929422 3275.29854241 1322.00346819 3278.24515511 1319.12524414 3281.18530273 C1314.83282443 3285.52794621 1310.50989841 3289.73206058 1305.84790039 3293.68139648 C1304.02093907 3295.27636272 1302.32465127 3296.95548116 1300.62524414 3298.68530273 C1297.70393626 3301.65246074 1294.64532741 3304.38589245 1291.49243164 3307.10327148 C1288.48801865 3309.74576674 1285.55790342 3312.46370447 1282.62524414 3315.18530273 C1276.81274558 3320.56962461 1270.90371717 3325.81250544 1264.87915039 3330.95874023 C1263.66945834 3331.99252813 1262.45982455 3333.02638421 1261.25024414 3334.06030273 C1260.33710449 3334.84014526 1260.33710449 3334.84014526 1259.40551758 3335.63574219 C1255.86843255 3338.6646199 1252.38106406 3341.73702016 1248.93774414 3344.87280273 C1244.77451988 3348.65016719 1240.46816523 3352.20957541 1236.09790039 3355.74389648 C1232.78773 3358.46249897 1229.55029784 3361.25615409 1226.31274414 3364.06030273 C1221.1822625 3368.49133221 1215.94482668 3372.74260924 1210.58911133 3376.89746094 C1205.83913153 3380.59298737 1201.19443842 3384.40544917 1196.56274414 3388.24780273 C1190.11124144 3393.59029629 1183.56525263 3398.75840331 1176.89624023 3403.82788086 C1174.91648353 3405.34531225 1172.95164533 3406.88078564 1170.98852539 3408.41967773 C1160.96575604 3416.27512273 1150.805985 3423.91254437 1140.52514648 3431.42651367 C1138.11147977 3433.19539007 1135.7051563 3434.97380439 1133.30102539 3436.75561523 C1123.718442 3443.8549784 1114.06284602 3450.83204338 1104.28979492 3457.66674805 C1102.11334057 3459.19365376 1099.94481855 3460.731277 1097.77758789 3462.27124023 C1076.30416229 3477.48120084 1054.32644044 3492.05931931 1032.12524414 3506.18530273 C1031.43027832 3506.62890137 1030.7353125 3507.0725 1030.01928711 3507.52954102 C1008.00997092 3521.56552419 985.75284778 3535.1689103 963.12524414 3548.18530273 C962.20340332 3548.71639648 961.2815625 3549.24749023 960.33178711 3549.79467773 C933.85445786 3565.03505674 907.05455267 3579.66432904 879.93139648 3593.72338867 C877.21468763 3595.13870559 874.5066345 3596.5692118 871.80102539 3598.00561523 C844.43716582 3612.49689861 816.413545 3625.64793189 788.15032959 3638.27825928 C786.15474764 3639.172088 784.16136071 3640.07062437 782.16870117 3640.97094727 C743.137508 3658.59877666 703.37751624 3674.5698333 663.12524414 3689.18530273 C662.21659607 3689.51618896 661.307948 3689.8470752 660.37176514 3690.18798828 C556.77655236 3727.89795901 450.14691673 3756.45571669 113.87524414 3801.87280273 C112.79008514 3801.93365051 111.70492615 3801.99449829 110.58688354 3802.05718994 C103.10133467 3802.47171101 95.61435485 3802.84150243 88.12524414 3803.18530273 C87.08837463 3803.23476044 86.05150513 3803.28421814 84.98321533 3803.33517456 C59.83597737 3804.49940302 34.66848099 3804.38603091 9.50024414 3804.37280273 C7.79615135 3804.37240242 7.79615135 3804.37240242 6.05763245 3804.37199402 C-58.83965587 3804.35284884 -58.83965587 3804.35284884 -90.85430908 3802.37213135 C-94.13475968 3802.16922029 -97.41562384 3801.97391054 -100.6965332 3801.77856445 C-211.35454053 3795.10415304 -321.22481006 3779.78592726 -814.64837646 3618.25616455 C-816.9381692 3617.15480168 -819.22892325 3616.05545622 -821.51977539 3614.95629883 C-837.34338987 3607.35830631 -853.12610193 3599.72412376 -868.58569336 3591.40405273 C-871.1503236 3590.03858407 -873.72953536 3588.70373112 -876.31225586 3587.37280273 C-887.98224017 3581.35571449 -899.47696832 3575.09810098 -910.87866211 3568.58764648 C-915.01276486 3566.23047664 -919.16686209 3563.91478389 -923.33959961 3561.62670898 C-937.52822766 3553.84283573 -951.42355151 3545.71108807 -965.21459961 3537.25170898 C-971.18383501 3533.59237148 -977.20544989 3530.0312631 -983.24975586 3526.49780273 C-993.45051996 3520.51315547 -1003.43233708 3514.21027954 -1013.37036133 3507.80053711 C-1015.64122331 3506.33592189 -1017.91552236 3504.87685299 -1020.19116211 3503.41967773 C-1075.07410032 3468.19072038 -1128.62645771 3430.17985201 -1179.11376953 3388.87036133 C-1183.36494439 3385.39535879 -1187.66399604 3381.99141534 -1191.99975586 3378.62280273 C-1197.41432757 3374.40651899 -1202.65040423 3370.01395793 -1207.83837891 3365.52270508 C-1211.28541126 3362.53963118 -1214.76795775 3359.6157481 -1218.31225586 3356.74780273 C-1228.02413294 3348.85511207 -1237.41073328 3340.56374165 -1246.68334961 3332.16186523 C-1248.73014382 3330.31573712 -1250.79607143 3328.49536989 -1252.87475586 3326.68530273 C-1256.776826 3323.28672551 -1260.61668567 3319.8215628 -1264.45678711 3316.35327148 C-1266.47377276 3314.54482716 -1268.50967182 3312.76542934 -1270.56225586 3310.99780273 C-1275.83461675 3306.40574648 -1280.89977306 3301.58763036 -1285.99975586 3296.80639648 C-1288.42484664 3294.53467826 -1290.8597994 3292.27510304 -1293.31225586 3290.03295898 C-1299.68916885 3284.2024759 -1305.88434279 3278.25110326 -1311.92553711 3272.07202148 C-1314.04987397 3269.94223726 -1316.26292517 3267.96547229 -1318.54711914 3266.00854492 C-1322.89705974 3262.21705709 -1326.99298076 3258.21162987 -1331.06616211 3254.12670898 C-1332.18957253 3253.00473366 -1332.18957253 3253.00473366 -1333.3356781 3251.86009216 C-1334.90746811 3250.28897809 -1336.47801435 3248.71661881 -1338.04736328 3247.14306641 C-1340.4307689 3244.75430428 -1342.81946654 3242.37092828 -1345.20874023 3239.98803711 C-1346.74486823 3238.45124823 -1348.28068595 3236.91414914 -1349.81616211 3235.37670898 C-1350.87269737 3234.32321007 -1350.87269737 3234.32321007 -1351.95057678 3233.24842834 C-1355.88981908 3229.29077328 -1359.65567683 3225.23957022 -1363.28501892 3220.995224 C-1365.99654161 3217.9081456 -1368.93818482 3215.05632531 -1371.87475586 3212.18530273 C-1376.13624756 3208.01893362 -1380.17619946 3203.75468457 -1384.07104492 3199.24291992 C-1387.19954023 3195.67403004 -1390.4821409 3192.25136717 -1393.74975586 3188.81030273 C-1402.18913879 3179.87646989 -1410.38983229 3170.78950789 -1418.35742188 3161.43334961 C-1421.52570876 3157.72364341 -1424.75869087 3154.08863424 -1428.06225586 3150.49780273 C-1432.01139331 3146.19136237 -1435.72524716 3141.74664094 -1439.39428711 3137.20092773 C-1442.32444699 3133.63859163 -1445.34259629 3130.16078856 -1448.37475586 3126.68530273 C-1453.66385972 3120.61341453 -1458.81357552 3114.44913978 -1463.87475586 3108.18530273 C-1464.89241147 3106.93743894 -1465.91068331 3105.69007753 -1466.92944336 3104.44311523 C-1473.50962737 3096.38216946 -1480.01459469 3088.2686157 -1486.41186523 3080.06176758 C-1487.97567744 3078.05584958 -1489.54244524 3076.05225836 -1491.10913086 3074.04858398 C-1508.71707144 3051.49983259 -1525.98782863 3028.7172406 -1542.40258789 3005.2824707 C-1543.89693832 3003.15370284 -1545.39831351 3001.03007024 -1546.90209961 2998.90795898 C-1563.79924895 2975.06275402 -1580.15991584 2950.8272684 -1595.87475586 2926.18530273 C-1596.32415527 2925.48163574 -1596.77355469 2924.77796875 -1597.23657227 2924.05297852 C-1611.26625702 2902.05221376 -1624.86365278 2879.80371139 -1637.87475586 2857.18530273 C-1638.40584961 2856.26346191 -1638.93694336 2855.34162109 -1639.48413086 2854.3918457 C-1654.72286866 2827.91736775 -1669.35076677 2801.12041207 -1683.40844727 2774.00024414 C-1684.83723251 2771.25733808 -1686.28094254 2768.52289425 -1687.73022461 2765.79077148 C-1701.18986592 2740.35862846 -1713.43754563 2714.34433909 -1725.2162323 2688.09799194 C-1727.16308593 2683.76024063 -1729.1284507 2679.43140865 -1731.10522461 2675.10717773 C-1752.89174997 2627.28087296 -1771.69093972 2578.15231574 -1789.04064941 2528.56329346 C-1789.83287513 2526.30470235 -1790.63038103 2524.04807008 -1791.43041992 2521.79223633 C-1826.33510581 2423.32199382 -1851.03028199 2321.00702027 -1892.76760864 1985.76431274 C-1892.84196531 1983.97456417 -1892.92079179 1982.1849979 -1893.00314331 1980.39559937 C-1894.0701105 1957.04092582 -1894.06226364 1933.68491152 -1894.06005859 1910.31054688 C-1894.05997803 1905.80627363 -1894.06682364 1901.30210363 -1894.08056641 1896.79785156 C-1894.20670985 1854.71592546 -1893.04027624 1812.73009826 -1890.06225586 1770.74780273 C-1889.97827545 1769.53933685 -1889.89429504 1768.33087097 -1889.80776978 1767.08578491 C-1884.20165604 1686.83308325 -1873.38698814 1607.11446051 -1857.87475586 1528.18530273 C-1857.66590759 1527.12218872 -1857.45705933 1526.05907471 -1857.24188232 1524.96374512 C-1839.86244218 1436.87793204 -1815.68303337 1349.67317504 -1707.87475586 1079.18530273 C-1707.48012146 1078.36551941 -1707.08548706 1077.54573608 -1706.67889404 1076.70111084 C-1696.72233984 1056.0337254 -1686.71223022 1035.40825438 -1675.87475586 1015.18530273 C-1674.74844736 1013.06942073 -1673.62214561 1010.95353514 -1672.49584961 1008.83764648 C-1665.39028082 995.53040793 -1658.09751429 982.33976937 -1650.61694336 969.23999023 C-1648.7489551 965.96472831 -1646.88972587 962.68458248 -1645.03100586 959.40405273 C-1632.10648052 936.62164393 -1618.648122 914.18882506 -1604.67163086 892.03491211 C-1602.97427944 889.34313416 -1601.28357467 886.64728148 -1599.59350586 883.95092773 C-1592.46460123 872.6217092 -1585.11078047 861.4477107 -1577.68725586 850.31030273 C-1577.23148163 849.62614288 -1576.7757074 848.94198303 -1576.30612183 848.23709106 C-1557.92491119 820.66755458 -1539.06246402 793.3792114 -1518.89355469 767.08325195 C-1514.41329152 761.23466168 -1510.02712504 755.32606494 -1505.68725586 749.37280273 C-1500.80644225 742.69215889 -1495.7432723 736.20575496 -1490.48510742 729.81860352 C-1487.21948138 725.85177554 -1484.04531379 721.83948748 -1480.93725586 717.74780273 C-1472.56138351 706.77486607 -1463.64599537 696.22449896 -1454.70263672 685.7121582 C-1451.92602967 682.44453767 -1449.19924901 679.14180064 -1446.49975586 675.81030273 C-1441.85389482 670.10442349 -1437.03268468 664.5597912 -1432.19897461 659.01342773 C-1430.06060312 656.55786965 -1427.93742586 654.0908572 -1425.83178711 651.60717773 C-1420.16447792 644.92478636 -1414.36751728 638.40549125 -1408.37646484 632.01098633 C-1405.67830225 629.13093885 -1403.01040011 626.24118411 -1400.43725586 623.24780273 C-1396.53391121 618.72610645 -1392.43110718 614.39134334 -1388.34643555 610.03417969 C-1384.93362142 606.39351375 -1381.54001424 602.73725492 -1378.17114258 599.0559082 C-1373.10327776 593.52111277 -1367.9156466 588.15541169 -1362.54272461 582.91577148 C-1360.50922985 580.83463996 -1358.614875 578.74548478 -1356.7253418 576.5402832 C-1352.85686978 572.10391237 -1348.76406835 567.93018895 -1344.59741211 563.77514648 C-1343.82723251 563.00401016 -1343.05705292 562.23287384 -1342.26353455 561.43836975 C-1340.64534213 559.8195012 -1339.02590374 558.20187723 -1337.40527344 556.58544922 C-1334.94408354 554.12961556 -1332.48827777 551.66848909 -1330.03295898 549.20678711 C-1328.45059719 547.6250862 -1326.86792519 546.04369556 -1325.28491211 544.46264648 C-1324.56070572 543.73641586 -1323.83649933 543.01018524 -1323.09034729 542.26194763 C-1319.07924427 538.26897043 -1314.97995453 534.44485045 -1310.67698669 530.76734924 C-1307.59188298 528.05916256 -1304.74319109 525.11922735 -1301.87475586 522.18530273 C-1297.70838674 517.92381103 -1293.4441377 513.88385913 -1288.93237305 509.98901367 C-1285.36349185 506.86052598 -1281.9406574 503.57807715 -1278.49975586 500.31030273 C-1273.09784669 495.20326655 -1267.6774969 490.13227406 -1262.12475586 485.18920898 C-1260.55365765 483.78994964 -1258.99185121 482.38021821 -1257.43725586 480.96264648 C-1253.19564936 477.09880806 -1248.90008252 473.35483167 -1244.43725586 469.74780273 C-1240.63388083 466.67193685 -1236.97392934 463.49777107 -1233.37475586 460.18530273 C-1228.98097038 456.14575456 -1224.45636762 452.33850654 -1219.81225586 448.59155273 C-1216.51122145 445.88751391 -1213.28713401 443.10415709 -1210.06225586 440.31030273 C-1204.8187021 435.77945804 -1199.45759549 431.43978976 -1193.98486328 427.18969727 C-1190.21836553 424.25943693 -1186.52796704 421.25710099 -1182.87475586 418.18530273 C-1176.96012703 413.22263263 -1170.91679958 408.44628529 -1164.82446289 403.70532227 C-1162.76303212 402.0982013 -1160.7073546 400.48390625 -1158.65209961 398.86889648 C-1149.38107922 391.60003943 -1139.98598734 384.526678 -1130.48022461 377.56811523 C-1126.1463682 374.3936402 -1121.85096459 371.1703696 -1117.56225586 367.93530273 C-1110.41901408 362.56078021 -1103.18476987 357.3302489 -1095.87475586 352.18530273 C-1095.11646484 351.65146973 -1094.35817383 351.11763672 -1093.5769043 350.56762695 C-1087.68658916 346.42523185 -1081.78428213 342.30023689 -1075.87475586 338.18530273 C-1075.20782715 337.72043457 -1074.54089844 337.25556641 -1073.85375977 336.77661133 C-1054.80415009 323.52015696 -1035.44209971 310.66392081 -1015.87475586 298.18530273 C-1015.17108887 297.73590332 -1014.46742188 297.28650391 -1013.74243164 296.82348633 C-991.74166689 282.79380157 -969.49316451 269.19640581 -946.87475586 256.18530273 C-945.95291504 255.65420898 -945.03107422 255.12311523 -944.08129883 254.57592773 C-917.60396958 239.33554873 -890.80406439 224.70627643 -863.6809082 210.6472168 C-860.96419935 209.23189988 -858.25614622 207.80139367 -855.55053711 206.36499023 C-828.18667754 191.87370686 -800.16305672 178.72267358 -771.89984131 166.09234619 C-769.90425936 165.19851747 -767.91087242 164.2999811 -765.91821289 163.3996582 C-672.01909393 120.99203222 -574.03833264 86.93809685 -90.31225586 1.99780273 C-89.61855896 1.96087311 -88.92486206 1.92394348 -88.21014404 1.88589478 C-83.94290981 1.66314286 -79.67497896 1.46942581 -75.40560913 1.29244995 C-73.6401664 1.21770746 -71.87489409 1.13887581 -70.10977173 1.05691528 C-46.74730328 -0.01431096 -23.38224337 -0.00220579 0 0 Z M-620.69799805 420.80297852 C-623.59597709 422.06399583 -626.4983299 423.31444511 -629.40214539 424.56195068 C-647.73507732 432.44559507 -665.84739737 440.7507813 -683.86437988 449.33070374 C-687.35533649 450.99273816 -690.85060433 452.64475145 -694.35327148 454.28198242 C-701.47891474 457.61343071 -708.57785752 460.94326784 -715.49975586 464.68530273 C-721.42310959 467.84612409 -727.3662283 470.96398736 -733.33959961 474.02905273 C-733.99675461 474.36626343 -734.65390961 474.70347412 -735.33097839 475.05090332 C-735.99648209 475.39238403 -736.66198578 475.73386475 -737.34765625 476.08569336 C-749.13124522 482.13263023 -760.88392067 488.20761993 -772.39135742 494.76977539 C-775.35838189 496.46096767 -778.33171954 498.14086816 -781.30444336 499.82202148 C-805.18952412 513.35537267 -828.67130778 527.51264371 -851.87475586 542.18530273 C-852.90632813 542.83644043 -853.93790039 543.48757813 -855.00073242 544.15844727 C-869.83638627 553.5366508 -884.4439381 563.19630392 -898.87475586 573.18530273 C-899.8315625 573.845625 -900.78836914 574.50594727 -901.77416992 575.1862793 C-914.58754941 584.0323008 -927.30253603 592.99982847 -939.87475586 602.18530273 C-940.64239258 602.74427246 -941.4100293 603.30324219 -942.20092773 603.87915039 C-953.23033864 611.91557613 -964.0912334 620.14152693 -974.8215332 628.57299805 C-976.72812249 630.07015805 -978.63850883 631.56228658 -980.55053711 633.05249023 C-987.40148706 638.4006264 -994.17054172 643.84201646 -1000.90112305 649.34082031 C-1005.30553009 652.93262387 -1009.76070051 656.45017571 -1014.24975586 659.93530273 C-1019.17565537 663.76861809 -1023.85685776 667.78148063 -1028.45288086 672.00952148 C-1031.00732752 674.3044034 -1033.63947692 676.46721407 -1036.31225586 678.62280273 C-1041.14280445 682.53227214 -1045.74588681 686.64058104 -1050.32006836 690.84545898 C-1053.12360308 693.41322243 -1055.97820461 695.91427149 -1058.84741211 698.40795898 C-1061.99139875 701.16424785 -1065.08784968 703.97283362 -1068.18725586 706.77905273 C-1070.3493325 708.71486554 -1072.52819462 710.62554268 -1074.71850586 712.52905273 C-1078.6869785 715.99589259 -1082.54364652 719.5679123 -1086.37475586 723.18530273 C-1087.61426008 724.35205345 -1088.85384856 725.51871466 -1090.09350586 726.68530273 C-1090.81352783 727.36520264 -1091.5335498 728.04510254 -1092.27539062 728.74560547 C-1094.22390931 730.57443492 -1096.18022675 732.39282373 -1098.14404297 734.20507812 C-1109.48595029 744.70618798 -1120.43516308 755.59081449 -1131.35058594 766.53076172 C-1133.94221387 769.12814677 -1136.53839229 771.72093024 -1139.13586521 774.31246853 C-1141.17017033 776.34313917 -1143.20206245 778.37621091 -1145.2332592 780.40999031 C-1146.64704904 781.82475306 -1148.06281962 783.23753558 -1149.47865295 784.6502533 C-1153.97772406 789.16564815 -1158.34715753 793.73065483 -1162.48789978 798.57826233 C-1164.18943976 800.54994746 -1166.00170178 802.37683673 -1167.87475586 804.18530273 C-1170.9988657 807.26775778 -1173.90176674 810.46040045 -1176.76147461 813.78686523 C-1179.5721256 816.97677227 -1182.47355 820.07786164 -1185.37475586 823.18530273 C-1189.96566677 828.11141074 -1194.49726011 833.06742716 -1198.87475586 838.18530273 C-1199.75097907 839.20750577 -1200.62728931 840.2296342 -1201.50366211 841.25170898 C-1203.01933595 843.01991104 -1204.53456388 844.78848708 -1206.04858398 846.55810547 C-1209.82601517 850.97113965 -1213.62746819 855.36269635 -1217.43725586 859.74780273 C-1225.69222827 869.26599157 -1233.87379029 878.80241841 -1241.61181641 888.74853516 C-1245.11220121 893.2417968 -1248.70028283 897.65648849 -1252.31225586 902.06030273 C-1257.12410388 907.94349727 -1261.7531844 913.93541476 -1266.28027344 920.03979492 C-1270.10787437 925.1934691 -1274.03839605 930.25895453 -1277.99975586 935.31030273 C-1283.38137438 942.19078439 -1288.53631547 949.18842028 -1293.56030273 956.33227539 C-1295.52758277 959.10561408 -1297.53304902 961.85082439 -1299.53442383 964.59960938 C-1332.71727125 1010.23705285 -1363.00580625 1058.14234932 -1390.87475586 1107.18530273 C-1391.44758301 1108.19061035 -1392.02041016 1109.19591797 -1392.6105957 1110.23168945 C-1417.59112883 1154.14873387 -1440.99998331 1199.27714672 -1461.28491211 1245.5612793 C-1462.85369323 1249.13729082 -1464.44138434 1252.70445298 -1466.03100586 1256.27124023 C-1503.56368745 1341.09312492 -1532.822861 1429.58423017 -1538.87475586 2346.18530273 C-1538.50087738 2347.48229095 -1538.50087738 2347.48229095 -1538.1194458 2348.80548096 C-1525.78427863 2391.45752271 -1512.00553066 2433.8098117 -1495.87475586 2475.18530273 C-1495.54495728 2476.03141113 -1495.21515869 2476.87751953 -1494.87536621 2477.74926758 C-1484.44034749 2504.47164671 -1473.56151773 2530.98527611 -1461.87475586 2557.18530273 C-1461.3815686 2558.29382599 -1461.3815686 2558.29382599 -1460.87841797 2559.42474365 C-1451.26272934 2581.01651719 -1440.97456122 2602.26517937 -1430.41743469 2623.4095726 C-1429.51684739 2625.21356617 -1428.61736074 2627.01810907 -1427.71789551 2628.82266235 C-1420.47133321 2643.33946605 -1413.00641517 2657.7041668 -1405.14227295 2671.89627075 C-1404.01888674 2673.92501417 -1402.90187895 2675.95701189 -1401.78930664 2677.99169922 C-1392.51415832 2694.94261609 -1382.83721409 2711.62993007 -1372.87475586 2728.18530273 C-1372.26744629 2729.19608887 -1371.66013672 2730.206875 -1371.03442383 2731.24829102 C-1346.47559497 2772.05899025 -1319.97275847 2811.72737935 -1291.87475586 2850.18530273 C-1291.03630127 2851.33675781 -1291.03630127 2851.33675781 -1290.1809082 2852.51147461 C-1282.14448247 2863.54088551 -1273.91853167 2874.40178028 -1265.48706055 2885.13208008 C-1263.98990054 2887.03866936 -1262.49777202 2888.94905571 -1261.00756836 2890.86108398 C-1255.65943219 2897.71203394 -1250.21804214 2904.48108859 -1244.71923828 2911.21166992 C-1241.12743472 2915.61607697 -1237.60988289 2920.07124738 -1234.12475586 2924.56030273 C-1230.2914405 2929.48620224 -1226.27857797 2934.16740463 -1222.05053711 2938.76342773 C-1219.75565519 2941.31787439 -1217.59284452 2943.9500238 -1215.43725586 2946.62280273 C-1211.52778645 2951.45335132 -1207.41947755 2956.05643368 -1203.21459961 2960.63061523 C-1201.21640737 2962.81228088 -1199.25326697 2965.01541582 -1197.31225586 2967.24780273 C-1193.9792958 2971.08031653 -1190.58639929 2974.85638244 -1187.18334961 2978.62670898 C-1185.69356305 2980.27782606 -1184.20638709 2981.93130418 -1182.72241211 2983.58764648 C-1177.08461158 2989.87792303 -1171.3795568 2996.10373288 -1165.63150024 3002.29312134 C-1164.49791821 3003.5140974 -1163.36518489 3004.73586223 -1162.23348999 3005.95858765 C-1150.92068344 3018.16461442 -1139.23308928 3029.98386004 -1127.45385742 3041.73657227 C-1124.86434419 3044.3203205 -1122.27944353 3046.90863017 -1119.69577789 3049.49822426 C-1117.66939812 3051.52823782 -1115.64061817 3053.55583928 -1113.61112976 3055.5827446 C-1112.20079677 3056.99210521 -1110.79244304 3058.40344558 -1109.38415527 3059.81484985 C-1104.8777068 3064.30494638 -1100.32081618 3068.6645007 -1095.48303223 3072.79721069 C-1093.51101019 3074.49924907 -1091.6836275 3076.31182853 -1089.87475586 3078.18530273 C-1086.79230081 3081.30941258 -1083.59965814 3084.21231362 -1080.27319336 3087.07202148 C-1077.08328633 3089.88267247 -1073.98219695 3092.78409687 -1070.87475586 3095.68530273 C-1065.94864786 3100.27621365 -1060.99263144 3104.80780699 -1055.87475586 3109.18530273 C-1054.85255283 3110.06152595 -1053.8304244 3110.93783619 -1052.80834961 3111.81420898 C-1051.04175037 3113.32858089 -1049.27470457 3114.84241704 -1047.50634766 3116.35473633 C-1043.68939422 3119.62091962 -1039.89044129 3122.90679936 -1036.10205078 3126.20605469 C-1030.42830709 3131.14480876 -1024.71734151 3136.01717988 -1018.87084961 3140.75170898 C-1016.54074474 3142.64434958 -1014.22200703 3144.54819037 -1011.90991211 3146.46264648 C-1003.61310365 3153.33147834 -995.26213257 3160.11164165 -986.75708008 3166.72094727 C-984.6903139 3168.32878949 -982.62813932 3169.94241785 -980.56616211 3171.55639648 C-965.66205929 3183.20740925 -950.5292313 3194.49824363 -935.16577148 3205.53540039 C-932.87169541 3207.18750676 -930.58332968 3208.84722228 -928.29663086 3210.50952148 C-885.18933997 3241.82915653 -840.08408749 3270.68505069 -793.87475586 3297.18530273 C-792.92004395 3297.73283203 -791.96533203 3298.28036133 -790.98168945 3298.84448242 C-767.59773879 3312.22148356 -743.87665821 3324.95341372 -719.87475586 3337.18530273 C-719.13898315 3337.56037964 -718.40321045 3337.93545654 -717.6451416 3338.32189941 C-694.94558164 3349.88206903 -672.1154351 3361.01345105 -648.81982422 3371.32183838 C-646.90155915 3372.17340409 -644.98628111 3373.03131773 -643.07202148 3373.8918457 C-564.39512652 3409.25605074 -482.2680716 3437.30533186 -398.87475586 3459.18530273 C-397.99575623 3459.41713257 -397.11675659 3459.6489624 -396.21112061 3459.88781738 C-293.83335586 3486.88161655 -188.54488138 3502.75844941 452.12524414 3449.18530273 C453.42223236 3448.81142426 453.42223236 3448.81142426 454.74542236 3448.42999268 C543.35160155 3422.80467704 629.94213064 3389.79181511 729.48059464 3340.66244125 C731.27879755 3339.76474942 733.07754974 3338.86815813 734.87631226 3337.97158813 C749.3545425 3330.74432389 763.67952373 3323.2964952 777.834198 3315.4538269 C779.86379634 3314.33006318 781.8966262 3313.21263075 783.93212891 3312.09960938 C800.88283773 3302.82445651 817.57002456 3293.14766885 834.12524414 3283.18530273 C835.13603027 3282.57799316 836.14681641 3281.97068359 837.18823242 3281.3449707 C877.99893165 3256.78614184 917.66732076 3230.28330535 956.12524414 3202.18530273 C956.89288086 3201.62633301 957.66051758 3201.06736328 958.45141602 3200.49145508 C969.48082692 3192.45502934 980.34172168 3184.22907854 991.07202148 3175.79760742 C992.97861077 3174.30044742 994.88899711 3172.80831889 996.80102539 3171.31811523 C1005.05933244 3164.87173302 1013.20339816 3158.28959241 1021.31665039 3151.66186523 C1022.91759894 3150.35482733 1024.5212239 3149.05106918 1026.12524414 3147.74780273 C1031.56661402 3143.31878074 1036.94173809 3138.81853057 1042.28564453 3134.27294922 C1045.73703102 3131.34221732 1049.22760604 3128.46801043 1052.75024414 3125.62280273 C1057.51044467 3121.74951002 1062.05329198 3117.67770281 1066.57055664 3113.52514648 C1068.75222229 3111.52695425 1070.95535723 3109.56381385 1073.18774414 3107.62280273 C1077.02025793 3104.28984267 1080.79632384 3100.89694617 1084.56665039 3097.49389648 C1086.21776747 3096.00410993 1087.87124558 3094.51693396 1089.52758789 3093.03295898 C1095.81786443 3087.39515845 1102.04367428 3081.69010367 1108.23306274 3075.94204712 C1109.4540388 3074.80846508 1110.67580364 3073.67573176 1111.89852905 3072.54403687 C1124.10455582 3061.23123031 1135.92380145 3049.54363616 1147.67651367 3037.7644043 C1150.26026191 3035.17489106 1152.84857158 3032.5899904 1155.43816566 3030.00632477 C1157.46817923 3027.97994499 1159.49578069 3025.95116504 1161.522686 3023.92167664 C1162.93204661 3022.51134364 1164.34338699 3021.10298992 1165.75479126 3019.69470215 C1170.24488779 3015.18825368 1174.60444211 3010.63136306 1178.7371521 3005.7935791 C1180.43919047 3003.82155707 1182.25176994 3001.99417438 1184.12524414 3000.18530273 C1187.24935399 2997.10284769 1190.15225503 2993.91020502 1193.01196289 2990.58374023 C1195.82261388 2987.3938332 1198.72403828 2984.29274382 1201.62524414 2981.18530273 C1206.21615505 2976.25919473 1210.74774839 2971.30317831 1215.12524414 2966.18530273 C1216.00146735 2965.1630997 1216.8777776 2964.14097127 1217.75415039 2963.11889648 C1219.26852229 2961.35229725 1220.78235844 2959.58525144 1222.29467773 2957.81689453 C1225.56086103 2953.99994109 1228.84674077 2950.20098817 1232.14599609 2946.41259766 C1237.08475017 2940.73885396 1241.95712129 2935.02788838 1246.69165039 2929.18139648 C1248.58429099 2926.85129161 1250.48813178 2924.53255391 1252.40258789 2922.22045898 C1259.27141975 2913.92365053 1266.05158306 2905.57267944 1272.66088867 2897.06762695 C1274.26873089 2895.00086077 1275.88235926 2892.9386862 1277.49633789 2890.87670898 C1289.14735066 2875.97260616 1300.43818503 2860.83977818 1311.4753418 2845.47631836 C1313.12744816 2843.18224228 1314.78716369 2840.89387655 1316.44946289 2838.60717773 C1364.18388105 2772.90713218 1406.26370865 2702.8866946 1442.96325684 2630.47674561 C1444.16742329 2628.10212532 1445.37424812 2625.72886822 1446.58129883 2623.35571289 C1457.68976669 2601.49471358 1468.38810633 2579.50763916 1478.29040527 2557.07312012 C1479.10104424 2555.24002585 1479.91725902 2553.40940051 1480.73364258 2551.57885742 C1518.72139552 2466.32480156 1548.27183652 2377.33414615 1555.12524414 1458.18530273 C1554.75136566 1456.88831451 1554.75136566 1456.88831451 1554.36993408 1455.56512451 C1528.74461844 1366.95894532 1495.73175652 1280.36841624 1446.60238266 1180.82995224 C1445.70469083 1179.03174933 1444.80809954 1177.23299714 1443.91152954 1175.43423462 C1436.6842653 1160.95600437 1429.2364366 1146.63102315 1421.39376831 1132.47634888 C1420.27000458 1130.44675053 1419.15257215 1128.41392068 1418.03955078 1126.37841797 C1408.76439792 1109.42770914 1399.08761026 1092.74052232 1389.12524414 1076.18530273 C1388.51793457 1075.1745166 1387.910625 1074.16373047 1387.28491211 1073.12231445 C1362.72608325 1032.31161522 1336.22324675 992.64322612 1308.12524414 954.18530273 C1307.56627441 953.41766602 1307.00730469 952.6500293 1306.43139648 951.85913086 C1298.39497075 940.82971995 1290.16901995 929.96882519 1281.73754883 919.23852539 C1280.24038882 917.3319361 1278.7482603 915.42154976 1277.25805664 913.50952148 C1271.90992047 906.65857153 1266.46853042 899.88951688 1260.96972656 893.15893555 C1257.377923 888.7545285 1253.86037117 884.29935809 1250.37524414 879.81030273 C1246.54192878 874.88440323 1242.52906625 870.20320083 1238.30102539 865.60717773 C1236.00614347 863.05273107 1233.8433328 860.42058167 1231.68774414 857.74780273 C1227.77827473 852.91725415 1223.66996583 848.31417178 1219.46508789 843.73999023 C1217.46689566 841.55832459 1215.50375525 839.35518965 1213.56274414 837.12280273 C1210.22978408 833.29028894 1206.83688758 829.51422303 1203.43383789 825.74389648 C1201.94405134 824.09277941 1200.45687537 822.43930129 1198.97290039 820.78295898 C1193.33509986 814.49268244 1187.63004508 808.26687259 1181.88198853 802.07748413 C1180.74840649 800.85650807 1179.61567317 799.63474323 1178.48397827 798.41201782 C1167.17117172 786.20599105 1155.48357756 774.38674543 1143.7043457 762.6340332 C1141.11483247 760.05028496 1138.52993181 757.4619753 1135.94626617 754.87238121 C1133.9198864 752.84236765 1131.89110645 750.81476619 1129.86161804 748.78786087 C1128.45128505 747.37850026 1127.04293132 745.96715989 1125.63464355 744.55575562 C1121.12819508 740.06565908 1116.57130446 735.70610477 1111.73352051 731.57339478 C1109.76149847 729.8713564 1107.93411578 728.05877694 1106.12524414 726.18530273 C1103.04278909 723.06119289 1099.85014642 720.15829185 1096.52368164 717.29858398 C1093.33377461 714.487933 1090.23268523 711.5865086 1087.12524414 708.68530273 C1082.19913614 704.09439182 1077.24311972 699.56279848 1072.12524414 695.18530273 C1071.10304111 694.30907952 1070.08091268 693.43276928 1069.05883789 692.55639648 C1067.28791336 691.0382806 1065.51649564 689.52075781 1063.74365234 688.00488281 C1060.64561163 685.35425976 1057.55611497 682.69478739 1054.48461914 680.01342773 C1045.86122046 672.48667286 1037.1034633 665.14491256 1028.23510742 657.90844727 C1026.18332926 656.23274138 1024.13632657 654.5513594 1022.09008789 652.86889648 C1013.92596515 646.17429577 1005.62335461 639.69100484 997.21508789 633.30639648 C993.46364321 630.45396406 989.75764614 627.54788949 986.06274414 624.62280273 C968.0254235 610.38471196 949.30412894 597.03423482 930.49194336 583.84545898 C928.83100528 582.68036935 927.17127884 581.51355142 925.51245117 580.34545898 C911.24964784 570.30670769 896.80369653 560.60538717 882.12524414 551.18530273 C880.73474854 550.29198242 880.73474854 550.29198242 879.31616211 549.38061523 C872.9366465 545.28771641 866.53802481 541.22586154 860.12524414 537.18530273 C859.28880371 536.65759277 858.45236328 536.12988281 857.59057617 535.58618164 C814.56727432 508.50804866 769.89669121 483.80387742 724.33618164 461.27905273 C721.05823049 459.65697382 717.79759282 458.00276771 714.53930664 456.34155273 C697.61100061 447.74218109 680.44010358 439.78307277 663.09686279 432.06365967 C661.2427707 431.23766087 659.39025162 430.40813377 657.5378418 429.57836914 C606.62289151 406.83253437 554.21747226 387.20976625 501.12524414 370.18530273 C500.32959045 369.92982666 499.53393677 369.67435059 498.71417236 369.41113281 C409.70144073 340.87804913 318.1526941 319.96196029 52.12524414 293.62280273 C51.31796875 293.60195618 50.51069336 293.58110962 49.67895508 293.55963135 C-51.8517565 291.01989409 -153.59440235 297.89582455 -620.69799805 420.80297852 Z " fill="#000000" transform="translate(2039.874755859375,145.814697265625)"/>
<path d="M0 0 C1.25522713 -0.0098568 1.25522713 -0.0098568 2.53581238 -0.01991272 C5.29649976 -0.03956343 8.05713261 -0.0512976 10.81787109 -0.0612793 C11.7693037 -0.06535482 12.72073631 -0.06943035 13.70100021 -0.07362938 C18.74906951 -0.09446747 23.7971119 -0.10877206 28.84521484 -0.11816406 C34.00436713 -0.12914977 39.16307872 -0.16346435 44.3220768 -0.20333576 C48.33412347 -0.22977742 52.34607017 -0.23788058 56.35819626 -0.24144554 C58.25638132 -0.24625051 60.15456384 -0.25768486 62.0526619 -0.27648354 C80.86797768 -0.45106307 98.32084018 2.10964727 115.46630859 10.17700195 C116.083125 10.46559082 116.69994141 10.75417969 117.33544922 11.05151367 C144.35825426 23.91587168 165.70108219 47.22905506 176.25537109 75.27368164 C181.72953381 90.86784253 183.62523485 105.93249296 183.58935642 122.40162086 C183.59051027 123.7098303 183.59166411 125.01803973 183.59285292 126.36589187 C183.59590791 129.98826303 183.59275854 133.61060592 183.58857479 137.23297496 C183.58512935 141.17706031 183.58751352 145.1211429 183.58915228 149.06522882 C183.59122317 155.97461346 183.58958709 162.88398947 183.58551407 169.79337311 C183.5794745 180.06734491 183.57917869 190.34131129 183.58005606 200.61528454 C183.58136949 217.89844843 183.57803032 235.18160849 183.57203865 252.46477127 C183.56612144 269.57703292 183.56227266 286.68929297 183.56118584 303.80155563 C183.5611171 304.86558256 183.56104836 305.92960949 183.56097753 307.02587967 C183.5606392 312.42954457 183.56033782 317.83320948 183.56005066 323.23687439 C183.5579503 361.5100495 183.55121309 399.78322254 183.54174805 438.05639648 C183.53256355 475.238037 183.52547997 512.41967694 183.52124023 549.60131836 C183.52110871 550.74743804 183.52097718 551.89355772 183.52084167 553.07440829 C183.51952315 564.58422323 183.51824734 576.09403818 183.51700281 587.60385313 C183.5144666 611.0506299 183.51164535 634.49740663 183.50865173 657.94418335 C183.50851444 659.02222594 183.50837715 660.10026854 183.5082357 661.21097909 C183.49903519 733.19965424 183.48319 805.18832824 183.46630859 877.17700195 C184.12990872 877.17653401 184.79350885 877.17606607 185.47721808 877.17558395 C257.74337228 877.12473172 330.00952855 877.07761728 402.2756958 877.04997253 C403.35561309 877.04955836 404.43553038 877.04914419 405.54817244 877.04871747 C429.01910993 877.03973822 452.49004762 877.03142775 475.96098559 877.02380596 C487.47154903 877.02006404 498.98211242 877.01617436 510.49267578 877.01220703 C512.21081179 877.01161862 512.21081179 877.01161862 513.96365762 877.01101831 C551.07325901 876.99824004 588.18284668 876.97571041 625.29243976 876.94811029 C663.43540355 876.91979321 701.57835976 876.90134114 739.72133389 876.89525698 C745.11188344 876.89439255 750.50243297 876.89341564 755.89298248 876.89237022 C757.48434915 876.89206682 757.48434915 876.89206682 759.10786463 876.89175729 C776.16822341 876.88821562 793.22855867 876.87431085 810.28890787 876.85650585 C827.45083697 876.8388169 844.61274281 876.83210483 861.7746807 876.83649782 C871.96405831 876.83877515 882.15335063 876.83273579 892.34271279 876.81460932 C899.16018806 876.8033128 905.97760785 876.80304375 912.79508704 876.81150651 C916.6725639 876.81601101 920.54988015 876.81594453 924.4273394 876.80235241 C964.60776952 876.67006048 997.74959034 883.31887267 1027.46630859 912.17700195 C1047.27480318 931.92426471 1060.54720299 959.57677653 1060.64331055 987.81835938 C1060.64988174 988.66653732 1060.65645294 989.51471527 1060.66322327 990.38859558 C1060.68287381 993.18655507 1060.69460719 995.9844608 1060.70458984 998.7824707 C1060.70866537 999.74618402 1060.7127409 1000.70989735 1060.71693993 1001.7028141 C1060.73777645 1006.81456916 1060.75208255 1011.92629766 1060.76147461 1017.03808594 C1060.77246891 1022.26683592 1060.80679425 1027.49515209 1060.84664631 1032.72375011 C1060.87306148 1036.78636857 1060.88118878 1040.84888812 1060.88475609 1044.91158485 C1060.88956661 1046.8357158 1060.90101785 1048.75984404 1060.91979408 1050.68388939 C1061.22835133 1084.42913221 1049.49926303 1113.47448282 1026.21630859 1137.86450195 C996.78924814 1166.24804963 961.59539965 1171.68194115 922.18767365 1171.54380053 C918.24165829 1171.53336803 914.2956656 1171.54063468 910.3496449 1171.545533 C903.45236175 1171.55171627 896.5551567 1171.54688835 889.65788269 1171.53461838 C879.40209376 1171.51642478 869.1463535 1171.51561914 858.89055137 1171.51824434 C841.63409893 1171.52217556 824.37768109 1171.51220177 807.12123871 1171.49419212 C790.04515155 1171.47641654 772.96907882 1171.46488934 755.89298248 1171.46163368 C754.29797318 1171.46132435 754.29797318 1171.46132435 752.67074147 1171.46100878 C747.27016616 1171.45999372 741.86959084 1171.45908959 736.46901551 1171.45822815 C698.25684039 1171.45193367 660.04468407 1171.43174047 621.83251953 1171.40332031 C584.7192393 1171.37574939 547.60596421 1171.35450719 510.49267578 1171.34179688 C509.34787136 1171.3414023 508.20306695 1171.34100772 507.02357149 1171.34060118 C495.52655278 1171.33664549 484.02953403 1171.33281806 472.53251525 1171.3290846 C449.11357516 1171.32147679 425.6946354 1171.31301303 402.2756958 1171.30403137 C401.19902611 1171.3036195 400.12235641 1171.30320763 399.01306036 1171.30278328 C327.16413529 1171.27520007 255.31522064 1171.22766667 183.46630859 1171.17700195 C183.46662055 1171.84138199 183.46693252 1172.50576202 183.46725393 1173.19027478 C183.5011484 1245.52621591 183.532559 1317.86215795 183.55099487 1390.19810486 C183.55127099 1391.27871243 183.5515471 1392.35932001 183.55183158 1393.47267327 C183.55781746 1416.95745061 183.56335782 1440.44222804 183.56843925 1463.92700559 C183.57093392 1475.44401286 183.57352702 1486.96102011 183.57617188 1498.47802734 C183.57656415 1500.19714405 183.57656415 1500.19714405 183.57696435 1501.95099038 C183.58548633 1539.09553659 183.60050843 1576.2400767 183.61890304 1613.38461922 C183.63777228 1651.55694647 183.65008043 1689.72927036 183.65413857 1727.9016022 C183.65471488 1733.2937555 183.65536615 1738.68590878 183.65606308 1744.07806206 C183.65619793 1745.13931028 183.65633277 1746.20055851 183.6564717 1747.29396577 C183.65883471 1764.37390253 183.66810967 1781.45382888 183.67997266 1798.5337614 C183.6917527 1815.70680339 183.69624315 1832.87983506 183.69331135 1850.05288095 C183.69179076 1860.25440013 183.69584073 1870.45588151 183.70790368 1880.65739387 C183.71541584 1887.47658339 183.71562718 1894.29574822 183.70997222 1901.11493946 C183.70695948 1904.9974689 183.70705441 1908.87992696 183.71607496 1912.76244868 C183.72573923 1916.95406615 183.71976583 1921.14552177 183.71240425 1925.3371439 C183.71765828 1926.52987599 183.72291231 1927.72260809 183.72832555 1928.95148358 C183.61800654 1956.79944136 175.12880707 1985.07565425 156.46630859 2006.17700195 C155.74443359 2007.01875977 155.02255859 2007.86051758 154.27880859 2008.7277832 C137.78198177 2027.60175694 116.76523351 2040.1377207 92.46630859 2046.17700195 C91.77363388 2046.35149872 91.08095917 2046.52599548 90.36729431 2046.70578003 C80.81946585 2048.76056542 71.20082708 2048.48595222 61.48583984 2048.4777832 C59.54448863 2048.48167942 57.60313825 2048.48601596 55.66178894 2048.49076843 C51.60465729 2048.49819921 47.54761271 2048.49796304 43.49047852 2048.49267578 C38.3344968 2048.48689667 33.17887614 2048.50378996 28.02295399 2048.52702045 C24.01535517 2048.5418771 20.00784083 2048.54261323 16.00021935 2048.53951073 C14.1015419 2048.54001834 12.20285901 2048.54514865 10.30420876 2048.55532265 C-20.44572441 2048.6998585 -48.29496196 2039.72625819 -71.53369141 2019.17700195 C-72.32018066 2018.4833252 -72.32018066 2018.4833252 -73.12255859 2017.77563477 C-95.39779202 1997.73210913 -108.42080272 1968.88801847 -110.53369141 1939.17700195 C-110.66791238 1934.76823817 -110.66634772 1930.36292667 -110.65673923 1925.95238304 C-110.65789308 1924.64417361 -110.65904692 1923.33596418 -110.66023573 1921.98811203 C-110.66329073 1918.36574087 -110.66014135 1914.74339799 -110.6559576 1911.12102894 C-110.65251216 1907.17694359 -110.65489633 1903.232861 -110.65653509 1899.28877509 C-110.65860598 1892.37939045 -110.6569699 1885.47001443 -110.65289688 1878.5606308 C-110.64685731 1868.286659 -110.6465615 1858.01269262 -110.64743887 1847.73871936 C-110.6487523 1830.45555548 -110.64541313 1813.17239541 -110.63942146 1795.88923264 C-110.63350425 1778.77697099 -110.62965548 1761.66471094 -110.62856865 1744.55244827 C-110.62849991 1743.48842134 -110.62843117 1742.42439441 -110.62836035 1741.32812424 C-110.62802201 1735.92445934 -110.62772063 1730.52079443 -110.62743347 1725.11712952 C-110.62533311 1686.8439544 -110.6185959 1648.57078137 -110.60913086 1610.29760742 C-110.59994637 1573.11596691 -110.59286278 1535.93432697 -110.58862305 1498.75268555 C-110.58842576 1497.03350603 -110.58842576 1497.03350603 -110.58822448 1495.27959561 C-110.58690596 1483.76978067 -110.58563015 1472.25996573 -110.58438562 1460.75015078 C-110.58184942 1437.30337401 -110.57902816 1413.85659727 -110.57603455 1390.40982056 C-110.57589726 1389.33177796 -110.57575997 1388.25373537 -110.57561852 1387.14302482 C-110.566418 1315.15434967 -110.55057282 1243.16567567 -110.53369141 1171.17700195 C-111.19729154 1171.17746989 -111.86089166 1171.17793784 -112.54460089 1171.17841996 C-184.8107551 1171.22927219 -257.07691136 1171.27638663 -329.34307861 1171.30403137 C-330.4229959 1171.30444554 -331.5029132 1171.30485971 -332.61555525 1171.30528644 C-356.08649274 1171.31426569 -379.55743043 1171.32257616 -403.0283684 1171.33019794 C-414.53893184 1171.33393987 -426.04949523 1171.33782954 -437.56005859 1171.34179688 C-439.2781946 1171.34238529 -439.2781946 1171.34238529 -441.03104043 1171.34298559 C-478.14064182 1171.35576386 -515.25022949 1171.37829349 -552.35982257 1171.40589362 C-590.50278637 1171.4342107 -628.64574257 1171.45266277 -666.7887167 1171.45874692 C-672.17926625 1171.45961136 -677.56981578 1171.46058827 -682.9603653 1171.46163368 C-684.55173196 1171.46193709 -684.55173196 1171.46193709 -686.17524744 1171.46224662 C-703.23560622 1171.46578828 -720.29594149 1171.47969306 -737.35629069 1171.49749805 C-754.51821978 1171.51518701 -771.68012563 1171.52189907 -788.84206352 1171.51750609 C-799.03144112 1171.51522876 -809.22073344 1171.52126812 -819.41009561 1171.53939458 C-826.22757088 1171.55069111 -833.04499066 1171.55096015 -839.86246985 1171.54249739 C-843.73994672 1171.5379929 -847.61726296 1171.53805938 -851.49472222 1171.5516515 C-891.67515233 1171.68394343 -924.81697315 1165.03513124 -954.53369141 1136.17700195 C-974.34218599 1116.42973919 -987.6145858 1088.77722738 -987.71069336 1060.53564453 C-987.71726456 1059.68746658 -987.72383575 1058.83928864 -987.73060608 1057.96540833 C-987.75025662 1055.16744883 -987.76199 1052.3695431 -987.77197266 1049.5715332 C-987.77808595 1048.12596322 -987.77808595 1048.12596322 -987.78432274 1046.6511898 C-987.80515926 1041.53943475 -987.81946537 1036.42770625 -987.82885742 1031.31591797 C-987.83985173 1026.08716799 -987.87417706 1020.85885181 -987.91402912 1015.63025379 C-987.94044429 1011.56763534 -987.94857159 1007.50511578 -987.9521389 1003.44241905 C-987.95694942 1001.51828811 -987.96840066 999.59415986 -987.9871769 997.67011452 C-988.29724528 963.75960673 -976.41774445 934.2151852 -952.72119141 909.92700195 C-924.08408026 881.66645022 -887.79048375 876.67512053 -849.25505647 876.81020337 C-845.30904111 876.82063587 -841.36304841 876.81336923 -837.41702771 876.8084709 C-830.51974456 876.80228763 -823.62253952 876.80711556 -816.7252655 876.81938553 C-806.46947657 876.83757913 -796.21373631 876.83838477 -785.95793418 876.83575956 C-768.70148174 876.83182834 -751.4450639 876.84180213 -734.18862152 876.85981178 C-717.11253437 876.87758737 -700.03646164 876.88911456 -682.9603653 876.89237022 C-681.36535599 876.89267955 -681.36535599 876.89267955 -679.73812428 876.89299513 C-674.33754898 876.89401019 -668.93697366 876.89491432 -663.53639832 876.89577576 C-625.3242232 876.90207024 -587.11206688 876.92226344 -548.89990234 876.95068359 C-511.78662211 876.97825452 -474.67334702 876.99949672 -437.56005859 877.01220703 C-436.41525418 877.01260161 -435.27044976 877.01299619 -434.0909543 877.01340272 C-422.59393559 877.01735842 -411.09691684 877.02118584 -399.59989806 877.0249193 C-376.18095797 877.03252712 -352.76201822 877.04099087 -329.34307861 877.04997253 C-328.26640892 877.0503844 -327.18973923 877.05079627 -326.08044318 877.05122062 C-254.2315181 877.07880384 -182.38260345 877.12633723 -110.53369141 877.17700195 C-110.53400337 876.5127779 -110.53431533 875.84855385 -110.53463674 875.1642018 C-110.56853262 802.84221749 -110.59994302 730.52023228 -110.61837769 658.19824219 C-110.6186538 657.11777267 -110.61892991 656.03730315 -110.6192144 654.92409213 C-110.62520033 631.44208273 -110.63074068 607.96007325 -110.63582207 584.47806364 C-110.63831672 572.96234514 -110.64090983 561.44662667 -110.64355469 549.9309082 C-110.64381621 548.78496116 -110.64407772 547.63901412 -110.64434717 546.4583414 C-110.65286852 509.32078498 -110.66789014 472.18323464 -110.68628585 435.04568191 C-110.70515685 396.87922724 -110.71746365 358.71277595 -110.72152139 320.54631669 C-110.72209769 315.15448415 -110.72274896 309.76265162 -110.72344589 304.37081909 C-110.72358074 303.30963829 -110.72371558 302.24845749 -110.72385452 301.15511969 C-110.72621714 284.07909975 -110.73549108 267.00309023 -110.74735547 249.92707454 C-110.75913803 232.75625566 -110.76362534 215.58544711 -110.76069416 198.41462433 C-110.75917404 188.2155372 -110.76321928 178.01648788 -110.77528649 167.81740758 C-110.78280242 160.99856282 -110.78300736 154.17974274 -110.77735503 147.36089626 C-110.77434425 143.47938394 -110.7744291 139.59794299 -110.78345777 135.71643841 C-110.8640527 98.90299662 -110.8640527 98.90299662 -105.90869141 83.17700195 C-105.65071777 82.34233398 -105.39274414 81.50766602 -105.12695312 80.64770508 C-99.19050354 62.25346719 -88.84530281 47.01460408 -75.53369141 33.17700195 C-74.69451172 32.22567383 -74.69451172 32.22567383 -73.83837891 31.25512695 C-56.16874093 11.8277763 -25.88315849 0.08931629 0 0 Z " fill="#000000" transform="translate(2011.53369140625,1023.822998046875)"/>
</svg>
