<?xml version="1.0" encoding="UTF-8"?>
<svg version="1.1" xmlns="http://www.w3.org/2000/svg" width="4096" height="4096">
<path d="M0 0 C2.56529761 -0.00698014 5.13059505 -0.01402109 7.69589233 -0.02111816 C15.15051606 -0.03874299 22.60511047 -0.04510523 30.05975342 -0.04643822 C32.15726747 -0.04687685 34.25478103 -0.04774246 36.35229492 -0.04866028 C77.02488826 -0.06319691 117.60779611 0.13939484 158.20263672 2.9720459 C161.59166111 3.20787236 164.98125641 3.43341254 168.37109375 3.65722656 C268.90675864 10.36754048 369.16566097 24.44340986 850.5234375 174.203125 C851.62349121 174.70505371 852.72354492 175.20698242 853.85693359 175.72412109 C867.761956 182.07087096 881.58481944 188.57735568 895.34765625 195.2265625 C899.36282166 197.16639599 903.38560591 199.08837021 907.41796875 200.9921875 C932.22557636 212.73350384 956.66063971 225.3038533 980.66015625 238.61914062 C983.92136481 240.42326077 987.19087922 242.21199813 990.4609375 244 C1005.9639426 252.48621552 1021.30955284 261.20679703 1036.5234375 270.203125 C1037.80455009 270.95807827 1039.08580685 271.71278695 1040.3671875 272.46728516 C1069.01862322 289.34127389 1069.01862322 289.34127389 1082.93066406 298.26708984 C1085.86912723 300.15031735 1088.81574877 302.01904136 1091.77441406 303.87036133 C1103.98433716 311.51445101 1115.99310338 319.43659968 1127.9609375 327.453125 C1129.79607564 328.6799094 1131.6313617 329.90647255 1133.46679688 331.1328125 C1136.9586645 333.46622785 1140.44949459 335.8011816 1143.93945312 338.13745117 C1146.66979415 339.96467671 1149.40186783 341.78915862 1152.13867188 343.60668945 C1158.19459092 347.62871016 1164.19936651 351.71214726 1170.1484375 355.890625 C1171.00107178 356.48875 1171.85370605 357.086875 1172.73217773 357.703125 C1208.27226741 382.69199368 1243.15771303 408.74321625 1276.83203125 436.19921875 C1279.81986808 438.63428679 1282.82190783 441.05049913 1285.8359375 443.453125 C1294.97857719 450.75199902 1303.96101296 458.229891 1312.875 465.8046875 C1314.48427754 467.16990399 1316.09691176 468.53102697 1317.7109375 469.890625 C1329.01068271 479.41286271 1340.22078376 489.02869003 1351.1171875 499.01171875 C1353.20908873 500.91684309 1355.32307135 502.78751561 1357.4609375 504.640625 C1361.36135527 508.03055864 1365.16521072 511.5228335 1368.96728516 515.02197266 C1372.07014831 517.87621829 1375.19201622 520.70649733 1378.3359375 523.515625 C1383.32309064 527.98630921 1388.20975859 532.56163525 1393.08325195 537.15551758 C1393.68613037 537.72165771 1394.28900879 538.28779785 1394.91015625 538.87109375 C1395.43826904 539.36891357 1395.96638184 539.8667334 1396.51049805 540.37963867 C1398.3644024 542.05905791 1400.24839663 543.69124763 1402.14924622 545.3170929 C1403.09653202 546.12772422 1403.09653202 546.12772422 1404.0629549 546.95473194 C1404.54491416 547.36670165 1405.02687342 547.77867136 1405.5234375 548.203125 C1406.14482815 547.58059518 1406.76621881 546.95806537 1407.40643948 546.31667101 C1444.25750659 509.39843005 1481.11643208 472.4880507 1517.98554022 435.58782629 C1522.41514064 431.15447388 1526.84467553 426.721056 1531.27416992 422.28759766 C1532.59688783 420.96369935 1532.59688783 420.96369935 1533.94632731 419.61305563 C1548.21336469 405.33297401 1562.47509088 391.04759938 1576.73485192 376.76025219 C1591.37317192 362.09385069 1606.01720684 347.43317359 1620.66653234 332.77776468 C1629.70148269 323.7387036 1638.7319773 314.69523815 1647.75677393 305.64603917 C1653.95075831 299.43616373 1660.15029887 293.23187091 1666.3541778 287.03188057 C1669.93016112 283.45781353 1673.50370086 279.88139251 1677.07064438 276.2983017 C1680.34317499 273.01106581 1683.62270257 269.73097595 1686.90768305 266.45618276 C1688.08818696 265.27693609 1689.26620969 264.09519855 1690.44132795 262.910585 C1716.7687058 236.38307746 1749.8426556 217.88049796 1786.5234375 210.203125 C1787.2757666 210.04086426 1788.0280957 209.87860352 1788.80322266 209.71142578 C1838.86773804 199.42245114 1892.07630326 211.95186464 1934.47949219 239.47265625 C1953.10851351 251.87232179 1969.17196395 267.28332649 1982.5234375 285.203125 C1983.49603516 286.50056641 1983.49603516 286.50056641 1984.48828125 287.82421875 C1989.0122298 294.07157627 1992.86742511 300.68406899 1996.55908203 307.44580078 C1997.44528546 309.06071021 1998.35625972 310.66196124 1999.26953125 312.26171875 C2009.02277579 330.3040949 2014.68311903 350.96585588 2017.5234375 371.203125 C2017.77740621 373.00693316 2017.77740621 373.00693316 2018.03650559 374.84718189 C2018.55106588 379.00235112 2018.66422324 383.12212298 2018.65223867 387.30568552 C2018.65401368 388.08582628 2018.65578869 388.86596704 2018.65761748 389.66974843 C2018.66234386 392.28071717 2018.65998778 394.89163035 2018.65765858 397.50260162 C2018.65961243 399.40280448 2018.66200163 401.30300693 2018.66478655 403.20320874 C2018.67118548 408.44206303 2018.67134825 413.68090197 2018.67050914 418.91975942 C2018.67067866 424.61302707 2018.67658506 430.30628924 2018.68175 435.99955416 C2018.69107856 447.29942484 2018.69499848 458.59929161 2018.69726897 469.89916567 C2018.6993257 479.29736285 2018.70370853 488.69555645 2018.7097187 498.09375191 C2018.71014932 498.77043407 2018.71057993 499.44711623 2018.7110236 500.14430391 C2018.71278197 502.90035574 2018.71455162 505.65640757 2018.71633662 508.41245938 C2018.73792989 541.81794799 2018.74881482 575.2234374 2018.75781285 608.62893139 C2018.76074753 619.46382623 2018.76411752 630.29872087 2018.76778007 641.13361549 C2018.76803836 641.89816735 2018.76829665 642.66271921 2018.76856277 643.45043931 C2018.76960902 646.54368612 2018.77065744 649.63693293 2018.77170859 652.73017974 C2018.78967421 705.64597977 2018.8050518 758.56178012 2018.81246762 811.47758277 C2018.81305158 815.63368816 2018.81364885 819.78979354 2018.81424524 823.94589892 C2018.81442242 825.18254173 2018.81442242 825.18254173 2018.81460317 826.44416722 C2018.81580054 834.79660267 2018.81700931 843.14903811 2018.81823571 851.50147356 C2018.81848094 853.17614432 2018.8187248 854.85081507 2018.81896728 856.52548583 C2018.82675393 910.2887218 2018.84913003 964.05193591 2018.8816437 1017.81516233 C2018.90499893 1056.44738916 2018.92654574 1095.07961163 2018.93365002 1133.7118454 C2018.93379704 1134.50685776 2018.93394406 1135.30187011 2018.93409553 1136.12097375 C2018.93728085 1153.57631889 2018.9393314 1171.03166398 2018.94032308 1188.48700938 C2018.9407378 1195.51100817 2018.9412927 1202.53500695 2018.94188499 1209.55900574 C2018.941976 1210.71207284 2018.941976 1210.71207284 2018.94206884 1211.88843423 C2018.94408243 1236.62055684 2018.95830327 1261.3526536 2018.97883 1286.0847672 C2018.99944307 1311.00942095 2019.00728842 1335.93404488 2018.99775223 1360.8587063 C2018.99643392 1364.30916453 2018.99525584 1367.75962279 2018.99416161 1371.2100811 C2018.99383183 1372.22458354 2018.99383183 1372.22458354 2018.9934954 1373.25958098 C2018.99020256 1384.58145023 2019.00270549 1395.90324837 2019.01949088 1407.2251073 C2019.03301576 1417.0947329 2019.03190699 1426.96428808 2019.01908892 1436.83391441 C2019.01220363 1442.45122697 2019.01148388 1448.06834378 2019.02864901 1453.68563873 C2019.15238351 1496.83224986 2019.15238351 1496.83224986 2014.5234375 1516.203125 C2014.33844933 1517.00964113 2014.15346117 1517.81615725 2013.9628673 1518.64711326 C2002.56454334 1567.96754181 1969.81360909 1609.80937573 1927.58984375 1636.7421875 C1916.75959049 1643.45538994 1905.37252392 1648.56168862 1893.5234375 1653.203125 C1892.53077881 1653.59540283 1892.53077881 1653.59540283 1891.51806641 1653.99560547 C1875.0511507 1660.36575997 1856.08926129 1664.38254043 1838.42087698 1664.33192617 C1837.64073622 1664.33370118 1836.86059546 1664.33547619 1836.05681407 1664.33730498 C1833.44584533 1664.34203136 1830.83493215 1664.33967528 1828.22396088 1664.33734608 C1826.32375802 1664.33929993 1824.42355557 1664.34168913 1822.52335376 1664.34447405 C1817.28449947 1664.35087298 1812.04566053 1664.35103575 1806.80680308 1664.35019664 C1801.11353543 1664.35036616 1795.42027326 1664.35627256 1789.72700834 1664.3614375 C1778.42713766 1664.37076606 1767.12727089 1664.37468598 1755.82739683 1664.37695647 C1746.42919965 1664.3790132 1737.03100605 1664.38339603 1727.63281059 1664.3894062 C1726.95612843 1664.38983682 1726.27944627 1664.39026743 1725.58225859 1664.3907111 C1722.82620676 1664.39246947 1720.07015493 1664.39423912 1717.31410312 1664.39602412 C1683.90861451 1664.41761739 1650.5031251 1664.42850232 1617.09763111 1664.43750035 C1606.26273627 1664.44043503 1595.42784163 1664.44380502 1584.59294701 1664.44746757 C1583.82839515 1664.44772586 1583.06384329 1664.44798415 1582.27612319 1664.44825027 C1579.18287638 1664.44929652 1576.08962957 1664.45034494 1572.99638276 1664.45139609 C1520.08058273 1664.46936171 1467.16478238 1664.4847393 1414.24897973 1664.49215512 C1410.09287434 1664.49273908 1405.93676896 1664.49333635 1401.78066358 1664.49393274 C1400.95623504 1664.49405086 1400.1318065 1664.49416898 1399.28239528 1664.49429067 C1390.92995983 1664.49548804 1382.57752439 1664.49669681 1374.22508894 1664.49792321 C1372.55041818 1664.49816844 1370.87574743 1664.4984123 1369.20107667 1664.49865478 C1315.4378407 1664.50644143 1261.67462659 1664.52881753 1207.91140017 1664.5613312 C1169.27917334 1664.58468643 1130.64695087 1664.60623324 1092.0147171 1664.61333752 C1091.21970474 1664.61348454 1090.42469239 1664.61363156 1089.60558875 1664.61378303 C1072.15024361 1664.61696835 1054.69489852 1664.6190189 1037.23955312 1664.62001058 C1030.21555433 1664.6204253 1023.19155555 1664.6209802 1016.16755676 1664.62157249 C1015.39884536 1664.62163316 1014.63013396 1664.62169383 1013.83812827 1664.62175634 C989.10600566 1664.62376993 964.3739089 1664.63799077 939.6417953 1664.6585175 C914.71714155 1664.67913057 889.79251762 1664.68697592 864.8678562 1664.67743973 C861.41739797 1664.67612142 857.96693971 1664.67494334 854.5164814 1664.67384911 C853.50197896 1664.67351933 853.50197896 1664.67351933 852.46698152 1664.6731829 C841.14511227 1664.66989006 829.82331413 1664.68239299 818.5014552 1664.69917838 C808.6318296 1664.71270326 798.76227442 1664.71159449 788.89264809 1664.69877642 C783.27533553 1664.69189113 777.65821872 1664.69117138 772.04092377 1664.70833651 C728.9720847 1664.83191297 728.9720847 1664.83191297 709.5234375 1660.203125 C708.79647063 1660.03842446 708.06950376 1659.87372392 707.32050759 1659.70403246 C672.84771771 1651.8740723 642.75962843 1633.58021155 617.5234375 1609.203125 C616.87246094 1608.60371094 616.22148437 1608.00429687 615.55078125 1607.38671875 C582.14527341 1575.87655887 562.4719585 1525.4457796 561.140625 1480.23046875 C560.7461621 1462.58860456 561.41205656 1445.43856687 565.5234375 1428.203125 C565.82894531 1426.88417236 565.82894531 1426.88417236 566.140625 1425.53857422 C571.90691423 1401.37444088 582.71853097 1378.83242661 597.4609375 1358.890625 C598.12295166 1357.99452515 598.12295166 1357.99452515 598.79833984 1357.08032227 C607.65220706 1345.49120327 618.29856548 1335.28351048 628.60209656 1325.00421143 C629.99773617 1323.60813482 631.39315564 1322.21183811 632.78837615 1320.81534266 C636.59221509 1317.00928378 640.39913775 1313.20632288 644.20660388 1309.40389299 C648.32347071 1305.29136665 652.43742446 1301.17592795 656.55174255 1297.06085205 C663.67029428 1289.94177737 670.79066667 1282.82452795 677.9122982 1275.70853424 C688.20883144 1265.4201469 698.50258626 1255.1289829 708.79567287 1244.83714756 C725.49776682 1228.13715039 742.20217477 1211.43946962 758.90795898 1194.74316406 C775.13081763 1178.5294994 791.35261842 1162.31477754 807.57299805 1146.09863281 C808.32383204 1145.3479961 808.32383204 1145.3479961 809.08983441 1144.58219502 C814.11692045 1139.55642757 819.1439851 1134.53063872 824.17103408 1129.50483421 C834.41043299 1119.26797106 844.64997463 1109.03125067 854.88960266 1098.7946167 C855.36033675 1098.3240199 855.83107084 1097.8534231 856.3160696 1097.36856579 C887.71613349 1065.97769246 919.11953388 1034.59015696 950.5234375 1003.203125 C949.56456667 1002.07347961 948.60414559 1000.94514998 947.64306641 999.81738281 C947.10839752 999.18890442 946.57372864 998.56042603 946.02285767 997.91290283 C944.42581963 996.09181206 942.76085502 994.50088751 940.8984375 992.953125 C937.36546406 989.94806713 933.93161042 986.84819038 930.5234375 983.703125 C925.91601938 979.46495488 921.26898702 975.28611961 916.5234375 971.203125 C915.78552979 970.56769775 915.78552979 970.56769775 915.03271484 969.91943359 C911.46907592 966.85241043 907.89823406 963.79393103 904.32275391 960.74072266 C903.1626149 959.74933114 902.00336655 958.75689596 900.84521484 957.76318359 C894.33168842 952.17484058 887.73143536 946.73528777 880.95825195 941.46411133 C876.48950488 937.98173972 872.09374328 934.41780574 867.7109375 930.828125 C853.36462628 919.11716877 838.47676316 908.12186827 823.5234375 897.203125 C822.7691748 896.65124512 822.01491211 896.09936523 821.23779297 895.53076172 C809.82255233 887.1879974 798.24458545 879.10980774 786.5234375 871.203125 C785.68941406 870.63980469 784.85539062 870.07648437 783.99609375 869.49609375 C745.12197066 843.284166 704.9667235 819.12978194 663.5234375 797.203125 C662.58000488 796.70248535 661.63657227 796.2018457 660.66455078 795.68603516 C653.97591377 792.1424882 647.25805104 788.65840877 640.5234375 785.203125 C639.3566748 784.60274414 638.18991211 784.00236328 636.98779297 783.38378906 C617.84255345 773.55213444 598.42598241 764.50368483 578.69763184 755.90505981 C574.49516824 754.07245445 570.3073264 752.21214091 566.1328125 750.31640625 C481.11875446 711.84584244 389.53988657 684.93728468 -430.07861328 724.17700195 C-474.8337298 741.05875477 -518.57740736 760.05307025 -561.4765625 781.203125 C-562.1727771 781.54575378 -562.8689917 781.88838257 -563.58630371 782.24139404 C-581.09049038 790.85589017 -598.47410171 799.62534513 -615.4765625 809.203125 C-616.52134766 809.7899707 -617.56613281 810.37681641 -618.64257812 810.98144531 C-650.98633156 829.19012982 -682.7628097 848.34468721 -713.4765625 869.203125 C-714.56130859 869.93861572 -714.56130859 869.93861572 -715.66796875 870.68896484 C-733.54657532 882.82567335 -751.13630998 895.30899615 -768.4765625 908.203125 C-769.19263672 908.73470215 -769.90871094 909.2662793 -770.64648438 909.81396484 C-784.9415287 920.43532932 -798.87672751 931.46047811 -812.66796875 942.7265625 C-814.2689173 944.03360041 -815.87254226 945.33735856 -817.4765625 946.640625 C-823.97370902 951.92900008 -830.38541091 957.31293833 -836.76318359 962.74414062 C-837.92167597 963.73062544 -839.0808752 964.71628065 -840.24072266 965.70117188 C-847.28195406 971.6820812 -854.22996762 977.73549946 -861.0390625 983.98046875 C-863.11928975 985.87734264 -865.22213148 987.73705443 -867.3515625 989.578125 C-873.18086844 994.6537429 -878.81739585 999.93995324 -884.4765625 1005.203125 C-885.08374619 1005.7667424 -885.69092987 1006.3303598 -886.31651306 1006.91105652 C-897.45084912 1017.26062735 -908.30177312 1027.87118798 -919.03710938 1038.63330078 C-921.63035534 1041.23197814 -924.22900198 1043.82517081 -926.828125 1046.41796875 C-928.50552957 1048.09603312 -930.18262444 1049.77440713 -931.859375 1051.453125 C-932.62299347 1052.21471924 -933.38661194 1052.97631348 -934.17337036 1053.76098633 C-938.28844056 1057.89393795 -942.23796708 1062.11297767 -946.03463745 1066.54101562 C-947.75824458 1068.5278204 -949.58479821 1070.37659396 -951.4765625 1072.203125 C-954.64746248 1075.33158464 -957.6022621 1078.57167852 -960.50390625 1081.94921875 C-962.44134037 1084.1628811 -964.42785438 1086.32537522 -966.42871094 1088.48168945 C-971.2377407 1093.6661668 -975.79441437 1098.97681975 -980.23046875 1104.48828125 C-982.5648684 1107.30985995 -984.99646848 1110.00903212 -987.4765625 1112.703125 C-991.89033362 1117.5095322 -996.0401656 1122.47422583 -1000.13525391 1127.55273438 C-1001.67843287 1129.451513 -1003.23847047 1131.33568239 -1004.80078125 1133.21875 C-1011.40146619 1141.17728498 -1017.86156003 1149.20014008 -1024.11914062 1157.43212891 C-1025.63657201 1159.41188561 -1027.1720454 1161.37672381 -1028.7109375 1163.33984375 C-1040.90979192 1178.90342581 -1052.60393251 1194.80331083 -1063.93603516 1211.0078125 C-1065.52834406 1213.27691578 -1067.13230895 1215.53742504 -1068.73828125 1217.796875 C-1078.35061462 1231.36152972 -1087.47396728 1245.22921715 -1096.4765625 1259.203125 C-1097.30800781 1260.49283203 -1097.30800781 1260.49283203 -1098.15625 1261.80859375 C-1117.22544803 1291.47716835 -1134.93269848 1322.061422 -1151.4765625 1353.203125 C-1151.9509375 1354.09402832 -1152.4253125 1354.98493164 -1152.9140625 1355.90283203 C-1156.49219667 1362.64040898 -1159.99870699 1369.41330333 -1163.4765625 1376.203125 C-1163.80118469 1376.83563171 -1164.12580688 1377.46813843 -1164.46026611 1378.11981201 C-1175.93498535 1400.49007419 -1186.60853343 1423.11181078 -1196.59887695 1446.18212891 C-1197.43015741 1448.09627066 -1198.26718032 1450.00774611 -1199.10742188 1451.91796875 C-1237.45389482 1539.10880837 -1265.57374932 1631.29205769 -1304.25653076 1876.45526123 C-1304.47290273 1879.15742002 -1304.70214279 1881.85821955 -1304.93408203 1884.55908203 C-1310.5017774 1950.61651627 -1310.64834771 2019.30273365 -1304.73303223 2085.33044434 C-1304.46052928 2088.38271082 -1304.19993875 2091.43586048 -1303.94042969 2094.48925781 C-1295.1426249 2196.88862811 -1275.59279738 2298.26372312 -1236.20648193 2418.0836792 C-1235.48279357 2420.18503204 -1234.76354574 2422.28785702 -1234.04541016 2424.39111328 C-1218.04678692 2471.17555332 -1198.94311998 2516.59824818 -1177.84472656 2561.29931641 C-1176.56428213 2564.01694775 -1175.29571134 2566.73974743 -1174.03125 2569.46484375 C-1169.67812015 2578.81096784 -1165.05111486 2587.97370042 -1160.19921875 2597.0703125 C-1158.23931728 2600.74792093 -1156.31551868 2604.44227883 -1154.41015625 2608.1484375 C-1147.0974997 2622.36675055 -1139.48023137 2636.36227525 -1131.4765625 2650.203125 C-1130.82139648 2651.3379834 -1130.16623047 2652.4728418 -1129.49121094 2653.64208984 C-1119.81898675 2670.37426913 -1109.86670655 2686.90402414 -1099.4765625 2703.203125 C-1098.72318604 2704.38503418 -1098.72318604 2704.38503418 -1097.95458984 2705.59082031 C-1094.82758558 2710.4829488 -1091.66486467 2715.35075284 -1088.4765625 2720.203125 C-1088.0228125 2720.89470703 -1087.5690625 2721.58628906 -1087.1015625 2722.29882812 C-1071.6595492 2745.78355669 -1055.48942415 2768.82812379 -1038.4765625 2791.203125 C-1037.99219727 2791.84072754 -1037.50783203 2792.47833008 -1037.00878906 2793.13525391 C-1023.20470435 2811.29293457 -1009.16083691 2829.25540217 -994.36157227 2846.61694336 C-991.49573507 2849.98200783 -988.6911452 2853.38960053 -985.9140625 2856.828125 C-982.04076978 2861.58832553 -977.96896258 2866.13117284 -973.81640625 2870.6484375 C-971.81821402 2872.83010315 -969.85507361 2875.03323809 -967.9140625 2877.265625 C-960.2644034 2886.05649198 -952.37918097 2894.63994563 -944.4765625 2903.203125 C-943.96458313 2903.75867065 -943.45260376 2904.31421631 -942.92510986 2904.88659668 C-932.76793033 2915.88430834 -922.29244404 2926.54313975 -911.69458008 2937.11547852 C-909.01460969 2939.79002835 -906.34010766 2942.46996476 -903.66601562 2945.15039062 C-901.93782098 2946.87792533 -900.20931661 2948.60515026 -898.48046875 2950.33203125 C-897.69386368 2951.12066055 -896.90725861 2951.90928986 -896.09681702 2952.72181702 C-891.94250472 2956.85871128 -887.71425205 2960.83821771 -883.2518158 2964.64195251 C-881.41270916 2966.25927816 -879.69084507 2967.95473294 -877.9765625 2969.703125 C-875.05189135 2972.67369906 -871.99036689 2975.41041619 -868.83203125 2978.12890625 C-866.46017865 2980.21755257 -864.14750775 2982.35860605 -861.83789062 2984.51538086 C-856.43397387 2989.56066545 -850.92433918 2994.36099706 -845.15625 2998.9921875 C-842.34402935 3001.3124745 -839.65858987 3003.73383634 -836.9765625 3006.203125 C-831.65031713 3011.09812607 -826.10788498 3015.66588803 -820.4765625 3020.203125 C-818.72564456 3021.63950678 -816.97565567 3023.07702174 -815.2265625 3024.515625 C-804.75534842 3033.07755788 -794.18851716 3041.51034099 -783.43066406 3049.70996094 C-781.14735511 3051.45467828 -778.87074669 3053.20799068 -776.59375 3054.9609375 C-767.13741766 3062.22457296 -757.61993803 3069.35337893 -747.83154297 3076.16357422 C-745.07187259 3078.08544193 -742.32082376 3080.01833065 -739.58056641 3081.96777344 C-729.3725759 3089.22831156 -719.03561713 3096.27211895 -708.6015625 3103.203125 C-707.42018204 3103.9889949 -707.42018204 3103.9889949 -706.2149353 3104.79074097 C-694.73636044 3112.42361048 -683.24774467 3120.0261703 -671.4765625 3127.203125 C-670.56036133 3127.76193359 -669.64416016 3128.32074219 -668.70019531 3128.89648438 C-644.98860001 3143.31350517 -620.98449059 3157.18341861 -596.4765625 3170.203125 C-595.58565918 3170.6775 -594.69475586 3171.151875 -593.77685547 3171.640625 C-587.03927852 3175.21875917 -580.26638417 3178.72526949 -573.4765625 3182.203125 C-572.84405579 3182.52774719 -572.21154907 3182.85236938 -571.55987549 3183.18682861 C-549.18961331 3194.66154785 -526.56787672 3205.33509593 -503.49755859 3215.32543945 C-501.58341684 3216.15671991 -499.67194139 3216.99374282 -497.76171875 3217.83398438 C-412.51036184 3255.32747412 -322.57663211 3282.73899257 437.1673584 3265.95263672 C440.26242425 3264.96803984 443.36379947 3264.00425268 446.46522522 3263.03991699 C493.82447418 3248.28575634 540.25264864 3230.22237442 585.37792969 3209.63769531 C587.46238438 3208.68703901 589.54895784 3207.74101377 591.63769531 3206.79980469 C622.696451 3192.79972562 653.62293134 3177.85749072 683.03125 3160.63720703 C687.64413545 3157.98280958 692.33969134 3155.47960564 697.0234375 3152.953125 C704.93826894 3148.66146925 712.7201251 3144.21990624 720.39111328 3139.5078125 C722.90676013 3137.96858457 725.43169941 3136.44516003 727.95703125 3134.921875 C739.61406625 3127.87993174 751.16376718 3120.71509704 762.5234375 3113.203125 C764.16989258 3112.11572021 764.16989258 3112.11572021 765.84960938 3111.00634766 C781.56044347 3100.62130972 797.18834909 3090.13861098 812.5234375 3079.203125 C813.26384277 3078.67734863 814.00424805 3078.15157227 814.76708984 3077.60986328 C832.06349345 3065.3124639 848.90653614 3052.40144509 865.5234375 3039.203125 C866.4103125 3038.49929687 867.2971875 3037.79546875 868.2109375 3037.0703125 C873.42558261 3032.91489217 878.59584895 3028.70672008 883.75 3024.4765625 C885.55361441 3022.99810675 887.36072853 3021.52390661 889.171875 3020.0546875 C894.30892097 3015.88177919 899.3784036 3011.64036444 904.3984375 3007.328125 C905.28450684 3006.5690686 905.28450684 3006.5690686 906.18847656 3005.79467773 C909.09102044 3003.30537069 911.98079309 3000.80377438 914.84765625 2998.2734375 C934.37228455 2981.17619542 958.38864022 2970.23928422 984.83203125 2971.0234375 C1016.38126105 2973.12977215 1038.19304902 2986.55278103 1060.14880371 3008.55433655 C1061.50695209 3009.90802598 1062.86552844 3011.26128614 1064.22449255 3012.61415666 C1067.93820415 3016.3137571 1071.64570585 3020.01952536 1075.35214686 3023.72640789 C1079.35820916 3027.73081592 1083.36997465 3031.72950373 1087.38093567 3035.72900391 C1096.14029681 3044.46556502 1104.8922343 3053.20953763 1113.64273262 3061.95497441 C1119.11085517 3067.41983479 1124.58060765 3072.88306173 1130.05070496 3078.34594536 C1145.20891899 3093.48460169 1160.36559725 3108.624789 1175.51544952 3123.77181339 C1175.99939821 3124.25566801 1176.48334689 3124.73952263 1176.98196068 3125.23803952 C1178.94298496 3127.19868534 1180.90400201 3129.15933839 1182.86501733 3131.11999319 C1184.34083666 3132.5955408 1185.81665846 3134.07108593 1187.29248047 3135.54663086 C1187.78014726 3136.03420963 1188.26781405 3136.5217884 1188.77025863 3137.02414228 C1204.08956107 3152.34053994 1219.41842731 3167.64731066 1234.75439453 3182.94702148 C1252.00500946 3200.15685404 1269.24701612 3217.37524058 1286.47741365 3234.60531801 C1295.59302877 3243.72034928 1304.71253425 3252.83140889 1313.84233093 3261.93223763 C1321.61552602 3269.68088136 1329.37999982 3277.43813541 1337.13341701 3285.20657123 C1341.0858254 3289.16613236 1345.04208645 3293.12162187 1349.00945473 3297.06619835 C1352.64853826 3300.6845765 1356.27566433 3304.31452636 1359.89401513 3307.9536336 C1361.19774314 3309.26083435 1362.50561799 3310.56391676 1363.81825608 3311.86217011 C1384.03905471 3331.87576665 1396.41160511 3355.6638809 1396.7734375 3384.640625 C1396.7574991 3411.64347068 1386.25361221 3435.98819678 1367.5234375 3455.203125 C1363.65766761 3459.02462578 1359.62130007 3462.63364013 1355.5234375 3466.203125 C1354.51410156 3467.1003125 1354.51410156 3467.1003125 1353.484375 3468.015625 C1350.44454204 3470.70620055 1347.3601083 3473.34393744 1344.2734375 3475.98046875 C1343.06505802 3477.01296683 1341.856726 3478.04552046 1340.6484375 3479.078125 C1339.7354187 3479.85784668 1339.7354187 3479.85784668 1338.80395508 3480.65332031 C1335.26681692 3483.68231156 1331.77934219 3486.75476523 1328.3359375 3489.890625 C1324.17756165 3493.6635904 1319.87617366 3497.21892757 1315.51171875 3500.75 C1312.11593697 3503.53764831 1308.78665627 3506.39516496 1305.4609375 3509.265625 C1300.80055327 3513.28078298 1296.09295589 3517.20905473 1291.265625 3521.0234375 C1288.43868445 3523.27049281 1285.63799736 3525.54737387 1282.83984375 3527.83007812 C1275.4289896 3533.8750376 1267.96464908 3539.84324502 1260.421875 3545.72265625 C1258.34962115 3547.33867314 1256.28032783 3548.95844317 1254.2109375 3550.578125 C1244.40473247 3558.24210024 1234.52032027 3565.78968021 1224.5234375 3573.203125 C1223.40799561 3574.03046143 1223.40799561 3574.03046143 1222.27001953 3574.87451172 C1212.21931678 3582.32064364 1202.11959379 3589.69644228 1191.96484375 3597 C1189.04553214 3599.10062816 1186.13737693 3601.21531678 1183.23828125 3603.34375 C1172.66136644 3611.0896824 1161.83934674 3618.41476594 1150.90161133 3625.64030457 C1146.17533911 3628.76496052 1141.46540124 3631.91369027 1136.7578125 3635.06640625 C1120.46560282 3645.97299177 1104.15424213 3656.81679869 1087.5234375 3667.203125 C1086.72180176 3667.70714844 1085.92016602 3668.21117188 1085.09423828 3668.73046875 C1010.73824168 3715.47617027 932.90547197 3757.31527713 852.78466797 3793.28662109 C849.96834306 3794.55158127 847.15494865 3795.82271145 844.34423828 3797.10009766 C754.78517392 3837.79824294 661.53567577 3870.72445672 442.5234375 3927.203125 C441.65066162 3927.38854858 440.77788574 3927.57397217 439.87866211 3927.76501465 C339.88715802 3948.97460017 238.0838218 3961.12949722 69.046875 3968.40625 C66.48208092 3968.41327257 63.91728702 3968.42035939 61.35249329 3968.42750549 C53.89782223 3968.44524623 46.44318129 3968.45175867 38.98849058 3968.45281267 C36.88888378 3968.45312643 34.78927727 3968.45379099 32.68967056 3968.45446396 C-7.8895967 3968.46374409 -48.38633928 3968.31907055 -88.88616943 3965.45635986 C-92.64969398 3965.19091382 -96.41387305 3964.93656512 -100.17822266 3964.68310547 C-207.17355967 3957.38536912 -313.36386489 3941.64925286 -681.4765625 3836.203125 C-682.25890259 3835.89779846 -683.04124268 3835.59247192 -683.84729004 3835.27789307 C-739.24516244 3813.64033018 -793.42558094 3789.30142723 -846.9140625 3763.328125 C-847.70810486 3762.9435614 -848.50214722 3762.5589978 -849.32025146 3762.16278076 C-860.40942695 3756.78702346 -871.35607615 3751.17947327 -882.23635864 3745.39306641 C-885.01410996 3743.91759296 -887.79721507 3742.45243083 -890.58065796 3740.98773193 C-906.11437892 3732.80910987 -921.5356671 3724.47573124 -936.76855469 3715.74609375 C-939.50897644 3714.18465618 -942.26018969 3712.6441457 -945.015625 3711.109375 C-957.6025264 3704.08582941 -969.95547675 3696.73268589 -982.25073242 3689.21540833 C-987.97974948 3685.71315698 -993.73325498 3682.2637887 -999.5390625 3678.890625 C-1007.83641795 3674.05329625 -1015.9381089 3668.92298791 -1024.03271484 3663.75537109 C-1026.36670285 3662.27290399 -1028.71055302 3660.80773615 -1031.05859375 3659.34765625 C-1044.26935197 3651.09277857 -1057.18660424 3642.41047186 -1070.1015625 3633.703125 C-1071.46027466 3632.78794601 -1071.46027466 3632.78794601 -1072.84643555 3631.85427856 C-1119.19873419 3600.61113924 -1164.45441801 3567.53629462 -1207.78515625 3532.20703125 C-1210.77299308 3529.77196321 -1213.77503283 3527.35575087 -1216.7890625 3524.953125 C-1224.84326665 3518.52318536 -1232.78571166 3511.96922035 -1240.63549805 3505.29199219 C-1244.08739337 3502.3608768 -1247.57842917 3499.48623269 -1251.1015625 3496.640625 C-1255.81086034 3492.81176111 -1260.27862423 3488.76676307 -1264.7421875 3484.65625 C-1267.33964192 3482.32596232 -1270.00061964 3480.13065332 -1272.7265625 3477.953125 C-1278.78123044 3473.07116893 -1284.38757234 3467.75303061 -1290.04296875 3462.421875 C-1293.10095024 3459.54222782 -1296.22839045 3456.76148493 -1299.41015625 3454.01953125 C-1303.93874529 3450.03882444 -1308.32859711 3445.90128406 -1312.74902344 3441.80126953 C-1314.46885695 3440.21025339 -1316.19435291 3438.62563041 -1317.921875 3437.04296875 C-1323.24193604 3432.16407603 -1328.48544015 3427.25530799 -1333.54420471 3422.1030426 C-1335.2726583 3420.40360609 -1337.04185095 3418.83812908 -1338.89428711 3417.27709961 C-1345.04217084 3411.92892482 -1350.72729185 3406.09624277 -1356.48046875 3400.33203125 C-1357.73007395 3399.0831012 -1358.97982743 3397.83431949 -1360.22972107 3396.5856781 C-1362.83763554 3393.97923069 -1365.44375157 3391.37100206 -1368.04858398 3388.76147461 C-1371.36912215 3385.43523979 -1374.69413062 3382.11351566 -1378.02050877 3378.79312229 C-1380.59869676 3376.21856677 -1383.17447494 3373.64161085 -1385.74955559 3371.06394768 C-1386.9738951 3369.83894632 -1388.19896334 3368.61467281 -1389.42480659 3367.39117622 C-1400.97499119 3355.85825973 -1400.97499119 3355.85825973 -1406.14146423 3349.75840759 C-1408.12799288 3347.44426077 -1410.2926139 3345.32960127 -1412.4765625 3343.203125 C-1416.05539766 3339.71846971 -1419.35651339 3336.07938025 -1422.625 3332.30859375 C-1425.65735001 3328.86041515 -1428.81907238 3325.53639292 -1431.9765625 3322.203125 C-1436.38519621 3317.5490622 -1440.70667091 3312.84394885 -1444.90917969 3308.00244141 C-1446.85625204 3305.76725087 -1448.85150719 3303.57842497 -1450.8515625 3301.390625 C-1453.96185101 3297.94934295 -1456.94134562 3294.43991202 -1459.8515625 3290.828125 C-1463.09608982 3286.8148595 -1466.46405574 3282.97899374 -1469.9765625 3279.203125 C-1474.20604878 3274.65199646 -1478.19736381 3269.96015402 -1482.09375 3265.12109375 C-1484.85198716 3261.74338365 -1487.68931565 3258.44107901 -1490.5390625 3255.140625 C-1494.55431743 3250.48032912 -1498.48249671 3245.77263773 -1502.296875 3240.9453125 C-1504.54393031 3238.11837195 -1506.82081137 3235.31768486 -1509.10351562 3232.51953125 C-1515.1484751 3225.1086771 -1521.11668252 3217.64433658 -1526.99609375 3210.1015625 C-1528.61211064 3208.02930865 -1530.23188067 3205.96001533 -1531.8515625 3203.890625 C-1539.51553774 3194.08441997 -1547.06311771 3184.20000777 -1554.4765625 3174.203125 C-1555.02812012 3173.45949707 -1555.57967773 3172.71586914 -1556.14794922 3171.94970703 C-1567.68834803 3156.37261019 -1579.084134 3140.69266071 -1590.22558594 3124.82739258 C-1592.35104725 3121.80186213 -1594.48196512 3118.78029516 -1596.61694336 3115.76147461 C-1604.71054778 3104.29010525 -1612.55841737 3092.67454135 -1620.26367188 3080.93920898 C-1622.10450559 3078.13614352 -1623.95035334 3075.33643035 -1625.796875 3072.53710938 C-1633.4969055 3060.84563163 -1641.04583579 3049.06736279 -1648.4765625 3037.203125 C-1649.0859668 3036.2344751 -1649.69537109 3035.2658252 -1650.32324219 3034.26782227 C-1660.30659017 3018.37858023 -1669.84928639 3002.22557242 -1679.37963867 2986.06237793 C-1680.39697723 2984.33801964 -1681.41618308 2982.61476339 -1682.43554688 2980.89160156 C-1716.84956867 2922.68539929 -1747.92556407 2862.20408927 -1775.47003174 2800.45904541 C-1776.50971887 2798.12881218 -1777.55151465 2795.7995278 -1778.59326172 2793.47021484 C-1819.73681617 2701.35601484 -1853.89234288 2606.25279872 -1888.4765625 2478.203125 C-1888.72085999 2477.24891663 -1888.96515747 2476.29470825 -1889.21685791 2475.31158447 C-1917.5329178 2364.46200033 -1936.01367658 2251.1810792 -1945.7265625 2122.328125 C-1945.80369476 2121.24478882 -1945.88082703 2120.16145264 -1945.96029663 2119.04528809 C-1946.54141579 2110.76855532 -1947.02919238 2102.48806959 -1947.4765625 2094.203125 C-1947.51916073 2093.42764565 -1947.56175896 2092.65216629 -1947.60564804 2091.85318756 C-1949.49856229 2057.19650421 -1949.84196979 2022.58042334 -1949.79167223 1987.87783909 C-1949.78903657 1985.80775754 -1949.78743418 1983.73767774 -1949.78619003 1981.66759491 C-1949.76186769 1941.32291985 -1949.58315043 1901.05028081 -1946.72979736 1860.78637695 C-1946.46409517 1857.02671331 -1946.20981999 1853.26637927 -1945.95654297 1849.50585938 C-1937.81281364 1730.11564478 -1918.82799507 1611.86980301 -1751.08662415 1118.568573 C-1748.536738 1113.34687753 -1746.05997992 1108.09329145 -1743.6015625 1102.828125 C-1740.04569791 1095.25244331 -1736.20275225 1087.85226623 -1732.265625 1080.46875 C-1730.20587374 1076.60018165 -1728.18809635 1072.71198706 -1726.1875 1068.8125 C-1719.59191815 1055.96243927 -1712.79205652 1043.27993974 -1705.62109375 1030.7421875 C-1702.51048263 1025.29407316 -1699.51902357 1019.78595355 -1696.5390625 1014.265625 C-1681.41859077 986.37669973 -1664.93960865 959.05783614 -1647.8359375 932.33935547 C-1646.49405031 930.23060674 -1645.17006446 928.11171689 -1643.8515625 925.98828125 C-1635.07020606 911.87980096 -1625.7985607 898.09935794 -1616.55030823 884.29489136 C-1613.64882375 879.96202391 -1610.76106977 875.62043965 -1607.88671875 871.26953125 C-1601.49427586 861.60341887 -1595.04126206 852.03887797 -1588.10546875 842.75390625 C-1585.21294428 838.87512109 -1582.43942087 834.9161735 -1579.6640625 830.953125 C-1568.02504164 814.38714508 -1555.79336963 798.26837677 -1543.4765625 782.203125 C-1542.99735352 781.57712402 -1542.51814453 780.95112305 -1542.02441406 780.30615234 C-1539.62557403 777.17276969 -1537.21993348 774.04473992 -1534.80615234 770.92285156 C-1533.83963818 769.67273666 -1532.87392386 768.42200323 -1531.90869141 767.17089844 C-1524.04389356 756.98225574 -1516.06389362 746.90184701 -1507.90478516 736.94726562 C-1506.61651602 735.37403576 -1505.33333525 733.79664252 -1504.05078125 732.21875 C-1499.61652771 726.76847745 -1495.10814527 721.38699138 -1490.55761719 716.03393555 C-1487.69763397 712.66423755 -1484.88382209 709.26263593 -1482.1015625 705.828125 C-1474.90032172 696.98789215 -1467.39733089 688.38828814 -1459.7265625 679.953125 C-1456.64647942 676.56277714 -1453.72596493 673.0820132 -1450.8515625 669.515625 C-1447.78998525 665.73117534 -1444.63092749 662.23824486 -1441.13671875 658.85546875 C-1439.43272024 657.15948906 -1437.85942167 655.39822804 -1436.2890625 653.578125 C-1431.6826559 648.24168521 -1426.86790907 643.09844978 -1422.07470703 637.93066406 C-1420.48369089 636.21083055 -1418.89906791 634.48533459 -1417.31640625 632.7578125 C-1412.43778802 627.43805077 -1407.52933303 622.19479502 -1402.37733459 617.13633728 C-1400.67329708 615.40321722 -1399.10272273 613.62872302 -1397.53686523 611.77172852 C-1392.26023759 605.70598624 -1386.51143884 600.09409704 -1380.82421875 594.41796875 C-1379.59770896 593.19078378 -1378.37134752 591.96345053 -1377.14512634 590.73597717 C-1374.58575722 588.17514119 -1372.02460757 585.61610329 -1369.4621582 583.05834961 C-1366.19645742 579.79834546 -1362.93526775 576.53387135 -1359.67540836 573.26802731 C-1357.14717623 570.73616215 -1354.61654311 568.20670756 -1352.08520317 565.67794991 C-1350.88253058 564.47593901 -1349.68058541 563.27319981 -1348.4794178 562.06968498 C-1337.15965851 550.73265755 -1337.15965851 550.73265755 -1331.03953552 545.5459137 C-1328.72343011 543.55609038 -1326.60559533 541.38969926 -1324.4765625 539.203125 C-1320.98910289 535.62140972 -1317.34697588 532.31717533 -1313.57324219 529.04589844 C-1310.17144544 526.05605659 -1306.8911974 522.94020355 -1303.6015625 519.828125 C-1297.6294289 514.20468873 -1291.6197357 508.64005749 -1285.4765625 503.203125 C-1284.85265625 502.65011719 -1284.22875 502.09710937 -1283.5859375 501.52734375 C-1280.48559244 498.7982585 -1277.35947403 496.10040895 -1274.21875 493.41796875 C-1273.01299574 492.38805021 -1271.80726727 491.35810147 -1270.6015625 490.328125 C-1269.99304443 489.80847168 -1269.38452637 489.28881836 -1268.75756836 488.75341797 C-1265.22032392 485.72419967 -1261.73263673 482.65163917 -1258.2890625 479.515625 C-1254.12583824 475.73826055 -1249.81948359 472.17885232 -1245.44921875 468.64453125 C-1242.13905293 465.92593252 -1238.90151083 463.13239047 -1235.6640625 460.328125 C-1230.446034 455.81855879 -1225.10895512 451.50534906 -1219.65917969 447.2800293 C-1215.65578092 444.16434556 -1211.76479881 440.94258207 -1207.9140625 437.640625 C-1202.19911631 432.75191539 -1196.29059739 428.14955288 -1190.30322266 423.60009766 C-1187.59415711 421.52828891 -1184.90761886 419.42795408 -1182.21948242 417.32910156 C-1166.24798605 404.86066007 -1150.16656097 392.56891455 -1133.68261719 380.78417969 C-1130.67440694 378.62822909 -1127.67850786 376.45545947 -1124.68188477 374.28344727 C-1118.09668839 369.5130967 -1111.49120744 364.77242577 -1104.8515625 360.078125 C-1103.94071899 359.43315063 -1103.94071899 359.43315063 -1103.01147461 358.77514648 C-1089.82854292 349.4820924 -1076.46145695 340.45794288 -1063.0390625 331.515625 C-1061.87043167 330.73667374 -1061.87043167 330.73667374 -1060.67819214 329.94198608 C-1040.19292973 316.29601956 -1019.46576772 303.06169953 -998.4765625 290.203125 C-996.90165039 289.23487793 -996.90165039 289.23487793 -995.29492188 288.24707031 C-977.88096507 277.54905912 -960.27958426 267.23943328 -942.4765625 257.203125 C-941.40809082 256.59871582 -940.33961914 255.99430664 -939.23876953 255.37158203 C-916.85835263 242.71547526 -894.22364829 230.55502411 -871.39794922 218.72265625 C-868.35827633 217.14159958 -865.32512399 215.54854741 -862.29296875 213.953125 C-849.60462275 207.289086 -836.8250344 200.89795594 -823.85595703 194.79931641 C-820.75897572 193.3365174 -817.66842757 191.86120647 -814.57984924 190.38079834 C-756.56889638 162.58366464 -697.06284433 137.8230051 -636.4765625 116.203125 C-635.76123352 115.94720581 -635.04590454 115.69128662 -634.30889893 115.4276123 C-541.46751326 82.22067153 -446.59591411 56.10868694 -85.7890625 2.953125 C-84.75186129 2.89024921 -84.75186129 2.89024921 -83.69370651 2.82610321 C-79.01367682 2.54308816 -74.33318756 2.26922486 -69.65234375 2 C-68.51952972 1.93356293 -67.3867157 1.86712585 -66.21957397 1.79867554 C-44.15279625 0.56599531 -22.09909626 0.03755373 0 0 Z " fill="#000000" transform="translate(2013.4765625,63.796875)"/>
</svg>
