<?xml version="1.0" encoding="UTF-8"?>
<svg version="1.1" xmlns="http://www.w3.org/2000/svg" width="1600" height="1600">
<path d="M0 0 C1.82985064 -0.00165086 3.65970092 -0.00373769 5.48955062 -0.0062201 C10.52836722 -0.0117808 15.5671668 -0.01111543 20.60598548 -0.00944251 C26.08405698 -0.00871117 31.56212369 -0.01373493 37.04019314 -0.01801753 C47.9099906 -0.02559736 58.77978315 -0.02779058 69.64958298 -0.02834659 C81.99937759 -0.02921334 94.34916775 -0.0352285 106.69896053 -0.04165257 C138.08435401 -0.05794946 169.46974674 -0.06434048 200.85514373 -0.06910044 C216.48512301 -0.07148426 232.11510185 -0.07518786 247.7450808 -0.07913754 C297.88872342 -0.09180159 348.03236601 -0.10258546 398.1760102 -0.10597799 C400.57228385 -0.10614023 402.96855751 -0.10630579 405.36483116 -0.10647238 C410.17053885 -0.10680617 414.97624654 -0.10713666 419.78195423 -0.10746694 C425.4081854 -0.10785383 431.03441657 -0.10824344 436.66064773 -0.108638 C438.27091629 -0.10875042 439.88118485 -0.10886184 441.49145341 -0.10897225 C493.20379852 -0.11252142 544.91612974 -0.12759896 596.62846955 -0.15091 C633.79002791 -0.16765501 670.95158365 -0.18312807 708.11314583 -0.18764496 C708.87762713 -0.18773844 709.64210843 -0.18783193 710.42975583 -0.18792825 C727.21329592 -0.18994744 743.99683597 -0.19110337 760.78037617 -0.19145683 C766.78613702 -0.191593 772.79189786 -0.191802 778.7976587 -0.19205009 C780.29171524 -0.19211165 781.78577179 -0.19216997 783.27982833 -0.19222504 C807.07186232 -0.19314427 830.86388179 -0.20310549 854.655911 -0.21768252 C878.62547196 -0.23230955 902.59501513 -0.2373335 926.56457977 -0.22926298 C941.43205302 -0.22426187 956.29946543 -0.22725533 971.16693079 -0.24382807 C980.65501002 -0.25357613 990.14304755 -0.25240144 999.6311264 -0.24239184 C1005.03539608 -0.23699865 1010.43955146 -0.2362936 1015.84381168 -0.24890056 C1020.76853144 -0.26029279 1025.6930446 -0.25765692 1030.61775743 -0.24423349 C1032.38025925 -0.24181496 1034.14277728 -0.24432821 1035.90526121 -0.25262997 C1077.1736669 -0.43410228 1108.63919095 18.09623597 1140.23226261 43.13142776 C1140.97282902 43.7174678 1141.71339542 44.30350784 1142.47640324 44.90730667 C1156.37065918 55.95022524 1169.70852347 67.59365332 1182.68685246 79.69490433 C1185.18925792 82.02099497 1187.71130995 84.32548172 1190.23226261 86.63142776 C1191.22970518 87.54674142 1192.2271009 88.46210613 1193.22445011 89.37752151 C1195.22300661 91.2105056 1197.22904667 93.03479875 1199.24007511 94.85408401 C1206.65107664 101.59018643 1213.76547529 108.5861466 1220.78939152 115.72542191 C1221.50917179 116.45366165 1222.22895206 117.1819014 1222.97054386 117.93220901 C1223.60000919 118.57327591 1224.22947453 119.2143428 1224.87801456 119.87483597 C1226.86961006 121.78381835 1228.89931293 123.58868511 1230.98665714 125.39021683 C1235.3123175 129.15108171 1239.37763249 133.13232384 1243.42366886 137.19002151 C1244.54707928 138.31199684 1244.54707928 138.31199684 1245.69318485 139.45663834 C1247.26497486 141.02775241 1248.8355211 142.60011169 1250.40487003 144.17366409 C1252.78827565 146.56242622 1255.17697329 148.94580222 1257.56624699 151.32869339 C1259.10237498 152.86548227 1260.6381927 154.40258136 1262.17366886 155.94002151 C1262.8780257 156.64235413 1263.58238255 157.34468674 1264.30808353 158.06830215 C1268.25723715 162.03591486 1272.0137064 166.11027792 1275.67109013 170.34787369 C1277.63357365 172.58990365 1279.70230528 174.69843998 1281.82601261 176.78767776 C1282.62909855 177.58302933 1283.43218449 178.37838089 1284.25960636 179.19783401 C1285.07558292 180.00091995 1285.89155949 180.80400589 1286.73226261 181.63142776 C1291.85267364 186.67094763 1296.84916034 191.72665231 1301.52962589 197.17927933 C1304.54918163 200.64133377 1307.74921091 203.93327021 1310.91976261 207.25642776 C1317.42662244 214.12432111 1323.65991341 221.16173744 1329.75374699 228.39558792 C1331.2850206 230.19336787 1332.84031285 231.96738034 1334.40413761 233.73689651 C1366.86938718 270.51980011 1393.65566457 309.22081004 1393.4867382 359.8288784 C1393.48913491 361.34676315 1393.49240447 362.86464671 1393.49645481 364.38252795 C1393.50500433 368.52257438 1393.50127798 372.66252915 1393.49539908 376.8025768 C1393.49120442 381.31857089 1393.49864446 385.83454898 1393.50455159 390.35053909 C1393.51329264 398.25540769 1393.51463317 406.16025038 1393.51104832 414.0651226 C1393.50573142 425.82044429 1393.51184657 437.57574098 1393.52013125 449.33105994 C1393.53536023 471.55007954 1393.53707743 493.76908773 1393.53460822 515.98811145 C1393.53277447 533.1485851 1393.53453691 550.30905502 1393.53883266 567.4695282 C1393.53943507 569.93632035 1393.54003627 572.40311251 1393.54063627 574.86990466 C1393.54154354 578.58729203 1393.54245221 582.3046794 1393.54336862 586.02206676 C1393.55179661 620.57883577 1393.55613493 655.13560338 1393.5519619 689.69237328 C1393.55180552 690.99472782 1393.55164915 692.29708237 1393.55148803 693.63890221 C1393.55068227 700.23950682 1393.5498365 706.84011143 1393.54897473 713.44071604 C1393.54880364 714.75157799 1393.54863255 716.06243994 1393.54845628 717.41302497 C1393.54810963 720.06390578 1393.5477611 722.71478659 1393.5474107 725.36566739 C1393.54205421 766.60790847 1393.5499825 807.85012817 1393.56844425 849.09236526 C1393.58917029 895.44694857 1393.59988578 941.80151863 1393.59586877 988.15610683 C1393.59547343 993.10088213 1393.59511188 998.04565743 1393.59477139 1002.99043274 C1393.59463529 1004.81667458 1393.59463529 1004.81667458 1393.59449644 1006.6798102 C1393.59333151 1025.04201599 1393.59997087 1043.40420838 1393.61058331 1061.76641083 C1393.62264413 1082.65579498 1393.62418411 1103.54514967 1393.61179314 1124.43453427 C1393.60517339 1136.11660458 1393.60677519 1147.7986044 1393.62038165 1159.48066905 C1393.628647 1167.29512417 1393.62590158 1175.10952667 1393.61440639 1182.92397754 C1393.6081706 1187.36894941 1393.60649536 1191.81378407 1393.61826972 1196.25874783 C1393.70581062 1231.76049389 1391.82906639 1282.11536604 1365.59481144 1309.86336136 C1365.14517033 1310.28182327 1364.69552921 1310.70028519 1364.23226261 1311.13142776 C1363.6380048 1310.01767776 1363.04374699 1308.90392776 1362.43148136 1307.75642776 C1351.87994383 1288.22476657 1339.5696833 1271.13024253 1323.70491886 1255.60017776 C1321.66830033 1253.56677664 1319.77549978 1251.51418577 1317.91976261 1249.31892776 C1314.56337932 1245.37741228 1310.90907821 1241.77005261 1307.23226261 1238.13142776 C1299.87529722 1230.85056235 1299.87529722 1230.85056235 1296.79476261 1227.19392776 C1292.77179558 1222.43015862 1288.27264356 1218.12239887 1283.82430363 1213.76057816 C1280.72911752 1210.70734427 1277.74844463 1207.62183982 1274.91976261 1204.31892776 C1270.46449919 1199.15202497 1265.58797592 1194.41846055 1260.73226261 1189.63142776 C1258.90686922 1187.83185324 1257.0839059 1186.02981008 1255.26351261 1184.22517776 C1254.46493839 1183.43820511 1253.66636417 1182.65123245 1252.84359074 1181.84041214 C1250.23226261 1179.13142776 1250.23226261 1179.13142776 1249.01676559 1177.5500145 C1245.69310459 1173.33372567 1242.10186595 1170.23007191 1237.73656172 1167.17208815 C1225.32749996 1158.37204816 1212.86351757 1147.8352105 1209.41466236 1132.39473343 C1206.56363919 1114.98259173 1207.33488733 1096.99793262 1207.82078893 1079.42465496 C1208.03710789 1071.3531394 1208.06272608 1063.28390485 1208.07954524 1055.20991325 C1208.11413551 1040.7992641 1208.28818452 1026.3939981 1208.55574894 1011.98591995 C1208.814112 998.05447335 1209.01322589 984.12440637 1209.12801456 970.19099808 C1209.13513093 969.33027498 1209.1422473 968.46955188 1209.14957931 967.58274627 C1209.19877473 961.54951443 1209.24421603 955.51625692 1209.28890324 949.48299026 C1209.33898686 942.77448279 1209.39030219 936.06598631 1209.44339848 929.35750198 C1209.44975204 928.54286303 1209.45610561 927.72822407 1209.46265171 926.88889909 C1209.55141988 915.67659267 1209.68931702 904.46591425 1209.86784558 893.25469184 C1209.93785029 888.76624148 1209.99993468 884.2776728 1210.06217464 879.78910887 C1210.11135797 876.3113209 1210.1665157 872.83385671 1210.23659039 869.35642242 C1210.67728043 846.83008161 1210.48456954 826.46473609 1195.29866886 808.22127151 C1181.72349035 794.49212122 1165.12262386 788.88878286 1146.16755229 788.73481949 C1143.59018851 788.73053518 1141.01309995 788.74070994 1138.43575668 788.75111103 C1136.54265195 788.74767355 1134.64954923 788.74292409 1132.75645068 788.73699006 C1127.56062556 788.72450182 1122.36496501 788.73062084 1117.16913921 788.73982374 C1111.5139887 788.74653876 1105.85886633 788.73586479 1100.20372182 788.7274279 C1090.29429002 788.71505552 1080.38490556 788.71385105 1070.47546864 788.71997833 C1059.84609055 788.72653323 1049.21673899 788.72672303 1038.58736324 788.7189312 C1037.91522324 788.7184432 1037.24308325 788.7179552 1036.55057537 788.71745242 C1033.81290799 788.71544416 1031.07524065 788.71339105 1028.33757335 788.71128067 C1000.56479059 788.68989419 972.79202977 788.68782368 945.01924084 788.69333771 C941.18327005 788.69409345 937.34729926 788.69482107 933.51132846 788.69551969 C932.74938729 788.69565878 931.98744612 788.69579787 931.20241582 788.69594118 C914.30922318 788.69889471 897.41603317 788.69587945 880.522841 788.6916234 C878.21013514 788.69104124 875.89742927 788.69047239 873.5847234 788.68990776 C867.3849805 788.68839278 861.18523761 788.68686587 854.98549472 788.68531476 C811.71112013 788.67455949 768.43674798 788.66985469 725.16237259 788.67778492 C723.93903841 788.67800738 723.93903841 788.67800738 722.69099042 788.67823433 C713.59686521 788.6798933 704.50274002 788.68164289 695.40861484 788.68342734 C694.58756375 788.68358837 693.76651266 788.68374939 692.92058123 788.6839153 C687.93999367 788.68489277 687.93999367 788.68489277 682.95940611 788.68587648 C630.44121475 788.69626796 577.92305691 788.68850094 525.40487003 788.66487503 C512.17124118 788.65893153 498.93761232 788.65303993 485.70398331 788.64746571 C484.48168276 788.64695005 484.48168276 788.64695005 483.23468927 788.64642398 C458.11713932 788.63589515 432.99959218 788.63030256 407.88204002 788.62990856 C407.09337839 788.62989578 406.30471675 788.629883 405.49215627 788.62986983 C388.17864899 788.62964153 370.86514195 788.63064772 353.5516348 788.63277888 C347.35650757 788.63353363 341.16138034 788.63421184 334.9662531 788.63485903 C333.42509253 788.63502172 331.88393197 788.63518939 330.3427714 788.63536205 C305.79550189 788.63808218 281.24825274 788.62953348 256.70098761 788.61550794 C231.28836627 788.60109444 205.87578361 788.6015578 180.46316358 788.61888266 C177.73256414 788.62068681 175.00196467 788.622427 172.27136517 788.6241169 C171.2661783 788.62474765 171.2661783 788.62474765 170.24068463 788.62539114 C158.99878614 788.63206373 147.75693365 788.62295454 136.51504122 788.60964797 C126.73019102 788.599174 116.94541654 788.60323709 107.16057381 788.61912801 C101.58521305 788.62777573 96.010047 788.63014533 90.4346961 788.61485869 C85.35709073 788.60106819 80.27984653 788.60586645 75.20226212 788.62514388 C73.38220443 788.62886256 71.56211727 788.62596875 69.74208628 788.6154308 C49.62607582 788.50703693 31.49967675 792.27175717 16.44710636 806.69002151 C4.66256649 819.68003461 -0.09848452 835.78407949 -0.02500629 852.98436546 C-0.03026541 854.56213778 -0.03026541 854.56213778 -0.03563076 856.17178428 C-0.04492095 859.68988963 -0.04002752 863.20782858 -0.03516293 866.7259407 C-0.03890038 869.27642097 -0.04350228 871.82690009 -0.04889357 874.37737739 C-0.05857356 879.91944271 -0.06204013 885.46145807 -0.05998135 891.0035305 C-0.05692722 899.24517564 -0.06526448 907.48678222 -0.0757306 915.72841985 C-0.09506066 931.30628151 -0.10069846 946.88412999 -0.10184471 962.46200223 C-0.10276426 974.49395246 -0.10688335 986.52589752 -0.11324596 998.55784607 C-0.11504109 1002.02289291 -0.11682072 1005.48793975 -0.11859572 1008.9529866 C-0.11903782 1009.81444262 -0.11947991 1010.67589863 -0.1199354 1011.56345938 C-0.13224193 1035.79113274 -0.14013673 1060.01880432 -0.13924885 1084.24648094 C-0.13921769 1085.15970779 -0.13918653 1086.07293463 -0.13915443 1087.01383502 C-0.13898822 1091.64230336 -0.13879014 1096.27077169 -0.13858502 1100.89924003 C-0.13854513 1101.81844713 -0.13850524 1102.73765423 -0.13846414 1103.68471608 C-0.13838326 1105.54357687 -0.13829967 1107.40243765 -0.13821335 1109.26129844 C-0.13698806 1138.1770127 -0.15199779 1167.09268005 -0.17935848 1196.00838089 C-0.21009593 1228.50603103 -0.22728997 1261.00365035 -0.22543204 1293.50131595 C-0.22528278 1296.96824892 -0.22518537 1300.43518189 -0.22512341 1303.90211487 C-0.22508844 1305.18255443 -0.22508844 1305.18255443 -0.22505277 1306.48886146 C-0.22499129 1320.21136629 -0.23774972 1333.93383031 -0.25498793 1347.65632302 C-0.27196193 1361.45411313 -0.27390444 1375.25184368 -0.26076929 1389.04963847 C-0.25339185 1397.24033515 -0.2570019 1405.43085063 -0.27665397 1413.62152802 C-0.29010502 1419.74673565 -0.28251041 1425.87175127 -0.26690753 1431.99695002 C-0.26383754 1434.46798387 -0.26746985 1436.93903746 -0.27862768 1439.41004802 C-0.37198911 1461.5596447 1.70760307 1481.12577643 17.79085636 1497.91658401 C31.64987066 1510.48948178 48.21692724 1514.54056271 66.41422176 1514.22554207 C67.7179624 1514.21156234 69.02170303 1514.19758261 70.36495095 1514.18317926 C73.22251953 1514.15243431 76.07989529 1514.11500456 78.93731175 1514.07242213 C83.6218193 1514.00271642 88.30643987 1513.94828957 92.99116337 1513.89542115 C99.88090727 1513.81621384 106.77053656 1513.73014351 113.66014194 1513.63971901 C131.80383126 1513.40235252 149.94800681 1513.20566644 168.09213512 1513.00528157 C171.16284283 1512.97122852 174.23354588 1512.93678006 177.30424806 1512.90223321 C209.39229776 1512.54197616 241.48029939 1512.27005499 273.56969547 1512.06358719 C274.65462381 1512.05656459 275.73955214 1512.04954199 276.85735709 1512.04230658 C299.28391372 1511.89729506 321.71052293 1511.76214135 344.13719595 1511.63644873 C356.8360578 1511.56515145 369.53489884 1511.49063941 382.23372746 1511.41365433 C383.38305098 1511.40673785 384.5323745 1511.39982138 385.71652601 1511.39269532 C422.87038478 1511.1677516 460.01918284 1510.75281257 497.17008649 1510.23994202 C535.43173889 1509.71279906 573.6901843 1509.38692355 611.9554972 1509.30544848 C617.38226258 1509.29378886 622.80901983 1509.27984356 628.23577595 1509.26448822 C629.30359034 1509.26153299 630.37140473 1509.25857776 631.47157713 1509.25553298 C648.52967815 1509.20249983 665.57836094 1508.94233032 682.63285133 1508.60038548 C699.85236368 1508.2595987 717.06241032 1508.1444786 734.28506993 1508.24654131 C743.59047138 1508.29571709 752.8706707 1508.2538628 762.17119694 1507.92864037 C797.50246695 1506.73924109 824.84813646 1507.81422426 851.72259716 1532.91593341 C865.2544306 1545.89690941 878.01613886 1560.08990641 889.23226261 1575.13142776 C889.23226261 1575.46142776 889.23226261 1575.79142776 889.23226261 1576.13142776 C803.35821303 1576.18285658 717.48416158 1576.23055361 631.61010075 1576.25845718 C630.33873526 1576.25887136 629.06736978 1576.25928553 627.75747807 1576.25971225 C600.79894156 1576.2684727 573.8404049 1576.27663121 546.881868 1576.2840668 C533.33879105 1576.28780285 519.79571413 1576.29165777 506.25263725 1576.29562509 C504.20977291 1576.29622284 502.16690856 1576.29681719 500.12404421 1576.29741141 C468.68367398 1576.30658644 437.24330723 1576.31830359 405.80294132 1576.33742142 C404.78969959 1576.33803746 404.78969959 1576.33803746 403.75598834 1576.33866595 C392.86569459 1576.34530269 381.97540097 1576.35215366 371.08510737 1576.35903309 C325.49972547 1576.38782473 279.91434933 1576.40699579 234.32895764 1576.41317274 C227.98333712 1576.41403717 221.63771663 1576.41501408 215.29209614 1576.41605949 C214.04321141 1576.41626176 212.79432668 1576.41646403 211.50759696 1576.41667243 C191.42009816 1576.42021484 171.33261932 1576.43412163 151.24512866 1576.45192387 C131.04068223 1576.46960786 110.83625554 1576.47632612 90.63180165 1576.4719319 C78.6343167 1576.46965364 66.63690414 1576.47570234 54.63943229 1576.49382039 C46.61416989 1576.50510949 38.58895465 1576.50539111 30.56368894 1576.49692321 C25.99802696 1576.49241489 21.43250143 1576.49250134 16.86685435 1576.50607731 C-40.61575062 1576.66678033 -90.06688535 1562.3290378 -131.95523739 1521.25642776 C-138.15981498 1515.01093637 -143.56507241 1508.22120058 -148.76773739 1501.13142776 C-149.18233212 1500.57713089 -149.59692684 1500.02283401 -150.02408504 1499.45174026 C-170.17574735 1472.23142115 -182.98707523 1436.17413988 -182.89538789 1402.17146468 C-182.89703867 1401.29846816 -182.89868945 1400.42547165 -182.90039025 1399.52602069 C-182.90470666 1396.59855324 -182.9019166 1393.67113631 -182.89916515 1390.7436676 C-182.90081519 1388.61543245 -182.90290165 1386.4871976 -182.90538526 1384.35896325 C-182.91095653 1378.48699569 -182.91027864 1372.61504271 -182.90860767 1366.74307336 C-182.90787736 1360.36356031 -182.91289766 1353.9840514 -182.91718268 1347.60454011 C-182.92388526 1336.41542129 -182.92686047 1325.22630641 -182.92731762 1314.03718567 C-182.92782 1302.03020074 -182.93046682 1290.02321918 -182.93572521 1278.01623535 C-182.93605535 1277.25802914 -182.93638548 1276.49982292 -182.93672562 1275.71864076 C-182.93807562 1272.63059117 -182.93943828 1269.54254159 -182.94081772 1266.45449202 C-182.95712131 1229.89180402 -182.96350658 1193.32911667 -182.96826559 1156.76642565 C-182.97064884 1138.55905933 -182.97435234 1120.35169338 -182.97830269 1102.14432735 C-182.99096762 1043.73817821 -183.00175119 985.33202908 -183.00514315 926.92587859 C-183.00530539 924.13427158 -183.00547095 921.34266457 -183.00563753 918.55105756 C-183.00597133 912.95246036 -183.00630181 907.35386316 -183.00663209 901.75526595 C-183.00701899 895.20069124 -183.00740859 888.64611652 -183.00780315 882.09154181 C-183.00791557 880.21557028 -183.00802699 878.33959875 -183.00813741 876.46362722 C-183.01168637 816.22192075 -183.02676257 755.98022622 -183.05007515 695.7385243 C-183.06681956 652.45201327 -183.08229303 609.16550449 -183.08681011 565.87899017 C-183.0869036 564.9885445 -183.08699708 564.09809883 -183.0870934 563.18066995 C-183.08911258 543.63183142 -183.09026852 524.08299293 -183.09062199 504.5341543 C-183.09075816 497.53885846 -183.09096715 490.54356262 -183.09121524 483.54826678 C-183.0912768 481.80802779 -183.09133512 480.06778881 -183.09139019 478.32754982 C-183.09230955 450.61145245 -183.1022723 422.89536754 -183.11684768 395.17927427 C-183.13147318 367.25607105 -183.13649962 339.33288312 -183.12842813 311.40967675 C-183.12731282 307.54759549 -183.12630214 303.68551422 -183.12535381 299.82343292 C-183.12516385 299.06638737 -183.12497388 298.30934181 -183.12477815 297.52935549 C-183.12204883 285.56187255 -183.12937257 273.59441795 -183.14092718 261.62694117 C-183.15208984 249.84738364 -183.15222767 238.06786918 -183.141557 226.28831089 C-183.13616171 219.99196286 -183.13546556 213.69571295 -183.14806572 207.39937302 C-183.15944962 201.66285039 -183.15683098 195.92650521 -183.14339864 190.18998855 C-183.14097813 188.13585352 -183.14350053 186.0817046 -183.15179512 184.02758488 C-183.30664639 142.95423592 -170.89304541 103.85607281 -145.76773739 71.13142776 C-145.13738583 70.2948262 -144.50703426 69.45822464 -143.85758114 68.59627151 C-114.10614555 30.59010235 -70.49505362 7.49807209 -23.14189285 0.60350919 C-15.46422819 -0.22597967 -7.71245761 -0.00847111 0 0 Z M134.60726261 81.63142776 C124.42816896 93.79314774 120.11572932 109.25247543 120.10083485 124.83623219 C120.09878221 125.5720348 120.09672958 126.30783741 120.09461474 127.06593707 C120.08897964 129.52093569 120.09039765 131.97587759 120.09182072 134.4308815 C120.08923508 136.21313476 120.08622136 137.99538744 120.08281732 139.77763933 C120.07476743 144.6674897 120.07295887 149.55732537 120.07221985 154.44718158 C120.07036579 159.72413644 120.06281669 165.00108374 120.05608463 170.27803421 C120.04251516 181.81332268 120.03647877 193.34860767 120.03207397 204.88390279 C120.02930925 212.08966155 120.02507148 219.29541898 120.0205698 226.50117683 C120.00837902 246.4607386 119.99807928 266.42029929 119.99469471 286.37986469 C119.99447514 287.65678597 119.99425558 288.93370724 119.99402936 290.2493231 C119.99381108 291.52925888 119.9935928 292.80919467 119.99336791 294.1279164 C119.99292445 296.72145339 119.99247788 299.31499038 119.99202824 301.90852737 C119.99180681 303.1950049 119.99158538 304.48148243 119.99135724 305.80694412 C119.98741009 326.64763277 119.96995772 347.48828643 119.94666871 368.32896156 C119.92293882 389.73737358 119.91049211 411.14576806 119.90932679 432.55419344 C119.90841096 444.56953648 119.90268181 456.58483394 119.88450718 468.60016441 C119.86908411 478.83230379 119.86399877 489.06438349 119.87224528 499.29653228 C119.87614393 504.51355261 119.87526058 509.73045283 119.86118793 514.94745827 C119.84840206 519.73133719 119.84968749 524.51500633 119.86177865 529.29888516 C119.86372755 531.02164916 119.8606949 532.74442826 119.85193428 534.46717108 C119.75414042 555.01282721 123.15820208 573.85051906 138.23226261 589.13142776 C153.22696252 602.55463074 169.43011171 606.4548788 189.02496147 606.38590336 C190.39618392 606.38829748 191.76740508 606.3915654 193.13862363 606.39561996 C196.89471482 606.40420514 200.65070554 606.40042806 204.40679818 606.39456423 C208.49776578 606.39038266 212.58871542 606.39780226 216.67967862 606.40371674 C223.84581443 606.4124717 231.01192166 606.41379336 238.17806149 606.41021347 C248.83455226 606.40490402 259.49101539 606.41100422 270.14750316 606.4192964 C290.28758156 606.43453727 310.42764739 606.43624139 330.56773034 606.43377338 C346.11988725 606.43194076 361.67204004 606.43369967 377.22419643 606.43799782 C379.4585208 606.43860022 381.69284516 606.43920142 383.92716953 606.43980142 C387.29407807 606.44070867 390.66098662 606.44161734 394.02789516 606.44253377 C425.33203983 606.45096346 456.63618295 606.45529888 487.9403286 606.45112705 C489.12045471 606.45097068 490.30058083 606.4508143 491.51646834 606.45065319 C497.49782065 606.4498474 503.47917295 606.44900163 509.46052525 606.44813988 C510.64844154 606.4479688 511.83635784 606.44779771 513.06027159 606.44762144 C515.46252669 606.44727478 517.86478179 606.44692625 520.26703688 606.44657585 C557.64827705 606.44121834 595.02949364 606.44914985 632.41072941 606.46760941 C674.40884474 606.48832457 716.40694546 606.49905306 758.40506619 606.49503392 C762.88300462 606.49463857 767.36094306 606.49427703 771.83888149 606.49393654 C772.9414633 606.49384581 774.04404511 606.49375508 775.18003849 606.49366159 C791.82560425 606.49249555 808.47115526 606.49914442 825.11671734 606.50974846 C844.04700613 606.52179568 862.97726241 606.5233649 881.90755168 606.51095829 C892.50038472 606.50432664 903.09314005 606.50596784 913.68596687 606.51954681 C920.76433352 606.52778864 927.84264192 606.52509719 934.92100383 606.51357154 C938.9522092 606.50731254 942.9832629 606.50572097 947.01445953 606.51743487 C950.68859684 606.52801277 954.36245469 606.52454971 958.03657727 606.51033035 C959.96623127 606.50635524 961.89589897 606.51695083 963.82552364 606.52830741 C982.89484749 606.41046944 999.51150534 600.72192468 1013.23226261 587.13142776 C1026.82538805 571.44347135 1029.6960582 554.11904847 1029.61994267 534.0855751 C1029.62412223 532.28321734 1029.62960314 530.48086222 1029.63626248 528.67851192 C1029.65065423 523.75623247 1029.64649204 518.83412135 1029.63909566 513.91183293 C1029.63435069 508.59130816 1029.64688561 503.27081912 1029.65711308 497.95030594 C1029.67428064 487.53858375 1029.67514528 477.12692197 1029.66990017 466.7151893 C1029.66585328 458.24928764 1029.6673082 449.78340379 1029.67264843 441.31750298 C1029.67339685 440.11105105 1029.67414527 438.90459912 1029.67491638 437.66158805 C1029.67644791 435.21041069 1029.67798625 432.75923333 1029.67953134 430.30805597 C1029.69324911 407.33795056 1029.68782387 384.36787924 1029.67634613 361.39777461 C1029.66641548 340.40286502 1029.67935284 319.40804359 1029.70328032 298.41314759 C1029.72768765 276.8339328 1029.73727511 255.25475904 1029.7306276 233.67553073 C1029.72713889 221.56912059 1029.72934439 209.46277823 1029.74687862 197.35637856 C1029.76162105 187.05007296 1029.76220937 176.74388286 1029.74480771 166.43757948 C1029.73631204 161.18391834 1029.73411314 155.93046335 1029.74945927 150.67681313 C1029.76335905 145.8584756 1029.75847553 141.04051981 1029.73922003 136.22220407 C1029.73547588 134.4881348 1029.73833575 132.75403457 1029.74883168 131.01999303 C1029.86390174 110.53699077 1025.41238514 93.07553647 1011.05257511 77.81502151 C997.62991646 64.81044567 981.50049482 60.65170932 963.21722507 60.75390434 C961.83399759 60.75076828 960.45077258 60.74631961 959.06755298 60.74069124 C955.28276455 60.72906573 951.49820733 60.73596881 947.71342289 60.7460251 C943.58968177 60.75366026 939.46597509 60.74384556 935.3422389 60.7362951 C928.12016762 60.7254743 920.89816365 60.72577995 913.67608929 60.73343658 C902.9365573 60.74479134 892.19708201 60.73897901 881.45755039 60.72981166 C862.27596814 60.71401749 843.09441586 60.71538241 823.91283076 60.7240484 C807.12671144 60.73159493 790.34060312 60.73356524 773.55448246 60.72998047 C771.88431828 60.72963674 771.88431828 60.72963674 770.18041341 60.72928606 C765.66059149 60.72835204 761.14076957 60.72739684 756.62094765 60.72640677 C714.22115603 60.71722967 671.82138351 60.72555032 629.42159484 60.74169746 C591.75154027 60.75593428 554.08151613 60.7546604 516.41146183 60.74031448 C474.08923962 60.72425076 431.76703428 60.7178805 389.44480944 60.72715127 C384.93322055 60.72811343 380.42163166 60.72905195 375.91004276 60.72998047 C374.24373918 60.73033632 374.24373918 60.73033632 372.54377289 60.73069935 C355.76816332 60.73411184 338.99256593 60.73012081 322.21695805 60.72254181 C303.14243865 60.71396716 284.06795392 60.71610188 264.99343884 60.73238404 C254.3179764 60.74119608 243.64258903 60.74176333 232.96712853 60.73044552 C225.83626808 60.72371929 218.70546783 60.72790341 211.5746163 60.74095982 C207.51180941 60.74809588 203.44915169 60.75053687 199.3863495 60.73974188 C195.68588704 60.73000996 191.9857053 60.73422664 188.28526307 60.74928386 C186.33670308 60.75370165 184.38812638 60.74351242 182.43959183 60.73262101 C163.39809961 60.85404481 147.87841405 68.03074435 134.60726261 81.63142776 Z " fill="#0F7B0F" transform="translate(182.76773738861084,-0.13142776489257813)"/>
<path d="M0 0 C1.2369524 0.3793998 1.2369524 0.3793998 2.49889374 0.76646423 C4.27188099 1.31135974 6.04357791 1.8604687 7.81406403 2.41343689 C11.63262733 3.60583501 15.45759271 4.77706399 19.28219223 5.94992828 C21.27227796 6.56047157 23.26203419 7.17208983 25.25146866 7.78475189 C35.16463941 10.83567968 45.10662158 13.78536802 55.05566406 16.71679688 C56.7987813 17.23127623 58.54187402 17.74583869 60.28494263 18.26048279 C64.72473236 19.57093713 69.16499048 20.87979737 73.60535431 22.1883049 C78.34348612 23.58488524 83.08115539 24.98303294 87.81884766 26.38110352 C89.75717103 26.95308127 91.695495 27.52505698 93.63381958 28.09703064 C94.59477665 28.38059858 95.55573372 28.66416653 96.5458107 28.95632744 C99.44365387 29.81137041 102.34155588 30.66621371 105.23947144 31.52101135 C117.57879897 35.16103013 129.91583045 38.80872864 142.25097656 42.46289062 C143.8375063 42.93280484 145.42403887 43.40270951 147.01057434 43.87260437 C159.5245849 47.57904962 159.5245849 47.57904962 165.16574097 49.2507019 C178.62695368 53.23919395 192.08823752 57.22573941 205.58300781 61.09960938 C206.95652405 61.49428154 206.95652405 61.49428154 208.35778809 61.89692688 C212.34734163 63.0419155 216.33842896 64.18079632 220.33349609 65.30639648 C242.10803621 71.48165476 242.10803621 71.48165476 249.10253906 79.49804688 C249.91349916 81.07584778 250.68052285 82.67665423 251.41333008 84.29223633 C255.95020143 92.80213421 263.05847027 99.05082023 269.87988281 105.72851562 C271.33544589 107.17218498 272.78981705 108.61705697 274.24305725 110.06306458 C278.05175117 113.84714878 281.87477906 117.61639958 285.70159912 121.38214111 C291.08900533 126.68883396 296.45663139 132.01554459 301.8263092 137.34016418 C304.67924818 140.16908994 307.53760345 142.99235595 310.40061951 145.81108093 C311.71526711 147.10929717 313.02988939 148.40753905 314.34448242 149.70581055 C315.21831573 150.56246811 315.21831573 150.56246811 316.10980225 151.43643188 C318.94423959 154.241056 321.64673055 157.0951485 324.23634338 160.12788391 C329.41953465 166.11859873 335.10921196 171.6273434 340.71972656 177.21289062 C341.99039677 178.48163866 343.26083727 179.75061678 344.53106689 181.01980591 C347.25399809 183.7395903 349.97847155 186.45781669 352.7041626 189.17483521 C357.01924986 193.47633404 361.33046134 197.78170353 365.64111328 202.08764648 C374.7919576 211.22741784 383.94702591 220.36295276 393.10253906 229.49804688 C402.98858898 239.36204848 412.87390036 249.22678346 422.75432777 259.09641743 C427.03444321 263.37156812 431.31698085 267.64427265 435.60142517 271.91508484 C438.2714175 274.57758743 440.9393091 277.24218754 443.60665131 279.90734482 C444.83804607 281.13687683 446.07030032 282.3655488 447.30350494 283.59326553 C452.93030729 289.19582696 458.50612109 294.79041808 463.66551399 300.834198 C465.76989206 303.27073662 468.02462953 305.53970739 470.3034668 307.8125 C471.00725716 308.5165094 471.00725716 308.5165094 471.7252655 309.23474121 C473.24319096 310.75198211 474.76460279 312.26567156 476.28613281 313.77929688 C477.35251991 314.84381459 478.41868325 315.90855649 479.4846344 316.97351074 C482.26559313 319.75068521 485.0495435 322.52484113 487.83416748 325.29833984 C490.68523386 328.13910326 493.53340575 330.98276559 496.38183594 333.82617188 C501.95260424 339.38627517 507.52654225 344.94318706 513.10253906 350.49804688 C508.9279041 355.47820588 504.58076162 360.15925702 499.97425842 364.73985291 C498.93267119 365.78166343 498.93267119 365.78166343 497.87004179 366.84452063 C495.55806192 369.15580971 493.24253493 371.46351122 490.92700195 373.77124023 C489.2623964 375.43392531 487.59801935 377.09683917 485.93385315 378.75996399 C482.35693568 382.33372618 478.77847175 385.90593003 475.19880867 389.47694206 C470.01520182 394.6481499 464.83467492 399.82243492 459.6551184 404.99769897 C451.23936539 413.4063948 442.82174681 421.81322023 434.40258789 430.21850586 C433.89941256 430.72085338 433.39623723 431.22320089 432.87781417 431.74077106 C428.79615029 435.81569175 424.7143957 439.89052156 420.63263607 443.96534634 C417.06600235 447.52592761 413.49940447 451.08654479 409.93286133 454.6472168 C409.43060624 455.14864376 408.92835116 455.65007071 408.41087622 456.16669243 C400.02304436 464.54081709 391.63719226 472.9169216 383.25273889 481.29442888 C377.63043159 486.91187056 372.0055865 492.5267583 366.37891209 498.1398257 C362.87529142 501.63597208 359.37375717 505.13420242 355.87277794 508.6329937 C354.25275557 510.25114855 352.6318712 511.86844095 351.01004791 513.4847908 C348.79029672 515.69728805 346.57369306 517.91289352 344.35780334 520.1292572 C343.40233544 521.07933266 343.40233544 521.07933266 342.42756516 522.04860157 C338.68857691 525.79611995 335.14439667 529.66088284 331.69915575 533.6805678 C329.13958246 536.59421071 326.37530959 539.28931165 323.60253906 541.99804688 C319.45598438 546.08728137 315.44896422 550.19880713 311.76269531 554.71679688 C309.41327266 557.23758918 306.76107185 559.30542403 304.10253906 561.49804688 C291.44275496 548.86166709 278.78586853 536.22239245 266.1323843 523.57970428 C260.25652955 517.70899652 254.37974559 511.8392247 248.50073242 505.97167969 C243.37406126 500.85500429 238.24917551 495.73654837 233.12638813 490.61598444 C230.41616316 487.90705829 227.70507804 485.19900625 224.9918499 482.49308777 C222.43291962 479.94099503 219.87640103 477.38651021 217.32163429 474.83024979 C215.94700199 473.45601949 214.56989444 472.08426653 213.19268799 470.71261597 C209.60896089 467.12298338 206.07976745 463.53752778 202.78492737 459.67944336 C197.64830767 453.70990952 191.97095334 448.24418021 186.39355469 442.69140625 C185.11303241 441.4128061 183.83273981 440.1339759 182.55265808 438.85493469 C179.80844589 436.1138695 177.06269133 433.3743623 174.3157196 430.63606262 C169.9670279 426.30095834 165.62221106 421.96198428 161.2779541 417.62243652 C152.05577986 408.41133565 142.82938175 399.20447096 133.60253906 389.99804688 C123.6395004 380.05705598 113.67719993 370.11533201 103.71978331 360.16870928 C99.40621621 355.86010723 95.09022674 351.55395131 90.77233124 347.24968719 C88.08158021 344.5664254 85.39292945 341.88106654 82.70482826 339.19515038 C81.46375808 337.95594311 80.22182834 336.71759596 78.97894859 335.48020363 C67.62083399 324.1706364 67.62083399 324.1706364 62.4194231 318.04598331 C59.09770504 314.14145697 55.40089431 310.5696044 51.79003906 306.93554688 C50.99919922 306.12408203 50.20835937 305.31261719 49.39355469 304.4765625 C44.64320974 299.69534609 39.80877623 295.64553233 34.18139648 291.92944336 C24.80628442 285.47421352 22.65409108 272.09320624 19.75136185 261.7808857 C18.80050839 258.40397043 17.83461835 255.03140967 16.8695507 251.65853405 C16.36541407 249.89643175 15.86196861 248.13413156 15.3591938 246.37164021 C12.80292356 237.41865634 10.1670256 228.4899363 7.51660156 219.56445312 C7.04522533 217.97510873 6.57388669 216.38575318 6.10258484 214.79638672 C5.14104697 211.55484132 4.17880546 208.31350586 3.21603394 205.07232666 C1.67365179 199.87984337 0.13318108 194.68679409 -1.40698242 189.49365234 C-1.93882503 187.70043872 -2.47067013 185.90722583 -3.0025177 184.11401367 C-3.26677866 183.22300964 -3.53103962 182.33200562 -3.80330849 181.41400146 C-4.60313923 178.71745199 -5.40312904 176.02094977 -6.20317078 173.32446289 C-9.67140308 161.63472928 -13.13616394 149.94397342 -16.59667969 138.25195312 C-16.82314682 137.48682907 -17.04961395 136.72170502 -17.28294373 135.93339539 C-19.70792728 127.74003586 -22.13091211 119.54608996 -24.55029297 111.35107422 C-25.18336167 109.20696835 -25.81645239 107.06286898 -26.4495697 104.91877747 C-26.86345576 103.51710591 -27.27730498 102.11542347 -27.69111633 100.71372986 C-30.24026783 92.08052645 -32.80405317 83.45189193 -35.38597107 74.82843018 C-36.8143587 70.05494882 -38.23625585 65.27954802 -39.65719604 60.50384521 C-40.30668821 58.327449 -40.95935109 56.15199595 -41.61550903 53.9776001 C-42.50411745 51.03235637 -43.38167721 48.08402881 -44.25683594 45.13476562 C-44.64109993 43.87745384 -44.64109993 43.87745384 -45.03312683 42.59474182 C-47.85008704 33.00774012 -49.4632673 23.33440174 -44.67089844 14.14648438 C-38.92109774 4.95295279 -32.78583509 1.08204958 -22.69042969 -2.71679688 C-14.92348567 -4.32457828 -7.43321242 -2.35866913 0 0 Z M58.86816406 88.15820312 C58.27074402 88.74089462 57.67332397 89.32358612 57.05780029 89.92393494 C55.79628267 91.16148154 54.53899973 92.40335732 53.28564453 93.64916992 C51.3647282 95.54849474 49.41653891 97.41651868 47.46582031 99.28515625 C46.24396579 100.49101492 45.0238537 101.69864221 43.80566406 102.90820312 C43.2193219 103.46266617 42.63297974 104.01712921 42.02886963 104.58839417 C41.23244049 105.39844154 41.23244049 105.39844154 40.41992188 106.22485352 C39.94709778 106.68896133 39.47427368 107.15306915 38.98712158 107.63124084 C36.64177334 112.58081891 39.89792844 119.6929075 41.41235352 124.73608398 C41.64681686 125.53116867 41.88128021 126.32625336 42.12284851 127.14543152 C42.89914106 129.77350097 43.68242747 132.39942976 44.46582031 135.02539062 C45.01897958 136.89242121 45.57172076 138.7595757 46.12406921 140.62684631 C47.58643569 145.56608064 49.05480935 150.50350989 50.52435303 155.44061279 C51.97158213 160.30692436 53.41266805 165.17505366 54.85449219 170.04296875 C62.21457417 194.87809063 69.6433191 219.69254005 77.10253906 244.49804688 C79.31731548 243.40113108 81.53090654 242.30192566 83.74389648 241.20141602 C84.36355034 240.894813 84.98320419 240.58820999 85.62163544 240.27231598 C91.37077869 237.40937083 96.89939529 234.22438981 102.41503906 230.93554688 C109.84502358 226.55125858 117.30089241 222.22784191 124.83984375 218.03320312 C126.97125137 216.84424581 129.09696294 215.64501868 131.21679688 214.43554688 C135.70706778 211.88100613 140.1257969 209.41846306 144.89160156 207.41601562 C159.26302464 201.01961624 164.60383678 187.54654199 171.25195312 174.16259766 C173.87638566 168.91116866 176.79863356 163.83407895 179.72753906 158.74804688 C180.76670946 156.91942034 181.80446271 155.08998776 182.84082031 153.25976562 C183.36240723 152.3398584 183.88399414 151.41995117 184.42138672 150.47216797 C189.68166675 141.16622383 194.88650732 131.82883006 200.10253906 122.49804688 C196.46621334 120.46974804 192.60820562 119.3490288 188.63574219 118.18237305 C187.88576745 117.95889977 187.13579271 117.7354265 186.36309147 117.50518131 C183.8710274 116.76358565 181.37742656 116.02730161 178.88378906 115.29101562 C177.12392311 114.76844808 175.36415421 114.2455536 173.60447693 113.72235107 C168.90671537 112.32660529 164.20760431 110.93545785 159.50815964 109.54539108 C154.68421874 108.11786896 149.86133488 106.68678446 145.03833008 105.25610352 C138.39179868 103.28490196 131.74480942 101.31525708 125.09725666 99.34750271 C115.67790273 96.5591866 106.26180616 93.76027995 96.84863281 90.95117188 C93.82191542 90.04971626 90.79505069 89.14875845 87.76806641 88.24819946 C85.95828078 87.70908208 84.14886859 87.16870941 82.33984375 86.62704468 C79.91678472 85.90191501 77.49232416 85.18169548 75.06738281 84.46289062 C74.38711533 84.25790955 73.70684784 84.05292847 73.00596619 83.84173584 C65.96304274 81.76671639 63.90671266 83.20341388 58.86816406 88.15820312 Z " fill="#0F7B0F" transform="translate(776.8974609375,853.501953125)"/>
<path d="M0 0 C60.06 0 120.12 0 182 0 C182 140.25 182 280.5 182 425 C121.94 425 61.88 425 0 425 C0 284.75 0 144.5 0 0 Z " fill="#0F7B0F" transform="translate(909,121)"/>
<path d="M0 0 C1.12678055 0.96231811 2.25307015 1.92521109 3.37915039 2.88834858 C4.32003258 3.69257314 4.32003258 3.69257314 5.27992249 4.51304466 C7.05280949 6.04565222 8.76390562 7.62010047 10.4375 9.26049805 C11.015 9.82516281 11.5925 10.38982758 12.1875 10.97160339 C12.785625 11.56234146 13.38375 12.15307953 14 12.76171875 C14.639375 13.393022 15.27875 14.02432526 15.9375 14.67475891 C17.28010305 16.00362577 18.62123048 17.33398503 19.9609375 18.66577148 C21.31584427 20.00916025 22.67520499 21.34807232 24.0390625 22.68237305 C40.89793538 39.17713659 51.71614039 56.40650003 52.4375 80.8125 C52.21241241 105.85805661 39.74270899 123.55546855 22.58349609 140.72290039 C21.56032591 141.75371371 20.53755111 142.7849196 19.51513672 143.81648254 C16.76345378 146.58990093 14.0054205 149.35691373 11.24540663 152.12203908 C9.51421097 153.85690233 7.78431455 155.59305085 6.05482864 157.32961845 C0.0010573 163.40780828 -6.05834608 169.48032374 -12.12255859 175.5480957 C-17.74319318 181.17236301 -23.35055923 186.80962556 -28.95203078 192.45297247 C-33.78927466 197.32508485 -38.63626873 202.1873571 -43.49063051 207.04241365 C-46.37759515 209.93016526 -49.26057905 212.82161813 -52.13353348 215.72331429 C-54.83935298 218.45560154 -57.55727322 221.17528234 -60.2842865 223.88641167 C-61.27289423 224.87322768 -62.25739331 225.86418345 -63.2369957 226.85993958 C-77.31055578 241.15098697 -94.9600848 252.02092059 -115.49609375 252.38061523 C-136.77259978 252.3351695 -153.8681056 245.71466029 -169.3359375 230.73828125 C-170.8490318 229.21744074 -172.35441734 227.68888746 -173.8515625 226.15234375 C-175.83374207 224.16656022 -177.86913329 222.32344918 -180 220.5 C-183.80507223 217.23959019 -187.29541022 213.72218825 -190.8125 210.15625 C-193.74550881 207.26514131 -196.83154573 204.62914291 -200 202 C-198.62373101 198.91134879 -197.04893841 196.79982471 -194.66166496 194.41556931 C-193.96797054 193.71789279 -193.27427612 193.02021627 -192.55956066 192.30139804 C-191.79497858 191.54264164 -191.0303965 190.78388525 -190.24264526 190.00213623 C-189.43239305 189.19017516 -188.62214083 188.3782141 -187.78733552 187.54164815 C-185.53794364 185.28953007 -183.28411789 183.04196081 -181.02835679 180.79622555 C-178.59666797 178.37316878 -176.17075665 175.94433992 -173.74414062 173.51620483 C-169.53927345 169.31028865 -165.33075816 165.1080516 -161.11974716 160.90828705 C-155.03132952 154.83611932 -148.94843805 148.75844042 -142.86688377 142.67939964 C-132.99996169 132.81685546 -123.12858099 122.95878645 -113.25439453 113.10351562 C-103.66220897 103.5296864 -94.07212497 93.95376011 -84.48486328 84.375 C-83.8939636 83.78462577 -83.30306393 83.19425154 -82.6942582 82.58598718 C-79.72991898 79.62425802 -76.76562106 76.66248752 -73.80134368 73.70069647 C-49.2072967 49.12738495 -24.60601299 24.56132936 0 0 Z " fill="#0F7B0F" transform="translate(1395,1316)"/>
<path d="M0 0 C3.01176659 1.4364522 4.85360088 2.67879273 7 5.25 C7.60457031 5.96285156 8.20914062 6.67570312 8.83203125 7.41015625 C9.54746094 8.26480469 10.26289062 9.11945313 11 10 C12.89006578 12.23410182 14.78755422 14.46179694 16.6875 16.6875 C17.19901611 17.28763916 17.71053223 17.88777832 18.23754883 18.50610352 C22.27055606 23.2117996 26.45026791 27.76129302 30.68334961 32.28662109 C35.36988467 37.32910539 39.72016392 42.60697423 44 48 C42.60624465 51.14299753 40.97931512 53.26974387 38.55234337 55.69375229 C37.47522608 56.77684272 37.47522608 56.77684272 36.37634885 57.88181376 C35.58453014 58.6678068 34.79271142 59.45379983 33.97689819 60.26361084 C33.13806111 61.10415677 32.29922403 61.94470271 31.43496764 62.81071973 C29.10575509 65.14265894 26.77213392 67.47002193 24.43655586 69.79557538 C21.91897732 72.30452318 19.40717484 74.8192418 16.89466858 77.33326721 C12.5408352 81.68814968 8.18335269 86.03935308 3.8233757 90.38808441 C-2.48042498 96.67563631 -8.77870081 102.96869855 -15.07563858 109.26312271 C-25.2919607 119.47506675 -35.51274189 129.68253577 -45.73632812 139.88720703 C-55.6680317 149.80055473 -65.59763414 159.71599923 -75.52441406 169.63427734 C-76.13622271 170.24556054 -76.74803136 170.85684374 -77.37837966 171.48665068 C-80.44760738 174.55326834 -83.51679379 177.61992733 -86.58595967 180.68660688 C-112.05090556 206.13081676 -137.52308866 231.56777125 -163 257 C-165.87702372 255.61559292 -167.95257101 254.29567684 -170.20703125 252.0234375 C-170.79419922 251.43433594 -171.38136719 250.84523438 -171.98632812 250.23828125 C-172.58896484 249.62339844 -173.19160156 249.00851562 -173.8125 248.375 C-174.69905273 247.48748047 -174.69905273 247.48748047 -175.60351562 246.58203125 C-178.65132191 243.50431192 -181.58082708 240.36532423 -184.40625 237.08203125 C-188.28223263 232.60085037 -192.46302958 228.46279184 -196.6875 224.3125 C-205.58372678 215.57005415 -205.58372678 215.57005415 -209 211 C-207.60134393 207.84157211 -205.95932968 205.71028575 -203.52110863 203.27501297 C-202.79606365 202.54598589 -202.07101866 201.81695881 -201.32400262 201.06584001 C-200.52440201 200.27206507 -199.72480139 199.47829014 -198.90097046 198.66046143 C-198.05396627 197.81174839 -197.20696208 196.96303535 -196.3342911 196.08860373 C-193.98227578 193.73386162 -191.62585071 191.3836952 -189.26746988 189.03533864 C-186.72535141 186.50185055 -184.18900861 183.96259199 -181.65196228 181.42402649 C-177.25556712 177.02658222 -172.85552256 172.63281701 -168.45298386 168.24152374 C-162.08764516 161.89243352 -155.72783095 155.53783317 -149.36935504 149.18187091 C-139.05320433 138.87009833 -128.73259444 128.56280074 -118.40917969 118.25830078 C-108.38047096 108.24794781 -98.35386326 98.23549811 -88.33007812 88.22021484 C-87.71229549 87.60295765 -87.09451285 86.98570046 -86.45800953 86.34973851 C-83.35881366 83.25315271 -80.25965911 80.15652557 -77.16052508 77.05987787 C-51.44675093 51.36683988 -25.72573947 25.68105716 0 0 Z " fill="#0F7B0F" transform="translate(1323,1235)"/>
</svg>
