<?xml version="1.0" encoding="UTF-8"?>
<svg version="1.1" xmlns="http://www.w3.org/2000/svg" width="980" height="982">
<path d="M0 0 C17.41796922 7.94914031 30.93659317 24.73917966 44.24870312 38.06340444 C47.08831907 40.90343333 49.9336759 43.73770186 52.7782135 46.57279968 C58.33166375 52.10974593 63.87965163 57.65213326 69.42541561 63.19677704 C73.93588265 67.70628926 78.44793465 72.21420957 82.96108055 76.72104073 C95.78632446 89.52870719 108.60740433 102.34052104 121.42311034 115.15773147 C122.45612556 116.19086655 122.45612556 116.19086655 123.51000977 117.24487305 C124.54429883 118.27928475 124.54429883 118.27928475 125.59948262 119.33459366 C136.78438985 130.52031452 147.97925339 141.69601187 159.17864368 152.86723023 C170.70719179 164.36700896 182.22822329 175.87427153 193.74153298 187.38930708 C200.19403055 193.84246677 206.64953151 200.29255244 213.11315346 206.73457146 C218.61243993 212.21559349 224.10466829 217.70357091 229.58805976 223.20049661 C232.38116633 226.00010406 235.17729978 228.79648783 237.9823761 231.58410645 C240.55757719 234.14344551 243.12310837 236.71210377 245.6817229 239.28802151 C247.03173673 240.64250001 248.39146215 241.9872784 249.75168496 243.33150429 C261.99193574 255.70831595 270.24372627 268.27923062 270.47265625 286.078125 C270.29074217 304.07426788 262.47071009 316.20737331 249.94807434 328.61064148 C248.931065 329.63226845 247.91492784 330.65476426 246.89958113 331.67804366 C244.12709587 334.46712723 241.34239589 337.24371923 238.55539358 340.01828635 C235.5439644 343.02062816 232.54411439 346.03450308 229.54272461 349.046875 C223.66881604 354.93853476 217.78418752 360.81937228 211.89559601 366.69635304 C207.10777334 371.47512741 202.32388712 376.25780965 197.54276085 381.04328346 C196.86123551 381.72542173 196.17971018 382.40756 195.47753256 383.11036912 C194.09285689 384.49632375 192.70819017 385.88228732 191.32353231 387.26825974 C178.35026821 400.25291991 165.36479023 413.22530962 152.3750781 426.19351248 C141.24138755 437.30933698 130.1182203 448.43560128 119.00268555 459.56958008 C106.08115617 472.51254028 93.1531306 485.44895474 80.21474761 498.37506896 C78.83370021 499.75484222 77.45266114 501.13462382 76.07163048 502.51441383 C75.05250426 503.53261439 75.05250426 503.53261439 74.01278964 504.57138466 C69.23672845 509.3439993 64.46530988 514.12122498 59.69568825 518.90027428 C53.87830031 524.72890833 48.05378274 530.55030498 42.22015379 536.36268576 C39.24669961 539.32566412 36.27646512 542.29168283 33.31489372 545.26654243 C30.59870837 547.99472975 27.87330989 550.71335991 25.14056703 553.42495892 C23.69685974 554.8621482 22.26285814 556.30906743 20.82933742 557.75641745 C12.4246993 566.06127332 2.88300142 574.33713213 -9.52734375 574.390625 C-15.84311917 574.23679015 -19.71681074 572.65320201 -24.15234375 568.140625 C-32.82276848 557.39931143 -32.17625077 542.59610782 -32.14086914 529.58398438 C-32.14058669 528.12469484 -32.14074613 526.66540517 -32.14131165 525.20611572 C-32.14159737 521.26455381 -32.135737 517.32302262 -32.12873769 513.38146782 C-32.12246672 509.25484245 -32.1218974 505.12821631 -32.12071228 501.00158691 C-32.11760998 493.19616739 -32.10941147 485.39076194 -32.09936279 477.58534861 C-32.08816741 468.69537045 -32.08268258 459.8053916 -32.07766736 450.91540813 C-32.06722791 432.63630579 -32.04964985 414.35721653 -32.02734375 396.078125 C-38.62702638 396.18983849 -45.22654296 396.30916647 -51.82600403 396.43327332 C-54.06118308 396.47447039 -56.29639252 396.51405706 -58.53163147 396.55186462 C-126.80698487 397.71303944 -196.99343409 406.98246586 -259.02734375 437.078125 C-260.05891602 437.56829102 -260.05891602 437.56829102 -261.11132812 438.06835938 C-282.6030907 448.2857547 -302.78969474 460.75284474 -321.02734375 476.078125 C-321.55924316 476.52124023 -322.09114258 476.96435547 -322.63916016 477.42089844 C-333.27118133 486.29524229 -343.15602448 495.4451324 -351.81640625 506.30859375 C-353.26511179 508.12331501 -354.73848363 509.91867726 -356.23828125 511.69140625 C-366.43791268 523.76991715 -374.68475681 537.10884557 -382.02734375 551.078125 C-382.42421387 551.82707031 -382.82108398 552.57601562 -383.22998047 553.34765625 C-395.1374111 576.13283886 -402.73824128 600.77740778 -407.02734375 626.078125 C-407.15044922 626.76793457 -407.27355469 627.45774414 -407.40039062 628.16845703 C-413.16997458 661.07044839 -410.11176868 696.47059565 -397.23852539 727.33129883 C-394.48024765 734.07419879 -393.57255776 738.93169044 -395.9921875 745.828125 C-398.96553704 752.51578658 -398.96553704 752.51578658 -402.40234375 754.3359375 C-409.10574664 756.23124487 -415.04555677 755.67554434 -421.140625 752.34375 C-456.19371793 728.829874 -473.15820594 654.84280258 -481.02734375 616.078125 C-482.9916898 605.78587731 -484.61709273 595.46124385 -486.02734375 585.078125 C-486.16011719 584.11406738 -486.29289063 583.15000977 -486.4296875 582.15673828 C-495.21990593 514.68687349 -481.913119 443.78667028 -452.02734375 383.078125 C-451.60984863 382.22927734 -451.19235352 381.38042969 -450.76220703 380.50585938 C-439.42523264 357.7149882 -425.27690414 336.19152533 -408.54296875 316.99609375 C-406.2808983 314.37223252 -404.15381466 311.68656103 -402.02734375 308.953125 C-397.51870356 303.40528825 -392.51471659 298.38283489 -387.46484375 293.328125 C-386.66111328 292.52358887 -385.85738281 291.71905273 -385.02929688 290.89013672 C-380.18420644 286.08976102 -375.20883972 281.51140819 -370.02734375 277.078125 C-369.05152344 276.22089844 -368.07570313 275.36367188 -367.0703125 274.48046875 C-294.86602596 212.15364959 -201.19657732 182.92053478 -51.77734375 172.015625 C-49.84505327 172.02066039 -47.91276149 172.02521962 -45.98046875 172.02929688 C-41.32939383 172.04011724 -36.67838402 172.057264 -32.02734375 172.078125 C-32.03010913 171.00746827 -32.03010913 171.00746827 -32.03293037 169.91518211 C-32.0772279 152.49384595 -32.11025771 135.07252421 -32.13096809 117.65114403 C-32.14125139 109.22606754 -32.15525493 100.80102881 -32.17822266 92.37597656 C-32.19824724 85.02698763 -32.21108156 77.67802606 -32.21552074 70.32901061 C-32.21811287 66.44296289 -32.224143 62.5569934 -32.23880386 58.67097092 C-32.25253161 55.00203061 -32.25653623 51.33319962 -32.25355911 47.66423607 C-32.25435873 45.69882679 -32.26503991 43.733429 -32.27618408 41.76805115 C-32.24314273 27.27869241 -31.39769978 13.76198533 -21.58984375 2.48828125 C-15.74538646 -2.78634146 -7.14049255 -2.17439515 0 0 Z " fill="#010101" transform="translate(710.02734375,0.921875)"/>
<path d="M0 0 C2.6102156 -0.00457438 5.22042999 -0.00988363 7.8306427 -0.0158844 C13.2553818 -0.02581317 18.68000085 -0.02271163 24.10473633 -0.01245117 C30.34445839 -0.00090893 36.58375366 -0.01518324 42.82341975 -0.04184765 C48.88578696 -0.06676566 54.94795859 -0.06917055 61.01037025 -0.06273079 C63.56629463 -0.06257815 66.1222275 -0.06857435 68.67812157 -0.08102226 C72.24691764 -0.0959778 75.81477724 -0.08522524 79.38354492 -0.06811523 C80.94148521 -0.08261719 80.94148521 -0.08261719 82.53089905 -0.09741211 C93.71137503 0.01425657 103.1803965 3.53213069 111.20703125 11.43359375 C117.56879548 18.79764906 120.97142423 28.20833198 120.55078125 37.98828125 C119.06706648 48.54288859 115.37479705 57.38623145 107.03515625 64.2109375 C98.67576861 70.10574706 91.32291277 71.880542 81.25561523 71.83422852 C79.65140465 71.84469711 79.65140465 71.84469711 78.01478577 71.8553772 C74.49415112 71.87530032 70.97381094 71.87485364 67.453125 71.875 C64.98941771 71.88678307 62.52571754 71.90014955 60.06202698 71.9150238 C53.57905627 71.95117968 47.09614851 71.97139486 40.61309814 71.98657227 C30.26299831 72.01140448 19.91303784 72.051456 9.56306648 72.10847282 C5.9678271 72.12465257 2.37272166 72.12856668 -1.22254944 72.13148499 C-35.20166549 72.24059142 -62.60769333 79.74489666 -87.79296875 103.43359375 C-88.69982422 104.22636719 -88.69982422 104.22636719 -89.625 105.03515625 C-106.19734977 120.17149445 -116.86447748 146.29068692 -117.88651887 168.46309184 C-117.92305807 170.74552124 -117.92941491 173.02607947 -117.92439651 175.30879879 C-117.92747547 176.62052507 -117.92747547 176.62052507 -117.93061662 177.95875087 C-117.93627489 180.8915364 -117.93483081 183.8242748 -117.93341064 186.75706482 C-117.93599496 188.88010066 -117.9390083 191.00313601 -117.94241405 193.12617069 C-117.95047964 198.96267994 -117.95227338 204.79917689 -117.95301151 210.63569105 C-117.95486286 216.92973305 -117.96241065 223.22376869 -117.96914673 229.51780701 C-117.98343608 244.00024062 -117.98925645 258.48267103 -117.99383867 272.96511038 C-117.99617614 280.12554821 -117.99977898 287.28598525 -118.00353405 294.44642247 C-118.01636903 318.96883258 -118.02708776 343.49124226 -118.03053665 368.01365566 C-118.03075828 369.55256128 -118.03098007 371.09146691 -118.031202 372.63037253 C-118.03142264 374.17294739 -118.03164312 375.71552225 -118.03186345 377.25809711 C-118.032306 380.35264742 -118.03275311 383.44719774 -118.03320312 386.54174805 C-118.03331252 387.30901453 -118.03342191 388.07628101 -118.03353461 388.86679799 C-118.03716375 413.73512729 -118.05307868 438.6034274 -118.07639349 463.47174553 C-118.10101162 489.77845373 -118.11471043 516.08514526 -118.11590457 542.39186531 C-118.11607602 545.28198088 -118.11629144 548.17209643 -118.116539 551.06221199 C-118.11659477 551.77381337 -118.11665054 552.48541474 -118.116708 553.2185798 C-118.11785678 564.65106625 -118.12886414 576.08352267 -118.14342606 587.51599899 C-118.15782096 599.01660582 -118.16075953 610.51716035 -118.15298608 622.01777636 C-118.1490844 628.24348905 -118.14998573 634.46910108 -118.16404343 640.69480133 C-118.17681106 646.40150546 -118.17555961 652.10803358 -118.16345271 657.81473757 C-118.16150067 659.87200161 -118.16455118 661.92927825 -118.17329708 663.98652463 C-118.23387763 679.20832828 -117.19219411 693.6233735 -111.66796875 707.99609375 C-111.36721436 708.78781982 -111.06645996 709.5795459 -110.7565918 710.39526367 C-101.24551864 734.46691638 -83.59647516 752.58002282 -60.79296875 764.43359375 C-59.47425781 765.14128906 -59.47425781 765.14128906 -58.12890625 765.86328125 C-44.98609196 772.41434348 -29.55843383 775.59727322 -14.95179176 775.56502151 C-14.08098392 775.56707415 -13.21017608 775.56912678 -12.31298012 775.57124162 C-9.39269065 775.57689963 -6.47244852 775.57545584 -3.55215454 775.57403564 C-1.43808099 775.57661998 0.67599207 775.57963333 2.79006445 775.58303905 C8.60183995 775.59110448 14.41360309 775.59289837 20.22538352 775.59363651 C26.49285955 775.59548789 32.76032918 775.60303573 39.02780151 775.60977173 C53.44945867 775.62406122 67.87111178 775.62988156 82.29277451 775.63446367 C89.42364485 775.63680123 96.55451439 775.64040409 103.6853841 775.64415905 C128.10791449 775.65699434 152.53044444 775.66771282 176.95297813 775.67116165 C178.48563448 775.67138328 180.01829082 775.67160507 181.55094717 775.671827 C183.08725399 775.67204764 184.62356082 775.67226812 186.15986764 775.67248845 C189.24183234 775.672931 192.32379703 775.67337811 195.40576172 775.67382812 C196.55198077 775.67399221 196.55198077 775.67399221 197.72135577 775.67415961 C222.48569173 775.67778834 247.24999838 775.69370154 272.01432311 775.71701849 C298.21264376 775.74164039 324.41094767 775.75533562 350.60928023 775.75652957 C353.48789891 775.75670102 356.36651759 775.75691644 359.24513626 775.757164 C359.95390391 775.75721977 360.66267157 775.75727554 361.39291703 775.757333 C372.77685473 775.75848148 384.16076225 775.76948637 395.54468977 775.78405106 C406.99826524 775.79845087 418.4517882 775.80138193 429.9053729 775.79361108 C436.10488119 775.7897111 442.3042884 775.79060237 448.50378418 775.80466843 C454.18771896 775.81744638 459.8714771 775.81617563 465.55541177 775.80407771 C467.60327241 775.80212744 469.65114574 775.80516789 471.6989886 775.81392208 C501.5011157 775.93317631 528.7296857 768.93609265 551.20703125 748.43359375 C551.97273437 747.74910156 552.7384375 747.06460938 553.52734375 746.359375 C574.2004967 726.87474826 584.45077009 699.25956243 585.38996506 671.22191429 C585.48467396 666.72371719 585.47470859 662.22623681 585.46240234 657.72729492 C585.46516072 656.0186649 585.4688457 654.31003616 585.47337341 652.60140991 C585.48140944 648.95720365 585.48367338 645.31305844 585.48142624 641.66884422 C585.47856512 635.89704358 585.49304592 630.12536253 585.51040649 624.35359192 C585.55717674 607.95327504 585.58138208 591.55296865 585.58789062 575.15258789 C585.59164779 566.06786261 585.60971966 556.98327517 585.64298499 547.89860898 C585.66311212 542.16962174 585.66561349 536.440992 585.65470481 530.71198404 C585.65208676 527.14301508 585.66615304 523.57425207 585.68478584 520.00533676 C585.69007975 518.36030518 585.68865938 516.71523501 585.67975044 515.07021904 C585.61442247 501.94214293 587.12756744 491.48186075 596.56640625 481.66796875 C604.69719687 474.78806899 613.68836438 472.0190592 624.171875 472.16015625 C633.4731228 472.9981065 641.72338739 476.70153442 648.20703125 483.43359375 C654.74430705 491.82435005 657.45106578 499.55553228 657.46772766 510.15701294 C657.47155321 510.89153242 657.47537876 511.6260519 657.47932023 512.38282955 C657.48956357 514.82186345 657.48567452 517.26065809 657.48168945 519.69970703 C657.48604119 521.45827449 657.49122588 523.21684006 657.49717712 524.97540283 C657.5105406 529.74073856 657.51114787 534.50599481 657.50861382 539.27134562 C657.50754056 543.26608755 657.51243747 547.26081365 657.51721925 551.25555217 C657.52830906 560.69951436 657.52875727 570.14343679 657.52270508 579.58740234 C657.51668927 589.27790369 657.52891637 598.96825896 657.55027515 608.65873539 C657.56800344 617.01417013 657.57387427 625.36955889 657.5706374 633.72501171 C657.56883938 638.69884704 657.57130879 643.67257859 657.58535194 648.64639664 C657.68598378 687.67010371 654.06788709 722.61154274 635.20703125 757.43359375 C634.86833008 758.06120605 634.52962891 758.68881836 634.18066406 759.33544922 C628.33700082 769.99333645 621.09116002 779.21542862 613.20703125 788.43359375 C612.43875 789.34496094 611.67046875 790.25632812 610.87890625 791.1953125 C606.66787209 796.07779109 602.14830152 800.30435041 597.20703125 804.43359375 C596.3459375 805.19414063 595.48484375 805.9546875 594.59765625 806.73828125 C586.68248343 813.60522848 578.26691501 819.18484769 569.20703125 824.43359375 C568.52479492 824.8296582 567.84255859 825.22572266 567.13964844 825.63378906 C538.97115883 841.76241361 508.70527298 847.75766649 476.5304718 847.69429016 C474.34578467 847.69731458 472.1610986 847.70120552 469.97641438 847.70588273 C464.00187444 847.71613408 458.0273947 847.7139882 452.05284989 847.70970213 C445.59799631 847.70722968 439.14315702 847.71625556 432.68830872 847.72373962 C420.05320038 847.73689612 407.41811105 847.73828756 394.78299723 847.73593936 C384.50936853 847.73410353 374.23574607 847.73587238 363.96211815 847.7401638 C362.48377586 847.74076622 361.00543358 847.74136741 359.52709129 847.74196741 C357.29909512 847.74287471 355.07109894 847.74378338 352.84310277 847.74469976 C332.13919028 847.75312431 311.43528012 847.75746847 290.73136616 847.75329304 C289.95155359 847.75313666 289.17174103 847.75298029 288.36829778 847.75281917 C284.41630952 847.75201344 280.46432126 847.75116767 276.51233301 847.75030587 C275.33511424 847.75004924 275.33511424 847.75004924 274.13411327 847.74978742 C272.54703292 847.74944076 270.95995257 847.74909223 269.37287222 847.74874183 C244.6858232 847.74338636 219.99880993 847.75131215 195.31176758 847.76977539 C167.54543847 847.79051751 139.77913149 847.80121383 112.0127942 847.7971999 C109.04887053 847.79680459 106.08494685 847.79644304 103.12102318 847.79610252 C102.39128547 847.79601179 101.66154775 847.79592106 100.90969678 847.79582758 C89.92039776 847.79466433 78.93112119 847.80128915 67.94182777 847.81191444 C55.43466233 847.82399535 42.92754964 847.82521543 30.42038331 847.81312428 C24.04438405 847.80724653 17.66848089 847.80610563 11.2924881 847.81812668 C5.44527152 847.82902227 -0.40176916 847.82583848 -6.24897764 847.81186499 C-8.35386302 847.80922816 -10.45876235 847.81155238 -12.563634 847.81960086 C-29.27801424 847.87902929 -45.47371543 846.49917147 -61.54296875 841.62109375 C-62.41655029 841.36247559 -63.29013184 841.10385742 -64.19018555 840.83740234 C-109.56251711 827.09376059 -147.39539106 796.10351077 -170.2043457 754.58056641 C-178.70005809 738.43544463 -184.37941456 721.32283948 -187.79296875 703.43359375 C-188.05201257 702.15804624 -188.05201257 702.15804624 -188.3162896 700.8567301 C-190.24070917 690.19647508 -190.07482134 679.59957177 -190.05366516 668.80136108 C-190.05668896 666.60928741 -190.06057959 664.41721479 -190.06525773 662.22514403 C-190.07551716 656.22554169 -190.07336112 650.22599924 -190.06907713 644.22639203 C-190.06660614 637.74629911 -190.07562878 631.26622047 -190.08311462 624.78613281 C-190.09627577 612.09941834 -190.09766201 599.41272279 -190.09531436 586.72600286 C-190.09347894 576.41039754 -190.09524653 566.09479842 -190.0995388 555.77919388 C-190.10014122 554.29510794 -190.10074241 552.81102201 -190.10134241 551.32693607 C-190.1022497 549.0903082 -190.10315837 546.85368033 -190.10407476 544.61705246 C-190.11250029 523.83062041 -190.11684282 503.0441907 -190.11266804 482.25775719 C-190.11251166 481.47471289 -190.11235529 480.69166859 -190.11219417 479.88489567 C-190.11138844 475.91648348 -190.11054267 471.9480713 -190.10968087 467.97965913 C-190.10950978 467.19157839 -190.10933869 466.40349766 -190.10916242 465.59153569 C-190.10881576 463.99784549 -190.10846723 462.40415529 -190.10811683 460.8104651 C-190.10276185 436.02288062 -190.11068536 411.23533174 -190.12915039 386.44775391 C-190.14989238 358.57119562 -190.1605888 330.69465938 -190.1565749 302.81809294 C-190.15617959 299.84235804 -190.15581804 296.86662313 -190.15547752 293.89088821 C-190.15538679 293.1582377 -190.15529606 292.42558719 -190.15520258 291.67073514 C-190.15403927 280.63692991 -190.16066468 269.60314703 -190.17128944 258.56934738 C-190.1833703 246.01092085 -190.18459055 233.45254684 -190.17249928 220.89411943 C-190.16662133 214.49179879 -190.16548117 208.08957386 -190.17750168 201.68725967 C-190.18839668 195.81594794 -190.18521416 189.9448114 -190.17123999 184.07350774 C-190.16860298 181.95984421 -190.17092794 179.84616678 -190.17897586 177.73251693 C-190.23823956 160.99387194 -188.86746071 144.77627973 -183.98046875 128.68359375 C-183.72040039 127.80783691 -183.46033203 126.93208008 -183.19238281 126.02978516 C-177.21686862 106.34807045 -168.1726442 87.8870198 -155.79296875 71.43359375 C-155.16003906 70.58925781 -154.52710938 69.74492187 -153.875 68.875 C-125.0712362 31.75674768 -83.58890687 7.83514752 -37.0685606 1.42720699 C-24.74467705 -0.11682147 -12.40103129 -0.0192941 0 0 Z " fill="#030303" transform="translate(189.79296875,134.56640625)"/>
<path d="M0 0 C0.66 0.33 1.32 0.66 2 1 C-8.23 11.23 -18.46 21.46 -29 32 C-29.66 31.67 -30.32 31.34 -31 31 C-21.68218297 20.33386837 -11.83832298 10.13341825 -1 1 C-0.67 0.67 -0.34 0.34 0 0 Z " fill="#636363" transform="translate(341,277)"/>
<path d="M0 0 C0.66 0.33 1.32 0.66 2 1 C-4.6 7.6 -11.2 14.2 -18 21 C-18.66 20.67 -19.32 20.34 -20 20 C-13.6688763 12.89967436 -7.30341903 6.13126536 0 0 Z " fill="#6B6B6B" transform="translate(63,175)"/>
<path d="M0 0 C0.66 0.33 1.32 0.66 2 1 C0.38113585 2.67262717 -1.2452729 4.33795537 -2.875 6 C-3.77992188 6.928125 -4.68484375 7.85625 -5.6171875 8.8125 C-8 11 -8 11 -10 11 C-8.55218207 7.55571735 -6.72305391 5.63869038 -3.875 3.25 C-3.15054688 2.63640625 -2.42609375 2.0228125 -1.6796875 1.390625 C-0.84824219 0.70226562 -0.84824219 0.70226562 0 0 Z " fill="#616161" transform="translate(792,612)"/>
</svg>
