<?xml version="1.0" encoding="UTF-8"?>
<svg version="1.1" xmlns="http://www.w3.org/2000/svg" width="2000" height="2000">
<path d="M0 0 C2.52799798 0.00564187 5.05598925 0.0084613 7.583992 0.0110817 C30.80710512 0.04608162 53.91260756 0.25054635 76.9956131 3.06158829 C79.2557419 3.33503452 81.51715009 3.59537833 83.77899933 3.85419083 C168.058094 13.58823582 248.3053668 38.10947818 409.3395462 124.10272598 C411.19315114 125.37125023 413.05425669 126.62822612 414.91620636 127.88446426 C430.63839688 138.53750584 445.8001889 149.84479276 460.43915558 161.94159317 C462.68305823 163.78416863 464.96063509 165.58267483 467.24042511 167.38055801 C477.7305413 175.76210814 487.7257135 184.68452704 497.53290558 193.84881973 C499.06185196 195.26831978 500.60321787 196.67258772 502.15058136 198.07196426 C508.93980037 204.22925119 515.49910362 210.59736175 521.99042511 217.06805801 C522.78722687 217.86026749 523.58402863 218.65247696 524.40497589 219.46869278 C528.60184022 223.67656211 532.63511931 227.96428727 536.5114212 232.46893692 C538.93118437 235.2584782 541.46447101 237.93756707 543.99042511 240.63055801 C548.4740978 245.45041879 552.73166741 250.3930978 556.85370636 255.52899551 C558.86154292 258.00498049 560.91608009 260.43222459 562.99555206 262.84808731 C570.05706686 271.06995083 576.63777112 279.63154141 583.11542511 288.31805801 C583.62798859 289.00432266 584.14055206 289.69058731 584.66864777 290.39764786 C637.51227039 361.50278427 678.22631238 442.8635071 729.11542511 678.31805801 C729.2104129 679.60695938 729.3054007 680.89586075 729.40326691 682.22381973 C730.41022755 696.94483421 730.31570695 711.69483855 730.30292511 726.44305801 C730.30265823 727.13234138 730.30239136 727.82162476 730.30211639 728.5317955 C730.29207403 749.19275584 730.1231401 769.73625152 728.11542511 790.31805801 C727.98496196 791.71142611 727.85476455 793.1048191 727.72480011 794.4982338 C724.37325121 829.91774245 718.41015715 864.72973329 710.11542511 899.31805801 C709.68060822 901.13805313 709.68060822 901.13805313 709.23700714 902.99481583 C699.97960469 941.24577587 686.91748966 978.29909392 671.11542511 1014.31805801 C670.74240265 1015.17447891 670.36938019 1016.03089981 669.98505402 1016.91327286 C659.80078717 1040.23612791 648.69835644 1063.19313634 636.11542511 1085.31805801 C635.56918488 1086.28018204 635.02294464 1087.24230606 634.46015167 1088.23358536 C613.08196591 1125.72772805 588.69939576 1161.12378825 561.11542511 1194.31805801 C560.69293488 1194.82691544 560.27044464 1195.33577286 559.83515167 1195.8600502 C553.93216591 1202.95311929 547.86512854 1209.85530265 541.59198761 1216.62274551 C539.59196159 1218.79942998 537.65344205 1221.00328684 535.74042511 1223.25555801 C530.99583188 1228.73717543 525.75282085 1233.75749849 520.59955597 1238.85028458 C517.03381294 1242.37672759 513.50187198 1245.93657133 509.97089386 1249.49774551 C508.41496612 1251.06291116 506.85897491 1252.62801371 505.30292511 1254.19305801 C504.53399933 1254.9703627 503.76507355 1255.74766739 502.97284698 1256.54852676 C498.18663182 1261.35493693 493.25853396 1265.89865652 488.11542511 1270.31805801 C486.50774138 1271.77251318 484.90302796 1273.23026696 483.30292511 1274.69305801 C479.03797203 1278.53734046 474.66681661 1282.21332707 470.20136261 1285.82196426 C467.96602694 1287.63003957 465.74354306 1289.44918565 463.52948761 1291.28290176 C385.19010777 1355.94224004 290.35489226 1403.76986974 63.11542511 1453.31805801 C61.88372589 1453.42102188 60.65202667 1453.52398575 59.38300323 1453.63006973 C20.18652196 1456.8061287 -19.70280184 1456.68208751 -58.88457489 1453.31805801 C-59.62632965 1453.25489395 -60.36808441 1453.19172989 -61.13231659 1453.12665176 C-143.6943487 1446.00746774 -224.70904769 1425.04597709 -414.88457489 1325.31805801 C-415.61370087 1324.80001602 -416.34282684 1324.28197403 -417.09404755 1323.7482338 C-440.07893807 1307.38042653 -462.39780534 1289.94178828 -483.15410614 1270.80243301 C-485.28377727 1268.86470649 -487.43907445 1266.982112 -489.62285614 1265.10712051 C-494.39689678 1260.94395476 -498.81932334 1256.45646033 -503.25957489 1251.94305801 C-504.84841014 1250.3288014 -506.43944392 1248.71670475 -508.03301239 1247.10712051 C-508.72572235 1246.40280899 -509.41843231 1245.69849747 -510.13213348 1244.97284317 C-511.79623902 1243.24184327 -511.79623902 1243.24184327 -513.88457489 1242.31805801 C-513.88457489 1241.65805801 -513.88457489 1240.99805801 -513.88457489 1240.31805801 C-514.47754364 1240.06282364 -515.07051239 1239.80758926 -515.68144989 1239.54462051 C-518.11131979 1238.19182061 -519.37693755 1236.83464526 -521.13457489 1234.69305801 C-523.60848788 1231.76453708 -526.14724883 1229.00233512 -528.88457489 1226.31805801 C-531.99403261 1223.24413696 -534.92810091 1220.08844513 -537.77519989 1216.77118301 C-539.47982935 1214.78876209 -541.20017676 1212.82394975 -542.93144989 1210.86493301 C-564.76345718 1186.08695829 -564.76345718 1186.08695829 -564.15410614 1170.04071426 C-562.5600094 1153.93802688 -548.65301275 1143.96688165 -537.75957489 1133.19305801 C-535.29560461 1130.75598837 -532.83519181 1128.31540313 -530.37676239 1125.87274551 C-529.55460739 1125.06303802 -529.55460739 1125.06303802 -528.7158432 1124.23697281 C-525.94244811 1121.48083024 -523.2974589 1118.6684643 -520.75650787 1115.69594193 C-516.59678565 1110.92370873 -512.17513489 1106.43869129 -507.71147919 1101.95209122 C-506.81943787 1101.05187241 -505.92739655 1100.15165359 -505.00832367 1099.22415543 C-502.07881957 1096.26872553 -499.14412909 1093.31847587 -496.20879364 1090.36883926 C-495.19148933 1089.34616553 -494.17418907 1088.32348776 -493.15689278 1087.30080605 C-488.9236796 1083.04601885 -484.68904803 1078.79265175 -480.45069408 1074.54298496 C-474.40792178 1068.48396574 -468.37381581 1062.41660055 -462.35142773 1056.33731776 C-458.09671087 1052.04379789 -453.83235535 1047.76000206 -449.56083232 1043.48320264 C-447.01799525 1040.93673007 -444.47942802 1038.38633172 -441.95113945 1035.82540703 C-439.12985381 1032.96821684 -436.28884788 1030.13143219 -433.44585419 1027.29584122 C-432.21185127 1026.0372303 -432.21185127 1026.0372303 -430.95291901 1024.7531929 C-423.12610638 1017.00919838 -415.00668043 1012.29743883 -403.88457489 1011.94305801 C-395.38786405 1012.06675033 -388.54539665 1014.00863318 -382.15801239 1019.78290176 C-377.73979568 1024.54149469 -373.77439845 1029.65332517 -369.84551239 1034.81805801 C-367.35520795 1037.99294814 -364.75736051 1041.06476265 -362.13457489 1044.13055801 C-361.68163055 1044.66269913 -361.22868622 1045.19484024 -360.7620163 1045.74310684 C-352.31444417 1055.57061319 -343.41997395 1064.95094455 -334.24028778 1074.09271622 C-332.683681 1075.64390529 -331.13257318 1077.20045194 -329.58184052 1078.75751114 C-324.18862088 1084.15458407 -318.70968202 1089.38454048 -312.88457489 1094.31805801 C-311.92035614 1095.16368301 -310.95613739 1096.00930801 -309.96269989 1096.88055801 C-300.31386779 1105.1966785 -290.16996232 1112.80989877 -279.88457489 1120.31805801 C-279.06005829 1120.92085587 -278.23554169 1121.52365372 -277.38603973 1122.14471817 C-264.68497383 1131.37474799 -251.55314028 1139.60072024 -237.88457489 1147.31805801 C-236.95193817 1147.84754044 -236.01930145 1148.37702286 -235.05840302 1148.9225502 C-165.16833535 1188.37662066 -87.14703459 1209.47470966 -6.88457489 1211.31805801 C-6.10839813 1211.33997208 -5.33222137 1211.36188614 -4.53252411 1211.38446426 C67.00762816 1213.22551472 138.16839931 1196.74375303 203.11542511 1167.31805801 C203.93591339 1166.9526088 204.75640167 1166.58715958 205.60175323 1166.21063614 C218.14634132 1160.61952086 230.14725437 1154.04139382 242.11542511 1147.31805801 C243.22869171 1146.69592422 243.22869171 1146.69592422 244.36444855 1146.06122208 C268.2787069 1132.62134174 291.46947715 1116.8453601 312.18964386 1098.84149551 C315.05376245 1096.37124103 317.97707735 1093.9960803 320.92792511 1091.63055801 C324.94838872 1088.36174629 328.6262901 1084.92060299 332.23261261 1081.20477676 C334.06273376 1079.37085868 335.95659697 1077.68557653 337.92792511 1076.00555801 C345.24861011 1069.69362882 352.05474816 1062.74287847 358.32245636 1055.38837051 C360.44689335 1052.93531691 362.65731148 1050.57102654 364.86542511 1048.19305801 C370.11434044 1042.42954314 374.91617907 1036.38330005 379.66034698 1030.2013588 C381.11407701 1028.31980285 382.58889114 1026.45661107 384.06855011 1024.59540176 C398.08554161 1006.81601334 410.80032056 987.68505154 421.7199173 967.85174942 C422.71339958 966.04797771 423.71492062 964.24862362 424.72187042 962.45233536 C480.5278458 862.81243574 498.52588084 746.78150012 468.37323761 596.93133926 C459.2252838 565.50815864 446.7115104 535.59599888 432.11542511 506.31805801 C431.69438507 505.47194962 431.27334503 504.62584122 430.8395462 503.75409317 C418.36026651 478.88097387 403.15269727 455.30837252 386.11542511 433.31805801 C385.70115265 432.77906876 385.28688019 432.2400795 384.86005402 431.68475723 C377.90298423 422.64133923 370.6669464 413.8714395 363.11542511 405.31805801 C362.67214874 404.81548477 362.22887238 404.31291153 361.77216339 403.7951088 C354.75754533 395.90137411 347.318228 388.41966585 339.86542511 380.94305801 C339.39356781 380.46852188 338.92171051 379.99398575 338.4355545 379.50506973 C332.84031504 373.88574327 327.18015811 368.42864793 321.11542511 363.31805801 C320.47057159 362.77181778 319.82571808 362.22557755 319.16132355 361.66278458 C290.41191355 337.4713805 259.39197693 316.76829742 226.11542511 299.31805801 C224.63743439 298.53712784 224.63743439 298.53712784 223.12958527 297.7404213 C171.81389979 270.78349915 115.88591131 253.86485844 58.36542511 247.06805801 C57.66121429 246.98479263 56.95700348 246.90152725 56.23145294 246.81573868 C38.75569991 244.77808749 21.44810967 244.07801911 3.86542511 244.06805801 C2.78850403 244.06738327 1.71158295 244.06670853 0.60202789 244.06601334 C-76.26817309 244.14201344 -150.13713526 263.04359983 -218.88457489 297.31805801 C-220.17404022 297.95976944 -220.17404022 297.95976944 -221.48955536 298.61444473 C-250.92603612 313.38247817 -278.90943767 332.21044951 -303.84941864 353.72040176 C-306.77747138 356.22639285 -309.75625645 358.65314482 -312.75957489 361.06805801 C-317.08091133 364.57953931 -321.04495539 368.29160282 -324.88457489 372.31805801 C-320.58955055 377.45209179 -316.08759468 382.24888189 -311.33794403 386.96234512 C-310.60704056 387.69178833 -309.87613708 388.42123154 -309.12308502 389.17277908 C-307.54626023 390.74581816 -305.9682819 392.31770161 -304.38926125 393.88853645 C-301.88509043 396.37986482 -299.38412572 398.8743725 -296.88394928 401.36970901 C-290.67493407 407.5654015 -284.46049048 413.75563998 -278.24620819 419.94604874 C-272.98881367 425.18365935 -267.73350674 430.42334798 -262.48091698 435.66577721 C-260.02638202 438.11386682 -257.56883593 440.55890544 -255.11115265 443.00383377 C-253.5941526 444.51719836 -252.07729441 446.03070519 -250.56060028 447.54437637 C-249.88453735 448.21527298 -249.20847443 448.88616959 -248.51192474 449.57739639 C-244.66598814 453.42290965 -241.03052006 457.38840792 -237.47628498 461.50441647 C-235.41304116 463.85533749 -233.23028686 466.05628459 -230.99419403 468.24261856 C-230.09958969 469.12100891 -229.20498535 469.99939926 -228.28327179 470.9044075 C-227.58368945 471.58807923 -227.58368945 471.58807923 -226.86997414 472.28556252 C-224.86381966 474.24879421 -222.86770474 476.2221141 -220.87077999 478.19472599 C-217.1742789 481.84598289 -213.4740296 485.49322335 -209.75688934 489.12347794 C-207.15050727 491.66970845 -204.55716794 494.22863925 -201.97139549 496.79578972 C-200.53147401 498.21861844 -199.07835928 499.62805706 -197.62482452 501.03697586 C-185.81322868 512.80113691 -177.91881735 526.22092719 -177.57207489 543.19305801 C-177.55171894 561.53829275 -185.64868898 578.4843239 -198.09160614 591.65399551 C-214.20867229 607.32842818 -234.27362928 607.47304165 -255.36170197 607.45177078 C-257.12663292 607.45364137 -258.89156347 607.45594306 -260.65649337 607.45863611 C-265.48449027 607.46472978 -270.3124698 607.46462339 -275.14046967 607.46344173 C-280.35600113 607.46323711 -285.57152709 607.46876228 -290.78705597 607.4734993 C-300.99649965 607.48179274 -311.20593756 607.48455354 -321.41538433 607.48511168 C-329.71591845 607.4855874 -338.01645066 607.48764494 -346.31698418 607.4908123 C-369.86553838 607.49961483 -393.41408804 607.50423223 -416.9626439 607.50348183 C-418.23118044 607.50344187 -419.49971699 607.50340192 -420.80669403 607.50336075 C-422.07678429 607.50331987 -423.34687455 607.50327899 -424.65545239 607.50323687 C-445.24118978 607.50283037 -465.82690887 607.51240183 -486.41264097 607.52649911 C-507.56463023 607.54086958 -528.71661057 607.54776895 -549.86860484 607.54690534 C-561.73798342 607.54657363 -573.60734282 607.54930931 -585.476717 607.56008339 C-595.58144365 607.56919714 -605.68614243 607.57135639 -615.79087142 607.56457397 C-620.9429547 607.56131338 -626.09498452 607.56123548 -631.24706268 607.56992722 C-635.97028511 607.57781331 -640.69341186 607.5763393 -645.41663202 607.56764308 C-647.11842573 607.56611275 -648.82022666 607.56790651 -650.52201185 607.57350316 C-672.39060643 607.64061612 -691.04701333 604.85197841 -707.57207489 589.19305801 C-722.12442048 573.95467328 -725.5043391 558.11325138 -725.39250946 537.80354691 C-725.3971266 535.96248856 -725.40348494 534.12143391 -725.41141844 532.28038687 C-725.42802341 527.25577326 -725.41990576 522.2314659 -725.40747356 517.2068516 C-725.39838899 511.77456502 -725.4124097 506.34232954 -725.42339325 500.91005325 C-725.44114711 490.28154443 -725.43735233 479.65314882 -725.42574269 469.02463562 C-725.41669583 460.38330746 -725.41548979 451.74201094 -725.41983795 443.1006794 C-725.42045088 441.86909599 -725.42106382 440.63751258 -725.42169532 439.36860846 C-725.42297427 436.86637389 -725.42427113 434.36413934 -725.42558569 431.86190479 C-725.43665778 409.08516896 -725.42519033 386.30849077 -725.4042153 363.53176475 C-725.38523683 342.76526505 -725.38693104 321.99886349 -725.40605927 301.23236465 C-725.42750589 277.87112745 -725.43588154 254.50994446 -725.42361021 231.14869875 C-725.42233607 228.65554997 -725.42107858 226.16240119 -725.41983795 223.6692524 C-725.41922085 222.44269973 -725.41860375 221.21614706 -725.41796795 219.95242612 C-725.41452023 211.32609624 -725.42033096 202.69980127 -725.42975616 194.07347679 C-725.44099742 183.55416256 -725.43789148 173.03496766 -725.41663319 162.51566703 C-725.4061511 157.15276403 -725.40195238 151.79005969 -725.4152298 146.42715836 C-725.4272186 141.51021985 -725.42048488 136.59366265 -725.39931959 131.67675834 C-725.39488086 129.9057276 -725.39705774 128.13466412 -725.40682274 126.36365474 C-725.48239627 111.50856757 -724.01107593 97.66442273 -714.88457489 85.31805801 C-714.05699677 84.18303848 -714.05699677 84.18303848 -713.21269989 83.02508926 C-702.3772122 69.57334065 -684.59604197 61.93112377 -667.88457489 59.31805801 C-654.21052739 58.04645869 -640.07125334 61.61644867 -629.33281708 70.4069252 C-619.67128159 79.36386252 -610.41084714 88.71495606 -601.13457489 98.06805801 C-597.87192898 101.35749398 -594.60584028 104.6434569 -591.33769989 107.92743301 C-590.60730499 108.66612625 -589.8769101 109.40481949 -589.12438202 110.16589737 C-588.42295074 110.87063187 -587.72151947 111.57536636 -586.9988327 112.30145645 C-586.09382019 113.21432419 -586.09382019 113.21432419 -585.1705246 114.1456337 C-583.19614088 116.02196509 -581.18108757 117.80401971 -579.12023163 119.5833931 C-574.90416155 123.25232345 -570.94015337 127.12817874 -566.99980927 131.08929825 C-566.25736969 131.8315918 -565.51493011 132.57388535 -564.74999237 133.33867264 C-562.32372212 135.76563337 -559.90100214 138.19610483 -557.47832489 140.62665176 C-555.78603912 142.32080479 -554.09353082 144.01473555 -552.40081024 145.70845413 C-547.96650131 150.14656401 -543.53520492 154.5876698 -539.10454559 159.02942276 C-534.57471697 163.5695178 -530.04202299 168.10675018 -525.50957489 172.64422989 C-516.63178062 181.53271871 -507.75707094 190.42428066 -498.88457489 199.31805801 C-497.76717717 198.36283261 -496.65014095 197.40718433 -495.53325653 196.4513588 C-494.91116806 195.91922775 -494.28907959 195.38709671 -493.64813995 194.83884048 C-491.50655347 192.99207721 -489.41110924 191.09897486 -487.32207489 189.19305801 C-470.20391944 173.75062561 -452.36565342 159.09725168 -433.88457489 145.31805801 C-433.20411102 144.80984512 -432.52364716 144.30163223 -431.82256317 143.77801895 C-412.27408586 129.24993551 -391.86888483 115.68064544 -370.88457489 103.31805801 C-369.96515106 102.77149551 -369.04572723 102.22493301 -368.09844208 101.66180801 C-301.06327374 61.89850816 -227.86802202 33.04070247 -83.19707489 4.50555801 C-81.96755096 4.35623322 -81.96755096 4.35623322 -80.71318817 4.20389175 C-74.7776754 3.49363449 -68.83635123 2.87531693 -62.88457489 2.31805801 C-61.89042572 2.22483261 -60.89627655 2.13160721 -59.87200165 2.03555679 C-39.90950815 0.2350144 -20.02708989 -0.04539721 0 0 Z " fill="#4C4C4C" transform="translate(997.8845748901367,272.681941986084)"/>
</svg>
