<?xml version="1.0" encoding="UTF-8"?>
<svg version="1.1" xmlns="http://www.w3.org/2000/svg" width="512" height="512">
<path d="M0 0 C4.56770424 3.82319652 8.91933549 7.77557784 13.11875916 11.99850464 C13.69235391 12.57124497 14.26594866 13.14398529 14.85692507 13.73408139 C16.75847586 15.63399865 18.65645484 17.53744257 20.55444336 19.44091797 C21.92470165 20.81145862 23.29518074 22.18177854 24.66586304 23.55189514 C28.37211787 27.2578639 32.07528847 30.9669006 35.77790141 34.67650747 C39.65316317 38.55803432 43.53127029 42.43671619 47.40907288 46.31570435 C54.74549462 53.65523011 62.0793642 60.99730054 69.412314 68.34029496 C77.76342126 76.70259222 86.11737928 85.0620391 94.47157466 93.42125106 C111.65088411 110.61100385 128.82662119 127.80432237 146 145 C150.10941887 143.3728341 152.86075275 140.4123638 155.90985107 137.33065796 C156.49721676 136.74500112 157.08458245 136.15934428 157.6897471 135.55594027 C159.65830158 133.59068218 161.61961879 131.61835708 163.58105469 129.64599609 C164.99006421 128.23642249 166.39951416 126.82728901 167.80937195 125.41856384 C171.63788476 121.59062567 175.46019285 117.75654524 179.28143597 113.92135191 C183.27505651 109.91524253 187.27432838 105.9147831 191.27301025 101.91372681 C198.84528257 94.3352343 206.41244151 86.75165721 213.97778726 79.16625082 C222.59046162 70.53123426 231.20880477 61.90188511 239.82763433 53.27301288 C257.55808164 35.52165135 275.28138002 17.76316649 293 0 C294.12048771 0.95497508 295.24020491 1.91085426 296.35959721 2.86711311 C296.98322244 3.39932099 297.60684767 3.93152886 298.24937063 4.47986424 C300.31155246 6.27053244 302.2634556 8.14325995 304.19116211 10.07763672 C304.93140121 10.81795135 305.67164032 11.55826599 306.43431091 12.3210144 C307.20751175 13.09937653 307.98071259 13.87773865 308.77734375 14.6796875 C309.58869278 15.49245148 310.40004181 16.30521545 311.23597717 17.14260864 C313.8055259 19.71771738 316.37155968 22.2962962 318.9375 24.875 C320.68791929 26.63043946 322.438568 28.38565017 324.18945312 30.140625 C328.46229302 34.42444082 332.73225899 38.71110472 337 43 C333.17680348 47.56770424 329.22442216 51.91933549 325.00149536 56.11875916 C324.42875503 56.69235391 323.85601471 57.26594866 323.26591861 57.85692507 C321.36600135 59.75847586 319.46255743 61.65645484 317.55908203 63.55444336 C316.18854138 64.92470165 314.81822146 66.29518074 313.44810486 67.66586304 C309.7421361 71.37211787 306.0330994 75.07528847 302.32349253 78.77790141 C298.44196568 82.65316317 294.56328381 86.53127029 290.68429565 90.40907288 C283.34476989 97.74549462 276.00269946 105.0793642 268.65970504 112.412314 C260.29740778 120.76342126 251.9379609 129.11737928 243.57874894 137.47157466 C226.38899615 154.65088411 209.19567763 171.82662119 192 189 C193.6271659 193.10941887 196.5876362 195.86075275 199.66934204 198.90985107 C200.25499888 199.49721676 200.84065572 200.08458245 201.44405973 200.6897471 C203.40931782 202.65830158 205.38164292 204.61961879 207.35400391 206.58105469 C208.76357751 207.99006421 210.17271099 209.39951416 211.58143616 210.80937195 C215.40937433 214.63788476 219.24345476 218.46019285 223.07864809 222.28143597 C227.08475747 226.27505651 231.0852169 230.27432838 235.08627319 234.27301025 C242.6647657 241.84528257 250.24834279 249.41244151 257.83374918 256.97778726 C266.46876574 265.59046162 275.09811489 274.20880477 283.72698712 282.82763433 C301.47834865 300.55808164 319.23683351 318.28138002 337 336 C336.04502492 337.12048771 335.08914574 338.24020491 334.13288689 339.35959721 C333.33457508 340.29503505 333.33457508 340.29503505 332.52013576 341.24937063 C330.72946756 343.31155246 328.85674005 345.2634556 326.92236328 347.19116211 C326.18204865 347.93140121 325.44173401 348.67164032 324.6789856 349.43431091 C323.90062347 350.20751175 323.12226135 350.98071259 322.3203125 351.77734375 C321.10116653 352.99436729 321.10116653 352.99436729 319.85739136 354.23597717 C317.28228262 356.8055259 314.7037038 359.37155968 312.125 361.9375 C310.36956054 363.68791929 308.61434983 365.438568 306.859375 367.18945312 C302.57555918 371.46229302 298.28889528 375.73225899 294 380 C289.43229576 376.17680348 285.08066451 372.22442216 280.88124084 368.00149536 C280.30764609 367.42875503 279.73405134 366.85601471 279.14307493 366.26591861 C277.24152414 364.36600135 275.34354516 362.46255743 273.44555664 360.55908203 C272.07529835 359.18854138 270.70481926 357.81822146 269.33413696 356.44810486 C265.62788213 352.7421361 261.92471153 349.0330994 258.22209859 345.32349253 C254.34683683 341.44196568 250.46872971 337.56328381 246.59092712 333.68429565 C239.25450538 326.34476989 231.9206358 319.00269946 224.587686 311.65970504 C216.23657874 303.29740778 207.88262072 294.9379609 199.52842534 286.57874894 C182.34911589 269.38899615 165.17337881 252.19567763 148 235 C143.89058113 236.6271659 141.13924725 239.5876362 138.09014893 242.66934204 C137.50278324 243.25499888 136.91541755 243.84065572 136.3102529 244.44405973 C134.34169842 246.40931782 132.38038121 248.38164292 130.41894531 250.35400391 C129.00993579 251.76357751 127.60048584 253.17271099 126.19062805 254.58143616 C122.36211524 258.40937433 118.53980715 262.24345476 114.71856403 266.07864809 C110.72494349 270.08475747 106.72567162 274.0852169 102.72698975 278.08627319 C95.15471743 285.6647657 87.58755849 293.24834279 80.02221274 300.83374918 C71.40953838 309.46876574 62.79119523 318.09811489 54.17236567 326.72698712 C36.44191836 344.47834865 18.71861998 362.23683351 1 380 C-0.12048771 379.04502492 -1.24020491 378.08914574 -2.35959721 377.13288689 C-3.29503505 376.33457508 -3.29503505 376.33457508 -4.24937063 375.52013576 C-6.31155246 373.72946756 -8.2634556 371.85674005 -10.19116211 369.92236328 C-10.93140121 369.18204865 -11.67164032 368.44173401 -12.43431091 367.6789856 C-13.20751175 366.90062347 -13.98071259 366.12226135 -14.77734375 365.3203125 C-15.99436729 364.10116653 -15.99436729 364.10116653 -17.23597717 362.85739136 C-19.8055259 360.28228262 -22.37155968 357.7037038 -24.9375 355.125 C-26.68791929 353.36956054 -28.438568 351.61434983 -30.18945312 349.859375 C-34.46229302 345.57555918 -38.73225899 341.28889528 -43 337 C-39.17680348 332.43229576 -35.22442216 328.08066451 -31.00149536 323.88124084 C-30.42875503 323.30764609 -29.85601471 322.73405134 -29.26591861 322.14307493 C-27.36600135 320.24152414 -25.46255743 318.34354516 -23.55908203 316.44555664 C-22.18854138 315.07529835 -20.81822146 313.70481926 -19.44810486 312.33413696 C-15.7421361 308.62788213 -12.0330994 304.92471153 -8.32349253 301.22209859 C-4.44196568 297.34683683 -0.56328381 293.46872971 3.31570435 289.59092712 C10.65523011 282.25450538 17.99730054 274.9206358 25.34029496 267.587686 C33.70259222 259.23657874 42.0620391 250.88262072 50.42125106 242.52842534 C67.61100385 225.34911589 84.80432237 208.17337881 102 191 C100.3728341 186.89058113 97.4123638 184.13924725 94.33065796 181.09014893 C93.74500112 180.50278324 93.15934428 179.91541755 92.55594027 179.3102529 C90.59068218 177.34169842 88.61835708 175.38038121 86.64599609 173.41894531 C85.23642249 172.00993579 83.82728901 170.60048584 82.41856384 169.19062805 C78.59062567 165.36211524 74.75654524 161.53980715 70.92135191 157.71856403 C66.91524253 153.72494349 62.9147831 149.72567162 58.91372681 145.72698975 C51.3352343 138.15471743 43.75165721 130.58755849 36.16625082 123.02221274 C27.53123426 114.40953838 18.90188511 105.79119523 10.27301288 97.17236567 C-7.47834865 79.44191836 -25.23683351 61.71861998 -43 44 C-42.04502492 42.87951229 -41.08914574 41.75979509 -40.13288689 40.64040279 C-39.60067901 40.01677756 -39.06847114 39.39315233 -38.52013576 38.75062937 C-36.72946756 36.68844754 -34.85674005 34.7365444 -32.92236328 32.80883789 C-32.18204865 32.06859879 -31.44173401 31.32835968 -30.6789856 30.56568909 C-29.90062347 29.79248825 -29.12226135 29.01928741 -28.3203125 28.22265625 C-27.50754852 27.41130722 -26.69478455 26.59995819 -25.85739136 25.76402283 C-23.28228262 23.1944741 -20.7037038 20.62844032 -18.125 18.0625 C-16.36956054 16.31208071 -14.61434983 14.561432 -12.859375 12.81054688 C-8.57555918 8.53770698 -4.28889528 4.26774101 0 0 Z " fill="#000000" transform="translate(109,66)"/>
</svg>
